<svg width="376" height="384" viewBox="0 0 376 384" fill="none" xmlns="http://www.w3.org/2000/svg">
<g filter="url(#filter0_d_375_7624)">
<path d="M8 4H368V364C368 368.418 364.418 372 360 372H16C11.5817 372 8 368.418 8 364V4Z" fill="#ED0641"/>
<path d="M319 335.5C319 342.407 260.347 348 188 348C115.653 348 57 342.402 57 335.5C57 328.598 115.653 323 188 323C260.347 323 319 328.598 319 335.5Z" fill="white"/>
<path d="M125.039 308.101H118.574V315.634H125.039V308.101Z" fill="#F5F5F5"/>
<path d="M118.794 307.611H89.5762V316.109H118.794V307.611Z" fill="#E0E0E0"/>
<path d="M125.236 308.324H118.016V307.611H125.236C125.437 307.611 125.6 307.771 125.6 307.968C125.6 308.164 125.437 308.324 125.236 308.324Z" fill="#E0E0E0"/>
<path d="M125.236 316.11H118.016V315.396H125.236C125.437 315.396 125.6 315.556 125.6 315.753C125.6 315.949 125.437 316.11 125.236 316.11Z" fill="#E0E0E0"/>
<path d="M116.503 307.611H113.049V316.109H116.503V307.611Z" fill="#EBEBEB"/>
<path d="M95.6258 307.611H92.1719V316.109H95.6258V307.611Z" fill="#EBEBEB"/>
<path d="M125.039 309.349C125.039 309.349 123.638 309.386 121.911 309.386C120.184 309.386 118.784 309.367 118.784 309.349C118.784 309.331 120.184 309.312 121.911 309.312C123.638 309.312 125.039 309.331 125.039 309.349Z" fill="#E0E0E0"/>
<path d="M125.039 310.479C125.039 310.479 123.638 310.516 121.911 310.516C120.184 310.516 118.784 310.497 118.784 310.479C118.784 310.461 120.184 310.442 121.911 310.442C123.638 310.442 125.039 310.461 125.039 310.479Z" fill="#E0E0E0"/>
<path d="M125.039 311.869C125.039 311.869 123.638 311.906 121.911 311.906C120.184 311.906 118.784 311.887 118.784 311.869C118.784 311.851 120.184 311.833 121.911 311.833C123.638 311.833 125.039 311.851 125.039 311.869Z" fill="#E0E0E0"/>
<path d="M125.039 313.26C125.039 313.26 123.638 313.296 121.911 313.296C120.184 313.296 118.784 313.278 118.784 313.26C118.784 313.241 120.184 313.223 121.911 313.223C123.638 313.223 125.039 313.241 125.039 313.26Z" fill="#E0E0E0"/>
<path d="M125.039 314.65C125.039 314.65 123.638 314.687 121.911 314.687C120.184 314.687 118.784 314.669 118.784 314.65C118.784 314.632 120.184 314.614 121.911 314.614C123.638 314.614 125.039 314.632 125.039 314.65Z" fill="#E0E0E0"/>
<path d="M111.19 311.105H98.0469V312.638H111.19V311.105Z" fill="#EBEBEB"/>
<path d="M124.975 316.274H118.412V320.862H124.975V316.274Z" fill="#FAFAFA"/>
<path d="M118.486 316.109H90.5469V321.031H118.486V316.109Z" fill="#EBEBEB"/>
<path d="M118.281 316.443H125.338C125.432 316.443 125.506 316.37 125.506 316.278C125.506 316.187 125.432 316.114 125.338 316.114H118.281V316.448V316.443Z" fill="#EBEBEB"/>
<path d="M118.281 320.697H125.338C125.432 320.697 125.506 320.77 125.506 320.862C125.506 320.958 125.432 321.031 125.338 321.031H118.281V320.697Z" fill="#EBEBEB"/>
<path d="M124.974 317.148C124.974 317.148 123.522 317.185 121.73 317.185C119.938 317.185 118.486 317.166 118.486 317.148C118.486 317.13 119.938 317.111 121.73 317.111C123.522 317.111 124.974 317.13 124.974 317.148Z" fill="#E0E0E0"/>
<path d="M124.974 318.017C124.974 318.017 123.522 318.053 121.73 318.053C119.938 318.053 118.486 318.035 118.486 318.017C118.486 317.998 119.938 317.98 121.73 317.98C123.522 317.98 124.974 317.998 124.974 318.017Z" fill="#E0E0E0"/>
<path d="M124.974 318.886C124.974 318.886 123.522 318.922 121.73 318.922C119.938 318.922 118.486 318.904 118.486 318.886C118.486 318.867 119.938 318.849 121.73 318.849C123.522 318.849 124.974 318.867 124.974 318.886Z" fill="#E0E0E0"/>
<path d="M124.974 319.75C124.974 319.75 123.522 319.787 121.73 319.787C119.938 319.787 118.486 319.769 118.486 319.75C118.486 319.732 119.938 319.714 121.73 319.714C123.522 319.714 124.974 319.732 124.974 319.75Z" fill="#E0E0E0"/>
<path d="M125.974 321.47H119.271V333.912H125.974V321.47Z" fill="#EBEBEB"/>
<path d="M119.27 321.031H87.8164V334.52H119.27V321.031Z" fill="#E0E0E0"/>
<path d="M126.494 334.52H118.41V333.646H126.494C126.742 333.646 126.942 333.843 126.942 334.086C126.942 334.328 126.742 334.525 126.494 334.525V334.52Z" fill="#E0E0E0"/>
<path d="M118.41 321.031H126.503C126.746 321.031 126.942 321.223 126.942 321.461V321.48C126.942 321.717 126.746 321.909 126.503 321.909H118.41V321.036V321.031Z" fill="#E0E0E0"/>
<path d="M125.974 323.135C125.974 323.135 124.476 323.172 122.623 323.172C120.77 323.172 119.271 323.154 119.271 323.135C119.271 323.117 120.77 323.099 122.623 323.099C124.476 323.099 125.974 323.117 125.974 323.135Z" fill="#E0E0E0"/>
<path d="M125.974 324.731C125.974 324.731 124.476 324.768 122.623 324.768C120.77 324.768 119.271 324.75 119.271 324.731C119.271 324.713 120.77 324.695 122.623 324.695C124.476 324.695 125.974 324.713 125.974 324.731Z" fill="#E0E0E0"/>
<path d="M125.974 326.328C125.974 326.328 124.476 326.365 122.623 326.365C120.77 326.365 119.271 326.346 119.271 326.328C119.271 326.31 120.77 326.292 122.623 326.292C124.476 326.292 125.974 326.31 125.974 326.328Z" fill="#E0E0E0"/>
<path d="M125.974 327.924C125.974 327.924 124.476 327.961 122.623 327.961C120.77 327.961 119.271 327.943 119.271 327.924C119.271 327.906 120.77 327.888 122.623 327.888C124.476 327.888 125.974 327.906 125.974 327.924Z" fill="#E0E0E0"/>
<path d="M125.974 329.521C125.974 329.521 124.476 329.558 122.623 329.558C120.77 329.558 119.271 329.539 119.271 329.521C119.271 329.503 120.77 329.484 122.623 329.484C124.476 329.484 125.974 329.503 125.974 329.521Z" fill="#E0E0E0"/>
<path d="M125.974 331.117C125.974 331.117 124.476 331.154 122.623 331.154C120.77 331.154 119.271 331.135 119.271 331.117C119.271 331.099 120.77 331.081 122.623 331.081C124.476 331.081 125.974 331.099 125.974 331.117Z" fill="#E0E0E0"/>
<path d="M125.974 332.713C125.974 332.713 124.476 332.75 122.623 332.75C120.77 332.75 119.271 332.732 119.271 332.713C119.271 332.695 120.77 332.677 122.623 332.677C124.476 332.677 125.974 332.695 125.974 332.713Z" fill="#E0E0E0"/>
<path d="M98.5796 328.514V329.264C98.5796 330.17 98.1175 330.687 97.2307 330.687C96.3439 330.687 95.8818 330.17 95.8818 329.264V326.328C95.8818 325.422 96.3439 324.905 97.2307 324.905C98.1175 324.905 98.5796 325.422 98.5796 326.328V326.877H97.7208V326.273C97.7208 325.87 97.5388 325.715 97.2494 325.715C96.96 325.715 96.778 325.87 96.778 326.273V329.324C96.778 329.726 96.96 329.873 97.2494 329.873C97.5388 329.873 97.7208 329.726 97.7208 329.324V328.519H98.5796V328.514Z" fill="#EBEBEB"/>
<path d="M99.0557 326.328C99.0557 325.422 99.5411 324.905 100.433 324.905C101.324 324.905 101.809 325.422 101.809 326.328V329.264C101.809 330.17 101.324 330.687 100.433 330.687C99.5411 330.687 99.0557 330.17 99.0557 329.264V326.328ZM99.9611 329.324C99.9611 329.726 100.143 329.882 100.433 329.882C100.722 329.882 100.904 329.726 100.904 329.324V326.273C100.904 325.87 100.722 325.715 100.433 325.715C100.143 325.715 99.9611 325.87 99.9611 326.273V329.324Z" fill="#EBEBEB"/>
<path d="M102.391 324.969H103.297V329.813H104.786V330.618H102.387V324.969H102.391Z" fill="#EBEBEB"/>
<path d="M105.109 326.328C105.109 325.422 105.595 324.905 106.486 324.905C107.378 324.905 107.863 325.422 107.863 326.328V329.264C107.863 330.17 107.378 330.687 106.486 330.687C105.595 330.687 105.109 330.17 105.109 329.264V326.328ZM106.015 329.324C106.015 329.726 106.197 329.882 106.486 329.882C106.776 329.882 106.958 329.726 106.958 329.324V326.273C106.958 325.87 106.776 325.715 106.486 325.715C106.197 325.715 106.015 325.87 106.015 326.273V329.324Z" fill="#EBEBEB"/>
<path d="M109.31 324.969V329.328C109.31 329.731 109.492 329.877 109.782 329.877C110.071 329.877 110.253 329.731 110.253 329.328V324.969H111.112V329.273C111.112 330.179 110.65 330.696 109.763 330.696C108.876 330.696 108.414 330.179 108.414 329.273V324.969H109.32H109.31Z" fill="#EBEBEB"/>
<path d="M113.619 330.623C113.567 330.477 113.535 330.39 113.535 329.928V329.04C113.535 328.514 113.353 328.322 112.942 328.322H112.629V330.623H111.724V324.974H113.091C114.029 324.974 114.435 325.404 114.435 326.273V326.717C114.435 327.298 114.244 327.677 113.843 327.865C114.295 328.052 114.445 328.478 114.445 329.068V329.942C114.445 330.216 114.454 330.417 114.543 330.628H113.619V330.623ZM112.629 325.779V327.513H112.984C113.32 327.513 113.525 327.366 113.525 326.914V326.356C113.525 325.953 113.385 325.775 113.063 325.775H112.624L112.629 325.779Z" fill="#EBEBEB"/>
<path d="M98.3835 318.049H97.7207L97.7534 317.88H99.2703L99.233 318.049H98.5748L98.2341 319.714H98.0381L98.3788 318.049H98.3835Z" fill="#E0E0E0"/>
<path d="M100.549 318.337L99.5225 319.892C99.3498 320.153 99.2192 320.235 99.0138 320.235C98.8831 320.235 98.7477 320.19 98.6777 320.112L98.7804 319.975C98.8411 320.039 98.9204 320.075 99.0278 320.075C99.1491 320.075 99.2425 320.02 99.3498 319.851L99.4479 319.705L99.0978 318.333H99.2892L99.5785 319.508L100.344 318.333H100.54L100.549 318.337Z" fill="#E0E0E0"/>
<path d="M102.113 318.909C102.113 319.384 101.777 319.727 101.315 319.727C101.049 319.727 100.862 319.622 100.778 319.426L100.619 320.221H100.428L100.81 318.332H100.992L100.946 318.552C101.081 318.406 101.268 318.323 101.492 318.323C101.851 318.323 102.108 318.543 102.108 318.904L102.113 318.909ZM101.921 318.918C101.921 318.648 101.753 318.488 101.459 318.488C101.109 318.488 100.852 318.758 100.852 319.133C100.852 319.403 101.02 319.558 101.315 319.558C101.665 319.558 101.921 319.288 101.921 318.913V318.918Z" fill="#E0E0E0"/>
<path d="M102.332 319.142C102.332 318.671 102.673 318.323 103.144 318.323C103.536 318.323 103.784 318.547 103.784 318.904C103.784 319.375 103.443 319.723 102.971 319.723C102.579 319.723 102.332 319.494 102.332 319.137V319.142ZM103.592 318.918C103.592 318.648 103.424 318.488 103.13 318.488C102.78 318.488 102.519 318.762 102.519 319.133C102.519 319.403 102.687 319.558 102.981 319.558C103.331 319.558 103.592 319.288 103.592 318.913V318.918Z" fill="#E0E0E0"/>
<path d="M105.605 318.337L105.357 319.549C105.259 320.038 104.998 320.24 104.54 320.24C104.274 320.24 104.06 320.166 103.915 320.034L104.027 319.892C104.139 320.006 104.33 320.075 104.554 320.075C104.909 320.075 105.096 319.915 105.166 319.581L105.199 319.43C105.063 319.576 104.877 319.668 104.638 319.668C104.265 319.668 104.018 319.457 104.018 319.11C104.018 318.666 104.354 318.328 104.821 318.328C105.082 318.328 105.287 318.433 105.367 318.643L105.427 318.337H105.609H105.605ZM105.283 318.89C105.283 318.639 105.11 318.488 104.816 318.488C104.461 318.488 104.204 318.744 104.204 319.096C104.204 319.348 104.377 319.499 104.671 319.499C105.026 319.499 105.283 319.242 105.283 318.89Z" fill="#E0E0E0"/>
<path d="M106.845 318.324L106.813 318.507C106.813 318.507 106.78 318.507 106.761 318.507C106.462 318.507 106.262 318.676 106.192 319.019L106.052 319.719H105.86L106.14 318.342H106.322L106.276 318.594C106.402 318.411 106.584 318.333 106.855 318.333L106.845 318.324Z" fill="#E0E0E0"/>
<path d="M108.456 318.337L108.176 319.714H107.994L108.04 319.494C107.905 319.641 107.718 319.723 107.494 319.723C107.135 319.723 106.883 319.504 106.883 319.138C106.883 318.666 107.219 318.319 107.676 318.319C107.942 318.319 108.129 318.424 108.213 318.616L108.274 318.328H108.465L108.456 318.337ZM108.138 318.918C108.138 318.648 107.97 318.488 107.676 318.488C107.326 318.488 107.065 318.763 107.065 319.133C107.065 319.403 107.233 319.558 107.527 319.558C107.877 319.558 108.138 319.289 108.138 318.913V318.918Z" fill="#E0E0E0"/>
<path d="M110.281 318.909C110.281 319.385 109.945 319.728 109.483 319.728C109.216 319.728 109.03 319.623 108.946 319.426L108.787 320.222H108.596L108.978 318.333H109.16L109.114 318.552C109.249 318.406 109.436 318.324 109.66 318.324C110.019 318.324 110.276 318.543 110.276 318.905L110.281 318.909ZM110.089 318.918C110.089 318.648 109.921 318.488 109.627 318.488C109.277 318.488 109.02 318.758 109.02 319.133C109.02 319.403 109.188 319.559 109.483 319.559C109.833 319.559 110.089 319.289 110.089 318.914V318.918Z" fill="#E0E0E0"/>
<path d="M111.985 318.771C111.985 318.822 111.98 318.872 111.971 318.927L111.812 319.709H111.621L111.78 318.922C111.789 318.877 111.794 318.835 111.794 318.799C111.794 318.602 111.672 318.488 111.429 318.488C111.131 318.488 110.925 318.648 110.855 318.968L110.706 319.709H110.515L110.911 317.765H111.103L110.944 318.538C111.079 318.387 111.266 318.319 111.481 318.319C111.798 318.319 111.985 318.488 111.985 318.767V318.771Z" fill="#E0E0E0"/>
<path d="M113.762 318.337L112.735 319.892C112.563 320.153 112.432 320.235 112.227 320.235C112.096 320.235 111.961 320.19 111.891 320.112L111.993 319.975C112.054 320.039 112.133 320.075 112.241 320.075C112.362 320.075 112.455 320.02 112.563 319.851L112.661 319.705L112.311 318.333H112.502L112.791 319.508L113.557 318.333H113.753L113.762 318.337Z" fill="#E0E0E0"/>
<path d="M217.777 292.728H149.201V335.427H217.777V292.728Z" fill="#EBEBEB"/>
<path d="M216.247 291.505H147.495C143.355 291.505 140 294.794 140 298.85V299.148C140 303.205 143.355 306.493 147.495 306.493H216.247C220.386 306.493 223.741 303.205 223.741 299.148V298.85C223.741 294.794 220.386 291.505 216.247 291.505Z" fill="#EBEBEB"/>
<path d="M217.869 306.29C217.869 306.346 201.848 306.393 182.093 306.393C162.338 306.393 146.312 306.346 146.312 306.29C146.312 306.234 162.329 306.186 182.093 306.186C201.857 306.186 217.869 306.234 217.869 306.29Z" fill="black"/>
<path d="M158.362 335.768C158.304 335.768 158.256 329.258 158.256 321.23C158.256 313.203 158.304 306.692 158.362 306.692C158.419 306.692 158.467 313.198 158.467 321.23C158.467 329.262 158.419 335.768 158.362 335.768Z" fill="black"/>
<path d="M201.707 300.445C201.672 300.445 201.606 300.021 201.438 299.339C201.275 298.66 200.993 297.731 200.552 296.759C200.111 295.787 199.6 294.962 199.199 294.383C198.797 293.808 198.515 293.467 198.542 293.446C198.559 293.428 198.881 293.735 199.322 294.297C199.763 294.858 200.301 295.683 200.75 296.673C201.196 297.662 201.46 298.613 201.588 299.304C201.716 300 201.734 300.436 201.707 300.44V300.445Z" fill="black"/>
<path d="M205.389 298.206C205.353 298.219 205.199 297.779 204.838 297.131C204.476 296.482 203.859 295.64 202.99 294.897C202.117 294.158 201.183 293.679 200.477 293.419C199.772 293.156 199.305 293.069 199.314 293.035C199.314 293.022 199.433 293.035 199.649 293.065C199.86 293.095 200.164 293.164 200.53 293.281C201.262 293.51 202.237 293.981 203.131 294.741C204.022 295.502 204.635 296.383 204.97 297.061C205.137 297.403 205.256 297.684 205.314 297.887C205.375 298.09 205.402 298.202 205.389 298.206Z" fill="black"/>
<g opacity="0.3">
<path d="M164.512 291.817C167.249 306.627 172.02 321.904 178.729 335.445H181.815C183.076 333.734 182.658 331.349 181.873 329.383C181.088 327.422 179.968 325.49 179.982 323.382C179.99 322.077 180.431 320.82 180.594 319.524C181.225 314.534 177.729 309.971 176.922 305.012C176.631 303.214 176.798 301.145 178.183 299.939C179.4 298.881 181.181 298.803 182.807 298.842C187.057 298.941 191.373 299.46 195.522 298.544C199.67 297.628 203.748 294.85 204.608 290.767C191.246 291.117 177.883 291.467 164.516 291.821L164.512 291.817Z" fill="black"/>
</g>
<path d="M204.77 245.333L218.211 241.781C218.211 241.781 215.328 233.426 213.089 227.39C211.114 222.067 207.785 219.851 206.061 218.645C205.36 218.157 204.554 217.842 203.703 217.729C200.524 217.315 191.826 216.196 187.51 215.841C182.171 215.405 171.026 218.282 171.026 218.282C171.026 218.282 161.248 223.597 157.955 225.74C157.148 226.267 156.531 227.023 156.191 227.917C155.583 229.524 154.807 232.285 153.877 235.854C153.286 238.126 151.333 245.635 151.333 245.635L162.795 245.289C165.105 252.163 167.244 258.337 167.244 258.337L165.167 270.979C165.167 270.979 180.835 277.118 184.838 276.682C188.841 276.245 206.983 269.38 206.983 269.38C206.983 269.38 204.906 249.325 204.906 248.746C204.906 248.53 204.845 247.07 204.765 245.333H204.77Z" fill="white"/>
<g opacity="0.3">
<path d="M191.553 231.961C190.711 230.911 189.243 230.479 187.889 230.613C186.536 230.747 185.279 231.373 184.151 232.121C180.677 234.432 178.208 237.915 176.026 241.431C172.221 247.553 169.02 254.038 166.477 260.757L166.565 262.476C169.413 262.122 171.273 259.767 172.512 257.227C173.751 254.686 174.28 251.874 175.373 249.269C177.445 244.317 181.602 240.243 186.655 238.213C188.352 238.385 190.177 237.85 191.288 236.58C192.399 235.309 192.611 233.27 191.553 231.957V231.961Z" fill="black"/>
</g>
<path d="M204.903 247.515C204.841 247.519 204.458 243.873 204.052 239.367C203.646 234.861 203.369 231.205 203.43 231.197C203.492 231.192 203.876 234.839 204.281 239.345C204.687 243.851 204.965 247.506 204.903 247.511V247.515Z" fill="black"/>
<path d="M159.744 231.196C159.744 231.196 159.819 231.395 159.911 231.762C160.013 232.173 160.136 232.695 160.29 233.322C160.599 234.644 161.009 236.471 161.45 238.489C161.891 240.511 162.274 242.343 162.543 243.674C162.667 244.304 162.768 244.836 162.847 245.251C162.913 245.622 162.944 245.834 162.927 245.834C162.909 245.834 162.852 245.635 162.759 245.268C162.658 244.857 162.534 244.335 162.384 243.708C162.076 242.386 161.666 240.559 161.225 238.537C160.784 236.515 160.401 234.683 160.132 233.352C160.008 232.721 159.907 232.19 159.827 231.775C159.761 231.404 159.73 231.192 159.748 231.192L159.744 231.196Z" fill="black"/>
<path d="M202.851 217.885C202.918 217.902 202.53 219.363 202.265 221.203C201.992 223.039 201.943 224.547 201.873 224.547C201.842 224.547 201.815 224.167 201.829 223.554C201.842 222.94 201.899 222.093 202.036 221.169C202.173 220.244 202.358 219.415 202.525 218.823C202.688 218.231 202.825 217.877 202.851 217.881V217.885Z" fill="black"/>
<path d="M204.769 245.333C204.65 245.367 208.186 257.279 208.186 257.279L197.795 256.449L192.835 262.407L210.549 268.801C210.549 268.801 221.522 264.005 221.522 263.569C221.522 263.133 217.576 241.95 217.576 241.95L204.773 245.333H204.769Z" fill="#B78876"/>
<path d="M197.124 246.71C197.111 246.689 197.375 246.758 197.658 246.464C197.785 246.321 197.909 246.088 197.882 245.812C197.865 245.535 197.631 245.241 197.278 245.125C196.93 244.999 196.472 245.043 196.123 245.332C195.947 245.47 195.802 245.66 195.691 245.876C195.638 245.984 195.59 246.101 195.555 246.222C195.524 246.343 195.484 246.477 195.541 246.555C195.59 246.637 195.727 246.658 195.846 246.633C195.96 246.607 196.075 246.52 196.154 246.421C196.317 246.213 196.366 245.911 196.278 245.647C196.084 245.103 195.308 244.865 194.717 245.142C194.417 245.267 194.148 245.488 193.928 245.751C193.827 245.881 193.743 246.036 193.73 246.188C193.712 246.334 193.804 246.477 193.946 246.503C194.087 246.529 194.263 246.468 194.382 246.356C194.501 246.248 194.567 246.08 194.585 245.911C194.611 245.565 194.426 245.194 194.122 244.995C193.813 244.792 193.394 244.757 193.015 244.857C192.632 244.952 192.284 245.19 192.125 245.552C192.045 245.725 192.019 245.928 192.098 246.084C192.182 246.244 192.35 246.339 192.539 246.326C192.724 246.317 192.918 246.218 193.02 246.067C193.121 245.915 193.139 245.708 193.073 245.522C192.949 245.133 192.535 244.896 192.098 244.922C191.662 244.93 191.252 245.164 190.917 245.466C190.749 245.622 190.573 245.786 190.458 245.967C190.339 246.144 190.256 246.373 190.33 246.529C190.401 246.693 190.621 246.736 190.802 246.645C190.983 246.563 191.071 246.36 191.071 246.144C191.067 245.708 190.771 245.276 190.379 245.038C189.987 244.788 189.466 244.749 189.026 244.93C188.805 245.017 188.602 245.155 188.457 245.332C188.311 245.509 188.219 245.738 188.254 245.941C188.298 246.378 189.03 246.464 189.268 246.101C189.533 245.734 189.369 245.159 188.964 244.935C188.558 244.68 188.034 244.693 187.58 244.861C187.35 244.943 187.13 245.06 186.918 245.185C186.711 245.31 186.517 245.457 186.398 245.643C186.27 245.825 186.261 246.045 186.358 246.226C186.451 246.408 186.654 246.477 186.826 246.373C187.002 246.274 187.086 246.071 187.064 245.863C187.042 245.652 186.936 245.449 186.795 245.28C186.508 244.943 186.05 244.749 185.613 244.801C185.177 244.848 184.762 245.112 184.577 245.479C184.489 245.66 184.458 245.881 184.538 246.041C184.617 246.205 184.802 246.283 184.996 246.252C185.186 246.226 185.366 246.105 185.433 245.937C185.507 245.764 185.494 245.561 185.419 245.38C185.274 245.004 184.881 244.792 184.48 244.714C184.075 244.636 183.647 244.636 183.272 244.749C182.902 244.857 182.558 245.125 182.501 245.47C182.435 245.816 182.611 246.226 182.928 246.321C183.25 246.425 183.594 246.144 183.673 245.829C183.762 245.509 183.621 245.159 183.4 244.913C183.175 244.662 182.876 244.49 182.554 244.416C181.914 244.261 181.227 244.446 180.795 244.844C180.583 245.043 180.416 245.293 180.367 245.557C180.305 245.82 180.398 246.088 180.592 246.244C180.781 246.408 181.059 246.382 181.231 246.226C181.412 246.075 181.478 245.842 181.447 245.626C181.385 245.19 181.064 244.861 180.737 244.693C180.407 244.52 180.054 244.49 179.772 244.55C179.49 244.611 179.269 244.736 179.119 244.861C178.815 245.12 178.745 245.332 178.731 245.323C178.731 245.323 178.745 245.272 178.798 245.181C178.85 245.09 178.934 244.961 179.089 244.827C179.238 244.693 179.463 244.55 179.759 244.481C180.054 244.412 180.429 244.433 180.781 244.611C181.13 244.783 181.482 245.125 181.562 245.613C181.601 245.851 181.527 246.136 181.315 246.317C181.121 246.512 180.742 246.55 180.508 246.347C180.266 246.166 180.16 245.833 180.226 245.531C180.283 245.228 180.46 244.956 180.693 244.736C181.161 244.295 181.897 244.092 182.598 244.256C182.95 244.334 183.286 244.524 183.541 244.801C183.788 245.077 183.969 245.475 183.859 245.881C183.801 246.08 183.682 246.257 183.51 246.386C183.338 246.512 183.1 246.572 182.876 246.507C182.651 246.447 182.483 246.265 182.395 246.071C182.302 245.876 182.272 245.656 182.307 245.436C182.386 244.978 182.801 244.68 183.215 244.554C183.638 244.425 184.088 244.425 184.529 244.511C184.961 244.593 185.441 244.84 185.622 245.302C185.715 245.522 185.737 245.786 185.635 246.023C185.53 246.27 185.287 246.429 185.027 246.468C184.771 246.52 184.449 246.395 184.335 246.14C184.211 245.885 184.264 245.609 184.37 245.384C184.604 244.93 185.075 244.632 185.587 244.576C186.103 244.516 186.636 244.736 186.971 245.133C187.139 245.332 187.267 245.57 187.293 245.842C187.328 246.11 187.209 246.429 186.94 246.576C186.812 246.65 186.64 246.68 186.486 246.628C186.332 246.581 186.213 246.464 186.147 246.334C186.001 246.084 186.032 245.743 186.195 245.518C186.35 245.285 186.574 245.125 186.79 244.986C187.011 244.853 187.244 244.732 187.496 244.641C187.99 244.455 188.602 244.429 189.092 244.736C189.59 245.021 189.823 245.734 189.462 246.239C189.281 246.494 188.946 246.602 188.655 246.559C188.505 246.537 188.36 246.481 188.241 246.378C188.122 246.274 188.038 246.127 188.016 245.98C187.967 245.673 188.095 245.397 188.272 245.181C188.452 244.965 188.686 244.809 188.937 244.71C189.444 244.503 190.053 244.546 190.507 244.84C190.961 245.12 191.296 245.6 191.309 246.144C191.318 246.408 191.186 246.723 190.908 246.849C190.776 246.909 190.626 246.939 190.472 246.905C190.317 246.87 190.181 246.758 190.119 246.62C189.995 246.317 190.137 246.045 190.264 245.842C190.41 245.626 190.586 245.462 190.767 245.298C191.124 244.973 191.587 244.71 192.098 244.697C192.35 244.688 192.61 244.74 192.826 244.874C193.046 245.008 193.209 245.215 193.289 245.453C193.368 245.691 193.355 245.967 193.205 246.188C193.055 246.404 192.808 246.525 192.552 246.542C192.292 246.563 192.019 246.412 191.909 246.179C191.794 245.941 191.838 245.678 191.935 245.47C192.125 245.043 192.544 244.762 192.967 244.662C193.39 244.55 193.871 244.589 194.237 244.835C194.602 245.081 194.81 245.509 194.779 245.928C194.766 246.347 194.373 246.766 193.906 246.684C193.663 246.641 193.518 246.386 193.549 246.175C193.571 245.963 193.672 245.794 193.791 245.643C194.029 245.358 194.316 245.125 194.651 244.986C195.308 244.688 196.19 244.943 196.423 245.596C196.525 245.911 196.467 246.257 196.269 246.503C196.167 246.624 196.04 246.723 195.877 246.758C195.727 246.788 195.533 246.775 195.427 246.62C195.334 246.455 195.405 246.304 195.431 246.183C195.471 246.054 195.519 245.933 195.581 245.82C195.7 245.591 195.863 245.393 196.053 245.246C196.432 244.935 196.943 244.896 197.309 245.043C197.688 245.177 197.94 245.501 197.953 245.812C197.971 246.118 197.834 246.36 197.688 246.503C197.375 246.801 197.102 246.71 197.12 246.715L197.124 246.71Z" fill="black"/>
<path d="M178.639 245.466L172.572 267.933L191.86 268.529L197.926 246.339L178.639 245.466Z" fill="black"/>
<path d="M178.639 245.466L177.867 245.535L171.748 266.291L172.678 267.539L178.639 245.466Z" fill="#E0E0E0"/>
<path d="M191.405 251.191H197.67C197.67 251.191 198.636 251.13 199.054 252.076C199.478 253.023 199.416 253.848 199.416 253.848C199.416 253.848 199.777 254.263 199.839 255.088C199.901 255.913 199.901 258.276 199.839 258.453C199.777 258.631 199.116 258.808 199.116 258.808C199.116 258.808 199.539 259.754 199.178 260.462C198.816 261.171 198.274 261.348 198.274 261.348C198.274 261.348 197.432 263.236 196.586 263.474C195.744 263.711 194.959 263.474 194.536 263.474C194.112 263.474 187.305 260.052 187.305 260.052V259.283C187.305 259.283 184.894 259.521 184.837 258.22C184.775 256.92 186.402 256.997 186.402 256.997H190.074C190.074 256.997 186.04 257.157 185.679 256.565C185.317 255.973 184.837 254.556 186.071 254.323C187.305 254.085 192.878 254.085 192.878 254.085L195.92 254.578H196.4L196.026 253.265C196.026 253.265 192.829 253.256 192.358 253.2C191.886 253.139 190.982 253.023 190.982 252.197C190.982 251.372 191.405 251.195 191.405 251.195V251.191Z" fill="#B78876"/>
<path d="M194.928 257.36C194.928 257.39 194.483 257.425 193.76 257.438C193.037 257.451 192.036 257.434 190.934 257.36C189.832 257.291 188.836 257.179 188.121 257.079C187.407 256.976 186.966 256.885 186.971 256.855C186.975 256.82 187.42 256.855 188.139 256.911C188.858 256.971 189.85 257.053 190.947 257.123C192.045 257.192 193.041 257.235 193.76 257.269C194.479 257.3 194.928 257.326 194.928 257.36Z" fill="#654742"/>
<path d="M194.36 260.674C194.36 260.704 193.959 260.695 193.315 260.644C192.676 260.587 191.79 260.488 190.825 260.333C189.855 260.177 188.986 260.004 188.36 259.857C187.734 259.71 187.355 259.594 187.359 259.563C187.368 259.529 187.761 259.589 188.391 259.693C189.118 259.814 189.947 259.948 190.86 260.099C191.777 260.242 192.606 260.367 193.333 260.479C193.968 260.574 194.36 260.644 194.356 260.678L194.36 260.674Z" fill="#654742"/>
<path d="M199.606 256.029C199.606 256.029 199.698 256.055 199.826 256.159C199.954 256.267 200.126 256.453 200.236 256.746C200.347 257.032 200.391 257.438 200.21 257.835C200.038 258.228 199.659 258.604 199.13 258.73L199.2 258.561C199.496 258.993 199.562 259.598 199.381 260.142C199.205 260.687 198.79 261.136 198.297 261.322L198.367 261.244C198.107 262.22 197.494 262.899 197.014 263.257C196.771 263.443 196.555 263.56 196.405 263.625C196.255 263.689 196.167 263.715 196.163 263.707C196.145 263.676 196.476 263.534 196.925 263.149C197.366 262.773 197.917 262.108 198.151 261.188L198.164 261.132L198.222 261.11C198.64 260.946 199.002 260.553 199.161 260.069C199.324 259.585 199.262 259.054 199.02 258.682L198.931 258.548L199.09 258.514C199.535 258.414 199.879 258.099 200.042 257.762C200.21 257.42 200.192 257.062 200.108 256.794C199.928 256.245 199.584 256.06 199.615 256.034L199.606 256.029Z" fill="#654742"/>
<path d="M184.84 226.824L188.707 219.177L187.508 215.833C187.508 215.833 193.309 212.882 191.326 206.859C190.369 203.952 187.9 198.119 185.603 192.866C183.134 187.214 176.649 184.372 170.706 186.333L170.116 186.528C163.873 188.99 162.52 195.562 165.205 201.61L173.052 224.085L184.836 226.82L184.84 226.824Z" fill="#B78876"/>
<path d="M187.513 215.833C187.513 215.833 183.752 217.414 178.771 216.239C178.771 216.239 182.139 219.933 188.059 217.38L187.513 215.829V215.833Z" fill="#654742"/>
<path d="M185.811 197.618C185.983 198.063 185.736 198.577 185.265 198.758C184.793 198.944 184.268 198.728 184.101 198.283C183.929 197.838 184.176 197.324 184.647 197.142C185.119 196.957 185.644 197.173 185.816 197.618H185.811Z" fill="black"/>
<path d="M185.278 195.89C185.207 196.037 184.383 195.773 183.439 196.089C182.496 196.387 181.967 197.091 181.826 197.009C181.76 196.974 181.799 196.737 182.028 196.426C182.253 196.115 182.685 195.739 183.272 195.549C183.858 195.358 184.422 195.406 184.779 195.531C185.145 195.652 185.313 195.825 185.273 195.89H185.278Z" fill="black"/>
<path d="M177.157 200.431C177.329 200.876 177.082 201.39 176.61 201.571C176.139 201.757 175.614 201.541 175.446 201.096C175.274 200.651 175.521 200.137 175.993 199.955C176.465 199.77 176.989 199.986 177.161 200.431H177.157Z" fill="black"/>
<path d="M176.143 198.62C176.09 198.776 175.239 198.603 174.34 199.013C173.436 199.411 172.986 200.163 172.841 200.102C172.77 200.076 172.784 199.834 172.978 199.497C173.163 199.165 173.555 198.746 174.115 198.495C174.679 198.244 175.244 198.231 175.614 198.318C175.989 198.4 176.174 198.551 176.147 198.625L176.143 198.62Z" fill="black"/>
<path d="M181.869 205.165C181.847 205.114 182.398 204.824 183.302 204.392C183.535 204.288 183.747 204.167 183.729 203.995C183.729 203.805 183.54 203.584 183.328 203.351C182.905 202.854 182.464 202.336 182.001 201.791C180.141 199.566 178.704 197.7 178.796 197.631C178.889 197.557 180.471 199.303 182.336 201.532C182.79 202.085 183.222 202.608 183.637 203.109C183.818 203.347 184.082 203.597 184.078 203.99C184.073 204.189 183.941 204.375 183.8 204.466C183.663 204.561 183.527 204.608 183.412 204.656C182.477 205.019 181.887 205.217 181.865 205.17L181.869 205.165Z" fill="black"/>
<path d="M174.865 195.41C174.856 195.691 173.877 195.881 172.819 196.378C171.752 196.853 170.968 197.463 170.747 197.285C170.646 197.199 170.721 196.914 170.994 196.551C171.268 196.192 171.757 195.773 172.396 195.484C173.035 195.194 173.675 195.099 174.133 195.125C174.592 195.151 174.865 195.281 174.865 195.415V195.41Z" fill="black"/>
<path d="M184.157 193.41C184.065 193.673 183.342 193.669 182.557 193.915C181.768 194.136 181.168 194.529 180.939 194.36C180.838 194.274 180.869 194.032 181.089 193.738C181.305 193.449 181.724 193.129 182.266 192.969C182.808 192.809 183.337 192.848 183.681 192.969C184.03 193.094 184.193 193.28 184.157 193.405V193.41Z" fill="black"/>
<path d="M167.228 205.891C167.109 205.883 162.604 206.06 164.147 210.117C165.69 214.174 169.525 211.819 169.49 211.702C169.455 211.581 167.233 205.891 167.233 205.891H167.228Z" fill="#B78876"/>
<path d="M167.638 210.622C167.616 210.618 167.585 210.7 167.484 210.799C167.387 210.895 167.193 211.007 166.95 211.007C166.452 211.007 165.826 210.462 165.531 209.741C165.381 209.374 165.324 208.994 165.35 208.657C165.363 208.315 165.482 208.034 165.685 207.918C165.884 207.788 166.091 207.862 166.183 207.957C166.28 208.052 166.285 208.142 166.311 208.138C166.329 208.142 166.373 208.039 166.276 207.883C166.227 207.81 166.144 207.732 166.016 207.689C165.888 207.646 165.725 207.659 165.579 207.732C165.266 207.87 165.09 208.263 165.064 208.635C165.02 209.015 165.072 209.447 165.244 209.858C165.579 210.666 166.298 211.275 166.964 211.227C167.281 211.197 167.493 211.02 167.581 210.877C167.669 210.73 167.66 210.631 167.643 210.631L167.638 210.622Z" fill="#654742"/>
<path d="M179.317 206.717C179.467 206.656 179.811 207.659 180.931 208.078C182.046 208.501 183.095 208.03 183.153 208.168C183.188 208.224 182.976 208.441 182.522 208.605C182.077 208.769 181.372 208.842 180.688 208.583C180.005 208.324 179.577 207.818 179.401 207.417C179.22 207.01 179.247 206.725 179.317 206.708V206.717Z" fill="black"/>
<path d="M187.103 184C186.742 183.249 185.948 182.73 185.11 182.635C185.022 182.402 184.925 182.177 184.802 181.983C184.039 180.725 182.333 180.043 180.944 180.583C180.358 179.611 179.203 179.002 178.052 179.058C176.902 179.114 175.813 179.831 175.328 180.855C173.988 180.302 172.321 180.617 171.289 181.615C171.162 181.741 171.034 181.883 170.994 182.06C170.968 182.177 170.994 182.302 171.065 182.397C170.474 181.918 169.636 181.736 168.896 181.952C168.644 182.026 168.411 182.147 168.199 182.298C167.564 182.588 167.031 183.071 166.779 183.72C164.91 183.685 163.156 185.253 163.023 187.085C161.679 187.608 160.744 188.999 160.779 190.412C159.924 190.77 159.298 191.6 159.188 192.503C159.078 193.406 159.492 194.356 160.237 194.901C160.237 194.901 157.53 196.517 159.17 198.832C160.008 200.012 161.727 199.195 161.727 199.195L166.815 206.739C166.793 206.791 167.692 207.577 168.124 207.201C168.556 206.825 168.671 206.22 168.803 205.672C168.957 205.041 169.178 204.41 169.125 203.762C169.072 203.114 168.649 202.44 167.996 202.341C168.64 201.87 168.856 200.993 168.741 200.215C168.627 199.437 168.234 198.724 167.851 198.037C167.282 197.018 166.713 195.998 166.145 194.979C167.648 194.443 168.785 193.026 168.957 191.466C170.324 191.928 171.99 190.896 172.145 189.487C173.132 190.796 175.253 191.103 176.584 190.127C176.708 191.03 178.533 191.306 179.463 191.25C180.393 191.194 181.257 190.252 181.257 190.252C181.257 190.252 182.351 190.481 183.153 190.291C183.184 190.282 183.215 190.278 183.246 190.269C184.467 189.993 185.26 188.563 185.485 187.353C185.798 187.28 186.098 187.154 186.354 186.96C187.244 186.299 187.57 184.998 187.094 184.009L187.103 184Z" fill="black"/>
<path d="M152.72 245.592C152.72 245.592 150.035 255.114 149.444 257.438C148.854 259.763 148.858 265.163 150.194 266.762C151.53 268.36 155.978 269.376 155.978 269.376C155.978 269.376 164.689 265.207 167.656 260.121C170.623 255.036 178.735 241.198 178.735 241.198L176.165 234.29L162.661 246.927L162.803 245.285L152.729 245.587L152.72 245.592Z" fill="#B78876"/>
<path d="M180.931 212.506C181.399 212.273 181.972 212.459 182.21 212.917L189.982 228.086L187.985 228.954L180.504 213.737C180.279 213.284 180.469 212.735 180.927 212.506H180.931Z" fill="black"/>
<path d="M175.729 234.73L182.994 227.386H189.959L194.421 233.158C194.421 233.158 192.305 233.547 191.551 232.432L190.568 231.058C190.568 231.058 191.551 233.171 191.022 234.212C191.022 234.212 189.977 236.623 189.81 236.882C189.497 237.366 189.25 237.677 188.342 237.53C187.433 237.383 186.023 236.657 186.172 236.139C186.322 235.62 186.856 235.547 186.856 235.547L184.735 235.249C184.735 235.249 182.602 239.038 181.314 239.928C180.027 240.818 178.731 241.202 178.731 241.202L175.729 234.73Z" fill="#B78876"/>
<path d="M162.926 246.711C162.944 246.745 162.34 247.022 161.414 247.549C160.488 248.076 159.258 248.888 158.042 249.951C156.825 251.018 155.864 252.124 155.224 252.962C154.581 253.801 154.237 254.358 154.202 254.341C154.188 254.332 154.263 254.185 154.409 253.93C154.554 253.671 154.784 253.308 155.092 252.872C155.705 251.999 156.657 250.863 157.887 249.783C159.122 248.707 160.383 247.908 161.335 247.411C161.811 247.16 162.203 246.979 162.485 246.866C162.763 246.754 162.922 246.698 162.926 246.711Z" fill="#654742"/>
<path d="M184.595 229.52C184.595 229.49 184.983 229.425 185.618 229.351C186.252 229.274 187.125 229.187 188.095 229.101C188.338 229.079 188.585 229.062 188.831 229.101C189.078 229.135 189.303 229.235 189.484 229.36C189.854 229.611 190.075 229.948 190.22 230.233C190.498 230.812 190.568 231.196 190.546 231.2C190.507 231.218 190.379 230.842 190.079 230.306C189.925 230.043 189.704 229.745 189.369 229.533C189.202 229.429 189.012 229.347 188.801 229.321C188.589 229.291 188.36 229.308 188.117 229.33C187.147 229.416 186.27 229.477 185.635 229.511C185 229.546 184.604 229.554 184.599 229.52H184.595Z" fill="#654742"/>
<path d="M190.14 236.51C190.1 236.51 190.171 235.992 190.122 235.167C190.1 234.756 190.043 234.264 189.919 233.732C189.8 233.214 189.633 232.592 189.099 232.289C188.839 232.138 188.535 232.06 188.244 231.991C187.949 231.927 187.662 231.862 187.385 231.801C186.838 231.685 186.34 231.611 185.921 231.581C185.079 231.52 184.563 231.654 184.559 231.615C184.559 231.602 184.678 231.551 184.916 231.503C185.149 231.456 185.498 231.412 185.93 231.421C186.362 231.43 186.873 231.49 187.424 231.598C187.702 231.65 187.993 231.711 188.293 231.78C188.592 231.849 188.914 231.922 189.214 232.099C189.518 232.272 189.739 232.557 189.867 232.842C189.999 233.132 190.065 233.421 190.122 233.694C190.232 234.242 190.277 234.743 190.281 235.163C190.281 235.582 190.255 235.923 190.219 236.156C190.184 236.39 190.149 236.515 190.135 236.51H190.14Z" fill="#654742"/>
<path d="M187.617 234.043C187.675 234.043 187.719 234.635 187.728 235.413V235.547L187.591 235.521C187.516 235.508 187.441 235.499 187.357 235.499C186.938 235.499 186.586 235.72 186.396 235.914C186.202 236.113 186.136 236.286 186.101 236.277C186.074 236.277 186.083 236.07 186.273 235.811C186.453 235.56 186.85 235.275 187.357 235.27C187.454 235.27 187.551 235.283 187.639 235.301L187.503 235.409C187.512 234.631 187.564 234.043 187.622 234.043H187.617Z" fill="#654742"/>
<path d="M187.626 234.272C187.613 234.337 186.987 234.247 186.216 234.208C185.444 234.164 184.814 234.19 184.805 234.126C184.796 234.065 185.431 233.94 186.229 233.983C187.022 234.022 187.644 234.216 187.626 234.272Z" fill="#654742"/>
<path d="M184.916 233.919C184.973 233.923 184.924 234.593 184.603 235.349C184.281 236.105 183.831 236.606 183.783 236.571C183.73 236.532 184.082 235.988 184.391 235.262C184.704 234.536 184.85 233.91 184.916 233.919Z" fill="#654742"/>
<path d="M212.761 316.97L212.131 336.529L236.956 337.419C236.898 335.09 224.228 329.962 224.228 329.962L225.154 317.445L212.757 316.966L212.761 316.97Z" fill="black"/>
<g opacity="0.6">
<path d="M216.599 328.631C216.114 328.743 215.761 329.262 215.854 329.741C215.946 330.221 216.48 330.575 216.969 330.472C217.454 330.368 217.899 329.759 217.749 329.292C217.599 328.825 216.951 328.441 216.502 328.657" fill="white"/>
</g>
<path d="M212.135 336.528L212.276 334.558L236.025 336.148C236.025 336.148 237.114 336.658 236.96 337.418L212.135 336.528Z" fill="#EBEBEB"/>
<path d="M224.644 329.854C224.635 329.97 224.027 330.005 223.419 330.364C222.797 330.709 222.471 331.21 222.361 331.163C222.25 331.137 222.458 330.433 223.203 330.009C223.948 329.577 224.675 329.746 224.644 329.854Z" fill="white"/>
<path d="M227.204 331.003C227.226 331.119 226.692 331.301 226.265 331.789C225.819 332.264 225.696 332.804 225.577 332.796C225.462 332.809 225.405 332.113 225.952 331.517C226.494 330.916 227.208 330.89 227.208 331.007L227.204 331.003Z" fill="white"/>
<path d="M228.571 334.109C228.46 334.13 228.315 333.53 228.65 332.891C228.981 332.247 229.563 332.013 229.611 332.113C229.677 332.212 229.294 332.549 229.029 333.076C228.751 333.599 228.694 334.1 228.575 334.105L228.571 334.109Z" fill="white"/>
<path d="M224.529 326.976C224.476 327.084 223.925 326.898 223.237 326.92C222.549 326.929 222.007 327.132 221.95 327.028C221.884 326.942 222.422 326.518 223.228 326.505C224.035 326.484 224.591 326.885 224.529 326.976Z" fill="white"/>
<path d="M224.047 324.069C224.047 324.116 223.567 324.172 222.804 324.017C222.425 323.939 221.98 323.801 221.517 323.58C221.287 323.468 221.049 323.339 220.816 323.183C220.705 323.105 220.573 323.027 220.45 322.885C220.322 322.755 220.256 322.44 220.419 322.25C220.551 322.068 220.78 321.995 220.961 321.999C221.146 321.999 221.292 322.042 221.424 322.077C221.697 322.15 221.953 322.25 222.187 322.366C222.654 322.595 223.029 322.876 223.307 323.144C223.862 323.688 224.043 324.138 223.999 324.159C223.941 324.198 223.677 323.814 223.108 323.36C222.822 323.135 222.46 322.898 222.024 322.708C221.803 322.613 221.57 322.531 221.318 322.466C221.058 322.388 220.833 322.379 220.763 322.492C220.736 322.535 220.732 322.552 220.785 322.63C220.838 322.703 220.944 322.773 221.054 322.85C221.27 322.997 221.486 323.127 221.697 323.243C222.121 323.468 222.531 323.628 222.883 323.74C223.589 323.961 224.056 324.008 224.052 324.073L224.047 324.069Z" fill="white"/>
<path d="M223.88 324.233C223.836 324.25 223.611 323.814 223.598 323.044C223.593 322.66 223.651 322.202 223.818 321.718C223.902 321.476 224.017 321.23 224.162 320.988C224.316 320.755 224.506 320.439 224.978 320.4C225.225 320.4 225.419 320.595 225.485 320.759C225.56 320.927 225.573 321.07 225.595 321.208C225.63 321.493 225.613 321.774 225.564 322.029C225.467 322.543 225.233 322.967 224.987 323.269C224.48 323.883 223.968 324.008 223.959 323.965C223.92 323.904 224.352 323.688 224.744 323.096C224.938 322.803 225.114 322.418 225.181 321.964C225.211 321.74 225.22 321.502 225.181 321.26C225.15 321.001 225.062 320.789 224.96 320.811C224.837 320.807 224.621 320.992 224.51 321.195C224.374 321.407 224.264 321.627 224.18 321.843C224.008 322.275 223.924 322.695 223.893 323.049C223.832 323.762 223.946 324.211 223.88 324.228V324.233Z" fill="white"/>
<path d="M175.522 317.112L181.808 335.686L158.266 343.467C157.645 341.216 168.3 332.765 168.3 332.765L163.773 321.027L175.517 317.108L175.522 317.112Z" fill="black"/>
<g opacity="0.6">
<path d="M175.236 329.361C175.735 329.331 176.22 329.728 176.272 330.216C176.321 330.7 175.915 331.193 175.417 331.227C174.919 331.266 174.319 330.804 174.328 330.316C174.333 329.827 174.848 329.279 175.338 329.361" fill="white"/>
</g>
<path d="M181.81 335.686L181.1 333.837L158.797 341.99C158.797 341.99 157.902 342.785 158.272 343.467L181.814 335.686H181.81Z" fill="#EBEBEB"/>
<path d="M167.883 332.778C167.927 332.89 168.518 332.752 169.21 332.925C169.907 333.081 170.365 333.474 170.453 333.396C170.55 333.34 170.149 332.722 169.307 332.523C168.469 332.32 167.821 332.683 167.883 332.778Z" fill="white"/>
<path d="M165.756 334.593C165.77 334.71 166.33 334.74 166.885 335.086C167.449 335.418 167.727 335.898 167.837 335.859C167.952 335.842 167.802 335.155 167.105 334.736C166.413 334.312 165.721 334.485 165.752 334.597L165.756 334.593Z" fill="white"/>
<path d="M165.352 337.954C165.466 337.945 165.431 337.328 164.924 336.809C164.421 336.286 163.795 336.222 163.778 336.334C163.747 336.446 164.21 336.662 164.62 337.094C165.039 337.518 165.237 337.98 165.356 337.954H165.352Z" fill="white"/>
<path d="M167.15 329.987C167.234 330.073 167.705 329.745 168.371 329.572C169.032 329.386 169.61 329.434 169.636 329.317C169.676 329.214 169.037 328.959 168.256 329.175C167.476 329.382 167.057 329.918 167.145 329.987H167.15Z" fill="white"/>
<path d="M166.771 327.067C166.785 327.114 167.265 327.032 167.949 326.669C168.288 326.488 168.676 326.233 169.055 325.892C169.245 325.719 169.434 325.529 169.611 325.317C169.694 325.213 169.8 325.101 169.875 324.928C169.963 324.768 169.932 324.444 169.721 324.31C169.54 324.172 169.302 324.168 169.13 324.22C168.954 324.271 168.826 324.353 168.707 324.427C168.464 324.574 168.248 324.742 168.059 324.915C167.68 325.265 167.402 325.637 167.212 325.974C166.838 326.652 166.794 327.131 166.842 327.14C166.908 327.162 167.049 326.721 167.468 326.125C167.675 325.831 167.957 325.503 168.319 325.196C168.5 325.045 168.702 324.898 168.927 324.768C169.157 324.621 169.368 324.548 169.47 324.639C169.509 324.673 169.514 324.686 169.487 324.777C169.456 324.859 169.377 324.958 169.293 325.062C169.13 325.265 168.963 325.451 168.791 325.615C168.447 325.952 168.103 326.216 167.799 326.419C167.186 326.825 166.754 327.002 166.776 327.062L166.771 327.067Z" fill="white"/>
<path d="M166.974 327.179C167.023 327.179 167.111 326.704 166.899 325.96C166.794 325.593 166.604 325.165 166.304 324.751C166.154 324.543 165.974 324.34 165.762 324.15C165.546 323.969 165.273 323.718 164.81 323.817C164.572 323.887 164.444 324.129 164.426 324.301C164.404 324.483 164.431 324.621 164.453 324.764C164.501 325.049 164.598 325.308 164.722 325.541C164.964 326.008 165.312 326.349 165.634 326.57C166.3 327.015 166.825 326.993 166.825 326.95C166.842 326.881 166.366 326.794 165.819 326.336C165.55 326.112 165.264 325.788 165.074 325.373C164.977 325.165 164.902 324.941 164.867 324.699C164.819 324.44 164.845 324.211 164.946 324.206C165.061 324.167 165.326 324.284 165.489 324.448C165.683 324.617 165.85 324.794 165.996 324.98C166.287 325.347 166.489 325.727 166.622 326.055C166.886 326.721 166.908 327.183 166.979 327.179H166.974Z" fill="white"/>
<path d="M169.855 272.987C169.855 272.987 160.632 264.973 156.585 265.038C152.538 265.107 139.259 264.243 144.827 282.268C150.439 300.444 160.491 328.237 160.764 327.239L178.059 319.791L171.032 293.937C171.032 293.937 194.609 294.196 199.159 293.609C203.713 293.026 212.226 287.15 212.226 287.15L210.872 319.817L228.948 318.832C228.948 318.832 231.487 279.593 232.214 271.527C232.849 264.506 224.799 256.626 216.59 258.402C211.225 259.564 192.056 272.828 192.056 272.828L169.85 272.992L169.855 272.987Z" fill="black"/>
<path d="M212.852 269.782C212.852 269.782 212.865 270.088 212.83 270.637C212.799 271.242 212.759 272.024 212.706 272.962C212.614 274.927 212.548 277.641 212.499 280.643C212.451 283.646 212.393 286.364 212.287 288.334C212.239 289.319 212.177 290.114 212.124 290.662C212.071 291.211 212.032 291.514 212.01 291.514C211.988 291.514 211.988 291.207 212.01 290.658C212.027 290.053 212.049 289.271 212.076 288.329C212.107 286.307 212.151 283.62 212.199 280.643C212.248 277.641 212.345 274.919 212.495 272.957C212.565 271.977 212.645 271.182 212.715 270.633C212.786 270.084 212.834 269.786 212.852 269.786V269.782Z" fill="#455A64"/>
<path d="M212.121 285.076C212.094 285.098 211.755 284.761 211.323 284.134C210.891 283.508 210.384 282.57 210.027 281.46C209.674 280.349 209.55 279.295 209.542 278.539C209.533 277.779 209.617 277.317 209.652 277.321C209.753 277.321 209.612 279.2 210.318 281.373C210.996 283.551 212.204 285.024 212.121 285.076Z" fill="#455A64"/>
<path d="M187.525 291.695C187.494 291.695 187.459 291.25 187.318 290.451C187.19 289.652 186.908 288.507 186.37 287.163C185.836 285.819 184.977 284.299 183.755 282.812C182.521 281.339 180.899 279.935 178.919 278.876C175 276.651 171.548 274.47 169.141 272.763C167.937 271.912 166.99 271.182 166.364 270.646C166.046 270.387 165.812 270.166 165.654 270.02C165.495 269.873 165.416 269.791 165.424 269.782C165.442 269.765 165.79 270.058 166.438 270.56C167.087 271.065 168.048 271.765 169.264 272.595C171.698 274.249 175.159 276.401 179.074 278.622C180.052 279.175 181.004 279.771 181.816 280.466C182.631 281.153 183.354 281.888 183.976 282.644C185.201 284.165 186.057 285.72 186.573 287.09C187.093 288.464 187.344 289.626 187.437 290.438C187.507 290.84 187.503 291.159 187.525 291.371C187.538 291.587 187.538 291.7 187.525 291.7V291.695Z" fill="#455A64"/>
<path d="M193.903 272.555C193.903 272.555 193.815 272.832 193.604 273.311C193.388 273.787 193.097 274.487 192.762 275.355C192.091 277.092 191.32 279.559 190.844 282.358C190.376 285.158 190.302 287.737 190.368 289.595C190.398 290.524 190.447 291.276 190.495 291.794C190.54 292.313 190.553 292.602 190.531 292.606C190.509 292.606 190.456 292.326 190.376 291.807C190.293 291.289 190.213 290.537 190.152 289.604C190.028 287.737 190.072 285.136 190.544 282.311C191.02 279.49 191.836 277.01 192.559 275.282C192.92 274.417 193.242 273.726 193.493 273.264C193.736 272.797 193.881 272.547 193.899 272.555H193.903Z" fill="#455A64"/>
<path d="M159.225 270.205C159.225 270.205 159.313 270.253 159.477 270.365C159.653 270.49 159.882 270.654 160.169 270.857C160.319 270.965 160.486 271.086 160.667 271.22C160.843 271.359 161.02 271.527 161.218 271.7C161.606 272.054 162.073 272.43 162.501 272.936C162.726 273.178 162.959 273.432 163.202 273.7C163.427 273.981 163.652 274.279 163.885 274.586C164.004 274.742 164.123 274.897 164.242 275.057C164.357 275.221 164.463 275.394 164.573 275.567C164.793 275.917 165.031 276.267 165.252 276.643C166.12 278.146 166.892 279.896 167.571 281.771C168.254 283.646 168.766 285.478 169.233 287.137C169.683 288.796 170.093 290.291 170.436 291.557C170.789 292.814 171.071 293.829 171.283 294.525C171.38 294.857 171.455 295.125 171.516 295.333C171.569 295.518 171.591 295.618 171.583 295.618C171.574 295.618 171.539 295.527 171.472 295.346C171.402 295.143 171.314 294.879 171.199 294.551C170.961 293.859 170.657 292.848 170.286 291.6C169.929 290.338 169.506 288.843 169.039 287.193C168.567 285.538 168.047 283.711 167.368 281.844C166.693 279.978 165.931 278.237 165.076 276.742C164.86 276.37 164.626 276.02 164.41 275.67C164.3 275.498 164.198 275.325 164.084 275.161C163.965 275.001 163.85 274.845 163.731 274.694C163.497 274.387 163.281 274.085 163.061 273.808C162.823 273.545 162.593 273.286 162.377 273.044C161.959 272.538 161.5 272.158 161.125 271.795C160.931 271.618 160.764 271.445 160.588 271.302C160.411 271.169 160.253 271.043 160.103 270.927C159.825 270.711 159.604 270.533 159.437 270.404C159.287 270.283 159.208 270.214 159.212 270.209L159.225 270.205Z" fill="#455A64"/>
<path d="M169.664 272.828C172.953 274.958 176.577 275.459 180.452 276.185C182.687 276.604 185.024 276.984 187.206 276.353C191.883 275.001 196.402 269.786 199.409 267.924L186.866 271.039L169.668 272.832L169.664 272.828Z" fill="white"/>
<path d="M108.744 189.215L95.3602 194.71C93.7482 195.372 92.9888 197.189 93.6641 198.769L107.726 231.663C108.401 233.243 110.255 233.987 111.867 233.325L125.251 227.83C126.863 227.168 127.622 225.351 126.947 223.772L112.886 190.877C112.21 189.298 110.356 188.553 108.744 189.215Z" fill="#263238"/>
<path d="M109.22 190.39L106.625 191.456C106.275 191.598 106.116 192.005 106.27 192.362L106.466 192.824C106.62 193.18 106.461 193.588 106.111 193.729L101.052 195.806C100.702 195.948 100.296 195.774 100.146 195.417L99.9504 194.955C99.7964 194.598 99.3903 194.425 99.0449 194.566L98.1301 194.941L95.857 195.875C94.7275 196.337 94.1954 197.608 94.6715 198.715L108.408 230.821C108.879 231.927 110.177 232.444 111.306 231.982L124.669 226.498C125.799 226.036 126.331 224.764 125.855 223.658L112.118 191.552C111.647 190.445 110.349 189.928 109.22 190.39Z" fill="#FAFAFA"/>
<path d="M111.045 193.551C111.045 193.551 110.714 193.707 110.298 193.885C109.883 194.059 109.542 194.196 109.542 194.187C109.542 194.178 109.873 194.031 110.289 193.853C110.704 193.679 111.045 193.542 111.045 193.551Z" fill="#263238"/>
<path d="M111.209 193.926C111.209 193.926 110.878 194.082 110.462 194.26C110.047 194.434 109.706 194.571 109.706 194.562C109.706 194.553 110.037 194.406 110.453 194.228C110.868 194.054 111.209 193.917 111.209 193.926Z" fill="#263238"/>
<path d="M111.376 194.306C111.376 194.306 111.045 194.462 110.629 194.64C110.214 194.814 109.873 194.951 109.873 194.942C109.873 194.933 110.204 194.786 110.62 194.608C111.035 194.434 111.376 194.297 111.376 194.306Z" fill="#263238"/>
<path d="M97.836 200.381C97.836 200.381 97.8453 200.376 97.8686 200.367C97.892 200.358 97.92 200.344 97.9526 200.33C98.032 200.294 98.1393 200.248 98.27 200.189V200.202C98.2327 200.134 98.2 200.056 98.1627 199.974C98.144 199.932 98.1253 199.891 98.1067 199.841C98.0927 199.791 98.1207 199.727 98.172 199.699C98.2233 199.676 98.27 199.653 98.326 199.635C98.3867 199.617 98.4614 199.653 98.4847 199.713C98.5314 199.818 98.5827 199.928 98.6294 200.047L98.6061 200.038C98.7368 199.983 98.8721 199.923 99.0121 199.868L99.0028 199.891C98.9328 199.731 98.8581 199.567 98.7881 199.397C98.7694 199.356 98.7508 199.315 98.7321 199.269C98.7134 199.228 98.6808 199.214 98.6341 199.201C98.5501 199.169 98.4661 199.137 98.382 199.1C98.298 199.068 98.2187 199.036 98.1393 199.004C98.102 198.99 98.06 198.972 98.0226 198.958C97.9806 198.944 97.948 198.926 97.9106 198.931C97.8733 198.935 97.8406 198.958 97.8266 198.986C97.8126 199.018 97.7986 199.054 97.7799 199.091C97.7519 199.159 97.7239 199.228 97.6959 199.297C97.6446 199.429 97.5839 199.553 97.5512 199.663C97.5419 199.717 97.5746 199.768 97.5932 199.818C97.6119 199.868 97.6353 199.914 97.6539 199.96C97.6913 200.047 97.7239 200.12 97.7473 200.189C97.7706 200.248 97.7893 200.294 97.8079 200.335C97.822 200.367 97.8266 200.385 97.8266 200.39C97.8266 200.39 97.8173 200.376 97.8033 200.344C97.7846 200.308 97.7659 200.262 97.7379 200.202C97.7099 200.138 97.6726 200.061 97.6353 199.978C97.6166 199.932 97.5932 199.887 97.5699 199.836C97.5606 199.809 97.5466 199.786 97.5372 199.759C97.5232 199.731 97.5186 199.699 97.5232 199.667C97.5606 199.548 97.6166 199.429 97.6679 199.297C97.6959 199.233 97.7239 199.164 97.7519 199.091C97.7659 199.054 97.7799 199.022 97.7986 198.981C97.822 198.944 97.8593 198.917 97.906 198.908C97.9526 198.899 97.9946 198.922 98.032 198.935C98.0693 198.949 98.1113 198.967 98.1487 198.981C98.228 199.013 98.3074 199.045 98.3914 199.077C98.4754 199.109 98.5594 199.141 98.6434 199.173C98.6621 199.182 98.6854 199.187 98.7088 199.201C98.7321 199.214 98.7461 199.237 98.7601 199.26C98.7788 199.301 98.7974 199.342 98.8161 199.388C98.8908 199.557 98.9608 199.722 99.0308 199.882V199.896L99.0215 199.9C98.8815 199.96 98.7461 200.015 98.6154 200.07H98.6014L98.5967 200.061C98.5454 199.946 98.4987 199.832 98.4521 199.727C98.4334 199.676 98.3774 199.649 98.3307 199.663C98.284 199.681 98.228 199.704 98.1813 199.722C98.1393 199.745 98.116 199.791 98.1253 199.836C98.1393 199.878 98.1627 199.923 98.1767 199.964C98.214 200.047 98.2467 200.125 98.2747 200.193V200.202H98.27C98.1347 200.257 98.0273 200.303 97.9433 200.335C97.9106 200.349 97.8826 200.358 97.8593 200.367C97.8406 200.376 97.8313 200.376 97.8313 200.376L97.836 200.381Z" fill="#263238"/>
<path d="M112.323 199.758C112.323 199.758 112.351 199.745 112.402 199.717C112.454 199.69 112.528 199.644 112.617 199.576C112.701 199.502 112.804 199.402 112.883 199.26C112.967 199.118 113.028 198.935 113.037 198.725C113.037 198.62 113.032 198.505 112.995 198.395C112.962 198.281 112.911 198.171 112.86 198.048C112.808 197.929 112.762 197.801 112.682 197.682C112.608 197.563 112.505 197.458 112.384 197.366C112.136 197.192 111.796 197.101 111.455 197.174C111.287 197.211 111.123 197.293 110.951 197.357C110.778 197.426 110.605 197.499 110.423 197.577C107.548 198.761 103.576 200.399 99.1888 202.206C98.9181 202.315 98.6988 202.526 98.5821 202.782C98.4607 203.038 98.4467 203.335 98.5354 203.596C98.5821 203.724 98.6428 203.857 98.6988 203.985C98.7501 204.118 98.8108 204.241 98.8995 204.346C99.0722 204.561 99.3242 204.708 99.5949 204.758C99.7303 204.785 99.8703 204.785 100.001 204.758C100.136 204.735 100.258 204.685 100.388 204.63C100.64 204.525 100.892 204.424 101.144 204.319C101.644 204.113 102.129 203.916 102.605 203.72C104.51 202.942 106.223 202.238 107.66 201.648C109.098 201.062 110.265 200.586 111.067 200.257C111.469 200.092 111.782 199.969 111.996 199.882C112.104 199.841 112.183 199.809 112.239 199.786C112.295 199.763 112.323 199.754 112.323 199.754C112.323 199.754 112.295 199.768 112.244 199.791C112.188 199.813 112.108 199.85 112.006 199.891C111.791 199.978 111.483 200.111 111.081 200.275C110.279 200.609 109.116 201.09 107.679 201.684C106.241 202.279 104.528 202.983 102.629 203.765C102.153 203.962 101.667 204.163 101.168 204.365C100.92 204.465 100.668 204.57 100.412 204.676C100.286 204.726 100.155 204.781 100.015 204.804C99.875 204.827 99.7303 204.827 99.5902 204.804C99.3102 204.753 99.0442 204.598 98.8621 204.374C98.7688 204.264 98.7034 204.131 98.6521 203.999C98.5961 203.866 98.5354 203.743 98.4887 203.605C98.3954 203.331 98.414 203.015 98.5354 202.75C98.6568 202.48 98.8901 202.261 99.1702 202.142C103.558 200.339 107.534 198.711 110.409 197.526C110.591 197.453 110.764 197.38 110.937 197.311C111.109 197.243 111.273 197.16 111.446 197.124C111.796 197.051 112.15 197.147 112.402 197.325C112.528 197.417 112.631 197.526 112.71 197.65C112.79 197.773 112.836 197.901 112.888 198.02C112.939 198.139 112.99 198.254 113.023 198.373C113.056 198.487 113.065 198.601 113.06 198.711C113.051 198.926 112.986 199.114 112.902 199.255C112.818 199.397 112.715 199.502 112.626 199.571C112.538 199.64 112.458 199.685 112.407 199.708C112.356 199.731 112.328 199.745 112.328 199.745L112.323 199.758Z" fill="#263238"/>
<path d="M111.974 198.336C111.974 198.336 111.951 198.295 111.904 198.235C111.858 198.176 111.764 198.098 111.629 198.066C111.498 198.034 111.311 198.057 111.181 198.18C111.045 198.299 110.98 198.519 111.064 198.711C111.143 198.903 111.349 199.013 111.531 198.999C111.713 198.995 111.862 198.885 111.928 198.766C111.998 198.647 112.007 198.528 111.998 198.455C111.988 198.377 111.97 198.336 111.974 198.336C111.974 198.336 111.984 198.345 111.993 198.363C112.002 198.382 112.012 198.414 112.021 198.45C112.035 198.528 112.04 198.656 111.965 198.784C111.895 198.912 111.736 199.04 111.535 199.049C111.335 199.063 111.101 198.944 111.013 198.729C110.919 198.514 110.994 198.267 111.148 198.139C111.297 198.002 111.503 197.979 111.643 198.025C111.788 198.066 111.881 198.153 111.928 198.222C111.951 198.254 111.965 198.281 111.974 198.304C111.984 198.322 111.984 198.336 111.984 198.336H111.974Z" fill="#263238"/>
<path d="M112.572 199.027C112.572 199.027 112.422 198.99 112.254 198.917C112.086 198.844 111.955 198.77 111.96 198.757C111.965 198.743 112.109 198.793 112.277 198.866C112.445 198.94 112.576 199.013 112.572 199.027Z" fill="#263238"/>
<path d="M100.445 202.85L100.193 202.955L100.165 202.891L100.748 202.649L100.776 202.713L100.524 202.818L100.8 203.463L100.725 203.495L100.45 202.85H100.445Z" fill="#263238"/>
<path d="M101.467 202.901L101.015 203.089C101.071 203.198 101.187 203.235 101.309 203.185C101.374 203.157 101.425 203.111 101.444 203.047L101.505 203.075C101.481 203.153 101.416 203.212 101.332 203.249C101.164 203.317 101.001 203.249 100.931 203.093C100.865 202.933 100.931 202.778 101.08 202.714C101.234 202.649 101.393 202.714 101.458 202.874C101.458 202.878 101.463 202.887 101.467 202.896V202.901ZM100.991 203.034L101.379 202.874C101.323 202.773 101.215 202.732 101.108 202.778C101.001 202.819 100.959 202.924 100.991 203.034Z" fill="#263238"/>
<path d="M102.055 202.946L101.789 202.795L101.71 203.088L101.626 203.12L101.724 202.759L101.406 202.585L101.49 202.553L101.742 202.695L101.817 202.42L101.896 202.388L101.803 202.731L102.139 202.914L102.055 202.951V202.946Z" fill="#263238"/>
<path d="M102.531 202.713C102.513 202.75 102.475 202.782 102.433 202.8C102.331 202.841 102.251 202.809 102.209 202.709L102.069 202.388L101.971 202.43L101.943 202.37L102.041 202.329L101.99 202.215L102.065 202.183L102.116 202.297L102.279 202.228L102.307 202.288L102.144 202.356L102.279 202.672C102.307 202.736 102.354 202.754 102.415 202.732C102.443 202.718 102.471 202.699 102.485 202.672L102.531 202.713Z" fill="#263238"/>
<path d="M103.794 205.747L100.678 207.028L101.985 210.082L105.101 208.8L103.794 205.747Z" fill="#263238"/>
<path d="M103.794 205.747L100.678 207.028L101.985 210.082L105.101 208.8L103.794 205.747Z" fill="#ED0641"/>
<path d="M109.925 203.587C109.925 203.587 108.893 204.04 107.61 204.57C106.322 205.101 105.276 205.517 105.272 205.503C105.267 205.49 106.303 205.05 107.587 204.52C108.87 203.989 109.92 203.573 109.925 203.587Z" fill="#263238"/>
<path d="M114.037 202.997C114.037 202.997 112.174 203.793 109.864 204.744C107.554 205.696 105.673 206.455 105.668 206.437C105.663 206.423 107.53 205.641 109.841 204.689C112.151 203.738 114.027 202.979 114.037 202.997Z" fill="#263238"/>
<path d="M114.224 203.706C114.224 203.706 112.385 204.492 110.098 205.43C107.815 206.368 105.958 207.118 105.953 207.104C105.948 207.091 107.792 206.318 110.079 205.38C112.362 204.442 114.219 203.692 114.224 203.706Z" fill="#263238"/>
<path d="M111.111 205.737C111.111 205.737 110.028 206.212 108.679 206.766C107.33 207.319 106.233 207.758 106.229 207.745C106.224 207.731 107.311 207.269 108.66 206.715C110.009 206.162 111.106 205.723 111.111 205.737Z" fill="#263238"/>
<path d="M105.962 210.818L102.846 212.1L104.153 215.153L107.269 213.872L105.962 210.818Z" fill="#ED0641"/>
<path d="M112.105 208.678C112.105 208.678 111.073 209.13 109.79 209.661C108.501 210.192 107.456 210.608 107.451 210.594C107.447 210.58 108.483 210.141 109.766 209.611C111.05 209.08 112.1 208.664 112.105 208.678Z" fill="#263238"/>
<path d="M116.216 208.088C116.216 208.088 114.354 208.884 112.044 209.835C109.733 210.786 107.852 211.546 107.848 211.527C107.843 211.514 109.71 210.732 112.02 209.78C114.331 208.829 116.207 208.069 116.216 208.088Z" fill="#263238"/>
<path d="M116.404 208.797C116.404 208.797 114.565 209.584 112.278 210.521C109.995 211.459 108.137 212.209 108.133 212.196C108.128 212.182 109.972 211.409 112.259 210.471C114.541 209.533 116.399 208.783 116.404 208.797Z" fill="#263238"/>
<path d="M113.29 210.827C113.29 210.827 112.208 211.303 110.859 211.857C109.51 212.41 108.413 212.849 108.408 212.835C108.404 212.822 109.491 212.36 110.84 211.806C112.189 211.253 113.286 210.814 113.29 210.827Z" fill="#263238"/>
<path d="M108.142 215.908L105.026 217.189L106.334 220.243L109.45 218.962L108.142 215.908Z" fill="#ED0641"/>
<path d="M114.283 213.768C114.283 213.768 113.252 214.221 111.968 214.752C110.68 215.282 109.635 215.699 109.63 215.685C109.625 215.671 110.661 215.232 111.945 214.701C113.228 214.171 114.279 213.755 114.283 213.768Z" fill="#263238"/>
<path d="M118.395 213.179C118.395 213.179 116.533 213.974 114.222 214.926C111.912 215.877 110.031 216.637 110.026 216.618C110.022 216.605 111.889 215.822 114.199 214.871C116.509 213.92 118.386 213.16 118.395 213.179Z" fill="#263238"/>
<path d="M118.582 213.888C118.582 213.888 116.743 214.675 114.456 215.612C112.174 216.55 110.316 217.3 110.312 217.286C110.307 217.273 112.15 216.5 114.438 215.562C116.72 214.624 118.578 213.874 118.582 213.888Z" fill="#263238"/>
<path d="M115.468 215.918C115.468 215.918 114.385 216.394 113.036 216.947C111.687 217.501 110.591 217.94 110.586 217.926C110.581 217.913 111.669 217.451 113.018 216.897C114.367 216.344 115.463 215.905 115.468 215.918Z" fill="#263238"/>
<path d="M110.322 220.993L107.206 222.274L108.513 225.328L111.629 224.047L110.322 220.993Z" fill="#ED0641"/>
<path d="M116.458 218.855C116.458 218.855 115.427 219.308 114.143 219.838C112.855 220.369 111.809 220.785 111.805 220.771C111.8 220.758 112.836 220.319 114.12 219.788C115.403 219.257 116.453 218.841 116.458 218.855Z" fill="#263238"/>
<path d="M120.574 218.265C120.574 218.265 118.711 219.061 116.401 220.012C114.091 220.964 112.21 221.723 112.205 221.705C112.2 221.691 114.067 220.909 116.378 219.957C118.688 219.006 120.564 218.247 120.574 218.265Z" fill="#263238"/>
<path d="M120.762 218.974C120.762 218.974 118.923 219.761 116.636 220.698C114.354 221.636 112.496 222.386 112.491 222.372C112.487 222.359 114.33 221.586 116.617 220.648C118.9 219.71 120.757 218.96 120.762 218.974Z" fill="#263238"/>
<path d="M117.648 221.005C117.648 221.005 116.565 221.48 115.216 222.034C113.867 222.587 112.77 223.026 112.766 223.013C112.761 222.999 113.848 222.537 115.197 221.984C116.546 221.43 117.643 220.991 117.648 221.005Z" fill="#263238"/>
<path d="M112.493 226.089L109.377 227.37L110.684 230.424L113.8 229.143L112.493 226.089Z" fill="#E0E0E0"/>
<path d="M118.639 223.946C118.639 223.946 117.607 224.398 116.324 224.929C115.036 225.46 113.99 225.876 113.985 225.862C113.981 225.848 115.017 225.409 116.3 224.879C117.584 224.348 118.634 223.932 118.639 223.946Z" fill="#E0E0E0"/>
<path d="M122.755 223.356C122.755 223.356 120.893 224.152 118.583 225.103C116.272 226.055 114.391 226.814 114.387 226.795C114.382 226.782 116.249 226 118.559 225.048C120.87 224.097 122.746 223.337 122.755 223.356Z" fill="#E0E0E0"/>
<path d="M122.943 224.065C122.943 224.065 121.104 224.851 118.817 225.789C116.534 226.727 114.677 227.477 114.672 227.463C114.667 227.449 116.511 226.676 118.798 225.739C121.08 224.801 122.938 224.051 122.943 224.065Z" fill="#E0E0E0"/>
<path d="M119.828 226.096C119.828 226.096 118.746 226.571 117.397 227.125C116.048 227.678 114.951 228.117 114.946 228.104C114.942 228.09 116.029 227.628 117.378 227.074C118.727 226.521 119.824 226.082 119.828 226.096Z" fill="#E0E0E0"/>
<g opacity="0.3">
<path d="M110.333 221.02L107.217 222.301L108.524 225.355L111.64 224.073L110.333 221.02Z" fill="black"/>
</g>
<g opacity="0.3">
<path d="M105.961 210.818L102.845 212.1L104.152 215.153L107.268 213.872L105.961 210.818Z" fill="black"/>
</g>
<path d="M262.614 167.971H225.222C224.147 167.971 223.278 168.84 223.278 169.915V186.95C223.278 188.026 224.147 188.894 225.222 188.894H240.909L244.24 193.166L247.014 188.894H262.61C263.685 188.894 264.554 188.026 264.554 186.95V169.915C264.554 168.84 263.685 167.971 262.61 167.971H262.614Z" fill="white"/>
<path d="M262.615 167.971C262.615 167.971 262.677 167.971 262.802 167.971C262.922 167.985 263.109 168 263.335 168.091C263.561 168.177 263.834 168.326 264.074 168.59C264.319 168.849 264.53 169.233 264.588 169.704C264.621 171.561 264.617 174.254 264.631 177.672C264.631 179.381 264.641 181.267 264.645 183.312C264.645 184.334 264.645 185.4 264.65 186.499C264.645 186.773 264.669 187.056 264.612 187.349C264.554 187.637 264.434 187.915 264.257 188.155C263.906 188.64 263.325 188.966 262.706 188.985C258.002 188.99 252.727 189 247.02 189.009L247.116 188.957C246.242 190.301 245.301 191.75 244.341 193.229L244.25 193.368L244.149 193.238C243.098 191.889 241.965 190.44 240.813 188.966L240.909 189.014C236.589 189.014 232.068 189.014 227.431 189.014H225.813C225.54 189.009 225.285 189.024 224.993 189C224.709 188.966 224.431 188.875 224.186 188.731C223.692 188.448 223.332 187.953 223.207 187.397C223.14 187.118 223.159 186.835 223.154 186.576V185.784C223.154 183.677 223.154 181.598 223.154 179.553C223.154 177.513 223.154 175.507 223.154 173.539C223.154 172.555 223.154 171.585 223.154 170.625V169.905C223.154 169.651 223.202 169.401 223.293 169.166C223.476 168.696 223.831 168.302 224.273 168.077C224.493 167.961 224.733 167.889 224.978 167.861C225.228 167.837 225.453 167.851 225.689 167.846C226.149 167.846 226.61 167.846 227.071 167.846C227.983 167.846 228.885 167.846 229.778 167.846C231.554 167.846 233.282 167.846 234.953 167.851C238.289 167.856 241.399 167.861 244.236 167.865C249.905 167.88 254.498 167.894 257.681 167.904C259.26 167.913 260.493 167.923 261.333 167.928C261.746 167.933 262.063 167.937 262.284 167.942C262.5 167.942 262.605 167.957 262.605 167.957C262.605 167.957 262.495 167.966 262.284 167.971C262.063 167.971 261.746 167.976 261.333 167.985C260.489 167.99 259.26 168 257.681 168.009C254.498 168.019 249.905 168.033 244.236 168.048C241.399 168.048 238.289 168.057 234.953 168.062C233.282 168.062 231.559 168.062 229.778 168.067C228.89 168.067 227.988 168.067 227.071 168.067C226.615 168.067 226.154 168.067 225.689 168.067C225.458 168.067 225.218 168.062 225.007 168.081C224.791 168.105 224.575 168.173 224.378 168.273C223.985 168.475 223.668 168.825 223.509 169.243C223.428 169.449 223.389 169.675 223.385 169.901V170.621C223.385 171.581 223.385 172.555 223.385 173.534C223.385 175.497 223.385 177.504 223.385 179.549C223.385 181.589 223.385 183.667 223.385 185.779V186.571C223.385 186.84 223.37 187.094 223.433 187.334C223.538 187.819 223.86 188.256 224.292 188.505C224.508 188.63 224.748 188.712 224.997 188.741C225.237 188.765 225.525 188.75 225.789 188.755C226.327 188.755 226.869 188.755 227.407 188.755C232.044 188.755 236.565 188.755 240.885 188.755H240.943L240.981 188.803C242.129 190.277 243.261 191.726 244.313 193.075L244.121 193.085C245.081 191.606 246.026 190.157 246.9 188.813L246.933 188.76H246.996C252.698 188.765 257.974 188.769 262.673 188.774C263.234 188.755 263.762 188.462 264.079 188.025C264.237 187.809 264.353 187.555 264.405 187.296C264.458 187.037 264.439 186.758 264.444 186.485C264.444 185.385 264.444 184.32 264.449 183.297C264.454 181.253 264.458 179.366 264.463 177.657C264.473 174.249 264.477 171.552 264.482 169.694C264.434 169.243 264.237 168.869 264.002 168.614C263.772 168.35 263.508 168.201 263.292 168.11C262.845 167.933 262.586 167.976 262.586 167.957L262.615 167.971Z" fill="black"/>
<path d="M236.917 172.781V173.409H236.504V172.776L235.812 171.633H236.249L236.724 172.425L237.2 171.633H237.603L236.912 172.781H236.917Z" fill="black"/>
<path d="M237.598 172.521C237.598 171.993 238.01 171.6 238.572 171.6C239.134 171.6 239.546 171.988 239.546 172.521C239.546 173.054 239.134 173.443 238.572 173.443C238.01 173.443 237.598 173.049 237.598 172.521ZM239.129 172.521C239.129 172.185 238.889 171.95 238.572 171.95C238.255 171.95 238.015 172.18 238.015 172.521C238.015 172.862 238.255 173.092 238.572 173.092C238.889 173.092 239.129 172.862 239.129 172.521Z" fill="black"/>
<path d="M239.84 172.627V171.628H240.253V172.608C240.253 172.944 240.401 173.088 240.651 173.088C240.901 173.088 241.049 172.948 241.049 172.608V171.628H241.457V172.627C241.457 173.15 241.16 173.438 240.651 173.438C240.142 173.438 239.845 173.15 239.845 172.627H239.84Z" fill="black"/>
<path d="M242.993 173.409L242.652 172.915H242.273V173.409H241.86V171.628H242.628C243.104 171.628 243.401 171.873 243.401 172.272C243.401 172.54 243.267 172.732 243.036 172.833L243.435 173.404H242.993V173.409ZM242.609 171.964H242.273V172.584H242.609C242.859 172.584 242.988 172.468 242.988 172.272C242.988 172.075 242.864 171.96 242.609 171.96V171.964Z" fill="black"/>
<path d="M244.338 172.521C244.338 171.984 244.751 171.6 245.303 171.6C245.61 171.6 245.869 171.71 246.032 171.916L245.768 172.161C245.648 172.022 245.499 171.955 245.322 171.955C244.991 171.955 244.751 172.19 244.751 172.526C244.751 172.862 244.986 173.097 245.322 173.097C245.499 173.097 245.648 173.025 245.768 172.886L246.032 173.131C245.864 173.337 245.61 173.448 245.298 173.448C244.746 173.448 244.333 173.064 244.333 172.526L244.338 172.521Z" fill="black"/>
<path d="M246.166 172.521C246.166 171.993 246.579 171.6 247.14 171.6C247.702 171.6 248.115 171.988 248.115 172.521C248.115 173.054 247.702 173.443 247.14 173.443C246.579 173.443 246.166 173.049 246.166 172.521ZM247.697 172.521C247.697 172.185 247.457 171.95 247.14 171.95C246.824 171.95 246.584 172.18 246.584 172.521C246.584 172.862 246.824 173.092 247.14 173.092C247.457 173.092 247.697 172.862 247.697 172.521Z" fill="black"/>
<path d="M248.422 171.633H249.228C249.809 171.633 250.207 171.984 250.207 172.521C250.207 173.059 249.809 173.409 249.228 173.409H248.422V171.628V171.633ZM249.209 173.073C249.564 173.073 249.795 172.862 249.795 172.521C249.795 172.18 249.564 171.969 249.209 171.969H248.835V173.073H249.209Z" fill="black"/>
<path d="M251.903 173.078V173.409H250.525V171.628H251.869V171.96H250.933V172.344H251.759V172.665H250.933V173.078H251.903Z" fill="black"/>
<path d="M258.967 175.276H228.876C227.935 175.276 227.172 176.039 227.172 176.98V183.336C227.172 184.277 227.935 185.04 228.876 185.04H258.967C259.908 185.04 260.671 184.277 260.671 183.336V176.98C260.671 176.039 259.908 175.276 258.967 175.276Z" fill="#F5F5F5"/>
<path d="M236.879 180.126L238.641 181.079L237.849 182.404L236.069 181.354L236.101 183.312H234.579L234.597 181.337L232.817 182.404L232.039 181.079L233.801 180.126L232.039 179.156L232.817 177.83L234.597 178.898L234.579 176.923H236.101L236.069 178.898L237.849 177.83L238.641 179.156L236.879 180.126Z" fill="black"/>
<path d="M245.401 180.126L247.163 181.079L246.371 182.404L244.592 181.354L244.623 183.312H243.102L243.119 181.337L241.34 182.404L240.562 181.079L242.324 180.126L240.562 179.156L241.34 177.83L243.119 178.898L243.102 176.923H244.623L244.592 178.898L246.371 177.83L247.163 179.156L245.401 180.126Z" fill="black"/>
<path d="M253.923 180.126L255.685 181.079L254.893 182.404L253.113 181.354L253.144 183.312H251.623L251.641 181.337L249.861 182.404L249.083 181.079L250.845 180.126L249.083 179.156L249.861 177.83L251.641 178.898L251.623 176.923H253.144L253.113 178.898L254.893 177.83L255.685 179.156L253.923 180.126Z" fill="black"/>
<path d="M284.891 320.798C284.288 318.462 285.818 316.119 287.538 314.424C289.252 312.729 291.303 311.212 292.198 308.971C293.646 305.339 291.703 300.641 294.166 297.619C295.62 295.835 298.223 295.245 299.512 293.341C300.185 292.344 300.407 291.119 300.673 289.938C302.026 283.938 305.028 278.326 309.263 273.863C309.555 279.202 308.38 284.618 305.892 289.354C304.895 291.258 303.663 293.112 303.333 295.239C302.794 298.686 304.724 302.241 303.873 305.631C302.902 309.504 298.553 312.1 298.343 316.087C298.172 319.458 301.105 322.417 300.889 325.788C300.794 327.223 300.127 328.556 299.391 329.787C296.782 334.123 292.954 337.107 287.151 337.006L280.041 337.253L284.891 320.798Z" fill="black"/>
<path d="M278.604 337.437C278.604 337.437 277.925 337.596 276.649 337.393C276.014 337.297 275.227 337.132 274.338 336.809C273.456 336.485 272.446 336.028 271.488 335.247C271.024 334.841 270.561 334.345 270.313 333.685C270.065 333.025 270.021 332.301 269.977 331.558C269.939 330.816 269.939 330.041 269.812 329.26C269.691 328.479 269.386 327.711 268.942 326.975C268.104 325.502 266.713 324.112 266.263 322.112C265.774 320.144 266.123 318.017 266.453 315.878C266.783 313.744 267.101 311.421 266.288 309.199C265.526 306.977 263.965 304.971 263.19 302.463C262.416 299.93 262.777 297.207 262.612 294.521C262.536 293.175 262.276 291.823 261.685 290.572C261.108 289.315 260.314 288.128 259.692 286.801C258.429 284.122 258.206 281.088 257.864 278.117C257.692 276.618 257.527 275.101 257.356 273.577C257.184 272.041 257.051 270.511 256.569 269.032C256.13 267.54 255.496 266.099 254.867 264.632C254.562 263.896 254.232 263.153 254.042 262.334C253.902 261.496 253.864 260.709 253.813 259.89C253.731 258.259 253.801 256.608 254.004 254.97C254.194 253.332 254.493 251.701 254.67 250.056C254.683 249.961 254.689 249.859 254.702 249.771L254.74 249.44L255.032 249.586C256.556 250.348 257.857 251.485 258.86 252.818C259.876 254.138 260.619 255.63 261.209 257.154C262.396 260.207 262.822 263.407 263.425 266.461C264.009 269.514 264.777 272.517 266.345 275.057C267.126 276.32 268.066 277.475 268.891 278.713C269.716 279.939 270.44 281.285 270.656 282.764C271.075 285.773 269.418 288.414 269.767 291.074C269.888 292.394 270.415 293.632 271.062 294.762C271.71 295.899 272.465 296.953 273.189 298.013C273.906 299.073 274.592 300.146 275.1 301.295C275.614 302.438 275.893 303.663 275.976 304.857C276.147 307.256 275.811 309.529 275.982 311.675C276.128 313.827 276.884 315.776 277.734 317.516C278.592 319.268 279.55 320.848 280.35 322.378C280.756 323.147 281.125 323.896 281.429 324.645C281.747 325.394 281.905 326.162 282.051 326.892C282.286 328.365 282.261 329.736 282.102 330.949C281.791 333.387 280.883 335.139 280.071 336.123C279.887 336.383 279.664 336.574 279.493 336.745C279.328 336.923 279.163 337.044 279.03 337.139C278.763 337.336 278.623 337.424 278.623 337.424C278.592 337.386 279.207 337.063 280.001 336.066C280.782 335.075 281.652 333.336 281.931 330.924C282.071 329.73 282.083 328.371 281.842 326.924C281.69 326.207 281.531 325.457 281.213 324.727C280.909 323.991 280.534 323.248 280.128 322.493C279.322 320.975 278.357 319.395 277.474 317.636C276.604 315.884 275.817 313.897 275.659 311.694C275.474 309.504 275.805 307.218 275.62 304.876C275.538 303.708 275.265 302.539 274.763 301.435C274.268 300.324 273.595 299.27 272.878 298.222C272.16 297.169 271.392 296.115 270.726 294.953C270.059 293.804 269.507 292.515 269.367 291.112C269.024 288.274 270.669 285.614 270.243 282.821C270.04 281.437 269.348 280.148 268.542 278.948C267.729 277.736 266.783 276.58 265.983 275.279C264.371 272.67 263.584 269.603 262.993 266.537C262.39 263.464 261.958 260.296 260.797 257.306C260.219 255.821 259.489 254.367 258.505 253.084C257.534 251.796 256.289 250.716 254.842 249.986L255.172 249.802C255.159 249.891 255.153 249.993 255.14 250.088C254.962 251.751 254.664 253.383 254.474 255.002C254.277 256.621 254.207 258.239 254.283 259.846C254.328 260.639 254.378 261.471 254.499 262.22C254.67 262.969 254.994 263.706 255.299 264.436C255.921 265.896 256.569 267.362 257.013 268.886C257.508 270.403 257.648 271.99 257.813 273.508C257.984 275.038 258.149 276.555 258.314 278.053C258.651 281.043 258.879 284.027 260.092 286.611C260.695 287.9 261.489 289.087 262.079 290.388C262.688 291.683 262.961 293.112 263.031 294.483C263.184 297.226 262.828 299.911 263.571 302.336C264.307 304.755 265.856 306.774 266.644 309.066C267.482 311.383 267.132 313.783 266.796 315.909C266.453 318.049 266.11 320.131 266.567 322.023C266.98 323.934 268.332 325.311 269.183 326.829C269.627 327.578 269.945 328.397 270.065 329.203C270.192 330.016 270.186 330.79 270.218 331.533C270.256 332.263 270.294 332.98 270.523 333.596C270.745 334.212 271.183 334.695 271.627 335.095C272.554 335.863 273.544 336.333 274.414 336.663C275.29 336.993 276.065 337.177 276.693 337.278C277.322 337.393 277.811 337.412 278.141 337.418C278.471 337.405 278.636 337.412 278.636 337.412L278.604 337.437Z" fill="black"/>
<path d="M256.143 253.694C256.143 253.694 256.174 253.764 256.213 253.91C256.257 254.081 256.308 254.291 256.371 254.551C256.511 255.11 256.676 255.954 256.949 257.014C257.228 258.068 257.876 259.261 258.422 260.728C258.993 262.182 259.577 263.871 260.111 265.769C260.65 267.667 261.133 269.768 261.634 272.022C262.155 274.276 262.669 276.688 263.907 278.967C264.491 280.123 265.145 281.291 265.665 282.567C266.199 283.843 266.491 285.246 266.688 286.649C267.03 289.468 267.545 292.325 268.218 295.251C269.646 301.079 270.998 306.628 272.236 311.675C273.5 316.709 274.642 321.248 275.607 325.07C276.54 328.86 277.302 331.939 277.842 334.11C278.09 335.152 278.286 335.977 278.426 336.574C278.483 336.834 278.528 337.043 278.566 337.215C278.597 337.361 278.604 337.437 278.597 337.437C278.591 337.437 278.566 337.367 278.521 337.228C278.47 337.056 278.413 336.853 278.337 336.593C278.172 336.002 277.95 335.183 277.671 334.149C277.099 331.984 276.293 328.917 275.296 325.14C274.306 321.325 273.131 316.792 271.83 311.77C270.579 306.717 269.214 301.168 267.773 295.34C267.1 292.42 266.58 289.506 266.243 286.706C266.046 285.316 265.773 283.964 265.259 282.726C264.758 281.481 264.11 280.32 263.526 279.151C262.275 276.834 261.755 274.346 261.26 272.105C260.771 269.844 260.314 267.743 259.793 265.851C259.279 263.959 258.727 262.271 258.174 260.817C257.654 259.35 257.025 258.15 256.765 257.059C256.517 255.979 256.384 255.141 256.27 254.57C256.225 254.31 256.187 254.094 256.155 253.922C256.13 253.776 256.124 253.7 256.13 253.7L256.143 253.694Z" fill="black"/>
<path d="M277.348 337.463C272.708 334.701 271.375 326.327 273.311 321.28C275.247 316.233 278.637 311.631 279.158 306.253C279.558 302.12 278.205 297.88 279.17 293.842C280.472 288.389 285.792 284.167 285.728 278.567C285.697 275.425 283.906 272.467 284.046 269.324C284.224 265.471 287.176 262.417 289.011 259.02C291.817 253.827 292.001 247.682 292.959 241.86C293.918 236.039 296.14 229.798 301.301 226.935C302.063 231.881 303.365 235.264 302.958 241.968C302.812 244.374 300.019 248.977 299.638 254.253C299.41 257.402 299.251 260.563 299.06 263.712C298.87 266.778 298.673 269.908 297.575 272.778C296.73 274.981 295.378 276.974 294.75 279.247C293.575 283.519 295.118 288.147 294.166 292.477C293.359 296.147 290.82 299.302 290.299 303.022C289.569 308.247 292.953 313.681 291.22 318.665C290.363 321.141 288.325 323.128 287.747 325.68C287.297 327.661 287.785 329.762 287.379 331.749C286.725 334.955 280.605 337.45 277.342 337.247" fill="white"/>
<path d="M300.018 231.836C300.018 231.836 300.018 231.931 299.999 232.115C299.973 232.325 299.935 232.591 299.897 232.928C299.789 233.639 299.668 234.693 299.427 236.045C299.167 237.41 298.462 238.946 297.904 240.794C297.313 242.641 296.723 244.768 296.202 247.155C295.675 249.536 295.231 252.177 294.761 255.014C294.279 257.833 293.79 260.944 292.38 263.896C291.726 265.381 290.996 266.867 290.45 268.448C289.885 270.022 289.631 271.724 289.473 273.463C289.231 276.967 288.768 280.612 288.108 284.281C286.686 291.607 285.333 298.584 284.096 304.939C282.794 311.269 281.626 316.969 280.642 321.769C279.645 326.53 278.839 330.397 278.274 333.107C277.988 334.422 277.766 335.45 277.607 336.186C277.531 336.517 277.468 336.783 277.423 336.986C277.379 337.164 277.353 337.259 277.347 337.253C277.341 337.253 277.347 337.158 277.379 336.974C277.417 336.77 277.461 336.504 277.518 336.167C277.658 335.431 277.855 334.396 278.103 333.076C278.636 330.365 279.391 326.486 280.331 321.712C281.289 316.906 282.426 311.199 283.689 304.863C284.908 298.514 286.254 291.537 287.663 284.211C288.317 280.535 288.781 276.948 289.028 273.431C289.193 271.679 289.46 269.927 290.044 268.314C290.609 266.696 291.352 265.204 291.999 263.737C293.396 260.823 293.891 257.789 294.393 254.957C294.875 252.126 295.339 249.478 295.891 247.091C296.437 244.704 297.046 242.571 297.669 240.724C298.259 238.864 298.983 237.346 299.262 236.013C299.529 234.68 299.675 233.62 299.814 232.915C299.878 232.579 299.929 232.318 299.967 232.109C300.005 231.925 300.024 231.836 300.03 231.836H300.018Z" fill="black"/>
<path d="M165.27 134.445L167.929 133.745C167.929 133.745 167.337 131.515 169.649 130.862C170.846 130.522 171.682 131.147 172.09 131.685C172.572 132.31 172.688 133.133 172.471 133.887C172.219 134.751 171.41 135.682 169.533 135.839L171.111 141.829L173.735 141.135L172.81 137.627C172.81 137.627 176.244 135.703 175.17 131.644C174.143 127.762 170.424 127.775 168.928 128.17C167.786 128.469 163.972 129.774 165.264 134.445H165.27Z" fill="#EBEBEB"/>
<path d="M174.106 142.355L171.437 143.06L172.094 145.551L174.763 144.847L174.106 142.355Z" fill="#EBEBEB"/>
<path d="M315 115.144H327.71V109.773H315V115.144Z" fill="#FA2E62"/>
<path d="M322.089 108.371H334.8V103H322.089V108.371Z" fill="#FA2E62"/>
<path d="M37.9996 168.144H50.71V162.773H37.9996V168.144Z" fill="#FA2E62"/>
<path d="M45.0894 161.371H57.7998V156H45.0894V161.371Z" fill="#FA2E62"/>
<path d="M58.7104 37H46V42.3712H58.7104V37Z" fill="#FA2E62"/>
<path d="M250.716 80.7779L250.716 41.9551L194.129 41.9551L194.129 80.7779L250.716 80.7779Z" fill="#FA2E62"/>
<path d="M250.716 78.8365L250.716 40.0137L194.129 40.0137L194.129 78.8365L250.716 78.8365Z" fill="#E0063D"/>
<path d="M244.587 74.0098L244.587 44.8345L200.257 44.8345L200.257 74.0098L244.587 74.0098Z" fill="#FA2E62"/>
<path d="M200.258 74.015C200.258 74.015 200.332 74.015 200.473 74.015C200.621 74.015 200.831 74.015 201.102 74.015C201.656 74.015 202.475 74.0089 203.535 74.0028C205.66 74.0028 208.758 73.9905 212.669 73.9783C220.485 73.966 231.554 73.9477 244.587 73.9293L244.489 74.0273C244.489 65.1148 244.489 55.2345 244.483 44.852L244.587 44.9561C227.864 44.9499 212.447 44.9377 200.258 44.9377L200.344 44.852C200.326 53.7399 200.307 61.023 200.301 66.0888C200.289 68.6247 200.282 70.6032 200.276 71.9569C200.276 72.6307 200.27 73.1453 200.264 73.4944C200.264 73.8435 200.258 74.0273 200.258 74.0273C200.258 74.0273 200.258 73.8558 200.252 73.5128C200.252 73.1636 200.252 72.6552 200.239 71.9875C200.239 70.6399 200.227 68.6676 200.221 66.1378C200.209 61.0598 200.196 53.7583 200.178 44.8458L200.178 44.7601L200.264 44.7601C212.454 44.7601 227.871 44.7478 244.594 44.7417L244.698 44.7417L244.698 44.8458C244.698 55.2284 244.698 65.1026 244.692 74.0212L244.692 74.1192L244.594 74.1192C231.536 74.1008 220.442 74.0824 212.608 74.0702C208.709 74.0579 205.617 74.0518 203.498 74.0457C202.444 74.0457 201.638 74.0395 201.083 74.0334C200.812 74.0334 200.609 74.0334 200.467 74.0334C200.332 74.0334 200.264 74.0334 200.264 74.0334L200.258 74.015Z" fill="#FA2E62"/>
<path d="M250.716 78.9471C250.716 78.9471 250.31 78.7082 249.706 78.2549C249.102 77.8016 248.277 77.1646 247.384 76.4357C246.491 75.7067 245.702 75.0207 245.142 74.5184C244.581 74.0161 244.249 73.6854 244.267 73.667C244.286 73.6425 244.655 73.9304 245.24 74.4081C245.875 74.9288 246.657 75.572 247.519 76.2764C248.382 76.9808 249.164 77.624 249.798 78.1447C250.383 78.6224 250.735 78.9287 250.716 78.9532L250.716 78.9471Z" fill="#FA2E62"/>
<path d="M200.399 74.1641C198.083 75.6158 195.934 77.3248 194 79.2543Z" fill="#FA2E62"/>
<path d="M194 79.2529C194 79.2529 194.283 78.8854 194.813 78.3647C195.343 77.8441 196.1 77.1519 196.987 76.4475C197.874 75.7431 198.724 75.155 199.353 74.7569C199.981 74.3587 200.387 74.1443 200.4 74.1627C200.418 74.1872 200.036 74.4506 199.433 74.8794C198.829 75.3082 198.004 75.9085 197.117 76.6129C196.236 77.3173 195.46 77.985 194.912 78.475C194.357 78.965 194.019 79.2774 194 79.2529Z" fill="#FA2E62"/>
<path d="M194.172 40.0073C196.273 41.7041 198.379 43.3947 200.479 45.0914Z" fill="#FA2E62"/>
<path d="M200.48 45.0914C200.443 45.1343 199.001 44.0379 197.258 42.629C195.515 41.2263 194.136 40.0502 194.172 40.0012C194.209 39.9583 195.651 41.0548 197.394 42.4636C199.137 43.8664 200.517 45.0424 200.48 45.0853L200.48 45.0914Z" fill="#FA2E62"/>
<path d="M250.716 40.014C250.753 40.0569 249.423 41.1656 247.747 42.4825C246.072 43.7995 244.686 44.8286 244.649 44.7857C244.612 44.7428 245.942 43.6341 247.618 42.3171C249.293 41.0002 250.679 39.9711 250.716 40.014Z" fill="#FA2E62"/>
<path d="M235.589 64.9253L235.589 55.1553L207.699 55.1553L207.699 64.9253L235.589 64.9253Z" fill="#E0063D"/>
<path d="M122.842 55.3648V4" stroke="#C7C7C7" stroke-miterlimit="10"/>
<path d="M140.678 72.5583L139.243 75.7119H106.435L105.005 72.5583L118.973 62.8911H126.71L140.678 72.5583Z" fill="#EBEBEB"/>
<path d="M127.68 53.5791L126.71 62.8911H118.973L118.003 53.5791H127.68Z" fill="#DBDBDB"/>
<path d="M140.674 72.563L139.238 75.7166H106.43L105 72.563H140.674Z" fill="#DBDBDB"/>
</g>
<defs>
<filter id="filter0_d_375_7624" x="0" y="0" width="376" height="384" filterUnits="userSpaceOnUse" color-interpolation-filters="sRGB">
<feFlood flood-opacity="0" result="BackgroundImageFix"/>
<feColorMatrix in="SourceAlpha" type="matrix" values="0 0 0 0 0 0 0 0 0 0 0 0 0 0 0 0 0 0 127 0" result="hardAlpha"/>
<feOffset dy="4"/>
<feGaussianBlur stdDeviation="4"/>
<feComposite in2="hardAlpha" operator="out"/>
<feColorMatrix type="matrix" values="0 0 0 0 0 0 0 0 0 0 0 0 0 0 0 0 0 0 0.16 0"/>
<feBlend mode="normal" in2="BackgroundImageFix" result="effect1_dropShadow_375_7624"/>
<feBlend mode="normal" in="SourceGraphic" in2="effect1_dropShadow_375_7624" result="shape"/>
</filter>
</defs>
</svg>
