<svg width="376" height="298" viewBox="0 0 376 298" fill="none" xmlns="http://www.w3.org/2000/svg">
<g filter="url(#filter0_d_375_9028)">
<path d="M8 4H368V278C368 282.418 364.418 286 360 286H16C11.5817 286 8 282.418 8 278V4Z" fill="#ED0641"/>
<path d="M182 127.371H194.71V122H182V127.371Z" fill="#FA2E62"/>
<path d="M195 26.3711H207.71V20.9999H195V26.3711Z" fill="#FA2E62"/>
<path d="M319 249.5C319 256.407 260.347 262 188 262C115.653 262 57 256.402 57 249.5C57 242.598 115.653 237 188 237C260.347 237 319 242.598 319 249.5Z" fill="white"/>
<path d="M228.68 234.772V247.837H247.677H268.633V234.772H228.68Z" fill="#F5F5F5"/>
<path d="M227 231.122V234.773H270.034V231.122H247.677H227Z" fill="#E0E0E0"/>
<path d="M248.519 247.837H268.633V234.773H270.034V231.122H247.677V234.434L248.519 247.837Z" fill="#E0E0E0"/>
<path d="M242.371 236.879H234.267V238.845H242.371V236.879Z" fill="#E0E0E0"/>
<path d="M243.627 241.307H233.223V245.458H243.627V241.307Z" fill="white"/>
<path d="M234.565 220.091V231.138H250.633H268.354V220.091H234.565Z" fill="#F5F5F5"/>
<path d="M233.148 217V220.091H269.535V217H250.633H233.148Z" fill="#EBEBEB"/>
<path d="M251.341 231.138H268.354V220.091H269.534V217H250.633V219.805L251.341 231.138Z" fill="#EBEBEB"/>
<path d="M246.146 221.872H239.293V223.535H246.146V221.872Z" fill="#E0E0E0"/>
<path d="M247.208 225.613H238.41V229.123H247.208V225.613Z" fill="white"/>
<path d="M317.229 107.429H304.519V112.8H317.229V107.429Z" fill="#FA2E62"/>
<path d="M310.139 114.202H297.429V119.573H310.139V114.202Z" fill="#FA2E62"/>
<path d="M324.318 114.202H311.607V119.573H324.318V114.202Z" fill="#FA2E62"/>
<path d="M59.0005 66.3711H71.7109V60.9999H59.0005V66.3711Z" fill="#FA2E62"/>
<path d="M47.9996 53.002H60.71V47.6308H47.9996V53.002Z" fill="#FA2E62"/>
<path d="M55.2857 46.3711H67.9961V40.9999H55.2857V46.3711Z" fill="#FA2E62"/>
<path d="M308.697 52.9998L308.697 19.6777L260.128 19.6777L260.128 52.9998L308.697 52.9998Z" fill="#FA2E62"/>
<path d="M308.697 51.3338L308.697 18.0117L260.128 18.0117L260.128 51.3338L308.697 51.3338Z" fill="#E0063D"/>
<path d="M303.437 47.1914L303.437 22.1499L265.388 22.1499L265.388 47.1914L303.437 47.1914Z" fill="#FA2E62"/>
<path d="M265.389 47.1955C265.389 47.1955 265.452 47.1955 265.574 47.1955C265.7 47.1955 265.88 47.1955 266.113 47.1955C266.589 47.1955 267.292 47.1902 268.201 47.185C270.025 47.185 272.684 47.1744 276.041 47.1639C282.75 47.1534 292.25 47.1376 303.437 47.1219L303.352 47.206C303.352 39.5563 303.352 31.0759 303.347 22.1645L303.437 22.2538C289.084 22.2486 275.851 22.2381 265.389 22.2381L265.463 22.1645C265.447 29.7931 265.431 36.0443 265.426 40.3922C265.415 42.5689 265.41 44.267 265.404 45.4289C265.404 46.0073 265.399 46.4489 265.394 46.7486C265.394 47.0483 265.389 47.206 265.389 47.206C265.389 47.206 265.389 47.0588 265.383 46.7644C265.383 46.4647 265.383 46.0283 265.373 45.4552C265.373 44.2986 265.362 42.6057 265.357 40.4343C265.346 36.0758 265.336 29.8089 265.32 22.1592L265.32 22.0856L265.394 22.0856C275.856 22.0856 289.089 22.0751 303.442 22.0698L303.532 22.0698L303.532 22.1592C303.532 31.0707 303.532 39.5458 303.527 47.2007L303.527 47.2848L303.442 47.2848C292.235 47.2691 282.713 47.2533 275.988 47.2428C272.642 47.2323 269.988 47.227 268.169 47.2218C267.265 47.2218 266.573 47.2165 266.097 47.2112C265.864 47.2112 265.69 47.2112 265.568 47.2112C265.452 47.2112 265.394 47.2112 265.394 47.2112L265.389 47.1955Z" fill="#FA2E62"/>
<path d="M308.698 51.4287C308.698 51.4287 308.349 51.2237 307.831 50.8346C307.313 50.4456 306.604 49.8988 305.838 49.2731C305.071 48.6475 304.394 48.0587 303.913 47.6275C303.432 47.1964 303.147 46.9125 303.162 46.8968C303.178 46.8757 303.496 47.1228 303.998 47.5329C304.542 47.9798 305.214 48.5318 305.954 49.1364C306.694 49.7411 307.365 50.2931 307.91 50.74C308.412 51.1501 308.714 51.4129 308.698 51.434L308.698 51.4287Z" fill="#FA2E62"/>
<path d="M265.51 47.3232C263.522 48.5693 261.677 50.0361 260.017 51.6922Z" fill="#FA2E62"/>
<path d="M260.017 51.6912C260.017 51.6912 260.26 51.3758 260.715 50.9289C261.17 50.482 261.82 49.8879 262.581 49.2833C263.343 48.6787 264.072 48.1739 264.611 47.8322C265.151 47.4905 265.5 47.3065 265.51 47.3222C265.526 47.3433 265.198 47.5693 264.68 47.9373C264.162 48.3054 263.454 48.8206 262.692 49.4252C261.936 50.0298 261.27 50.6029 260.8 51.0235C260.324 51.4441 260.033 51.7122 260.017 51.6912Z" fill="#FA2E62"/>
<path d="M260.165 18.0063C261.968 19.4627 263.776 20.9137 265.579 22.3701Z" fill="#FA2E62"/>
<path d="M265.579 22.37C265.548 22.4068 264.311 21.4657 262.815 20.2565C261.318 19.0526 260.134 18.0431 260.166 18.001C260.198 17.9642 261.435 18.9053 262.931 20.1146C264.427 21.3185 265.611 22.328 265.579 22.3648L265.579 22.37Z" fill="#FA2E62"/>
<path d="M308.698 18.0119C308.729 18.0487 307.587 19.0003 306.149 20.1306C304.711 21.261 303.522 22.1442 303.49 22.1074C303.458 22.0706 304.6 21.119 306.038 19.9887C307.476 18.8583 308.666 17.975 308.698 18.0119Z" fill="#FA2E62"/>
<path d="M295.714 39.394L295.714 31.0083L271.776 31.0083L271.776 39.394L295.714 39.394Z" fill="#E0063D"/>
<path d="M32.9999 138.747L60.207 138.747L60.207 99.0909L32.9999 99.0909L32.9999 138.747Z" fill="#FA2E62"/>
<path d="M34.3602 138.747L61.5674 138.747L61.5674 99.0909L34.3602 99.0909L34.3602 138.747Z" fill="#E0063D"/>
<path d="M37.7423 134.453L58.1885 134.453L58.1885 103.386L37.7423 103.386L37.7423 134.453Z" fill="#FA2E62"/>
<path d="M37.7391 103.386C37.7391 103.386 37.7391 103.438 37.7391 103.537C37.7391 103.641 37.7391 103.788 37.7391 103.978C37.7391 104.366 37.7434 104.94 37.7477 105.683C37.7477 107.172 37.7562 109.343 37.7648 112.084C37.7734 117.562 37.7863 125.319 37.7992 134.453L37.7305 134.384C43.9764 134.384 50.9005 134.384 58.1766 134.379L58.1037 134.453C58.108 122.733 58.1166 111.929 58.1166 103.386L58.1766 103.447C51.9479 103.434 46.8439 103.421 43.2938 103.417C41.5167 103.408 40.1301 103.404 39.1814 103.399C38.7092 103.399 38.3486 103.395 38.1039 103.391C37.8593 103.391 37.7305 103.386 37.7305 103.386C37.7305 103.386 37.8507 103.386 38.0911 103.382C38.3358 103.382 38.6921 103.382 39.16 103.373C40.1044 103.373 41.4866 103.365 43.2595 103.36C46.8181 103.352 51.9351 103.343 58.1809 103.33L58.241 103.33L58.241 103.391C58.241 111.933 58.2496 122.737 58.2539 134.457L58.2539 134.53L58.1809 134.53C50.9048 134.53 43.985 134.53 37.7348 134.526L37.6661 134.526L37.6661 134.457C37.679 125.306 37.6919 117.532 37.7004 112.041C37.709 109.309 37.7133 107.142 37.7176 105.657C37.7176 104.919 37.7219 104.353 37.7262 103.965C37.7262 103.775 37.7262 103.632 37.7262 103.533C37.7262 103.438 37.7262 103.391 37.7262 103.391L37.7391 103.386Z" fill="#FA2E62"/>
<path d="M34.2831 138.748C34.2831 138.748 34.4505 138.463 34.7681 138.04C35.0858 137.617 35.5322 137.038 36.0431 136.412C36.5539 135.786 37.0347 135.234 37.3867 134.841C37.7387 134.448 37.9705 134.215 37.9834 134.228C38.0005 134.241 37.7988 134.5 37.4639 134.91C37.0991 135.355 36.6483 135.903 36.1547 136.507C35.661 137.112 35.2103 137.66 34.8454 138.104C34.5106 138.514 34.2959 138.761 34.2788 138.748L34.2831 138.748Z" fill="#FA2E62"/>
<path d="M37.6338 103.485C36.6164 101.862 35.4188 100.356 34.0666 99.0005Z" fill="#FA2E62"/>
<path d="M34.0677 99.001C34.0677 99.001 34.3253 99.1995 34.6902 99.5708C35.0551 99.942 35.5401 100.473 36.0338 101.095C36.5275 101.716 36.9396 102.312 37.2186 102.752C37.4976 103.192 37.6479 103.477 37.635 103.486C37.6178 103.499 37.4332 103.231 37.1327 102.808C36.8322 102.385 36.4116 101.807 35.9179 101.185C35.4242 100.568 34.9563 100.024 34.6129 99.6398C34.2695 99.2513 34.0506 99.0139 34.0677 99.001Z" fill="#FA2E62"/>
<path d="M61.5713 99.1214C60.3822 100.593 59.1974 102.07 58.0084 103.542Z" fill="#FA2E62"/>
<path d="M58.0091 103.542C57.979 103.516 58.7474 102.506 59.7347 101.284C60.7178 100.063 61.542 99.0959 61.5763 99.1218C61.6063 99.1477 60.8379 100.158 59.8506 101.379C58.8676 102.601 58.0434 103.568 58.0133 103.542L58.0091 103.542Z" fill="#FA2E62"/>
<path d="M61.5675 138.748C61.5374 138.773 60.7604 137.841 59.8375 136.667C58.9146 135.493 58.1934 134.522 58.2234 134.496C58.2535 134.47 59.0305 135.402 59.9534 136.576C60.8763 137.75 61.5975 138.722 61.5675 138.748Z" fill="#FA2E62"/>
<path d="M44.1092 128.146L50.9561 128.146L50.9561 108.601L44.1092 108.601L44.1092 128.146Z" fill="#E0063D"/>
<rect x="193" y="82" width="76" height="88" fill="#E0E0E0"/>
<rect x="197" y="86" width="68" height="68" fill="white"/>
<path d="M118.44 50.5541V4" stroke="#C7C7C7" stroke-miterlimit="10"/>
<path d="M134.606 66.1373L133.305 68.9955H103.57L102.273 66.1373L114.933 57.3755H121.946L134.606 66.1373Z" fill="#EBEBEB"/>
<path d="M122.825 48.9355L121.946 57.3754H114.933L114.055 48.9355H122.825Z" fill="#DBDBDB"/>
<path d="M134.602 66.1416L133.301 68.9998H103.566L102.27 66.1416H134.602Z" fill="#DBDBDB"/>
<path d="M149.381 41.3355V4" stroke="#C7C7C7" stroke-miterlimit="10"/>
<path d="M165.547 56.919L164.247 59.7773H134.511L133.215 56.919L145.875 48.1572H152.888L165.547 56.919Z" fill="#EBEBEB"/>
<path d="M153.766 39.7129L152.887 48.1571H145.874L144.995 39.7129H153.766Z" fill="#DBDBDB"/>
<path d="M165.547 56.9189L164.247 59.7772H134.511L133.215 56.9189H165.547Z" fill="#DBDBDB"/>
<circle cx="231" cy="113" r="12" fill="#D9D9D9"/>
<path fill-rule="evenodd" clip-rule="evenodd" d="M252.951 154H208.049C208.017 153.504 208 153.004 208 152.5C208 140.074 218.074 130 230.5 130C242.926 130 253 140.074 253 152.5C253 153.004 252.983 153.504 252.951 154Z" fill="#D9D9D9"/>
<path d="M103.542 245.769C103.542 245.769 102.977 246.177 101.721 246.482C101.099 246.639 100.309 246.791 99.3641 246.835C98.425 246.877 97.3174 246.845 96.1317 246.494C95.5474 246.298 94.9288 246.02 94.4456 245.507C93.9624 244.993 93.6421 244.343 93.3145 243.675C92.9927 243.004 92.6938 242.29 92.2753 241.618C91.8627 240.944 91.2852 240.353 90.591 239.845C89.2495 238.81 87.4304 238.064 86.2428 236.393C85.0324 234.766 84.5338 232.669 84.0128 230.568C83.4942 228.473 82.8904 226.207 81.2833 224.471C79.723 222.715 77.5081 221.467 75.8259 219.452C74.1338 217.414 73.4167 214.762 72.2281 212.348C71.6385 211.136 70.8765 209.989 69.8492 209.063C68.8312 208.126 67.6409 207.337 66.555 206.353C64.3556 204.369 62.9796 201.655 61.5168 199.047C60.7805 197.731 60.0427 196.395 59.2966 195.055C58.5456 193.704 57.8322 192.344 56.8163 191.165C55.8364 189.958 54.6946 188.874 53.5489 187.763C52.9836 187.201 52.3924 186.644 51.9007 185.962C51.4484 185.242 51.1095 184.531 50.7466 183.795C50.0409 182.322 49.4683 180.772 49.0237 179.182C48.5673 177.598 48.213 175.978 47.7424 174.392C47.7174 174.299 47.6841 174.203 47.6615 174.116L47.5692 173.797L47.895 173.819C49.5946 173.934 51.2338 174.48 52.6736 175.323C54.1203 176.149 55.3812 177.239 56.5139 178.417C58.7875 180.776 60.4146 183.563 62.1494 186.148C63.8666 188.739 65.734 191.213 68.1606 192.951C69.3685 193.815 70.6812 194.518 71.9203 195.342C73.1545 196.154 74.3415 197.116 75.1115 198.397C76.6593 201.012 76.1498 204.088 77.4984 206.407C78.1193 207.579 79.0831 208.517 80.1166 209.31C81.1525 210.108 82.2561 210.789 83.3329 211.488C84.4039 212.189 85.4504 212.914 86.3624 213.778C87.2777 214.634 88.0083 215.657 88.545 216.726C89.6292 218.874 90.1958 221.1 91.182 223.014C92.1472 224.943 93.5963 226.449 95.0523 227.726C96.5192 229.012 98.0135 230.1 99.3419 231.203C100.013 231.755 100.642 232.304 101.212 232.877C101.794 233.446 102.237 234.093 102.653 234.71C103.438 235.978 103.944 237.253 104.266 238.433C104.919 240.802 104.758 242.769 104.388 243.99C104.319 244.302 104.187 244.563 104.095 244.787C104.012 245.015 103.906 245.19 103.82 245.329C103.65 245.614 103.555 245.75 103.555 245.75C103.511 245.727 103.954 245.19 104.302 243.965C104.64 242.75 104.771 240.809 104.098 238.476C103.766 237.321 103.253 236.063 102.472 234.82C102.055 234.217 101.619 233.588 101.045 233.037C100.48 232.475 99.8474 231.934 99.181 231.394C97.8517 230.305 96.3515 229.219 94.8588 227.938C93.3802 226.657 91.8872 225.127 90.8906 223.156C89.8756 221.207 89.2982 218.971 88.2244 216.881C87.6974 215.835 86.9948 214.863 86.1059 214.037C85.2203 213.203 84.1928 212.491 83.1268 211.801C82.0583 211.106 80.9429 210.43 79.8796 209.615C78.8213 208.813 77.8144 207.837 77.1441 206.596C75.7328 204.111 76.2232 201.022 74.7529 198.609C74.0314 197.411 72.8957 196.489 71.6888 195.693C70.4712 194.888 69.1527 194.187 67.9125 193.295C65.418 191.511 63.5085 188.985 61.7805 186.384C60.0384 183.783 58.4177 181.027 56.192 178.716C55.0857 177.569 53.8512 176.509 52.4485 175.706C51.0551 174.892 49.4907 174.376 47.8736 174.262L48.1071 173.964C48.1297 174.051 48.1631 174.147 48.1881 174.24C48.666 175.843 49.0203 177.464 49.4693 179.03C49.9125 180.6 50.4728 182.12 51.1629 183.573C51.5101 184.288 51.8779 185.035 52.2783 185.68C52.7255 186.305 53.3083 186.859 53.8712 187.415C55.0086 188.522 56.1719 189.625 57.1699 190.859C58.2122 192.068 58.9536 193.478 59.6913 194.814C60.4399 196.16 61.1777 197.496 61.9081 198.814C63.3724 201.443 64.7347 204.107 66.8504 206.023C67.9042 206.979 69.0944 207.768 70.1413 208.741C71.2033 209.701 72.0064 210.913 72.6 212.151C73.7989 214.623 74.5072 217.237 76.1283 219.188C77.741 221.135 79.9492 222.4 81.5598 224.21C83.2271 226.025 83.831 228.373 84.3413 230.465C84.8506 232.571 85.3379 234.624 86.4897 236.193C87.6078 237.797 89.3869 238.546 90.7572 239.618C91.4563 240.137 92.0651 240.77 92.4876 241.468C92.9183 242.168 93.2113 242.885 93.5272 243.558C93.8441 244.217 94.1561 244.864 94.6045 245.344C95.0472 245.826 95.6375 246.102 96.2018 246.3C97.3533 246.651 98.4483 246.702 99.378 246.671C100.314 246.638 101.099 246.509 101.718 246.36C102.342 246.223 102.8 246.052 103.107 245.93C103.407 245.791 103.562 245.733 103.562 245.733L103.542 245.769Z" fill="black"/>
<path d="M50.5042 177.18C50.5042 177.18 50.5605 177.232 50.652 177.352C50.7591 177.493 50.8868 177.667 51.0458 177.882C51.3903 178.344 51.8684 179.059 52.5293 179.932C53.1937 180.796 54.2517 181.647 55.3213 182.789C56.4094 183.91 57.5999 185.243 58.8244 186.788C60.0547 188.331 61.3107 190.083 62.6431 191.969C63.9931 193.847 65.3984 195.874 67.42 197.499C68.4047 198.34 69.4587 199.165 70.4314 200.141C71.4158 201.113 72.2266 202.295 72.9496 203.513C74.3536 205.981 75.9304 208.418 77.6806 210.858C81.2474 215.684 84.636 220.281 87.7257 224.459C90.834 228.616 93.6398 232.363 96.0049 235.516C98.3284 238.652 100.219 241.199 101.555 242.994C102.185 243.859 102.685 244.544 103.044 245.041C103.198 245.259 103.319 245.435 103.421 245.578C103.506 245.701 103.542 245.769 103.536 245.771C103.53 245.774 103.48 245.719 103.385 245.607C103.272 245.469 103.141 245.303 102.97 245.093C102.59 244.612 102.069 243.942 101.412 243.095C100.049 241.318 98.122 238.801 95.7449 235.701C93.3588 232.563 90.5261 228.834 87.3877 224.704C84.2838 220.524 80.8834 215.932 77.3049 211.112C75.5572 208.678 73.9524 206.19 72.5616 203.737C71.8436 202.53 71.0699 201.388 70.1178 200.445C69.1749 199.49 68.1292 198.668 67.1396 197.816C65.0916 196.161 63.651 194.066 62.3294 192.19C61.0063 190.293 59.7737 188.531 58.5634 186.987C57.3589 185.44 56.1977 184.095 55.1272 182.967C54.081 181.815 53.0381 180.951 52.3766 180.044C51.7317 179.144 51.2854 178.422 50.9595 177.939C50.818 177.716 50.6996 177.532 50.6041 177.386C50.5244 177.261 50.4891 177.193 50.495 177.19L50.5042 177.18Z" fill="black"/>
<mask id="path-57-inside-1_375_9028" fill="white">
<path d="M102.393 246.277C97.0465 245.52 92.5852 238.309 92.4239 232.906C92.2626 227.503 93.6139 221.948 92.0192 216.787C90.7933 212.82 87.9093 209.429 87.2414 205.332C86.3376 199.799 89.6164 193.851 87.3971 188.71C86.1551 185.823 83.3619 183.784 82.278 180.831C80.9549 177.208 82.5 173.251 82.8819 169.41C83.4666 163.536 81.265 157.796 79.9028 152.055C78.5407 146.315 78.1823 139.7 81.839 135.067C84.4503 139.335 86.9567 141.955 89.1689 148.296C89.9627 150.572 89.1618 155.897 90.8463 160.911C91.8506 163.904 92.9242 166.882 93.9636 169.86C94.9712 172.762 95.9974 175.726 96.0915 178.797C96.1627 181.155 95.6844 183.516 95.9817 185.855C96.5469 190.25 99.7561 193.924 100.548 198.286C101.221 201.982 100.095 205.873 101.051 209.506C102.394 214.608 107.612 218.315 107.936 223.582C108.101 226.197 106.988 228.816 107.44 231.394C107.788 233.395 109.05 235.145 109.442 237.135C110.076 240.345 105.393 245.008 102.304 246.08"/>
</mask>
<path d="M92.0192 216.787L92.4969 216.639L92.4969 216.639L92.0192 216.787ZM87.2414 205.332L87.7348 205.251L87.7349 205.251L87.2414 205.332ZM87.3971 188.71L86.938 188.908L86.9378 188.907L87.3971 188.71ZM82.278 180.831L81.8086 181.004L81.8083 181.003L82.278 180.831ZM82.8819 169.41L82.3843 169.361L82.3843 169.361L82.8819 169.41ZM81.839 135.067L81.4465 134.757L81.8911 134.194L82.2655 134.806L81.839 135.067ZM89.1689 148.296L89.641 148.132L89.641 148.132L89.1689 148.296ZM90.8463 160.911L91.3202 160.751L91.3203 160.752L90.8463 160.911ZM93.9636 169.86L94.4357 169.695L94.4359 169.696L93.9636 169.86ZM96.0915 178.797L96.5913 178.781L96.5913 178.782L96.0915 178.797ZM95.9817 185.855L95.4858 185.919L95.4857 185.918L95.9817 185.855ZM100.548 198.286L100.056 198.375L100.056 198.375L100.548 198.286ZM101.051 209.506L100.567 209.633L100.567 209.633L101.051 209.506ZM107.936 223.582L107.437 223.613L107.437 223.613L107.936 223.582ZM107.44 231.394L107.932 231.307L107.933 231.308L107.44 231.394ZM109.442 237.135L108.952 237.232L108.952 237.231L109.442 237.135ZM102.323 246.772C99.4569 246.366 96.8983 244.25 95.0547 241.621C93.206 238.984 92.0082 235.738 91.9241 232.921L92.9237 232.891C93.0009 235.477 94.1144 238.538 95.8735 241.047C97.6376 243.563 99.9831 245.431 102.464 245.782L102.323 246.772ZM91.9241 232.921C91.8428 230.197 92.1432 227.397 92.2595 224.734C92.3772 222.041 92.3129 219.431 91.5414 216.934L92.4969 216.639C93.3202 219.304 93.3776 222.052 93.2586 224.777C93.1383 227.532 92.8437 230.212 92.9237 232.891L91.9241 232.921ZM91.5414 216.934C90.9451 215.004 89.9462 213.216 88.9767 211.337C88.018 209.48 87.0957 207.546 86.7479 205.412L87.7349 205.251C88.0549 207.215 88.9086 209.025 89.8653 210.879C90.8113 212.712 91.8673 214.602 92.4969 216.639L91.5414 216.934ZM86.7479 205.412C86.2799 202.547 86.8958 199.575 87.3182 196.798C87.7478 193.976 87.9854 191.334 86.938 188.908L87.8561 188.511C89.028 191.226 88.736 194.129 88.3069 196.949C87.8707 199.815 87.2991 202.583 87.7348 205.251L86.7479 205.412ZM86.9378 188.907C86.3487 187.538 85.3883 186.362 84.3874 185.107C83.4035 183.874 82.3824 182.567 81.8086 181.004L82.7474 180.659C83.2574 182.049 84.1749 183.237 85.1691 184.483C86.1462 185.708 87.2035 186.994 87.8564 188.512L86.9378 188.907ZM81.8083 181.003C81.1049 179.076 81.1728 177.084 81.4454 175.133C81.5816 174.158 81.772 173.176 81.9486 172.215C82.1263 171.248 82.2911 170.299 82.3843 169.361L83.3794 169.46C83.2817 170.442 83.1102 171.427 82.9321 172.396C82.7529 173.371 82.5682 174.324 82.4358 175.272C82.1711 177.165 82.1281 178.963 82.7477 180.66L81.8083 181.003ZM82.3843 169.361C82.6691 166.5 82.2769 163.656 81.6345 160.792C81.3134 159.361 80.9314 157.931 80.5425 156.493C80.1545 155.059 79.7591 153.615 79.4163 152.171L80.3893 151.94C80.7276 153.366 81.1182 154.792 81.5078 156.232C81.8966 157.669 82.2838 159.118 82.6103 160.573C83.2631 163.484 83.6794 166.447 83.3794 169.46L82.3843 169.361ZM79.4163 152.171C78.0486 146.407 77.637 139.584 81.4465 134.757L82.2315 135.377C78.7276 139.816 79.0327 146.223 80.3893 151.94L79.4163 152.171ZM82.2655 134.806C84.835 139.006 87.4053 141.723 89.641 148.132L88.6968 148.461C86.508 142.187 84.0655 139.665 81.4125 135.328L82.2655 134.806ZM89.641 148.132C89.8631 148.769 89.9646 149.586 90.0278 150.488C90.091 151.391 90.1191 152.449 90.173 153.552C90.2821 155.786 90.501 158.313 91.3202 160.751L90.3723 161.07C89.5071 158.494 89.2842 155.853 89.1742 153.601C89.1185 152.462 89.0927 151.449 89.0302 150.557C88.9676 149.664 88.8716 148.962 88.6968 148.461L89.641 148.132ZM91.3203 160.752C92.3234 163.741 93.3939 166.71 94.4357 169.695L93.4915 170.025C92.4544 167.053 91.3777 164.066 90.3722 161.07L91.3203 160.752ZM94.4359 169.696C95.4389 172.585 96.4944 175.621 96.5913 178.781L95.5918 178.812C95.5004 175.83 94.5034 172.94 93.4913 170.024L94.4359 169.696ZM96.5913 178.782C96.6278 179.991 96.5233 181.204 96.4508 182.364C96.3775 183.538 96.3355 184.673 96.4777 185.792L95.4857 185.918C95.3306 184.698 95.3791 183.483 95.4528 182.302C95.5273 181.108 95.6264 179.961 95.5917 178.812L96.5913 178.782ZM96.4776 185.791C96.7484 187.897 97.6544 189.844 98.6301 191.865C99.594 193.862 100.63 195.936 101.04 198.197L100.056 198.375C99.6748 196.275 98.7097 194.33 97.7296 192.3C96.7614 190.295 95.7802 188.208 95.4858 185.919L96.4776 185.791ZM101.04 198.196C101.389 200.111 101.27 202.071 101.193 203.94C101.115 205.833 101.078 207.644 101.534 209.379L100.567 209.633C100.068 207.735 100.116 205.784 100.194 203.899C100.272 201.991 100.38 200.157 100.056 198.375L101.04 198.196ZM101.534 209.379C102.178 211.826 103.753 213.944 105.289 216.201C106.799 218.419 108.264 220.766 108.436 223.551L107.437 223.613C107.285 221.132 105.979 218.991 104.462 216.764C102.972 214.574 101.266 212.288 100.567 209.633L101.534 209.379ZM108.436 223.55C108.522 224.925 108.272 226.298 108.075 227.578C107.873 228.884 107.722 230.109 107.932 231.307L106.947 231.48C106.706 230.101 106.885 228.728 107.086 227.426C107.291 226.098 107.516 224.854 107.437 223.613L108.436 223.55ZM107.933 231.308C108.095 232.24 108.472 233.125 108.883 234.069C109.286 234.994 109.724 235.98 109.933 237.038L108.952 237.231C108.768 236.3 108.379 235.416 107.966 234.468C107.562 233.539 107.133 232.548 106.947 231.479L107.933 231.308ZM109.933 237.038C110.118 237.976 109.908 238.978 109.486 239.937C109.063 240.901 108.409 241.86 107.647 242.737C106.132 244.481 104.12 245.979 102.468 246.552L102.14 245.608C103.577 245.109 105.451 243.74 106.892 242.081C107.608 241.257 108.198 240.382 108.571 239.535C108.945 238.683 109.083 237.898 108.952 237.232L109.933 237.038Z" fill="black" mask="url(#path-57-inside-1_375_9028)"/>
<path d="M82.5459 140.084C82.5459 140.084 82.5826 140.172 82.6361 140.349C82.6935 140.552 82.7613 140.813 82.856 141.138C83.0308 141.836 83.3262 142.854 83.6255 144.195C83.9121 145.555 83.8548 147.244 84.0524 149.164C84.2206 151.096 84.4966 153.286 84.9375 155.689C85.3701 158.088 85.9793 160.696 86.6409 163.496C87.2836 166.282 88.033 169.341 87.872 172.608C87.842 174.231 87.7418 175.883 87.8481 177.552C87.9344 179.222 88.3567 180.89 88.8815 182.556C90.0113 185.882 90.99 189.423 91.7969 193.063C93.3121 200.37 94.757 207.329 96.0673 213.669C97.3092 220.01 98.4315 225.721 99.3758 230.528C100.294 235.305 101.042 239.183 101.567 241.902C101.81 243.225 102.002 244.259 102.14 245C102.197 245.334 102.241 245.604 102.279 245.809C102.306 245.99 102.32 246.088 102.311 246.084C102.305 246.087 102.275 245.996 102.233 245.814C102.19 245.612 102.128 245.349 102.051 245.016C101.895 244.283 101.677 243.253 101.396 241.939C100.842 239.232 100.042 235.362 99.0667 230.595C98.0966 225.792 96.9425 220.088 95.6631 213.755C94.3377 207.428 92.8869 200.472 91.36 193.17C90.5448 189.526 89.5881 186.038 88.4593 182.698C87.9354 181.018 87.5053 179.299 87.4218 177.586C87.3184 175.874 87.4279 174.211 87.4594 172.608C87.6234 169.381 86.9092 166.391 86.2792 163.585C85.6317 160.787 85.0376 158.166 84.626 155.75C84.2086 153.337 83.9477 151.134 83.8087 149.19C83.6356 147.246 83.7177 145.567 83.461 144.229C83.1925 142.896 82.918 141.862 82.775 141.158C82.7037 140.823 82.6501 140.563 82.6044 140.355C82.5685 140.171 82.5518 140.082 82.5576 140.079L82.5459 140.084Z" fill="black"/>
<path d="M225.912 164.544C228.337 163.365 231.106 162.15 231.106 162.15L233.506 160.939C233.532 161.116 233.532 161.298 233.526 161.479C233.516 161.817 233.5 162.175 233.656 162.477C233.952 163.048 234.731 163.178 235.376 163.074C236.716 162.856 237.905 161.879 238.368 160.612C238.814 159.397 238.57 157.963 237.76 156.945C237.786 156.602 237.749 156.238 237.625 155.849C236.84 153.454 233.308 152.467 233.308 152.467L234.087 151.927C234.087 151.927 236.96 151.319 239.962 155.174C240.409 155.75 241.048 156.171 241.77 156.306C242.211 156.384 242.679 156.358 243.048 156.051C243.967 155.298 243.666 154.457 241.827 152.026C239.988 149.595 237.401 147.855 235.35 147.87C233.298 147.886 232.498 148.021 232.498 148.021C232.498 148.021 239.245 142.738 239.661 142.385C240.856 141.367 241.401 139.985 240.798 139.123C240.409 138.573 239.51 138.162 238.082 139.305C236.846 140.292 222.873 148.805 222.873 148.805L216.915 152.935L212.552 157.137L219.455 164.944L220.198 165.131C222.114 165.614 224.14 165.406 225.912 164.544Z" fill="#FFBF9D"/>
<path d="M218.256 153.656C218.63 154.508 219.721 154.81 220.645 154.695C221.57 154.576 222.432 154.15 223.346 153.963C226.084 153.412 228.946 155.069 231.652 154.384C232.031 154.29 232.468 154.056 232.452 153.667C232.442 153.308 232.052 153.101 231.72 152.966C228.868 151.807 226.011 150.644 223.154 149.485" fill="#FFBF9D"/>
<path d="M223.159 149.491C223.174 149.46 223.517 149.558 224.125 149.771C224.733 149.984 225.605 150.312 226.681 150.722C227.797 151.158 229.065 151.652 230.446 152.192C230.8 152.332 231.163 152.478 231.532 152.623C231.865 152.784 232.374 152.852 232.664 153.418C232.794 153.709 232.664 154.083 232.457 154.259C232.254 154.451 232.026 154.55 231.792 154.618C231.345 154.727 230.898 154.799 230.441 154.805C228.603 154.841 226.987 154.29 225.501 154.14C224.764 154.051 224.057 154.051 223.413 154.171C222.774 154.29 222.182 154.514 221.616 154.664C220.489 155.023 219.414 154.862 218.863 154.467C218.292 154.072 218.235 153.646 218.255 153.657C218.302 153.626 218.427 153.994 218.967 154.29C219.507 154.592 220.437 154.696 221.507 154.311C222.047 154.145 222.634 153.896 223.325 153.745C224.016 153.594 224.774 153.584 225.548 153.662C227.096 153.797 228.722 154.322 230.421 154.28C230.841 154.275 231.257 154.207 231.641 154.114C232.01 154.015 232.28 153.776 232.176 153.594C232.098 153.381 231.704 153.22 231.335 153.075C230.966 152.924 230.607 152.774 230.254 152.628C228.888 152.052 227.631 151.522 226.53 151.054C225.476 150.597 224.618 150.223 224.037 149.953C223.455 149.683 223.138 149.517 223.148 149.48L223.159 149.491Z" fill="#FF9A6C"/>
<path d="M233.2 152.4C233.231 152.462 233.75 151.901 234.841 151.807C235.376 151.766 236.02 151.911 236.623 152.291C237.23 152.665 237.791 153.236 238.337 153.88C238.887 154.524 239.417 155.158 240.02 155.625C240.622 156.088 241.261 156.394 241.853 156.462C242.451 156.539 242.934 156.285 243.147 156.046C243.37 155.807 243.427 155.636 243.412 155.625C243.386 155.605 243.287 155.755 243.058 155.947C242.83 156.134 242.414 156.321 241.884 156.223C241.365 156.134 240.773 155.828 240.212 155.381C239.651 154.929 239.142 154.311 238.591 153.662C238.041 153.013 237.443 152.41 236.778 152.026C236.119 151.631 235.392 151.491 234.81 151.569C234.228 151.641 233.802 151.865 233.542 152.052C233.283 152.239 233.179 152.384 233.189 152.4H233.2Z" fill="#FF9A6C"/>
<path d="M240.118 141.985C240.087 141.949 239.583 142.359 238.767 143.029C237.863 143.767 236.778 144.645 235.588 145.616C234.378 146.572 233.287 147.434 232.368 148.156C231.542 148.8 231.028 149.205 231.059 149.247C231.085 149.283 231.646 148.951 232.513 148.348C233.381 147.751 234.55 146.883 235.807 145.881C237.058 144.878 238.16 143.923 238.934 143.211C239.707 142.494 240.154 142.021 240.123 141.99L240.118 141.985Z" fill="#FF9A6C"/>
<path d="M232.903 155.106C232.903 155.106 233.07 155.21 233.366 155.371C233.646 155.527 234.119 155.802 234.243 156.353C234.306 156.618 234.207 156.908 233.963 157.142C233.734 157.381 233.397 157.558 233.044 157.771C232.701 157.979 232.28 158.269 232.124 158.763C231.974 159.246 232.098 159.791 232.415 160.196C232.737 160.617 233.241 160.83 233.714 160.877C234.192 160.918 234.649 160.841 235.043 160.628C235.776 160.202 236.311 159.687 236.737 159.236C237.157 158.773 237.438 158.347 237.568 158.02C237.698 157.693 237.692 157.49 237.677 157.49C237.646 157.49 237.609 157.672 237.448 157.963C237.287 158.254 236.991 158.643 236.565 159.069C236.134 159.485 235.578 159.973 234.898 160.352C234.254 160.685 233.215 160.664 232.69 159.994C232.436 159.667 232.337 159.225 232.451 158.862C232.561 158.498 232.888 158.243 233.22 158.036C233.553 157.823 233.911 157.625 234.176 157.334C234.451 157.059 234.586 156.638 234.482 156.301C234.285 155.625 233.729 155.381 233.428 155.251C233.101 155.122 232.914 155.085 232.909 155.106H232.903Z" fill="#FF9A6C"/>
<path d="M233.827 160.602C233.827 160.602 233.645 160.664 233.479 160.939C233.318 161.204 233.178 161.708 233.417 162.259C233.651 162.799 234.269 163.282 235.048 163.355C235.822 163.432 236.658 163.136 237.339 162.601C238.019 162.061 238.471 161.329 238.668 160.607C238.871 159.885 238.814 159.194 238.668 158.659C238.523 158.119 238.289 157.724 238.102 157.48C237.915 157.236 237.78 157.127 237.765 157.137C237.707 157.173 238.206 157.677 238.435 158.716C238.544 159.225 238.57 159.869 238.367 160.524C238.175 161.178 237.749 161.843 237.126 162.336C236.508 162.83 235.749 163.1 235.079 163.043C234.409 162.996 233.858 162.601 233.635 162.155C233.412 161.703 233.49 161.251 233.599 160.996C233.713 160.731 233.848 160.622 233.827 160.596V160.602Z" fill="#FF9A6C"/>
<path d="M225.641 159.594C225.641 159.594 225.522 159.298 225.117 158.965C224.722 158.638 224.031 158.275 223.153 158.254L223.268 158.529C223.527 158.275 223.792 157.989 224.041 157.672C225.454 155.911 225.818 154.078 225.73 154.072C225.631 154.036 225.137 155.771 223.771 157.459C223.527 157.766 223.273 158.046 223.034 158.301L222.764 158.576H223.148C223.938 158.571 224.587 158.861 224.992 159.126C225.402 159.391 225.6 159.62 225.636 159.589L225.641 159.594Z" fill="#FF9A6C"/>
<path d="M237.152 150.634C237.069 150.597 236.799 151.236 237.017 152.021C237.23 152.81 237.796 153.221 237.843 153.148C237.915 153.08 237.526 152.618 237.344 151.932C237.147 151.252 237.245 150.66 237.152 150.634Z" fill="#FF9A6C"/>
<path d="M164.332 248.599C163.875 225.105 161.766 177.359 161.766 177.359L157.008 160.711C157.008 160.711 151.725 160.03 147.596 159.573C143.461 159.116 138.666 158.166 138.666 158.166L135.659 153.428L110.882 151.984L107.095 159.007C107.095 159.007 91.58 167.089 89.5126 168.227C87.4453 169.365 100.914 225.068 100.914 225.068L98.317 248.604H164.332V248.599Z" fill="white"/>
<path d="M142.66 248C142.564 243.924 142.341 239.078 142.049 233.697C141.714 228.321 141.273 222.41 140.645 216.224C139.986 210.038 139.205 204.156 138.344 198.83C137.43 193.514 136.521 188.733 135.543 184.763C135.309 183.768 135.081 182.822 134.868 181.927C134.623 181.042 134.395 180.202 134.177 179.417C133.752 177.846 133.39 176.496 133.024 175.411C132.694 174.341 132.434 173.501 132.242 172.89C132.163 172.62 132.104 172.405 132.051 172.23C132.009 172.08 131.993 172.005 132.003 172C132.014 171.995 132.046 172.07 132.099 172.215C132.163 172.385 132.237 172.6 132.338 172.86C132.551 173.466 132.838 174.301 133.204 175.361C133.598 176.441 133.991 177.786 134.437 179.357C134.666 180.142 134.905 180.977 135.166 181.862C135.389 182.757 135.628 183.703 135.873 184.698C136.893 188.663 137.844 193.444 138.78 198.77C139.667 204.101 140.465 209.988 141.124 216.184C141.756 222.38 142.181 228.296 142.495 233.682C142.761 239.068 142.947 243.924 143 248" fill="#263238"/>
<path d="M155.377 187.654C155.377 187.654 186.989 198.022 193.306 196.708C199.627 195.393 211.891 180.169 215.013 176.294C218.56 171.9 222.264 166.269 222.264 166.269L212.774 155.304L209.268 158.197C209.268 158.197 190.672 176.19 188.776 176.19C186.88 176.19 169.121 167.027 169.121 167.027C169.121 167.027 160.467 161.215 156.867 160.675C153.268 160.134 151.896 166.274 151.896 166.274L155.371 187.649L155.377 187.654Z" fill="white"/>
<path d="M161.765 177.359C161.797 177.359 161.849 177.93 161.916 178.964C161.984 179.998 162.056 181.494 162.129 183.348C162.28 187.051 162.404 192.168 162.555 197.814C162.7 203.466 162.893 208.577 163.074 212.27C163.163 214.062 163.241 215.537 163.293 216.649C163.345 217.682 163.355 218.259 163.324 218.259C163.293 218.259 163.215 217.693 163.111 216.664C163.002 215.636 162.872 214.14 162.742 212.291C162.472 208.592 162.228 203.476 162.082 197.825C161.932 192.173 161.859 187.057 161.797 183.353C161.771 181.561 161.75 180.081 161.734 178.969C161.724 177.935 161.734 177.359 161.771 177.359H161.765Z" fill="#263238"/>
<g opacity="0.3">
<path d="M160.899 217.641C160.717 216.171 159.538 214.966 158.177 214.353C156.816 213.74 155.289 213.615 153.798 213.542C134.454 212.607 114.846 219.355 100.245 231.967L99.4863 237.218C104.198 239.213 109.667 237.847 114.342 235.764C119.017 233.681 123.453 230.876 128.486 229.91C132.844 229.073 137.545 229.634 141.566 227.775C144.106 226.601 146.188 224.528 148.853 223.671C151.232 222.902 153.829 223.188 156.265 222.627C158.702 222.071 161.205 220.108 160.899 217.646V217.641Z" fill="black"/>
</g>
<path d="M89.5128 168.222C89.5128 168.222 80.8487 175.598 79.6696 181.421C78.4957 187.243 74.5791 203.159 74.5791 203.159C74.5791 203.159 70.4704 222.18 71.0574 225.868C71.6443 229.556 72.8806 237.789 80.9058 238.761C88.931 239.732 116.856 229.556 116.856 229.556L124.491 226.45L121.557 212.472L108.441 215.771L95.6005 216.789L97.3354 205.169L100.182 197.705C100.182 197.705 100.021 189.565 96.8887 182.771C93.7566 175.977 89.5024 168.211 89.5024 168.211L89.5128 168.222Z" fill="white"/>
<path d="M137.384 205.823L147.518 185.342C148.209 183.95 149.632 183.072 151.195 183.072H176.658C177.603 183.072 178.206 184.07 177.759 184.895L160.524 216.804C160.041 217.698 159.101 218.259 158.078 218.259H131.67L137.384 205.823Z" fill="black"/>
<path d="M177.593 185.046C177.593 185.046 177.416 185.077 177.084 185.088C176.699 185.093 176.216 185.103 175.624 185.114C174.289 185.114 172.476 185.114 170.263 185.114C165.677 185.072 159.459 185.02 152.587 184.963C151.746 184.999 150.915 185.129 150.234 185.529C149.549 185.914 149.06 186.563 148.671 187.243C147.933 188.641 147.31 190.1 146.666 191.435C145.403 194.11 144.256 196.526 143.289 198.577C142.334 200.556 141.549 202.182 140.973 203.377C140.708 203.902 140.495 204.328 140.323 204.67C140.168 204.966 140.079 205.117 140.069 205.107C140.053 205.101 140.11 204.935 140.24 204.629C140.391 204.276 140.578 203.834 140.812 203.299C141.352 202.089 142.089 200.447 142.988 198.437C143.933 196.375 145.045 193.944 146.271 191.253C146.91 189.903 147.502 188.485 148.271 187.02C148.676 186.303 149.211 185.576 150 185.124C150.785 184.667 151.694 184.532 152.572 184.496C159.506 184.542 165.739 184.688 170.274 184.786C172.487 184.849 174.299 184.901 175.634 184.937C176.221 184.963 176.704 184.984 177.094 184.999C177.426 185.02 177.603 185.036 177.603 185.057L177.593 185.046Z" fill="#263238"/>
<path d="M161.901 189.534C162.519 189.851 162.54 190.355 162.28 190.802C162.02 191.243 161.428 191.446 160.935 191.311C160.602 191.222 160.296 190.973 160.234 190.641C160.171 190.308 160.478 189.586 161.013 189.477C161.013 189.477 161.594 189.384 161.901 189.539V189.534Z" fill="white"/>
<path d="M121.821 213.719L123.577 211.927C123.577 211.927 126.153 208.207 127.208 207.044C128.262 205.88 134.589 201.813 134.589 201.813C134.589 201.813 137.638 197.715 138.105 197.715C138.573 197.715 140.059 197.98 139.659 199.881C139.274 201.714 138.573 204.182 137.986 205.382L151.502 205.678C152.353 205.699 153.179 206.057 153.704 206.722C154.057 207.169 154.203 207.662 153.574 207.974C152.166 208.67 146.427 210.067 146.427 210.067L148.993 209.412C148.993 209.412 149.543 211.843 147.923 213.002C146.307 214.15 146.198 214.368 146.198 214.368C146.198 214.368 146.12 216.669 145.414 217.599C144.713 218.528 137.098 222.414 137.098 222.414C137.098 222.414 132.231 223.842 129.769 223.723C127.306 223.609 124.777 224.99 124.496 225.063C124.221 225.136 121.821 213.713 121.821 213.713V213.719Z" fill="#FFBF9D"/>
<path d="M139.29 205.444C139.29 205.579 137.581 205.647 135.493 205.865C133.405 206.094 131.675 206.197 131.665 206.052C131.66 205.938 133.332 205.626 135.447 205.392C137.566 205.169 139.296 205.314 139.29 205.444Z" fill="#FF9A6C"/>
<path d="M137.487 211.391C137.445 211.246 139.913 210.581 143.009 210.228C144.556 210.036 145.954 209.895 146.961 209.786C147.974 209.677 148.592 209.594 148.608 209.662C148.624 209.724 148.016 209.926 147.008 210.119C146 210.316 144.603 210.508 143.06 210.7C139.97 211.054 137.513 211.5 137.477 211.391H137.487Z" fill="#FF9A6C"/>
<path d="M137.488 215.775C137.488 215.635 139.456 215.578 141.835 215.168C144.219 214.768 146.095 214.175 146.141 214.305C146.188 214.42 144.349 215.225 141.913 215.635C139.482 216.056 137.477 215.9 137.482 215.781L137.488 215.775Z" fill="#FF9A6C"/>
<path d="M138.303 220.689C138.173 220.71 137.976 220.186 137.867 219.51C137.753 218.84 137.768 218.279 137.898 218.258C138.028 218.238 138.225 218.762 138.334 219.438C138.449 220.108 138.433 220.669 138.303 220.689Z" fill="#FF9A6C"/>
<path d="M137.093 214.804C136.958 214.794 136.885 214.357 136.656 213.9C136.438 213.433 136.132 213.111 136.21 212.997C136.272 212.882 136.797 213.1 137.087 213.693C137.378 214.285 137.223 214.83 137.098 214.804H137.093Z" fill="#FF9A6C"/>
<path d="M135.55 208.913C135.415 208.929 135.28 208.648 135.114 208.326C134.958 208.004 134.813 207.729 134.906 207.63C134.99 207.532 135.343 207.708 135.545 208.113C135.748 208.519 135.68 208.898 135.556 208.908L135.55 208.913Z" fill="#FF9A6C"/>
<path d="M132.366 171.707C132.366 171.707 132.085 171.562 131.592 171.266C131.031 170.933 130.319 170.507 129.462 169.998C128.548 169.458 127.436 168.814 126.19 168.051C124.954 167.271 123.541 166.44 122.18 165.256L122.528 165.199C121.577 167.032 120.996 169.302 121.089 171.676V171.707L121.105 172.242L120.694 171.894C116.721 168.534 113.157 165.443 110.68 163.095C109.438 161.926 108.456 160.955 107.802 160.264C107.142 159.573 106.799 159.173 106.82 159.153C106.846 159.127 107.236 159.485 107.932 160.134C108.695 160.83 109.698 161.75 110.908 162.851C113.438 165.131 117.032 168.17 121.006 171.536L120.611 171.728V171.697C120.507 169.235 121.125 166.887 122.128 164.996L122.263 164.747L122.481 164.939C123.769 166.082 125.177 166.944 126.387 167.739C127.598 168.508 128.678 169.188 129.603 169.775C130.501 170.346 131.202 170.814 131.67 171.152C132.143 171.489 132.376 171.697 132.361 171.713L132.366 171.707Z" fill="#263238"/>
<path d="M138.667 158.16C138.693 158.15 138.89 158.493 139.186 159.142C139.483 159.791 139.883 160.742 140.34 161.931C140.792 163.121 141.316 164.544 141.804 166.165C141.929 166.57 142.038 166.991 142.132 167.432C142.168 167.661 142.225 167.874 142.194 168.185C142.168 168.357 141.96 168.487 141.799 168.445C141.721 168.435 141.623 168.372 141.597 168.326L141.545 168.258L141.332 167.988C140.766 167.261 140.184 166.513 139.586 165.744C138.802 164.726 138.039 163.744 137.327 162.82L137.717 162.789C136.304 165.438 135.021 167.697 134.049 169.276C133.566 170.066 133.156 170.684 132.86 171.094C132.564 171.51 132.387 171.718 132.366 171.702C132.34 171.686 132.481 171.447 132.73 171.011C133.021 170.497 133.379 169.868 133.795 169.131C134.693 167.521 135.919 165.235 137.306 162.581L137.472 162.264L137.696 162.55C138.407 163.464 139.166 164.44 139.955 165.448C140.547 166.217 141.124 166.965 141.685 167.687L141.893 167.957L141.945 168.024L141.862 168.108C141.862 168.108 141.862 168.108 141.862 168.113L141.737 168.082C141.747 167.946 141.716 167.718 141.68 167.515C141.597 167.095 141.488 166.684 141.373 166.284C140.916 164.679 140.423 163.246 140.012 162.046C139.612 160.924 139.275 159.973 139.005 159.21C138.761 158.545 138.626 158.176 138.657 158.16H138.667Z" fill="#263238"/>
<path d="M79.3215 215.495C79.3059 215.444 80.1889 215.137 81.6745 214.872C83.1549 214.607 85.2482 214.431 87.5493 214.612C89.8504 214.799 91.8865 215.303 93.3098 215.802C94.733 216.295 95.5537 216.737 95.533 216.789C95.5018 216.862 94.6395 216.529 93.2111 216.124C91.7827 215.714 89.7725 215.272 87.5181 215.09C85.2586 214.914 83.2068 215.033 81.7317 215.21C80.2565 215.386 79.3475 215.573 79.3319 215.501L79.3215 215.495Z" fill="#263238"/>
<path d="M87.4243 212.026C87.4347 211.911 89.6578 212.213 92.042 213.522C94.4366 214.815 95.8806 216.514 95.7871 216.586C95.6833 216.69 94.1302 215.189 91.8083 213.937C89.502 212.665 87.3879 212.166 87.4243 212.026Z" fill="#263238"/>
<path d="M98.385 198.307C98.385 198.307 98.385 198.422 98.3642 198.635C98.333 198.879 98.2967 199.19 98.2447 199.585C98.1253 200.458 97.9539 201.673 97.7409 203.221C97.2786 206.405 96.6189 210.924 95.8138 216.441V216.425C95.8086 216.539 95.7982 216.674 95.793 216.804L95.5904 216.607C99.6732 216.222 104.322 215.791 109.35 215.319H109.314C113.111 214.363 117.23 213.324 121.505 212.244L121.744 212.181L121.796 212.425C122.03 213.532 122.279 214.711 122.528 215.906C123.287 219.526 124.024 223.048 124.725 226.403L124.767 226.59L124.59 226.663C114.508 230.793 105.439 233.712 98.8784 235.447C95.6008 236.33 92.9621 236.958 91.1493 237.363C90.2663 237.556 89.5702 237.706 89.0612 237.815C88.843 237.857 88.6664 237.893 88.521 237.919C88.3963 237.94 88.334 237.95 88.334 237.94C88.334 237.935 88.3911 237.914 88.5106 237.878C88.656 237.836 88.8274 237.789 89.0456 237.732C89.5495 237.602 90.2403 237.431 91.1181 237.208C92.9206 236.75 95.5489 236.075 98.8057 235.156C105.335 233.343 114.363 230.377 124.419 226.232L124.279 226.492C123.572 223.141 122.829 219.614 122.066 215.999C121.817 214.804 121.567 213.625 121.333 212.519L121.624 212.701C117.349 213.771 113.23 214.804 109.428 215.755H109.413L109.397 215.76C104.364 216.202 99.7147 216.612 95.632 216.976L95.4086 216.996L95.4242 216.778C95.4346 216.643 95.445 216.513 95.4502 216.399V216.389V216.383C96.3229 210.878 97.0397 206.364 97.5383 203.185C97.7928 201.642 97.9954 200.432 98.1409 199.564C98.2136 199.175 98.2655 198.863 98.3123 198.619C98.3538 198.406 98.3798 198.297 98.3902 198.297L98.385 198.307Z" fill="#263238"/>
<path d="M99.304 184.584C99.226 184.594 99.0806 183.685 98.7066 182.252C98.3378 180.818 97.6937 178.875 96.686 176.86C95.6679 174.845 94.4888 173.167 93.559 172.009C92.6293 170.85 91.9852 170.191 92.0371 170.133C92.0735 170.092 92.8059 170.674 93.8136 171.79C94.8213 172.902 96.0731 174.59 97.1068 176.642C98.1352 178.699 98.743 180.704 99.0287 182.174C99.3195 183.644 99.3455 184.574 99.2936 184.579L99.304 184.584Z" fill="#263238"/>
<g opacity="0.3">
<path d="M99.7719 189.321C98.6655 195.295 97.8708 202.037 96.915 208.036C97.1436 208.317 97.0189 209.21 97.2475 209.491C98.3591 206.421 99.8239 202.717 100.452 199.513C101.081 196.308 100.634 192.469 99.7719 189.321Z" fill="black"/>
</g>
<g opacity="0.3">
<path d="M123.416 170.175C126.169 170.554 128.917 170.928 131.67 171.307C128.392 169.453 125.208 167.521 122.336 165.09C121.307 167.5 120.731 168.378 120.902 171.853C116.902 168.523 113.116 164.721 109.116 161.386C113.251 167.453 118.258 172.668 124.071 177.187C123.536 174.891 123.317 172.523 123.421 170.17L123.416 170.175Z" fill="black"/>
</g>
<path d="M119.432 98.7219C120.217 97.0857 122.139 96.0676 123.946 96.3325C125.998 94.6028 129.291 94.5509 131.395 96.213C132.953 95.2209 135.036 95.1118 136.693 95.9273C138.35 96.7429 139.519 98.4622 139.659 100.291C141.498 99.9374 143.518 100.857 144.438 102.477C145.357 104.098 145.108 106.29 143.851 107.661C145.887 108.238 147.29 110.477 146.916 112.544C146.542 114.611 144.438 116.222 142.329 116.055L120.414 103.693C119.064 102.472 118.648 100.348 119.432 98.7115V98.7219Z" fill="black"/>
<path d="M145.119 139.793C145.01 135.082 143.997 125.394 142.974 116.637C141.873 107.224 133.671 100.228 124.119 100.555L123.168 100.586C112.956 101.531 108.063 110.663 109.299 120.761L112.177 152.592L131.936 170.408L136.242 157.817L135.556 151.402C135.556 151.402 145.343 149.548 145.119 139.788V139.793Z" fill="#FFBF9D"/>
<path d="M135.639 151.392C135.639 151.392 129.369 151.984 122.622 148.099C122.622 148.099 125.9 155.012 135.681 153.797L135.639 151.397V151.392Z" fill="#FF9A6C"/>
<path d="M140.423 125.119C140.475 125.851 139.893 126.501 139.119 126.573C138.35 126.641 137.68 126.101 137.628 125.368C137.576 124.636 138.158 123.981 138.932 123.914C139.706 123.846 140.371 124.387 140.423 125.119Z" fill="#263238"/>
<path d="M141.031 121.483C140.865 121.67 139.774 120.927 138.262 120.984C136.751 121.021 135.67 121.831 135.499 121.649C135.416 121.571 135.582 121.239 136.05 120.87C136.512 120.507 137.312 120.143 138.252 120.112C139.192 120.086 139.997 120.403 140.465 120.735C140.943 121.073 141.109 121.395 141.026 121.478L141.031 121.483Z" fill="#263238"/>
<path d="M126.783 125.852C126.835 126.584 126.253 127.233 125.479 127.301C124.711 127.368 124.04 126.828 123.989 126.096C123.937 125.363 124.524 124.709 125.292 124.641C126.066 124.574 126.731 125.114 126.783 125.847V125.852Z" fill="#263238"/>
<path d="M126.18 122.278C126.014 122.465 124.918 121.722 123.412 121.779C121.9 121.815 120.82 122.62 120.648 122.444C120.565 122.366 120.732 122.033 121.204 121.665C121.667 121.301 122.466 120.937 123.407 120.906C124.347 120.88 125.152 121.197 125.619 121.53C126.097 121.867 126.264 122.189 126.18 122.272V122.278Z" fill="#263238"/>
<path d="M132.056 133.201C132.045 133.118 132.98 132.921 134.497 132.677C134.881 132.625 135.245 132.536 135.302 132.272C135.385 131.991 135.209 131.586 135.006 131.144C134.611 130.23 134.196 129.274 133.764 128.272C132.035 124.179 130.767 120.802 130.934 120.735C131.1 120.667 132.637 123.929 134.367 128.028C134.783 129.035 135.183 130.002 135.562 130.921C135.723 131.352 135.993 131.835 135.816 132.417C135.723 132.708 135.447 132.926 135.203 132.999C134.959 133.082 134.741 133.092 134.549 133.113C133.022 133.248 132.071 133.29 132.061 133.201H132.056Z" fill="#263238"/>
<path d="M127.646 134.396C127.89 134.375 127.952 136.001 129.396 137.108C130.84 138.219 132.58 137.975 132.601 138.204C132.627 138.308 132.222 138.531 131.484 138.578C130.762 138.63 129.697 138.432 128.809 137.757C127.926 137.076 127.526 136.147 127.448 135.482C127.36 134.801 127.531 134.396 127.646 134.401V134.396Z" fill="#263238"/>
<path d="M126.368 116.392C126.233 116.803 124.716 116.662 122.95 116.938C121.178 117.177 119.766 117.738 119.516 117.384C119.407 117.213 119.641 116.823 120.207 116.408C120.768 115.992 121.667 115.587 122.726 115.437C123.786 115.286 124.768 115.416 125.422 115.655C126.082 115.894 126.42 116.2 126.362 116.398L126.368 116.392Z" fill="#263238"/>
<path d="M140.32 117.167C140.065 117.515 139.011 117.198 137.759 117.224C136.507 117.208 135.453 117.53 135.198 117.187C135.084 117.016 135.24 116.673 135.692 116.336C136.138 115.998 136.891 115.712 137.754 115.707C138.616 115.707 139.369 115.988 139.821 116.32C140.273 116.652 140.434 117 140.32 117.172V117.167Z" fill="#263238"/>
<path d="M141.872 112.201C141.872 112.201 139.062 106.181 136.044 104.861C132.387 103.261 130.98 107.225 127.52 106.394C124.061 105.562 120.57 104.025 117.163 106.773C113.433 109.78 115.298 111.733 115.215 116.071C114.872 133.648 111.813 138.723 110.602 130.49C110.473 129.586 107.912 128.958 107.403 125.145C106.743 120.2 106.338 114.185 107.33 110.627C108.166 107.63 109.802 105.521 112.779 103.152C117.485 99.4176 124.113 99.1111 128.632 99.4072C133.151 99.7033 142.018 104.539 141.877 112.206L141.872 112.201Z" fill="black"/>
<path d="M111.216 130.204C111.101 128.703 109.751 127.555 108.244 127.753C106.416 127.986 104.411 129.093 104.666 132.848C105.112 139.507 111.766 137.689 111.766 137.497C111.766 137.367 111.434 132.994 111.221 130.204H111.216Z" fill="#FFBF9D"/>
<path d="M110.13 135.082C110.099 135.061 110.015 135.17 109.828 135.274C109.641 135.373 109.314 135.456 108.956 135.352C108.229 135.139 107.559 134.064 107.444 132.864C107.387 132.261 107.475 131.674 107.662 131.181C107.834 130.682 108.13 130.319 108.483 130.23C108.831 130.126 109.101 130.319 109.195 130.5C109.299 130.682 109.262 130.817 109.299 130.828C109.319 130.843 109.434 130.708 109.361 130.433C109.325 130.303 109.236 130.152 109.07 130.033C108.899 129.913 108.66 129.861 108.41 129.908C107.896 129.976 107.46 130.48 107.257 131.02C107.029 131.565 106.909 132.225 106.977 132.905C107.112 134.245 107.886 135.456 108.878 135.669C109.361 135.757 109.745 135.591 109.938 135.419C110.135 135.243 110.161 135.092 110.135 135.077L110.13 135.082Z" fill="#FF9A6C"/>
<path d="M110.893 117.276C111.786 117.837 112.732 118.413 113.786 118.481C114.841 118.548 116.025 117.91 116.165 116.865C116.227 116.398 116.098 115.863 116.388 115.494C116.742 115.053 117.422 115.162 117.988 115.203C119.952 115.344 121.905 113.899 122.336 111.998C122.861 112.72 124.024 112.648 124.762 112.139C125.499 111.63 125.956 110.824 126.523 110.134C127.089 109.443 127.899 108.814 128.792 108.908C129.291 108.96 129.769 109.24 130.268 109.178C131.145 109.069 131.545 108.03 131.644 107.157C131.748 106.285 131.816 105.267 132.548 104.768C133.223 104.306 134.132 104.529 134.948 104.617C135.763 104.706 136.807 104.482 136.989 103.687C137.083 103.272 136.89 102.841 136.646 102.488C135.54 100.888 133.234 100.244 131.447 101.028C130.709 98.8464 128.574 97.205 126.263 97.0439C123.951 96.8829 121.598 98.2127 120.565 100.27C119.1 99.0385 117.017 98.5763 115.157 99.0645C113.303 99.5528 111.724 100.981 111.064 102.768C109.412 102.399 107.574 103.09 106.582 104.451C105.595 105.812 105.512 107.765 106.389 109.199C105.205 109.926 104.213 111.152 104.234 112.533C104.26 113.915 105.662 115.245 106.992 114.834C106.488 115.925 106.982 117.369 108.052 117.935C109.122 118.502 110.602 118.096 111.236 117.068" fill="black"/>
<path d="M106.499 114.845C106.499 114.845 106.395 115.411 106.961 116.112C107.241 116.445 107.714 116.787 108.337 116.86C108.945 116.938 109.683 116.767 110.233 116.242L109.948 116.211C110.301 116.772 110.758 117.343 111.35 117.826C111.729 118.133 112.145 118.393 112.602 118.538C113.049 118.699 113.553 118.694 113.958 118.616C114.804 118.491 115.537 118.013 115.859 117.447C116.196 116.891 116.295 116.382 116.352 116.04C116.409 115.697 116.409 115.504 116.383 115.499C116.352 115.494 116.306 115.681 116.202 116.008C116.098 116.33 115.963 116.813 115.625 117.297C115.023 118.273 112.96 118.834 111.589 117.53C111.044 117.078 110.597 116.543 110.254 116.014L110.129 115.821L109.968 115.982C109.522 116.424 108.893 116.6 108.363 116.549C107.828 116.507 107.402 116.237 107.122 115.956C106.561 115.369 106.545 114.824 106.488 114.845H106.499Z" fill="black"/>
<path d="M125.365 135.446C125.474 135.446 125.489 134.739 126.04 134.137C126.57 133.519 127.271 133.41 127.261 133.306C127.261 133.259 127.068 133.207 126.767 133.269C126.466 133.327 126.066 133.529 125.749 133.882C125.437 134.236 125.287 134.656 125.266 134.963C125.24 135.269 125.318 135.451 125.365 135.446Z" fill="#FF9A6C"/>
<path d="M124.705 133.622C124.798 133.674 125.037 133.435 125.39 133.264C125.738 133.082 126.071 133.035 126.087 132.932C126.112 132.828 125.681 132.687 125.219 132.921C124.757 133.155 124.611 133.581 124.71 133.622H124.705Z" fill="#FF9A6C"/>
<path d="M137.015 96.104C137.047 96.0417 137.743 96.4728 138.283 97.5792C138.553 98.1246 138.813 98.8154 138.885 99.6361C138.974 100.452 138.761 101.413 138.189 102.197C137.608 102.976 136.818 103.47 136.091 103.812C135.358 104.155 134.678 104.379 134.107 104.56C132.959 104.903 132.252 105.095 132.226 105.038C132.2 104.976 132.881 104.669 133.992 104.244C134.543 104.025 135.208 103.771 135.893 103.423C136.579 103.075 137.291 102.602 137.8 101.922C138.298 101.231 138.496 100.415 138.444 99.6725C138.408 98.9245 138.195 98.2596 137.976 97.7246C137.535 96.639 136.974 96.1559 137.015 96.1092V96.104Z" fill="#E0E0E0"/>
<path d="M141.28 100.488C141.332 100.488 141.378 100.909 141.197 101.563C141.02 102.207 140.568 103.064 139.799 103.766C139.031 104.467 138.137 104.846 137.472 104.971C136.802 105.101 136.387 105.023 136.387 104.971C136.387 104.893 136.787 104.846 137.384 104.649C137.981 104.451 138.766 104.062 139.472 103.418C140.173 102.773 140.63 102.026 140.875 101.449C141.124 100.872 141.202 100.478 141.275 100.488H141.28Z" fill="#E0E0E0"/>
<path d="M190.964 187.778C190.891 187.794 190.294 185.181 189.623 181.945C188.959 178.709 188.476 176.076 188.548 176.06C188.621 176.045 189.218 178.657 189.888 181.893C190.553 185.129 191.036 187.763 190.964 187.778Z" fill="#263238"/>
<path d="M312.484 225.917H283.484V230.917H312.484V225.917Z" fill="black"/>
<path d="M312.688 230.016H283.484V225.917H312.688V230.016ZM283.585 229.915H312.587V226.017H283.585V229.915Z" fill="black"/>
<path d="M286.23 228.634L290.421 249.303H305.92L309.971 229.968L286.23 228.634Z" fill="black"/>
<path d="M286.135 246.867L288.372 249.939H307.212L309.876 246.867H286.135Z" fill="black"/>
<path d="M296.896 228.757C296.838 228.757 296.766 219.181 296.732 207.373C296.699 195.56 296.718 185.989 296.776 185.989C296.833 185.989 296.905 195.56 296.939 207.373C296.972 219.181 296.953 228.757 296.896 228.757Z" fill="black"/>
<path d="M303.381 204.795C303.381 204.795 303.362 204.877 303.304 205.016C303.237 205.179 303.151 205.386 303.045 205.635C302.988 205.77 302.925 205.918 302.853 206.082C302.791 206.25 302.728 206.432 302.661 206.624C302.589 206.821 302.517 207.027 302.436 207.248C302.359 207.469 302.296 207.709 302.22 207.958C301.903 208.952 301.648 210.166 301.404 211.52C301.192 212.883 301.034 214.386 300.952 215.974C300.808 219.152 300.991 222.037 301.183 224.115C301.279 225.152 301.37 225.992 301.442 226.573C301.471 226.846 301.495 227.067 301.514 227.24C301.528 227.394 301.533 227.475 301.524 227.475C301.519 227.475 301.5 227.398 301.471 227.245C301.442 227.072 301.404 226.851 301.36 226.582C301.264 226.006 301.149 225.166 301.039 224.13C300.808 222.051 300.607 219.162 300.746 215.965C300.828 214.371 300.991 212.854 301.216 211.486C301.471 210.128 301.74 208.904 302.08 207.91C302.162 207.661 302.229 207.421 302.311 207.2C302.397 206.979 302.474 206.773 302.551 206.576C302.628 206.384 302.695 206.202 302.762 206.038C302.834 205.875 302.906 205.731 302.968 205.597C303.088 205.352 303.189 205.15 303.266 204.992C303.338 204.853 303.376 204.786 303.381 204.786V204.795Z" fill="black"/>
<path d="M302.637 197.053C302.637 197.053 302.613 197.163 302.546 197.369C302.469 197.59 302.368 197.888 302.243 198.257C302.176 198.454 302.099 198.665 302.022 198.901C301.95 199.141 301.874 199.4 301.787 199.673C301.619 200.225 301.418 200.859 301.245 201.565C301.154 201.92 301.053 202.285 300.952 202.673C300.866 203.062 300.774 203.465 300.678 203.883C300.477 204.718 300.328 205.621 300.141 206.566C299.819 208.467 299.536 210.569 299.344 212.787C299.162 215.005 299.08 217.126 299.051 219.056C299.046 220.985 299.07 222.723 299.147 224.182C299.171 224.912 299.219 225.569 299.258 226.15C299.291 226.731 299.33 227.225 299.363 227.633C299.392 228.027 299.416 228.339 299.435 228.569C299.45 228.785 299.454 228.896 299.445 228.896C299.44 228.896 299.421 228.785 299.392 228.569C299.363 228.339 299.33 228.027 299.282 227.633C299.234 227.225 299.186 226.731 299.138 226.15C299.09 225.569 299.032 224.912 298.998 224.182C298.902 222.723 298.859 220.981 298.854 219.046C298.874 217.112 298.946 214.985 299.133 212.763C299.33 210.541 299.618 208.433 299.949 206.528C300.141 205.582 300.294 204.675 300.506 203.84C300.606 203.422 300.698 203.019 300.789 202.63C300.894 202.246 300.995 201.877 301.096 201.521C301.278 200.816 301.49 200.187 301.672 199.635C301.763 199.361 301.845 199.102 301.922 198.867C302.008 198.637 302.09 198.425 302.162 198.229C302.306 197.859 302.416 197.571 302.502 197.35C302.584 197.149 302.627 197.048 302.632 197.048L302.637 197.053Z" fill="black"/>
<path d="M295.058 230.452C295.058 230.452 295.048 230.413 295.044 230.341C295.039 230.255 295.029 230.144 295.015 230.01C294.996 229.703 294.967 229.28 294.928 228.743C294.856 227.624 294.76 226.036 294.636 224.077C294.381 220.141 294.016 214.703 293.354 208.717C293.013 205.727 292.624 202.885 292.216 200.312C292 199.026 291.804 197.802 291.578 196.664C291.372 195.522 291.151 194.466 290.949 193.501C290.757 192.532 290.546 191.668 290.373 190.904C290.205 190.141 290.042 189.484 289.908 188.951C289.778 188.428 289.677 188.015 289.605 187.717C289.576 187.583 289.552 187.477 289.533 187.396C289.519 187.324 289.509 187.285 289.514 187.285C289.514 187.285 289.528 187.319 289.552 187.391C289.576 187.472 289.605 187.578 289.644 187.708C289.725 188 289.84 188.413 289.984 188.932C290.133 189.464 290.306 190.117 290.488 190.88C290.671 191.644 290.896 192.508 291.093 193.472C291.304 194.437 291.535 195.493 291.746 196.636C291.976 197.773 292.178 198.997 292.404 200.284C292.821 202.861 293.22 205.703 293.56 208.698C294.223 214.684 294.564 220.132 294.78 224.072C294.885 226.04 294.962 227.639 295.005 228.743C295.024 229.28 295.039 229.708 295.053 230.015C295.053 230.149 295.058 230.26 295.058 230.346C295.058 230.423 295.058 230.456 295.058 230.461V230.452Z" fill="black"/>
<path d="M296.661 190.592C296.536 189.233 295.163 188.211 293.8 188.196C292.437 188.182 291.17 188.998 290.335 190.078C289.499 191.158 289.043 192.473 288.664 193.779C287.747 196.976 287.243 200.331 287.637 203.633C288.031 206.936 289.37 210.185 291.736 212.518C292.12 212.897 292.619 213.276 293.147 213.166C293.435 213.104 293.675 212.902 293.891 212.705C298.547 208.5 301.231 202.203 301.048 195.934C301.01 194.676 300.847 193.371 300.151 192.324C299.455 191.278 297.837 190.169 296.651 190.587" fill="white"/>
<path d="M296.776 185.989C291.007 182.586 285.242 179.182 279.472 175.779C279.295 175.674 279.103 175.554 279.05 175.352C278.983 175.098 279.175 174.848 279.357 174.661C281.738 172.208 285.194 170.782 288.602 171.027C292.01 171.272 295.293 173.245 296.963 176.226C298.634 179.211 298.687 183.157 296.771 185.989" fill="white"/>
<path d="M281.968 172.52C281.968 172.52 282.045 172.506 282.193 172.491C282.342 172.482 282.563 172.458 282.846 172.458C283.413 172.443 284.243 172.482 285.246 172.65C286.249 172.813 287.43 173.139 288.664 173.687C289.897 174.234 291.174 175.026 292.336 176.067C293.488 177.119 294.405 178.309 295.072 179.485C295.744 180.656 296.181 181.799 296.445 182.783C296.713 183.767 296.829 184.587 296.872 185.154C296.905 185.437 296.891 185.509 296.901 185.658C296.901 185.807 296.776 186.037 296.766 186.037C296.747 186.037 296.862 185.725 296.795 185.163C296.728 184.602 296.589 183.795 296.305 182.826C295.758 180.901 294.486 178.299 292.197 176.226C289.902 174.152 287.19 173.149 285.222 172.799C284.229 172.616 283.413 172.554 282.846 172.544C282.28 172.53 281.968 172.544 281.968 172.525V172.52Z" fill="black"/>
<path d="M294.434 178.942C294.443 178.966 294.112 179.125 293.56 179.341C293.008 179.557 292.24 179.835 291.376 180.109C290.512 180.382 289.725 180.598 289.149 180.742C288.573 180.881 288.213 180.949 288.203 180.92C288.194 180.891 288.544 180.776 289.106 180.598C289.744 180.397 290.488 180.166 291.309 179.912C292.13 179.648 292.869 179.408 293.507 179.201C294.069 179.019 294.419 178.913 294.434 178.942Z" fill="black"/>
<path d="M291.708 171.623C291.765 171.618 291.885 172.482 291.914 173.552C291.943 174.627 291.861 175.491 291.808 175.491C291.751 175.491 291.736 174.623 291.708 173.557C291.684 172.491 291.65 171.627 291.708 171.623Z" fill="black"/>
<path d="M279.323 175.587C279.314 175.559 279.794 175.386 280.581 175.146C281.368 174.906 282.463 174.599 283.682 174.301C284.901 174.008 286.019 173.783 286.826 173.639C287.637 173.495 288.141 173.432 288.146 173.461C288.151 173.49 287.656 173.605 286.855 173.783C286.053 173.96 284.944 174.21 283.73 174.503C282.511 174.795 281.416 175.079 280.619 175.285C279.823 175.491 279.333 175.616 279.323 175.587Z" fill="black"/>
<path d="M289.475 187.649C287.987 186.521 286.413 186.301 284.545 186.373C282.678 186.445 280.864 187.016 279.15 187.765C276.232 189.041 273.491 190.928 271.749 193.592C270.006 196.256 269.397 199.789 270.702 202.693C270.832 202.981 271 203.283 271.293 203.408C271.6 203.537 271.95 203.437 272.267 203.331C275.584 202.246 278.929 201.157 281.977 199.462C285.03 197.768 287.805 195.411 289.441 192.329C289.835 191.59 290.161 190.798 290.229 189.963C290.291 189.128 290.061 188.24 289.465 187.649" fill="white"/>
<path d="M289.509 187.299C289.509 187.299 289.427 187.337 289.269 187.395C289.091 187.457 288.861 187.534 288.573 187.635C288.419 187.688 288.251 187.741 288.069 187.803C287.887 187.87 287.69 187.952 287.479 188.033C287.061 188.201 286.571 188.374 286.058 188.624C285.799 188.744 285.525 188.864 285.242 188.993C284.959 189.123 284.68 189.286 284.378 189.435C283.778 189.733 283.168 190.107 282.52 190.491C281.248 191.297 279.899 192.262 278.589 193.405C277.288 194.561 276.155 195.771 275.195 196.933C274.735 197.528 274.283 198.085 273.914 198.641C273.727 198.92 273.53 199.179 273.367 199.438C273.203 199.702 273.045 199.957 272.896 200.197C272.584 200.672 272.354 201.137 272.133 201.531C272.027 201.728 271.917 201.915 271.831 202.083C271.749 202.256 271.672 202.414 271.6 202.563C271.466 202.832 271.36 203.053 271.274 203.221C271.197 203.369 271.154 203.446 271.149 203.446C271.144 203.446 271.173 203.36 271.235 203.206C271.312 203.033 271.408 202.808 271.528 202.529C271.595 202.381 271.667 202.217 271.744 202.04C271.826 201.862 271.927 201.68 272.032 201.473C272.243 201.07 272.469 200.605 272.771 200.12C272.92 199.875 273.074 199.616 273.232 199.347C273.395 199.078 273.587 198.819 273.775 198.536C274.139 197.969 274.591 197.408 275.051 196.803C276.011 195.627 277.144 194.403 278.455 193.241C279.775 192.089 281.133 191.12 282.419 190.323C283.072 189.944 283.691 189.569 284.301 189.277C284.603 189.128 284.887 188.969 285.175 188.845C285.463 188.72 285.736 188.6 286 188.485C286.519 188.245 287.013 188.081 287.44 187.923C287.656 187.846 287.853 187.769 288.035 187.707C288.218 187.654 288.391 187.601 288.544 187.558C288.837 187.477 289.067 187.409 289.255 187.357C289.418 187.313 289.504 187.294 289.504 187.299H289.509Z" fill="black"/>
<path d="M277.878 193.597C277.893 193.649 276.275 194.173 274.259 194.763C272.243 195.353 270.597 195.785 270.582 195.733C270.568 195.68 272.185 195.157 274.201 194.566C276.217 193.976 277.864 193.544 277.878 193.597Z" fill="black"/>
<path d="M277.729 201.584C277.701 201.584 277.667 201.152 277.648 200.456C277.629 199.76 277.624 198.795 277.657 197.73C277.686 196.664 277.744 195.704 277.801 195.008C277.859 194.312 277.917 193.885 277.945 193.885C277.974 193.885 277.969 194.317 277.945 195.013C277.921 195.776 277.893 196.707 277.864 197.734C277.84 198.762 277.816 199.688 277.797 200.456C277.777 201.152 277.758 201.584 277.729 201.584Z" fill="black"/>
<path d="M284.574 198.094C284.517 198.094 284.334 196.141 284.166 193.722C283.998 191.302 283.912 189.334 283.965 189.334C284.017 189.334 284.205 191.288 284.373 193.707C284.541 196.126 284.627 198.09 284.574 198.094Z" fill="black"/>
<path d="M276.055 189.142C276.055 189.113 276.501 189.104 277.216 189.109C277.931 189.113 278.92 189.133 280.01 189.171C281.099 189.209 282.088 189.253 282.803 189.296C283.519 189.339 283.96 189.377 283.96 189.406C283.96 189.435 283.519 189.445 282.803 189.44C282.088 189.435 281.099 189.416 280.01 189.377C278.92 189.339 277.931 189.296 277.216 189.253C276.501 189.209 276.059 189.171 276.064 189.142H276.055Z" fill="black"/>
<path d="M292.485 212.974C292.485 212.974 292.47 212.893 292.461 212.744C292.451 212.571 292.441 212.35 292.432 212.077C292.408 211.501 292.398 210.661 292.422 209.624C292.441 208.587 292.513 207.358 292.633 205.995C292.768 204.632 292.965 203.139 293.243 201.584C293.531 200.029 293.872 198.56 294.227 197.235C294.592 195.915 294.961 194.734 295.307 193.755C295.653 192.776 295.95 191.994 296.181 191.461C296.286 191.211 296.373 191.01 296.445 190.846C296.507 190.707 296.541 190.635 296.55 190.635C296.555 190.635 296.536 190.717 296.483 190.861C296.425 191.024 296.349 191.23 296.257 191.49C296.051 192.032 295.773 192.819 295.446 193.803C295.12 194.782 294.765 195.963 294.414 197.283C294.073 198.608 293.733 200.072 293.449 201.618C293.171 203.168 292.969 204.656 292.825 206.014C292.691 207.373 292.605 208.597 292.566 209.629C292.523 210.661 292.509 211.496 292.509 212.072C292.509 212.341 292.504 212.562 292.499 212.739C292.499 212.893 292.489 212.97 292.48 212.97L292.485 212.974Z" fill="black"/>
<path d="M293.397 201.646C293.397 201.646 293.152 201.958 292.706 202.405C292.259 202.851 291.621 203.451 290.896 204.085C290.171 204.718 289.494 205.27 288.99 205.659C288.491 206.043 288.165 206.264 288.15 206.245C288.131 206.221 288.424 205.962 288.899 205.544C289.432 205.083 290.061 204.536 290.762 203.926C291.453 203.312 292.077 202.76 292.605 202.294C293.075 201.877 293.373 201.622 293.397 201.642V201.646Z" fill="black"/>
<path d="M298.873 206.058C298.849 206.072 298.576 205.679 298.139 205.04C297.664 204.349 297.078 203.495 296.43 202.544C295.768 201.603 295.168 200.758 294.683 200.072C294.232 199.443 293.958 199.045 293.982 199.031C294.006 199.011 294.318 199.376 294.798 199.986C295.278 200.595 295.921 201.455 296.598 202.424C297.275 203.394 297.856 204.296 298.259 204.959C298.662 205.621 298.892 206.043 298.873 206.058Z" fill="black"/>
<path d="M296.003 192.186C296.032 192.234 294.212 193.458 291.942 194.922C289.667 196.386 287.8 197.533 287.766 197.485C287.737 197.437 289.552 196.213 291.832 194.749C294.107 193.285 295.974 192.138 296.008 192.186H296.003Z" fill="black"/>
<path d="M301.134 197.72C301.096 197.763 299.862 196.621 298.384 195.176C296.905 193.731 295.739 192.526 295.777 192.483C295.816 192.44 297.049 193.582 298.528 195.027C300.006 196.472 301.172 197.677 301.134 197.72Z" fill="black"/>
<path d="M302.421 197.61L303.981 197.48C305.09 197.389 306.165 197.063 307.134 196.515C307.614 196.247 308.094 195.983 308.603 195.776C310.533 195.003 312.688 195.138 314.766 195.037C318.16 194.869 321.515 194.01 324.573 192.531C324.75 192.445 324.904 192.315 325 192.143C325.322 191.557 324.726 191.039 324.213 190.722C321.582 189.099 318.904 187.458 315.918 186.651C312.933 185.845 309.549 185.984 307 187.736C304.01 189.791 302.92 194.019 302.416 197.61" fill="white"/>
<path d="M325.039 191.951C325.039 191.951 324.943 191.912 324.775 191.826C324.588 191.73 324.343 191.6 324.036 191.437C323.392 191.101 322.471 190.602 321.3 190.04C320.133 189.488 318.717 188.86 317.066 188.408C315.424 187.952 313.533 187.712 311.58 187.962C309.636 188.216 307.845 188.975 306.578 190.108C305.301 191.24 304.524 192.604 303.976 193.765C303.429 194.936 303.088 195.93 302.844 196.612C302.728 196.938 302.637 197.202 302.565 197.399C302.498 197.576 302.464 197.672 302.455 197.668C302.45 197.668 302.474 197.567 302.522 197.384C302.584 197.183 302.661 196.914 302.762 196.583C302.983 195.892 303.304 194.888 303.837 193.698C304.375 192.522 305.148 191.125 306.448 189.959C307.74 188.788 309.568 188.01 311.551 187.751C313.538 187.496 315.458 187.746 317.114 188.216C318.775 188.682 320.196 189.325 321.357 189.901C322.519 190.482 323.436 191 324.064 191.36C324.362 191.533 324.602 191.677 324.784 191.783C324.948 191.884 325.034 191.936 325.029 191.941L325.039 191.951Z" fill="black"/>
<path d="M321.289 193.967C321.256 194.015 319.216 192.695 316.729 191.015C314.243 189.335 312.251 187.938 312.285 187.89C312.318 187.842 314.358 189.162 316.845 190.842C319.331 192.517 321.323 193.919 321.289 193.967Z" fill="black"/>
<path d="M319.11 187.784C319.12 187.827 318.457 187.986 317.622 188.053C316.787 188.125 316.105 188.082 316.105 188.034C316.105 187.986 316.777 187.952 317.603 187.88C318.429 187.813 319.096 187.736 319.11 187.784Z" fill="black"/>
<path d="M310.168 186.618C310.216 186.642 309.919 187.107 309.496 187.664C309.079 188.221 308.695 188.653 308.647 188.629C308.599 188.605 308.896 188.139 309.319 187.582C309.736 187.026 310.12 186.594 310.168 186.618Z" fill="black"/>
<path d="M311.997 195.167C311.997 195.167 311.603 194.994 311.013 194.634C310.422 194.274 309.626 193.751 308.771 193.131C307.922 192.512 307.168 191.927 306.63 191.499C306.093 191.072 305.766 190.794 305.781 190.775C305.8 190.751 306.155 190.986 306.717 191.384C307.331 191.831 308.07 192.368 308.891 192.963C309.741 193.578 310.518 194.12 311.09 194.509C311.656 194.898 312.006 195.138 311.992 195.167H311.997Z" fill="black"/>
<path d="M304.724 204.248C303.236 203.854 301.46 205.304 301.153 206.811C300.846 208.323 301.412 209.864 302.075 211.256C303.544 214.333 305.569 217.189 308.233 219.315C310.897 221.442 314.243 222.8 317.651 222.781C317.022 219.858 317.819 216.8 317.468 213.829C317.161 211.237 315.952 208.755 314.099 206.922C312.241 205.083 309.755 203.898 307.158 203.619C306.208 203.518 305.108 203.37 304.729 204.243" fill="white"/>
<path d="M317.651 222.786C317.651 222.786 317.574 222.757 317.44 222.685C317.305 222.613 317.113 222.493 316.883 222.31C316.417 221.955 315.88 221.269 315.414 220.342C315.179 219.882 314.91 219.382 314.651 218.826C314.401 218.269 314.133 217.678 313.849 217.054C313.566 216.435 313.254 215.787 312.865 215.163C312.481 214.534 312.021 213.92 311.512 213.32C310.494 212.12 309.4 211.088 308.449 210.094C307.494 209.11 306.693 208.16 306.112 207.291C305.526 206.427 305.171 205.654 304.969 205.112C304.873 204.838 304.806 204.622 304.773 204.474C304.734 204.325 304.72 204.248 304.725 204.243C304.744 204.238 304.83 204.546 305.046 205.083C305.267 205.616 305.637 206.365 306.232 207.21C306.822 208.054 307.624 208.986 308.584 209.96C309.534 210.939 310.638 211.971 311.665 213.186C312.179 213.79 312.645 214.414 313.038 215.058C313.432 215.701 313.744 216.354 314.022 216.978C314.296 217.602 314.56 218.197 314.805 218.754C315.054 219.306 315.313 219.81 315.539 220.275C315.985 221.206 316.489 221.878 316.931 222.248C317.368 222.622 317.661 222.762 317.646 222.781L317.651 222.786Z" fill="black"/>
<path d="M309.947 220.352C309.918 220.347 309.966 219.963 310.081 219.349C310.196 218.734 310.388 217.894 310.647 216.977C310.907 216.061 311.18 215.24 311.401 214.659C311.622 214.073 311.78 213.723 311.809 213.733C311.838 213.742 311.727 214.112 311.54 214.707C311.358 215.302 311.103 216.123 310.844 217.035C310.585 217.947 310.374 218.782 310.22 219.382C310.067 219.987 309.971 220.357 309.942 220.352H309.947Z" fill="black"/>
<path d="M317.368 213.171C317.358 213.2 316.96 213.099 316.317 212.931C315.673 212.763 314.79 212.533 313.801 212.312C312.813 212.091 311.915 211.918 311.262 211.793C310.609 211.669 310.206 211.592 310.211 211.563C310.211 211.534 310.624 211.563 311.286 211.649C311.944 211.736 312.856 211.889 313.845 212.11C314.838 212.336 315.721 212.585 316.355 212.792C316.989 212.998 317.373 213.147 317.363 213.176L317.368 213.171Z" fill="black"/>
<path d="M304.422 215.259C304.393 215.254 304.451 214.808 304.585 214.098C304.715 213.387 304.926 212.408 305.205 211.342C305.483 210.272 305.781 209.317 306.011 208.635C306.246 207.949 306.409 207.536 306.438 207.546C306.467 207.555 306.347 207.987 306.15 208.678C305.953 209.374 305.68 210.33 305.401 211.395C305.123 212.461 304.893 213.43 304.725 214.131C304.557 214.832 304.451 215.269 304.422 215.259Z" fill="black"/>
<path d="M313.95 206.917C313.945 206.974 312.083 206.825 309.798 206.581C307.508 206.336 305.66 206.096 305.665 206.038C305.67 205.981 307.532 206.129 309.817 206.374C312.107 206.619 313.955 206.859 313.95 206.917Z" fill="black"/>
<path d="M312.688 229.023C312.688 229.08 306.15 229.128 298.086 229.128C290.022 229.128 283.484 229.08 283.484 229.023C283.484 228.965 290.022 228.917 298.086 228.917C306.15 228.917 312.688 228.965 312.688 229.023Z" fill="white"/>
<path d="M308.041 237.881C308.041 237.939 303.635 237.987 298.206 237.987C292.777 237.987 288.371 237.939 288.371 237.881C288.371 237.824 292.773 237.776 298.206 237.776C303.64 237.776 308.041 237.824 308.041 237.881Z" fill="white"/>
<path d="M307.869 239.082C307.869 239.139 303.539 239.187 298.201 239.187C292.864 239.187 288.534 239.139 288.534 239.082C288.534 239.024 292.859 238.976 298.201 238.976C303.544 238.976 307.869 239.024 307.869 239.082Z" fill="white"/>
<path d="M308.214 236.888C308.214 236.945 303.659 236.993 298.038 236.993C292.418 236.993 287.862 236.945 287.862 236.888C287.862 236.83 292.418 236.782 298.038 236.782C303.659 236.782 308.214 236.83 308.214 236.888Z" fill="white"/>
</g>
<defs>
<filter id="filter0_d_375_9028" x="0" y="0" width="376" height="298" filterUnits="userSpaceOnUse" color-interpolation-filters="sRGB">
<feFlood flood-opacity="0" result="BackgroundImageFix"/>
<feColorMatrix in="SourceAlpha" type="matrix" values="0 0 0 0 0 0 0 0 0 0 0 0 0 0 0 0 0 0 127 0" result="hardAlpha"/>
<feOffset dy="4"/>
<feGaussianBlur stdDeviation="4"/>
<feComposite in2="hardAlpha" operator="out"/>
<feColorMatrix type="matrix" values="0 0 0 0 0 0 0 0 0 0 0 0 0 0 0 0 0 0 0.16 0"/>
<feBlend mode="normal" in2="BackgroundImageFix" result="effect1_dropShadow_375_9028"/>
<feBlend mode="normal" in="SourceGraphic" in2="effect1_dropShadow_375_9028" result="shape"/>
</filter>
</defs>
</svg>
