<svg width="376" height="384" viewBox="0 0 376 384" fill="none" xmlns="http://www.w3.org/2000/svg">
<g filter="url(#filter0_d_375_7886)">
<path d="M8 4H368V364C368 368.418 364.418 372 360 372H16C11.5817 372 8 368.418 8 364V4Z" fill="#ED0641"/>
<mask id="path-2-inside-1_375_7886" fill="white">
<path d="M59.817 245.817C59.817 245.817 63.9643 242.607 70.0647 252.644C76.1668 262.686 78.6304 268.552 78.6304 268.552C78.6304 268.552 80.2001 270.634 81.5967 269.089C82.9933 267.545 84.7469 263.337 87.3532 263.876C90.0591 264.433 91.1512 267.325 90.9703 271.708C90.7894 276.091 90.7465 285.702 90.7462 286.572C90.7451 287.428 91.3257 288.639 92.4432 287.739C93.5606 286.84 99.7817 278.776 103.434 281.957C107.087 285.139 104.577 297.262 104.328 298.591C104.079 299.92 104.376 300.458 105.021 300.737C105.664 301.012 107.498 298.106 109.362 295.885C111.226 293.663 113.776 291.417 115.725 293.428C117.679 295.438 118.916 304.302 111.524 319.402L107.643 326.171L99.8035 326.324C83.008 325.627 75.8074 320.311 74.9692 317.634C74.131 314.957 77.3232 313.789 80.1636 313.212C83.004 312.634 86.4333 312.404 86.4971 311.709C86.561 311.015 86.2294 310.495 84.944 310.079C83.6542 309.665 71.8054 306.09 70.7503 301.365C69.6952 296.64 79.7476 295.016 81.0725 294.463C82.3956 293.906 81.6053 292.818 80.8555 292.415C80.0916 292.002 71.6196 287.455 67.6838 285.528C63.7461 283.596 61.7258 281.257 62.5247 278.617C63.2917 276.066 67.8319 276.531 69.8515 276.042C71.8711 275.553 70.7896 273.177 70.7896 273.177C70.7896 273.177 66.8075 268.213 60.8899 258.063C54.9723 247.913 59.9057 245.767 59.9057 245.767"/>
</mask>
<path d="M70.0647 252.644L70.9193 252.125L70.9193 252.125L70.0647 252.644ZM78.6304 268.552L77.8319 269.153L77.7567 269.054L77.7084 268.939L78.6304 268.552ZM87.3532 263.876L87.1515 264.855L87.1505 264.855L87.3532 263.876ZM90.7462 286.572L91.7462 286.573L91.7462 286.574L90.7462 286.572ZM105.021 300.737L104.628 301.657L104.624 301.655L105.021 300.737ZM115.725 293.428L115.008 294.125L115.007 294.124L115.725 293.428ZM111.524 319.402L112.423 319.841L112.408 319.871L112.392 319.899L111.524 319.402ZM107.643 326.171L108.51 326.669L108.228 327.16L107.662 327.171L107.643 326.171ZM99.8035 326.324L99.8229 327.324L99.7925 327.324L99.762 327.323L99.8035 326.324ZM84.944 310.079L85.2496 309.127L85.2517 309.128L84.944 310.079ZM81.0725 294.463L81.4607 295.385L81.4576 295.386L81.0725 294.463ZM80.8555 292.415L80.382 293.295L80.38 293.294L80.8555 292.415ZM67.6838 285.528L67.2441 286.426L67.2434 286.426L67.6838 285.528ZM62.5247 278.617L63.4824 278.905L63.4819 278.906L62.5247 278.617ZM70.7896 273.177L71.5696 272.551L71.6479 272.649L71.6997 272.762L70.7896 273.177ZM59.817 245.817C59.2049 245.026 59.2058 245.025 59.2067 245.025C59.207 245.024 59.2079 245.024 59.2086 245.023C59.2098 245.022 59.2112 245.021 59.2126 245.02C59.2155 245.018 59.2186 245.016 59.222 245.013C59.2289 245.008 59.2368 245.002 59.2459 244.996C59.264 244.983 59.2866 244.967 59.3137 244.949C59.3677 244.913 59.4398 244.869 59.5293 244.82C59.708 244.723 59.9582 244.608 60.275 244.514C60.9154 244.323 61.8077 244.223 62.8969 244.497C65.0655 245.042 67.8093 247.008 70.9193 252.125L69.2102 253.163C66.2197 248.243 63.8397 246.796 62.4095 246.436C61.6993 246.258 61.1735 246.333 60.8456 246.431C60.6783 246.48 60.5568 246.538 60.485 246.577C60.4491 246.596 60.4261 246.611 60.4164 246.618C60.4116 246.621 60.4102 246.622 60.4123 246.62C60.4133 246.62 60.4152 246.618 60.418 246.616C60.4194 246.615 60.421 246.614 60.4229 246.612C60.4238 246.612 60.4248 246.611 60.4258 246.61C60.4263 246.61 60.4271 246.609 60.4274 246.609C60.4282 246.608 60.4291 246.608 59.817 245.817ZM70.9193 252.125C73.9842 257.168 76.1381 261.168 77.5279 263.912C78.2228 265.283 78.7267 266.341 79.058 267.059C79.2237 267.418 79.3462 267.691 79.4278 267.877C79.4686 267.969 79.4992 268.04 79.5199 268.088C79.5302 268.112 79.538 268.131 79.5435 268.143C79.5462 268.15 79.5482 268.155 79.5497 268.158C79.5505 268.16 79.5511 268.161 79.5515 268.162C79.5517 268.163 79.5519 268.163 79.5521 268.164C79.5521 268.164 79.5522 268.164 79.5522 268.164C79.5523 268.164 79.5524 268.164 78.6304 268.552C77.7084 268.939 77.7084 268.939 77.7085 268.939C77.7085 268.939 77.7085 268.939 77.7085 268.939C77.7085 268.939 77.7084 268.939 77.7084 268.939C77.7082 268.938 77.7079 268.938 77.7074 268.936C77.7065 268.934 77.705 268.931 77.7028 268.926C77.6985 268.915 77.6918 268.9 77.6826 268.878C77.6642 268.836 77.6359 268.77 77.5974 268.683C77.5205 268.508 77.4029 268.245 77.2422 267.897C76.9209 267.201 76.4275 266.165 75.7438 264.815C74.3763 262.116 72.2473 258.161 69.2101 253.163L70.9193 252.125ZM78.6304 268.552C79.4289 267.95 79.4287 267.949 79.4285 267.949C79.4284 267.949 79.4282 267.949 79.428 267.948C79.4278 267.948 79.4275 267.948 79.4273 267.947C79.4269 267.947 79.4265 267.946 79.4263 267.946C79.4258 267.945 79.4256 267.945 79.4258 267.945C79.4261 267.946 79.4278 267.948 79.4308 267.952C79.4368 267.959 79.4479 267.973 79.4638 267.992C79.4957 268.03 79.5452 268.085 79.6089 268.15C79.7416 268.284 79.9109 268.43 80.09 268.534C80.2724 268.639 80.4009 268.664 80.4802 268.659C80.5283 268.656 80.6552 268.64 80.855 268.419L82.3384 269.76C81.84 270.311 81.2469 270.614 80.6079 270.655C80 270.694 79.4743 270.488 79.0897 270.266C78.7018 270.041 78.3914 269.763 78.186 269.555C78.0808 269.449 77.9968 269.354 77.9374 269.284C77.9075 269.249 77.8836 269.219 77.8659 269.197C77.8571 269.186 77.8498 269.177 77.8441 269.169C77.8413 269.166 77.8388 269.163 77.8368 269.16C77.8358 269.159 77.8348 269.157 77.834 269.156C77.8336 269.156 77.8332 269.155 77.8329 269.155C77.8327 269.155 77.8324 269.154 77.8323 269.154C77.8321 269.154 77.8319 269.153 78.6304 268.552ZM80.855 268.419C81.1442 268.099 81.4726 267.615 81.8864 266.993C82.2814 266.4 82.7379 265.707 83.2394 265.078C84.177 263.902 85.6207 262.496 87.5558 262.897L87.1505 264.855C86.4795 264.716 85.7432 265.145 84.8033 266.325C84.366 266.873 83.9594 267.488 83.5513 268.101C83.1621 268.686 82.7476 269.308 82.3384 269.76L80.855 268.419ZM87.5548 262.896C89.2767 263.251 90.4636 264.369 91.1599 265.955C91.8361 267.495 92.0628 269.488 91.9694 271.749L89.9712 271.667C90.0587 269.545 89.8299 267.901 89.3287 266.759C88.8477 265.664 88.1355 265.058 87.1515 264.855L87.5548 262.896ZM91.9694 271.749C91.7895 276.109 91.7465 285.699 91.7462 286.573L89.7462 286.572C89.7465 285.704 89.7892 276.074 89.9712 271.667L91.9694 271.749ZM91.7462 286.574C91.746 286.682 91.7654 286.813 91.8044 286.932C91.8453 287.057 91.889 287.114 91.8974 287.123C91.8983 287.123 91.8817 287.106 91.844 287.088C91.803 287.068 91.7547 287.057 91.7083 287.057C91.6161 287.057 91.6461 287.097 91.8161 286.961L93.0703 288.518C92.6815 288.831 92.2199 289.058 91.7046 289.057C91.167 289.056 90.7426 288.808 90.4531 288.506C89.9297 287.96 89.7454 287.155 89.7462 286.571L91.7462 286.574ZM91.8161 286.961C91.8916 286.9 92.0603 286.732 92.3601 286.415C92.6335 286.126 92.9963 285.735 93.3961 285.317C94.2033 284.475 95.2349 283.445 96.3613 282.539C97.4741 281.644 98.7518 280.809 100.055 280.432C101.402 280.042 102.856 280.127 104.091 281.203L102.777 282.711C102.187 282.197 101.493 282.097 100.611 282.353C99.6858 282.621 98.6535 283.262 97.6148 284.097C96.5897 284.922 95.6283 285.878 94.8406 286.701C94.4429 287.116 94.1079 287.478 93.8129 287.789C93.5443 288.073 93.2741 288.354 93.0703 288.518L91.8161 286.961ZM104.091 281.203C105.268 282.229 105.849 283.866 106.135 285.543C106.428 287.253 106.446 289.192 106.343 291.025C106.136 294.696 105.433 298.123 105.311 298.775L103.345 298.406C103.472 297.73 104.148 294.431 104.346 290.913C104.445 289.151 104.421 287.38 104.164 285.88C103.902 284.348 103.427 283.277 102.777 282.711L104.091 281.203ZM105.311 298.775C105.199 299.373 105.246 299.627 105.277 299.711C105.288 299.741 105.296 299.747 105.299 299.751C105.308 299.759 105.338 299.784 105.418 299.819L104.624 301.655C104.115 301.435 103.641 301.055 103.401 300.404C103.185 299.817 103.208 299.138 103.345 298.406L105.311 298.775ZM105.414 299.817C105.259 299.751 105.117 299.748 105.02 299.761C104.93 299.774 104.877 299.8 104.869 299.804C104.862 299.807 104.913 299.78 105.031 299.672C105.261 299.46 105.568 299.106 105.951 298.624C106.669 297.723 107.665 296.351 108.596 295.242L110.128 296.528C109.195 297.64 108.342 298.832 107.516 299.87C107.128 300.358 106.739 300.818 106.386 301.143C106.213 301.302 106 301.475 105.762 301.593C105.54 301.704 105.105 301.86 104.628 301.657L105.414 299.817ZM108.596 295.242C109.543 294.114 110.75 292.868 112.045 292.185C112.704 291.837 113.452 291.599 114.24 291.653C115.054 291.71 115.803 292.072 116.443 292.732L115.007 294.124C114.673 293.779 114.372 293.667 114.102 293.649C113.805 293.628 113.434 293.713 112.979 293.954C112.046 294.446 111.046 295.434 110.128 296.528L108.596 295.242ZM116.442 292.731C117.122 293.431 117.62 294.577 117.912 296.011C118.211 297.473 118.317 299.34 118.126 301.591C117.743 306.095 116.16 312.207 112.423 319.841L110.626 318.962C114.281 311.497 115.775 305.626 116.133 301.421C116.312 299.318 116.205 297.648 115.953 296.411C115.695 295.146 115.305 294.431 115.008 294.125L116.442 292.731ZM112.392 319.899L108.51 326.669L106.775 325.674L110.657 318.904L112.392 319.899ZM107.662 327.171L99.8229 327.324L99.7841 325.324L107.623 325.172L107.662 327.171ZM99.762 327.323C91.2698 326.971 85.1438 325.448 81.0018 323.637C78.9318 322.732 77.3418 321.748 76.1985 320.789C75.0771 319.848 74.3064 318.863 74.0149 317.933L75.9236 317.335C76.0512 317.743 76.4949 318.427 77.4842 319.257C78.4516 320.069 79.8686 320.959 81.803 321.805C85.6696 323.496 91.5416 324.98 99.8449 325.325L99.762 327.323ZM74.0149 317.933C73.7399 317.054 73.7791 316.223 74.118 315.48C74.446 314.761 75.0123 314.217 75.6323 313.803C76.8514 312.991 78.5221 312.525 79.9644 312.232L80.3628 314.192C78.9647 314.476 77.6192 314.883 76.7416 315.468C76.3133 315.753 76.0612 316.039 75.9376 316.31C75.825 316.557 75.7795 316.875 75.9236 317.335L74.0149 317.933ZM79.9644 312.232C81.3809 311.944 83.0641 311.721 84.1968 311.52C84.8033 311.412 85.2604 311.311 85.5562 311.21C85.7084 311.158 85.7564 311.126 85.7491 311.131C85.7422 311.136 85.6939 311.17 85.6402 311.243C85.582 311.322 85.5168 311.45 85.5013 311.618L87.4929 311.801C87.4453 312.319 87.0997 312.627 86.8972 312.768C86.679 312.921 86.4264 313.026 86.2038 313.102C85.7499 313.257 85.1602 313.38 84.5463 313.489C83.2383 313.721 81.7866 313.902 80.3628 314.192L79.9644 312.232ZM85.5013 311.618C85.5091 311.533 85.5009 311.496 85.4982 311.486C85.4971 311.482 85.4955 311.473 85.4746 311.449C85.4147 311.38 85.2135 311.217 84.6363 311.031L85.2517 309.128C85.9599 309.357 86.5672 309.661 86.9785 310.13C87.4355 310.652 87.5437 311.249 87.4929 311.801L85.5013 311.618ZM84.6385 311.031C84.0044 310.828 80.6567 309.812 77.3324 308.243C75.6724 307.46 73.9767 306.52 72.6137 305.448C71.277 304.397 70.1144 303.106 69.7743 301.583L71.7263 301.147C71.9138 301.987 72.628 302.915 73.85 303.876C75.0456 304.816 76.5906 305.682 78.1859 306.434C81.3722 307.938 84.5938 308.916 85.2496 309.127L84.6385 311.031ZM69.7743 301.583C69.4174 299.984 70.0353 298.666 71.02 297.668C71.9729 296.703 73.3156 295.978 74.6329 295.427C75.9662 294.869 77.3629 294.453 78.4888 294.146C79.0465 293.993 79.5631 293.861 79.9477 293.758C80.3691 293.646 80.5975 293.578 80.6873 293.54L81.4576 295.386C81.2163 295.487 80.8407 295.59 80.4629 295.691C80.0483 295.801 79.5705 295.923 79.0158 296.075C77.9173 296.375 76.6185 296.764 75.4049 297.272C74.1754 297.786 73.12 298.388 72.4434 299.073C71.7986 299.727 71.5557 300.383 71.7263 301.147L69.7743 301.583ZM80.6842 293.542C80.8853 293.457 80.8644 293.411 80.8212 293.491C80.7995 293.532 80.7867 293.579 80.7843 293.624C80.7822 293.665 80.7896 293.688 80.7892 293.687C80.7854 293.675 80.7566 293.61 80.6664 293.515C80.5804 293.424 80.4754 293.346 80.382 293.295L81.329 291.534C81.8428 291.81 82.4621 292.355 82.6934 293.075C82.8214 293.474 82.8373 293.964 82.5832 294.438C82.3394 294.892 81.9212 295.191 81.4607 295.385L80.6842 293.542ZM80.38 293.294C79.6122 292.879 71.1585 288.342 67.2441 286.426L68.1235 284.63C72.0808 286.567 80.571 291.124 81.3311 291.535L80.38 293.294ZM67.2434 286.426C65.2118 285.429 63.5687 284.279 62.538 282.951C61.4767 281.584 61.0589 280.008 61.5676 278.327L63.4819 278.906C63.1916 279.866 63.3845 280.78 64.118 281.725C64.8821 282.71 66.2181 283.695 68.1241 284.63L67.2434 286.426ZM61.5671 278.329C62.1365 276.435 64.0616 275.835 65.5433 275.571C66.3358 275.43 67.1626 275.36 67.8727 275.296C68.6168 275.229 69.1981 275.171 69.6161 275.07L70.0868 277.014C69.4951 277.157 68.7516 277.224 68.0523 277.288C67.3191 277.354 66.5843 277.418 65.8934 277.541C64.4084 277.805 63.6798 278.248 63.4824 278.905L61.5671 278.329ZM69.6161 275.07C69.9038 275 69.9774 274.897 70.0026 274.857C70.0447 274.79 70.084 274.664 70.0783 274.453C70.0726 274.246 70.0249 274.027 69.97 273.846C69.9436 273.759 69.918 273.688 69.9001 273.642C69.8912 273.619 69.8844 273.603 69.8806 273.594C69.8787 273.589 69.8776 273.587 69.8773 273.586C69.8772 273.586 69.8773 273.586 69.8777 273.587C69.8779 273.587 69.8781 273.588 69.8784 273.589C69.8785 273.589 69.8787 273.589 69.8789 273.59C69.879 273.59 69.8791 273.59 69.8792 273.59C69.8793 273.591 69.8795 273.591 70.7896 273.177C71.6997 272.762 71.6999 272.763 71.7001 272.763C71.7001 272.763 71.7003 272.764 71.7004 272.764C71.7007 272.764 71.7009 272.765 71.7012 272.766C71.7018 272.767 71.7024 272.768 71.7031 272.77C71.7045 272.773 71.7061 272.777 71.708 272.781C71.7117 272.789 71.7164 272.8 71.7219 272.813C71.733 272.839 71.7475 272.874 71.7642 272.917C71.7975 273.003 71.8406 273.122 71.884 273.266C71.9688 273.545 72.0653 273.951 72.0775 274.398C72.0896 274.842 72.0207 275.403 71.6975 275.919C71.3575 276.461 70.809 276.839 70.0868 277.014L69.6161 275.07ZM70.7896 273.177C70.0096 273.802 70.0095 273.802 70.0094 273.802C70.0093 273.802 70.0092 273.802 70.009 273.802C70.0088 273.802 70.0085 273.801 70.0082 273.801C70.0075 273.8 70.0065 273.799 70.0053 273.797C70.0029 273.794 69.9996 273.79 69.9953 273.785C69.9867 273.774 69.9743 273.758 69.9581 273.738C69.9257 273.696 69.8782 273.636 69.8162 273.556C69.6922 273.396 69.51 273.157 69.2736 272.841C68.8007 272.207 68.1109 271.26 67.2363 269.995C65.487 267.465 62.9982 263.664 60.026 258.566L61.7538 257.559C64.6991 262.611 67.1602 266.368 68.8814 268.857C69.742 270.102 70.4176 271.03 70.8763 271.644C71.1056 271.952 71.2808 272.18 71.3976 272.331C71.4561 272.407 71.5 272.463 71.5288 272.499C71.5432 272.518 71.5539 272.531 71.5607 272.54C71.5641 272.544 71.5666 272.547 71.5681 272.549C71.5688 272.55 71.5693 272.551 71.5696 272.551C71.5697 272.551 71.5698 272.551 71.5698 272.551C71.5698 272.551 71.5698 272.551 71.5698 272.551C71.5697 272.551 71.5696 272.551 70.7896 273.177ZM60.026 258.566C57.0069 253.388 56.6182 250.024 57.2141 247.845C57.5128 246.753 58.0457 246.015 58.5302 245.544C58.7701 245.311 58.9948 245.146 59.1683 245.035C59.2551 244.98 59.3295 244.938 59.3871 244.908C59.416 244.893 59.4407 244.88 59.4608 244.871C59.4709 244.866 59.4798 244.862 59.4874 244.858C59.4913 244.857 59.4948 244.855 59.498 244.854C59.4996 244.853 59.5012 244.852 59.5026 244.852C59.5033 244.851 59.5044 244.851 59.5047 244.851C59.5057 244.85 59.5067 244.85 59.9057 245.767C60.3046 246.684 60.3055 246.683 60.3065 246.683C60.3068 246.683 60.3077 246.682 60.3083 246.682C60.3094 246.682 60.3105 246.681 60.3115 246.681C60.3135 246.68 60.3153 246.679 60.3168 246.678C60.3198 246.677 60.3217 246.676 60.3225 246.676C60.3243 246.675 60.3221 246.676 60.3162 246.679C60.3045 246.685 60.2787 246.699 60.2422 246.722C60.169 246.769 60.0545 246.851 59.9244 246.978C59.6688 247.226 59.3382 247.659 59.1433 248.372C58.7519 249.804 58.8553 252.588 61.7538 257.559L60.026 258.566Z" fill="black" mask="url(#path-2-inside-1_375_7886)"/>
<path d="M65.2959 254.803C65.2959 254.803 65.3255 254.879 65.4072 255.022C65.4924 255.175 65.6091 255.382 65.761 255.652C66.0825 256.212 66.5444 257.026 67.1408 258.066C68.3387 260.159 70.1028 263.176 72.2897 266.893C76.6652 274.331 82.7916 284.554 89.5982 295.82C96.4065 307.091 102.562 317.297 106.975 324.711C109.176 328.412 110.954 331.412 112.194 333.494C112.807 334.523 113.285 335.326 113.615 335.882C113.774 336.145 113.902 336.353 113.99 336.499C114.074 336.636 114.126 336.703 114.126 336.703C114.126 336.703 114.097 336.627 114.015 336.484C113.93 336.331 113.813 336.124 113.661 335.854C113.34 335.294 112.878 334.48 112.283 333.444C111.085 331.351 109.321 328.335 107.134 324.618C102.759 317.179 96.6322 306.956 89.8239 295.686C83.0174 284.42 76.8614 274.213 72.4492 266.8C70.2479 263.099 68.4694 260.098 67.2294 258.016C66.6169 256.987 66.1389 256.185 65.8085 255.628C65.6494 255.366 65.5219 255.158 65.434 255.012C65.3496 254.875 65.2976 254.807 65.2976 254.807L65.2959 254.803Z" fill="black"/>
<path d="M85.1377 269.872C85.1377 269.872 85.0621 270.061 84.978 270.414C84.8894 270.768 84.7798 271.279 84.6461 271.914C84.3847 273.185 84.0675 274.947 83.7584 276.902C83.463 278.826 83.1932 280.564 82.9856 281.908C82.8923 282.501 82.8113 283.006 82.7427 283.425C82.6862 283.781 82.6613 283.982 82.6782 283.986C82.6951 283.989 82.7538 283.796 82.8441 283.447C82.9327 283.093 83.0423 282.581 83.1698 281.944C83.4205 280.672 83.7101 278.905 84.0192 276.95C84.3315 275.03 84.612 273.292 84.8275 271.956C84.9253 271.362 85.0063 270.856 85.0767 270.442C85.1332 270.085 85.1536 269.886 85.135 269.878L85.1377 269.872Z" fill="black"/>
<path d="M81.9727 284.173C81.9858 284.101 78.3782 283.293 73.9133 282.361C69.4439 281.43 65.8131 280.734 65.8 280.806C65.7869 280.878 69.39 281.688 73.8594 282.619C78.3226 283.546 81.9596 284.245 81.9727 284.173Z" fill="black"/>
<path d="M93.2092 301.007C93.2092 301.007 93.0033 300.994 92.6323 301.021C92.2069 301.053 91.686 301.091 91.0714 301.14C89.754 301.237 87.9309 301.371 85.9176 301.44C83.9016 301.516 82.0751 301.522 80.7559 301.522C80.1373 301.521 79.6158 301.518 79.1889 301.52C78.8181 301.52 78.612 301.534 78.6128 301.549C78.6091 301.566 78.8156 301.593 79.188 301.623C79.5558 301.655 80.0922 301.683 80.7516 301.709C82.0749 301.759 83.9073 301.781 85.9278 301.704C87.9501 301.631 89.7734 301.471 91.0912 301.323C91.747 301.248 92.2816 301.178 92.6449 301.119C93.0099 301.064 93.2099 301.022 93.2092 301.007Z" fill="black"/>
<path d="M98.9189 288.702C98.9189 288.702 98.8035 288.855 98.644 289.159C98.4828 289.459 98.2526 289.899 97.9823 290.448C97.4292 291.539 96.6862 293.056 95.8803 294.741C95.0726 296.421 94.3563 297.952 93.8485 299.068C93.5968 299.624 93.3915 300.075 93.2614 300.389C93.1267 300.704 93.0628 300.884 93.0797 300.888C93.0984 300.896 93.1951 300.734 93.3546 300.43C93.5158 300.13 93.746 299.69 94.0163 299.141C94.5649 298.051 95.3124 296.534 96.1183 294.849C96.926 293.168 97.6423 291.637 98.1519 290.526C98.4035 289.969 98.6088 289.518 98.739 289.205C98.8736 288.889 98.9375 288.71 98.9206 288.706L98.9189 288.702Z" fill="black"/>
<path d="M110.728 302.303C110.728 302.303 110.59 302.506 110.38 302.892C110.153 303.326 109.869 303.88 109.524 304.54C108.811 305.936 107.84 307.871 106.787 310.018C105.734 312.165 104.789 314.116 104.12 315.531C103.806 316.205 103.547 316.769 103.34 317.216C103.161 317.615 103.069 317.842 103.088 317.85C103.106 317.858 103.225 317.647 103.435 317.261C103.663 316.827 103.946 316.273 104.292 315.613C105.004 314.217 105.974 312.278 107.028 310.135C108.082 307.988 109.022 306.039 109.695 304.622C110.009 303.949 110.268 303.384 110.475 302.937C110.654 302.538 110.746 302.311 110.728 302.303Z" fill="black"/>
<path d="M103.164 317.424C103.164 317.424 102.905 317.407 102.431 317.421C101.914 317.443 101.243 317.467 100.443 317.501C98.7681 317.567 96.4516 317.652 93.8905 317.677C91.3294 317.703 89.013 317.669 87.3349 317.633C86.5346 317.615 85.8653 317.603 85.3465 317.594C84.8751 317.588 84.6183 317.59 84.6164 317.611C84.6127 317.628 84.8727 317.661 85.3412 317.7C85.8097 317.738 86.4868 317.783 87.3261 317.822C89.0021 317.905 91.3262 317.972 93.8918 317.945C96.4547 317.924 98.7741 317.807 100.451 317.694C101.288 317.635 101.966 317.577 102.432 317.529C102.898 317.481 103.157 317.447 103.155 317.427L103.164 317.424Z" fill="black"/>
<path d="M118.39 296.379H105.68V301.75H118.39V296.379Z" fill="#EBEBEB"/>
<path d="M224.71 98H212V103.371H224.71V98Z" fill="#FA2E62"/>
<path d="M231.8 104.773H219.09V110.144H231.8V104.773Z" fill="#FA2E62"/>
<path d="M51.7104 125H39V130.371H51.7104V125Z" fill="#FA2E62"/>
<path d="M322 232.371H334.71V227H322V232.371Z" fill="#FA2E62"/>
<path d="M81.9996 194.144H94.71V188.773H81.9996V194.144Z" fill="#FA2E62"/>
<path d="M89.0894 187.371H101.8V182H89.0894V187.371Z" fill="#FA2E62"/>
<path d="M118.289 55.3648V4" stroke="#C7C7C7" stroke-miterlimit="10"/>
<path d="M136.126 72.5583L134.691 75.7119H101.883L100.452 72.5583L114.42 62.8911H122.158L136.126 72.5583Z" fill="#EBEBEB"/>
<path d="M123.127 53.5791L122.157 62.8911H114.42L113.45 53.5791H123.127Z" fill="#DBDBDB"/>
<path d="M136.121 72.563L134.686 75.7166H101.878L100.447 72.563H136.121Z" fill="#DBDBDB"/>
<path d="M152.427 45.1936V4" stroke="#C7C7C7" stroke-miterlimit="10"/>
<path d="M170.263 62.3874L168.828 65.541H136.02L134.59 62.3874L148.558 52.7202H156.295L170.263 62.3874Z" fill="#EBEBEB"/>
<path d="M157.265 43.4033L156.295 52.7201H148.557L147.588 43.4033H157.265Z" fill="#DBDBDB"/>
<path d="M170.263 62.3872L168.828 65.5408H136.02L134.59 62.3872H170.263Z" fill="#DBDBDB"/>
<path d="M319 330.5C319 337.407 260.347 343 188 343C115.653 343 57 337.402 57 330.5C57 323.598 115.653 318 188 318C260.347 318 319 323.598 319 330.5Z" fill="white"/>
<path d="M201.69 203.82C201.908 206.365 200.024 208.61 197.478 208.835C194.933 209.053 192.688 207.169 192.462 204.623C192.245 202.078 194.129 199.833 196.675 199.607C199.22 199.39 201.465 201.274 201.69 203.82Z" fill="white"/>
<path d="M201.691 203.82C201.804 205.028 201.428 206.275 200.662 207.236C199.904 208.205 198.748 208.873 197.494 209.023C196.24 209.181 194.911 208.828 193.89 208.017C192.868 207.213 192.2 205.967 192.088 204.653C191.975 203.347 192.418 202.003 193.281 201.034C194.145 200.058 195.399 199.48 196.66 199.42C197.922 199.352 199.183 199.818 200.092 200.636C201.008 201.447 201.593 202.611 201.691 203.82ZM201.691 203.82C201.586 202.611 200.97 201.454 200.024 200.711C199.078 199.96 197.847 199.637 196.698 199.787C195.534 199.93 194.475 200.553 193.785 201.439C193.079 202.325 192.733 203.467 192.838 204.578C192.929 205.689 193.462 206.755 194.303 207.506C195.136 208.265 196.292 208.693 197.456 208.633C198.62 208.58 199.776 208.047 200.58 207.153C201.383 206.26 201.789 205.021 201.691 203.805V203.82Z" fill="black"/>
<path d="M191.669 212.357C191.789 213.776 190.738 215.022 189.326 215.15C187.907 215.27 186.66 214.219 186.533 212.807C186.413 211.388 187.464 210.142 188.875 210.014C190.295 209.894 191.541 210.945 191.669 212.357Z" fill="white"/>
<path d="M191.668 212.357C191.818 213.701 190.812 215.128 189.341 215.33C188.627 215.443 187.839 215.255 187.238 214.797C186.63 214.339 186.232 213.603 186.165 212.83C186.097 212.057 186.367 211.268 186.885 210.705C187.403 210.142 188.147 209.834 188.868 209.819C190.354 209.774 191.586 211.005 191.676 212.357H191.668ZM191.668 212.357C191.608 211.681 191.255 211.043 190.722 210.645C190.189 210.247 189.513 210.097 188.89 210.194C187.621 210.39 186.78 211.621 186.9 212.762C186.975 213.911 188.012 214.985 189.303 214.955C189.934 214.955 190.572 214.685 191.03 214.197C191.488 213.716 191.721 213.025 191.668 212.349V212.357Z" fill="black"/>
<path d="M236.087 182.285C235.895 180.705 235.438 179.237 234.749 177.902L234.669 177.747L234.786 177.619C236.143 176.132 236.861 174.079 236.6 171.923L236.6 171.923C236.128 167.999 232.552 165.191 228.62 165.669C228.13 165.735 227.659 165.836 227.212 165.988L226.983 166.066L226.898 165.839C225.143 161.154 220.355 158.1 215.171 158.731L236.087 182.285ZM236.087 182.285V182.293L236.089 182.308C236.974 189.581 231.793 196.199 224.519 197.091C222.131 197.379 219.817 197.018 217.753 196.148L217.575 196.073L217.457 196.227C215.71 198.517 213.075 200.118 209.982 200.5C205.929 200.992 202.111 199.23 199.805 196.19L199.699 196.051L199.532 196.102C199.059 196.247 198.564 196.35 198.06 196.408L198.059 196.408C193.15 197 188.687 193.508 188.088 188.6C187.81 186.313 188.416 184.129 189.644 182.376L189.75 182.223L189.635 182.078C188.176 180.228 187.189 177.973 186.886 175.46L186.886 175.46C186.002 168.178 191.183 161.56 198.457 160.676C201.774 160.278 204.942 161.125 207.507 162.864L207.698 162.994L207.843 162.814C209.59 160.625 212.167 159.098 215.171 158.731L236.087 182.285Z" fill="white" stroke="black" stroke-width="0.5"/>
<path d="M236.337 182.277C236.592 184.613 236.314 187.038 235.368 189.2C234.932 190.297 234.287 191.295 233.588 192.249C232.83 193.15 232.027 194.036 231.066 194.727C229.196 196.183 226.913 197.054 224.578 197.385C222.236 197.693 219.803 197.385 217.61 196.469L217.738 196.439C216.679 197.835 215.298 198.999 213.721 199.78C212.144 200.568 210.387 200.989 208.622 200.996C206.858 200.996 205.086 200.606 203.494 199.817C201.902 199.037 200.498 197.888 199.402 196.484L199.68 196.574C198.749 196.874 197.765 196.987 196.796 196.979C195.82 196.979 194.844 196.807 193.921 196.491C192.051 195.89 190.414 194.659 189.25 193.082C188.68 192.279 188.237 191.4 187.914 190.469C187.621 189.531 187.448 188.555 187.441 187.571C187.411 185.604 188.026 183.636 189.16 182.022L189.175 182.443C187.14 179.882 186.029 176.563 186.209 173.282C186.345 170.008 187.674 166.787 189.926 164.407C192.164 162.004 195.265 160.473 198.516 160.097C201.767 159.737 205.123 160.593 207.797 162.447L207.459 162.5C208.743 160.916 210.447 159.692 212.339 158.971C214.239 158.258 216.319 158.055 218.316 158.385C220.306 158.716 222.213 159.572 223.752 160.871C225.314 162.147 226.5 163.851 227.206 165.729L227.109 165.684C228.67 165.173 230.405 165.195 231.944 165.751C233.491 166.284 234.85 167.358 235.728 168.739C236.629 170.106 237.035 171.78 236.9 173.41C236.772 175.039 236.074 176.616 234.97 177.817V177.802C235.691 179.199 236.141 180.731 236.322 182.285L236.337 182.277ZM236.337 182.277C236.149 180.723 235.683 179.199 234.963 177.802V177.787C236.059 176.586 236.735 175.017 236.855 173.395C236.975 171.78 236.562 170.121 235.668 168.77C234.79 167.41 233.446 166.359 231.914 165.841C230.39 165.301 228.685 165.308 227.161 165.826L227.086 165.849L227.056 165.774C226.335 163.934 225.141 162.275 223.595 161.051C222.07 159.804 220.193 159.001 218.256 158.701C216.319 158.415 214.299 158.633 212.482 159.346C210.665 160.067 209.043 161.276 207.842 162.8L207.699 162.98L207.504 162.853C204.898 161.103 201.67 160.33 198.569 160.72C195.467 161.096 192.524 162.575 190.407 164.865C188.274 167.14 187.035 170.204 186.923 173.305C186.773 176.413 187.779 179.552 189.708 181.992L189.874 182.202L189.723 182.42C188.672 183.907 188.087 185.724 188.102 187.556C188.102 188.472 188.259 189.381 188.53 190.252C188.822 191.115 189.235 191.941 189.761 192.692C190.842 194.163 192.351 195.335 194.093 195.928C194.957 196.236 195.873 196.409 196.789 196.424C197.705 196.446 198.636 196.348 199.515 196.078L199.687 196.026L199.792 196.168C200.814 197.527 202.15 198.646 203.674 199.427C205.191 200.208 206.896 200.613 208.607 200.628C210.319 200.643 212.039 200.268 213.578 199.517C215.125 198.774 216.491 197.655 217.55 196.303L217.603 196.236L217.678 196.266C219.825 197.197 222.22 197.542 224.548 197.265C226.868 196.949 229.143 196.093 231.005 194.659C231.967 193.976 232.77 193.105 233.528 192.211C234.219 191.265 234.872 190.274 235.315 189.178C236.269 187.023 236.562 184.605 236.322 182.27L236.337 182.277Z" fill="black"/>
<path d="M246.988 318.277L259.356 336.267L263.779 336.372L255.673 317.877L246.988 318.277Z" fill="black"/>
<path d="M116.476 319.201L109.96 336.187H113.218L124.597 319.271L116.476 319.201Z" fill="black"/>
<path d="M113.682 257.465L114.162 279.448C114.232 282.556 116.73 285.06 119.839 285.13L242.866 287.868C246.124 287.943 248.803 285.32 248.803 282.062V255.581C248.803 247.765 243.041 241.144 235.295 240.075C212.772 236.976 166.323 232.214 128.784 238.98C119.889 240.584 113.487 248.425 113.682 257.465Z" fill="#EBEBEB"/>
<path d="M113.127 265.146C113.127 265.146 102.993 260.454 100.919 265.146C98.8453 269.839 101.149 275.595 103.453 278.819C105.756 282.042 105.717 321.665 105.717 321.665L259.422 320.021L261.241 281.907C261.241 281.907 268.612 272.827 268.152 268.914C267.692 264.996 261.471 259.299 254.33 265.146C247.189 270.988 245.345 283.196 245.345 283.196L122.797 284.116C122.797 284.116 123.202 266.96 113.122 265.141L113.127 265.146Z" fill="#EBEBEB"/>
<path d="M243.785 290.812C243.785 290.882 216.555 290.942 182.974 290.942C149.392 290.942 122.157 290.882 122.157 290.812C122.157 290.742 149.382 290.682 182.974 290.682C216.565 290.682 243.785 290.742 243.785 290.812Z" fill="black"/>
<path d="M122.163 307.588C122.163 307.588 122.153 307.548 122.148 307.468C122.148 307.373 122.138 307.258 122.133 307.113C122.123 306.803 122.113 306.343 122.108 305.754C122.108 304.549 122.103 302.845 122.098 300.747C122.093 296.519 122.128 290.682 121.933 284.241C121.818 281.022 121.698 277.944 121.228 275.206C121.139 274.876 121.049 274.546 120.964 274.226C120.839 273.911 120.719 273.601 120.584 273.297C120.319 272.692 120.049 272.112 119.754 271.568C119.175 270.473 118.54 269.509 117.885 268.689C117.231 267.87 116.546 267.2 115.901 266.675C115.247 266.161 114.632 265.781 114.107 265.521C113.053 265.001 112.398 264.876 112.413 264.841C112.413 264.841 112.453 264.841 112.533 264.861C112.623 264.886 112.738 264.916 112.878 264.951C113.183 265.026 113.618 265.181 114.157 265.431C114.697 265.681 115.327 266.051 116.001 266.565C116.666 267.09 117.366 267.755 118.04 268.579C118.715 269.399 119.365 270.373 119.959 271.473C120.259 272.017 120.539 272.602 120.809 273.212C120.944 273.517 121.069 273.831 121.198 274.146C121.288 274.481 121.383 274.821 121.478 275.161C121.968 277.934 122.088 281.012 122.208 284.236C122.403 290.687 122.338 296.529 122.293 300.752C122.263 302.845 122.238 304.549 122.223 305.759C122.213 306.333 122.208 306.788 122.203 307.118C122.203 307.263 122.193 307.378 122.193 307.473C122.193 307.553 122.183 307.593 122.183 307.593L122.163 307.588Z" fill="black"/>
<path d="M111.933 273.991C111.933 273.991 112.063 273.896 112.343 273.866C112.618 273.836 113.047 273.891 113.472 274.181C113.677 274.326 113.882 274.531 114.022 274.806C114.157 275.076 114.227 275.415 114.167 275.755C114.067 276.425 113.537 277.129 112.733 277.289C111.923 277.424 111.178 276.965 110.834 276.385C110.654 276.095 110.579 275.76 110.589 275.455C110.604 275.151 110.694 274.881 110.814 274.656C111.059 274.206 111.403 273.956 111.658 273.846C111.913 273.731 112.073 273.731 112.073 273.741C112.078 273.761 111.933 273.801 111.708 273.936C111.483 274.066 111.183 274.326 110.984 274.741C110.784 275.146 110.714 275.75 111.044 276.255C111.353 276.755 112.018 277.149 112.693 277.03C113.362 276.9 113.842 276.29 113.937 275.715C114.052 275.121 113.732 274.596 113.367 274.331C113.002 274.051 112.613 273.971 112.353 273.971C112.093 273.971 111.948 274.021 111.938 273.996L111.933 273.991Z" fill="black"/>
<path d="M112.627 283.856C112.627 283.856 112.287 283.606 111.933 283.036C111.578 282.471 111.228 281.577 111.218 280.543C111.208 279.508 111.538 278.604 111.873 278.029C112.212 277.449 112.527 277.174 112.547 277.194C112.582 277.219 112.317 277.539 112.033 278.119C111.748 278.694 111.463 279.558 111.473 280.543C111.483 281.522 111.788 282.382 112.088 282.951C112.387 283.526 112.657 283.836 112.622 283.861L112.627 283.856Z" fill="black"/>
<path d="M111.019 269.019C111.059 269.034 110.949 269.309 110.864 269.764C110.779 270.219 110.744 270.863 110.889 271.553C111.039 272.242 111.329 272.817 111.593 273.197C111.853 273.577 112.063 273.787 112.038 273.817C112.018 273.842 111.763 273.682 111.449 273.307C111.134 272.937 110.794 272.337 110.639 271.608C110.484 270.878 110.554 270.189 110.689 269.724C110.824 269.254 110.994 269.004 111.019 269.019Z" fill="black"/>
<path d="M108.024 274.546C108.079 274.496 108.544 274.965 109.254 275.325C109.958 275.7 110.608 275.81 110.598 275.885C110.598 275.95 109.888 275.95 109.134 275.555C108.374 275.165 107.97 274.581 108.024 274.541V274.546Z" fill="black"/>
<path d="M260.017 307.587C260.017 307.657 225.346 307.717 182.59 307.717C139.833 307.717 105.152 307.657 105.152 307.587C105.152 307.517 139.813 307.458 182.59 307.458C225.366 307.458 260.017 307.517 260.017 307.587Z" fill="black"/>
<path d="M243.251 283.326C243.321 283.326 243.381 288.753 243.381 295.449C243.381 302.146 243.321 307.573 243.251 307.573C243.181 307.573 243.121 302.146 243.121 295.449C243.121 288.753 243.181 283.326 243.251 283.326Z" fill="black"/>
<path d="M191.924 241.394C191.924 241.394 191.844 241.404 191.684 241.414C191.514 241.419 191.284 241.429 190.984 241.439C190.36 241.459 189.455 241.484 188.296 241.514C185.952 241.569 182.579 241.644 178.416 241.743C170.061 241.913 158.537 242.143 145.814 242.398C142.631 242.473 139.518 242.463 136.529 242.663C133.546 242.863 130.658 243.278 128.074 244.207C125.48 245.097 123.242 246.586 121.643 248.42C120.848 249.339 120.178 250.319 119.674 251.333C119.134 252.333 118.779 253.362 118.449 254.347C117.855 256.34 117.59 258.214 117.44 259.858C117.285 261.508 117.27 262.937 117.26 264.101C117.26 265.266 117.28 266.175 117.295 266.785C117.3 267.085 117.305 267.314 117.31 267.484C117.31 267.644 117.31 267.724 117.31 267.724C117.31 267.724 117.3 267.644 117.285 267.489C117.275 267.319 117.26 267.089 117.245 266.79C117.215 266.175 117.175 265.27 117.16 264.101C117.15 262.932 117.16 261.503 117.295 259.848C117.435 258.194 117.69 256.31 118.274 254.297C118.599 253.302 118.954 252.258 119.494 251.243C119.999 250.214 120.673 249.219 121.478 248.28C123.092 246.406 125.366 244.887 127.989 243.982C130.603 243.038 133.511 242.613 136.509 242.408C139.513 242.208 142.626 242.213 145.809 242.138C158.537 241.913 170.061 241.708 178.416 241.559C182.579 241.499 185.952 241.449 188.301 241.414C189.46 241.404 190.36 241.394 190.989 241.389C191.289 241.389 191.519 241.389 191.689 241.389C191.849 241.389 191.929 241.399 191.929 241.399L191.924 241.394Z" fill="black"/>
<path d="M152.576 258.515C152.576 258.515 152.411 258.6 152.151 258.795C151.896 258.984 151.561 259.339 151.376 259.879C151.187 260.404 151.187 261.153 151.656 261.738C152.096 262.318 152.946 262.727 153.775 262.538C154.6 262.333 155.174 261.583 155.309 260.868C155.464 260.134 155.124 259.469 154.72 259.084C154.31 258.69 153.855 258.525 153.54 258.47C153.225 258.415 153.04 258.435 153.035 258.415C153.035 258.405 153.215 258.345 153.55 258.37C153.885 258.395 154.38 258.54 154.839 258.954C155.064 259.159 155.279 259.429 155.419 259.769C155.554 260.109 155.614 260.514 155.539 260.918C155.404 261.718 154.78 262.558 153.83 262.797C152.876 263.012 151.941 262.548 151.461 261.893C151.211 261.568 151.082 261.178 151.052 260.813C151.022 260.449 151.097 260.109 151.202 259.824C151.426 259.249 151.806 258.895 152.091 258.72C152.381 258.545 152.571 258.515 152.571 258.525L152.576 258.515Z" fill="black"/>
<path d="M150.472 271.463C150.442 271.468 150.262 270.913 150.092 269.984C149.932 269.064 149.787 267.72 150.172 266.296C150.561 264.871 151.501 263.807 152.326 263.327C152.74 263.082 153.11 262.952 153.37 262.902C153.63 262.848 153.78 262.848 153.78 262.863C153.795 262.917 153.19 262.967 152.42 263.482C151.656 263.982 150.791 265.006 150.417 266.366C150.052 267.73 150.157 269.039 150.272 269.959C150.392 270.883 150.512 271.453 150.472 271.463Z" fill="black"/>
<path d="M152.291 250.794C152.326 250.829 151.931 251.174 151.557 251.899C151.177 252.608 150.867 253.753 151.137 254.957C151.417 256.161 152.196 257.061 152.846 257.531C153.5 258.02 154.005 258.16 153.985 258.205C153.985 258.22 153.85 258.205 153.63 258.13C153.406 258.06 153.091 257.92 152.741 257.686C152.041 257.231 151.187 256.306 150.887 255.017C150.597 253.728 150.962 252.523 151.402 251.809C151.616 251.444 151.841 251.184 152.011 251.019C152.181 250.854 152.291 250.784 152.301 250.794H152.291Z" fill="black"/>
<path d="M151.831 260.798C151.831 260.878 150.572 260.913 149.123 261.408C147.669 261.888 146.639 262.627 146.594 262.557C146.549 262.512 147.534 261.658 149.038 261.158C150.537 260.648 151.841 260.733 151.831 260.793V260.798Z" fill="black"/>
<g opacity="0.3">
<path d="M135.685 291.267C140.467 294.965 146.639 296.823 152.67 296.389C151.406 302.265 150.147 308.137 148.882 314.014C148.547 315.583 148.233 317.327 149.052 318.701C150.202 320.635 152.875 320.825 155.119 320.795C157.622 320.76 160.231 320.7 162.45 319.541C165.593 317.897 167.282 314.424 168.501 311.096C169.721 307.767 170.775 304.199 173.284 301.696C176.127 304.954 180.095 307.218 184.353 307.997C185.607 308.227 187.021 308.297 188.026 307.513C189.02 306.733 189.31 305.304 189.055 304.064C188.8 302.825 188.101 301.731 187.416 300.671C184.977 296.888 182.539 293.106 180.105 289.328C179.116 287.793 178.031 286.174 176.362 285.445C175.048 284.87 173.559 284.93 172.129 285.01C160.191 285.705 148.323 287.499 136.714 290.367" fill="black"/>
</g>
<g opacity="0.3">
<path d="M174.773 235.027C171.815 242.843 160.771 244.637 156.893 252.038C153.06 259.359 157.812 269.048 153.86 276.304C152.395 278.993 149.887 280.997 148.458 283.7C147.493 285.524 146.998 287.688 145.444 289.042C143.635 290.622 140.832 290.592 138.658 289.572C136.484 288.553 134.81 286.724 133.266 284.89C130.368 281.452 127.644 277.734 126.29 273.441C123.956 266.055 126.095 257.71 130.772 251.538C135.45 245.367 142.401 241.209 149.732 238.72C157.063 236.227 164.824 235.282 172.529 234.562" fill="black"/>
</g>
<path d="M139.242 214.474C140.392 212.765 141.886 211.251 143.725 210.321C145.564 209.392 147.757 209.082 149.716 209.722C151.675 210.361 153.329 212.021 153.724 214.039C154.039 215.639 153.614 217.433 154.439 218.837C155.388 220.456 157.682 220.971 158.492 222.665C158.976 223.689 158.781 224.928 158.252 225.928C157.722 226.927 156.887 227.727 156.058 228.496C156.563 228.856 157.072 229.221 157.427 229.726C157.782 230.231 157.957 230.905 157.717 231.475C157.467 232.075 156.837 232.419 156.238 232.674C153.469 233.849 150.336 234.143 147.398 233.504C146.608 233.334 145.704 233.119 145.054 233.599" fill="black"/>
<path d="M159.247 220.406L157.633 225.303L168.562 231.505L157.578 231.86L158.397 240.77L179.555 235.578C179.555 235.578 180.825 226.947 159.247 220.411L157.727 220.056C157.178 219.926 156.728 219.537 156.518 219.012C156.353 218.597 156.048 218.257 155.654 218.047L153.85 217.108L153.86 218.537L154.849 219.701L154.689 222.465C154.604 223.689 155.419 224.789 156.608 225.074L157.618 225.313" fill="#B78876"/>
<path d="M135.316 238.096C134.881 238.096 130.848 239.075 128.539 242.014C126.236 244.952 122.893 255.971 122.893 255.971L131.398 257.44L135.066 266.655C135.066 266.655 156.779 263.812 155.625 262.667C154.47 261.523 152.101 259.759 152.101 259.759L157.109 243.113L163.115 239.875L161.097 231.56L149.013 233.194L135.321 238.091L135.316 238.096Z" fill="black"/>
<path d="M156.074 246.956C156.074 247.026 149.303 247.086 140.957 247.086C132.612 247.086 125.841 247.026 125.841 246.956C125.841 246.886 132.607 246.826 140.957 246.826C149.308 246.826 156.074 246.886 156.074 246.956Z" fill="black"/>
<path d="M154.721 251.848C154.721 251.918 147.949 251.978 139.604 251.978C131.259 251.978 124.487 251.918 124.487 251.848C124.487 251.778 131.254 251.718 139.604 251.718C147.954 251.718 154.721 251.778 154.721 251.848Z" fill="black"/>
<path d="M154.722 257.13C154.722 257.2 149.595 257.26 143.273 257.26C136.952 257.26 131.819 257.2 131.819 257.13C131.819 257.06 136.947 257 143.273 257C149.6 257 154.722 257.06 154.722 257.13Z" fill="black"/>
<path d="M156.475 262.223C156.475 262.293 151.347 262.353 145.026 262.353C138.704 262.353 133.572 262.293 133.572 262.223C133.572 262.153 138.699 262.093 145.026 262.093C151.352 262.093 156.475 262.153 156.475 262.223Z" fill="black"/>
<path d="M161.896 240.374C161.896 240.444 158.508 240.504 154.33 240.504C150.153 240.504 146.765 240.444 146.765 240.374C146.765 240.304 150.153 240.244 154.33 240.244C158.508 240.244 161.896 240.304 161.896 240.374Z" fill="black"/>
<path d="M162.446 235.187C162.446 235.257 159.073 235.397 154.91 235.492C150.747 235.587 147.369 235.612 147.369 235.537C147.369 235.467 150.742 235.327 154.905 235.232C159.068 235.137 162.441 235.112 162.446 235.187Z" fill="black"/>
<path d="M133.161 249.495C133.231 249.51 132.866 251.344 132.351 253.583C131.832 255.826 131.357 257.63 131.287 257.61C131.217 257.595 131.582 255.766 132.096 253.523C132.616 251.279 133.091 249.475 133.161 249.495Z" fill="black"/>
<path d="M156.793 311.891L150.467 331.845L158.093 332.609L165.259 315.274L156.793 311.891Z" fill="#B78876"/>
<path d="M162.376 324.848L158.743 333.858C158.743 333.858 166.683 340.58 166.173 342.309L148.448 335.892L153.535 321.62L162.381 324.848H162.376Z" fill="black"/>
<path d="M153.541 331.105C153.167 331.075 152.787 331.375 152.742 331.75C152.697 332.125 152.997 332.509 153.371 332.549C153.746 332.584 154.211 332.24 154.216 331.86C154.221 331.48 153.841 331.05 153.466 331.1" fill="#E0E0E0"/>
<path d="M148.448 335.892L149.018 334.473L165.799 341.159C165.799 341.159 166.463 341.789 166.173 342.314L148.448 335.897V335.892Z" fill="#E0E0E0"/>
<path d="M159.062 333.874C159.027 333.959 158.582 333.844 158.052 333.964C157.522 334.074 157.168 334.368 157.098 334.308C157.023 334.263 157.343 333.794 157.982 333.654C158.622 333.509 159.107 333.804 159.062 333.874Z" fill="black"/>
<path d="M160.641 335.313C160.631 335.402 160.202 335.412 159.777 335.672C159.342 335.917 159.127 336.287 159.042 336.252C158.957 336.237 159.077 335.707 159.617 335.392C160.152 335.073 160.671 335.223 160.646 335.308L160.641 335.313Z" fill="black"/>
<path d="M160.891 337.922C160.806 337.912 160.841 337.437 161.236 337.042C161.626 336.647 162.101 336.607 162.116 336.692C162.141 336.782 161.786 336.942 161.466 337.267C161.141 337.587 160.981 337.942 160.896 337.922H160.891Z" fill="black"/>
<path d="M159.662 331.729C159.597 331.794 159.242 331.529 158.743 331.389C158.243 331.235 157.803 331.26 157.788 331.17C157.763 331.09 158.248 330.905 158.837 331.08C159.427 331.255 159.732 331.674 159.667 331.729H159.662Z" fill="black"/>
<path d="M160.36 329.896C160.35 329.931 159.986 329.861 159.476 329.571C159.221 329.426 158.931 329.221 158.651 328.951C158.511 328.816 158.372 328.661 158.242 328.497C158.177 328.417 158.102 328.327 158.047 328.192C157.982 328.067 158.012 327.817 158.172 327.717C158.312 327.612 158.491 327.612 158.621 327.657C158.751 327.702 158.851 327.767 158.936 327.822C159.116 327.942 159.276 328.072 159.421 328.212C159.706 328.487 159.911 328.781 160.046 329.046C160.32 329.576 160.34 329.951 160.305 329.956C160.255 329.971 160.156 329.626 159.851 329.161C159.701 328.931 159.491 328.671 159.221 328.427C159.086 328.307 158.936 328.192 158.766 328.087C158.596 327.972 158.436 327.912 158.357 327.977C158.327 328.002 158.322 328.012 158.342 328.082C158.362 328.147 158.421 328.227 158.481 328.307C158.601 328.467 158.726 328.611 158.851 328.746C159.106 329.011 159.361 329.221 159.591 329.386C160.046 329.711 160.37 329.856 160.355 329.901L160.36 329.896Z" fill="black"/>
<path d="M160.202 329.98C160.167 329.98 160.107 329.61 160.277 329.036C160.361 328.751 160.511 328.426 160.751 328.106C160.871 327.946 161.011 327.791 161.171 327.651C161.336 327.511 161.551 327.327 161.901 327.407C162.081 327.462 162.175 327.651 162.18 327.786C162.195 327.926 162.17 328.036 162.155 328.146C162.116 328.366 162.036 328.566 161.941 328.746C161.751 329.101 161.481 329.36 161.231 329.525C160.716 329.86 160.322 329.83 160.322 329.8C160.307 329.745 160.671 329.69 161.096 329.345C161.306 329.176 161.526 328.931 161.681 328.611C161.756 328.451 161.816 328.276 161.851 328.091C161.891 327.891 161.876 327.716 161.796 327.711C161.706 327.676 161.506 327.766 161.381 327.891C161.231 328.016 161.101 328.151 160.986 328.291C160.761 328.571 160.601 328.861 160.491 329.116C160.277 329.625 160.252 329.985 160.202 329.98Z" fill="black"/>
<path d="M180.806 293.106L190.25 309.522L197.976 304.565L188.491 287.899L180.806 293.106Z" fill="#B78876"/>
<path d="M195.309 299.872L200.186 308.272C200.186 308.272 210.365 306.134 211.42 307.603L195.469 317.647L187.328 304.869L195.309 299.877V299.872Z" fill="black"/>
<path d="M194.819 310.691C194.564 310.971 194.569 311.45 194.839 311.72C195.109 311.985 195.598 311.985 195.858 311.71C196.118 311.435 196.128 310.856 195.833 310.621C195.538 310.386 194.964 310.421 194.774 310.746" fill="#E0E0E0"/>
<path d="M195.47 317.647L194.7 316.328L210.282 307.193C210.282 307.193 211.186 307.053 211.421 307.608L195.47 317.652V317.647Z" fill="#E0E0E0"/>
<path d="M200.397 308.033C200.442 308.112 200.077 308.392 199.852 308.882C199.612 309.367 199.627 309.832 199.537 309.842C199.457 309.872 199.277 309.332 199.562 308.742C199.842 308.147 200.372 307.948 200.397 308.028V308.033Z" fill="black"/>
<path d="M202.505 307.668C202.57 307.733 202.316 308.078 202.261 308.572C202.191 309.067 202.346 309.467 202.266 309.512C202.201 309.572 201.861 309.147 201.941 308.532C202.016 307.918 202.456 307.593 202.505 307.668Z" fill="black"/>
<path d="M204.719 309.072C204.659 309.132 204.304 308.812 204.234 308.257C204.159 307.708 204.424 307.308 204.499 307.348C204.584 307.383 204.489 307.763 204.554 308.212C204.609 308.667 204.789 309.007 204.719 309.067V309.072Z" fill="black"/>
<path d="M199.072 306.238C199.082 306.328 198.658 306.448 198.238 306.753C197.808 307.053 197.558 307.413 197.478 307.373C197.398 307.343 197.548 306.848 198.053 306.493C198.553 306.133 199.072 306.153 199.072 306.238Z" fill="black"/>
<path d="M198.057 304.565C198.077 304.595 197.802 304.84 197.257 305.065C196.988 305.175 196.648 305.28 196.258 305.335C196.063 305.365 195.858 305.38 195.648 305.38C195.543 305.38 195.428 305.385 195.289 305.345C195.154 305.32 194.974 305.14 194.994 304.955C194.994 304.78 195.109 304.635 195.224 304.56C195.339 304.48 195.448 304.445 195.548 304.415C195.753 304.345 195.958 304.3 196.153 304.275C196.543 304.22 196.903 304.24 197.193 304.295C197.777 304.405 198.087 304.615 198.072 304.65C198.052 304.7 197.717 304.565 197.163 304.52C196.888 304.495 196.553 304.505 196.198 304.565C196.018 304.6 195.833 304.645 195.648 304.71C195.453 304.77 195.309 304.86 195.309 304.965C195.309 305.005 195.314 305.015 195.384 305.045C195.448 305.07 195.543 305.07 195.648 305.07C195.848 305.07 196.038 305.065 196.223 305.045C196.588 305.01 196.913 304.935 197.183 304.855C197.722 304.695 198.032 304.525 198.057 304.57V304.565Z" fill="black"/>
<path d="M198.028 304.74C198.008 304.77 197.678 304.585 197.333 304.1C197.163 303.86 196.998 303.54 196.893 303.156C196.843 302.966 196.803 302.761 196.793 302.541C196.788 302.326 196.768 302.041 197.048 301.816C197.203 301.711 197.413 301.751 197.523 301.831C197.643 301.906 197.713 301.991 197.788 302.071C197.933 302.241 198.048 302.426 198.128 302.611C198.293 302.981 198.332 303.35 198.308 303.65C198.258 304.26 197.988 304.56 197.968 304.535C197.918 304.51 198.093 304.19 198.083 303.645C198.078 303.375 198.018 303.051 197.863 302.736C197.788 302.576 197.683 302.421 197.558 302.281C197.428 302.126 197.278 302.031 197.223 302.086C197.143 302.136 197.088 302.346 197.108 302.526C197.118 302.721 197.143 302.906 197.183 303.086C197.263 303.435 197.393 303.74 197.528 303.98C197.803 304.46 198.068 304.7 198.033 304.74H198.028Z" fill="black"/>
<path d="M152.691 290.793L171.236 278.18L182.935 300.952L193.574 295.195C193.574 295.195 181.326 265.327 176.928 264.362C174.464 263.822 146.21 269.219 146.21 269.219L143.052 267.63L135.061 266.656L134.551 267.95C131.728 275.096 132.053 283.102 135.441 289.998L135.831 290.788H152.696L152.691 290.793Z" fill="black"/>
<path d="M146.181 275.016C146.321 275.641 161.653 289.998 161.653 289.998L152.808 319.727L166.011 322.25L179.268 286.44L155.037 262.668L143.973 267.325L146.186 275.016H146.181Z" fill="black"/>
<path d="M171.24 278.179C171.28 278.239 167.163 281.113 162.04 284.591C156.918 288.074 152.736 290.847 152.696 290.787C152.656 290.727 156.773 287.859 161.896 284.376C167.018 280.893 171.2 278.119 171.24 278.179Z" fill="black"/>
<path d="M180.76 296.709C180.76 296.709 180.585 296.474 180.311 296.019C180.036 295.57 179.656 294.91 179.191 294.085C178.267 292.441 177.037 290.143 175.738 287.574C174.434 285.005 173.294 282.667 172.49 280.958C172.085 280.103 171.765 279.414 171.55 278.929C171.336 278.449 171.226 278.174 171.241 278.169C171.256 278.159 171.396 278.419 171.64 278.884C171.9 279.394 172.24 280.063 172.65 280.873C173.519 282.597 174.684 284.901 175.968 287.449C177.267 290.013 178.472 292.321 179.351 293.991C179.776 294.79 180.131 295.455 180.401 295.959C180.645 296.424 180.775 296.689 180.76 296.699V296.709Z" fill="black"/>
<path d="M164.425 284.691C164.49 284.726 163.855 286.15 163.005 287.874C162.156 289.598 161.416 290.977 161.351 290.947C161.286 290.917 161.921 289.493 162.77 287.764C163.62 286.035 164.36 284.661 164.425 284.696V284.691Z" fill="black"/>
<path d="M122.892 255.976L119.914 267.05C119.529 268.484 119.704 270.008 120.408 271.313C121.653 273.616 124.281 274.811 126.835 274.216L150.597 268.364L148.113 263.432L129.393 265.056L131.397 257.445L122.892 255.976Z" fill="#B78876"/>
<path d="M133.431 272.782L133.74 271.173L146.618 268.859L150.225 249.726C150.306 249.297 150.656 248.97 151.09 248.918L172.923 246.318C173.594 246.238 174.15 246.833 174.024 247.498L170.255 267.35L133.431 272.782Z" fill="white"/>
<path d="M161.1 259.699C160.475 259.579 160.076 258.895 160.215 258.17C160.355 257.446 160.975 256.961 161.605 257.081C162.234 257.201 162.629 257.885 162.489 258.61C162.349 259.334 161.73 259.819 161.1 259.699Z" fill="black"/>
<path d="M136.929 215.849L136.974 217.283L137.514 238.776C137.573 241.27 139.772 243.204 142.441 243.119C145.139 243.029 147.308 240.915 147.283 238.396C147.258 235.748 147.283 232.964 147.283 232.964C147.283 232.964 150.686 232.36 151.341 227.902C151.666 225.688 151.511 222.06 151.291 219.097C151.091 216.428 148.717 214.464 146.059 214.779L136.924 215.854L136.929 215.849Z" fill="#B78876"/>
<path d="M149.573 221.571C149.588 221.87 149.343 222.13 149.028 222.15C148.713 222.17 148.448 221.945 148.433 221.641C148.418 221.341 148.663 221.081 148.978 221.056C149.293 221.036 149.558 221.261 149.573 221.566V221.571Z" fill="black"/>
<path d="M150.531 220.991C150.461 221.066 150.026 220.751 149.411 220.761C148.797 220.761 148.352 221.081 148.282 221.006C148.247 220.971 148.317 220.836 148.512 220.691C148.702 220.546 149.032 220.406 149.411 220.401C149.796 220.401 150.116 220.536 150.306 220.676C150.496 220.821 150.561 220.951 150.526 220.986L150.531 220.991Z" fill="black"/>
<path d="M143.515 221.79C143.53 222.09 143.285 222.35 142.97 222.37C142.656 222.39 142.391 222.165 142.376 221.86C142.361 221.56 142.606 221.301 142.92 221.276C143.235 221.256 143.5 221.481 143.515 221.785V221.79Z" fill="black"/>
<path d="M144.5 221.176C144.43 221.251 143.995 220.936 143.38 220.946C142.766 220.946 142.321 221.266 142.251 221.191C142.216 221.156 142.286 221.021 142.481 220.876C142.671 220.731 143 220.591 143.38 220.586C143.765 220.586 144.085 220.721 144.275 220.861C144.465 221.006 144.53 221.136 144.495 221.171L144.5 221.176Z" fill="black"/>
<path d="M146.777 225.698C146.777 225.663 147.157 225.594 147.772 225.509C147.927 225.489 148.077 225.459 148.102 225.349C148.137 225.234 148.072 225.069 147.992 224.884C147.842 224.504 147.682 224.109 147.512 223.695C146.847 222 146.368 220.611 146.433 220.586C146.503 220.561 147.092 221.911 147.757 223.605C147.917 224.019 148.072 224.419 148.217 224.799C148.277 224.979 148.382 225.179 148.307 225.414C148.267 225.534 148.152 225.619 148.052 225.643C147.952 225.673 147.862 225.678 147.787 225.683C147.167 225.723 146.777 225.733 146.777 225.698Z" fill="black"/>
<path d="M147.287 232.959C147.287 232.959 144.299 233.189 141.311 231.44C141.311 231.44 142.79 234.478 147.237 234.009L147.287 232.959Z" fill="#AA6550"/>
<path d="M144.743 220.162C144.673 220.326 144.069 220.217 143.344 220.271C142.619 220.311 142.03 220.496 141.94 220.341C141.9 220.266 142.01 220.117 142.25 219.967C142.489 219.817 142.869 219.682 143.304 219.652C143.739 219.627 144.128 219.712 144.388 219.832C144.648 219.952 144.773 220.087 144.743 220.167V220.162Z" fill="black"/>
<path d="M150.276 218.857C150.171 218.997 149.746 218.857 149.237 218.857C148.727 218.837 148.297 218.962 148.197 218.817C148.152 218.747 148.217 218.607 148.407 218.472C148.592 218.338 148.902 218.228 149.252 218.233C149.601 218.238 149.906 218.363 150.086 218.502C150.266 218.642 150.326 218.787 150.281 218.857H150.276Z" fill="black"/>
<path d="M146.713 227.922C146.538 227.972 146.353 227.912 146.179 227.867C146.004 227.817 145.839 227.772 145.699 227.727C145.559 227.682 145.399 227.617 145.229 227.557C145.064 227.487 144.874 227.427 144.769 227.282C144.664 227.142 144.684 226.902 144.924 226.688C145.154 226.478 145.619 226.328 146.109 226.493C146.598 226.658 146.883 227.052 146.938 227.357C147.003 227.672 146.878 227.877 146.708 227.927L146.713 227.922Z" fill="#AA6550"/>
<path d="M146.798 227.867C146.738 227.907 146.438 227.297 145.724 227.112C145.004 226.927 144.449 227.322 144.419 227.257C144.399 227.232 144.499 227.092 144.744 226.967C144.984 226.842 145.374 226.752 145.789 226.857C146.203 226.962 146.503 227.232 146.653 227.457C146.808 227.682 146.828 227.857 146.798 227.867Z" fill="black"/>
<path d="M142.077 212.95C143.501 215.069 143.136 218.197 141.272 219.936C140.208 220.926 138.624 221.7 138.519 223.15C138.399 224.754 140.258 225.953 140.263 227.567C140.263 229.221 138.354 230.276 137.984 231.89C137.684 233.189 138.459 234.488 139.358 235.473C140.258 236.457 141.337 237.327 141.877 238.546C142.472 239.89 142.302 241.475 141.727 242.829C141.147 244.178 140.198 245.332 139.213 246.427C137.889 245.952 136.5 245.642 135.096 245.512C135.186 244.983 135.271 244.453 135.361 243.918C135.391 244.538 134.871 245.078 134.286 245.267C133.701 245.462 133.062 245.387 132.447 245.292C130.573 244.998 128.729 244.523 126.95 243.878C127.71 243.114 128.484 242.334 128.959 241.37C129.434 240.4 129.559 239.196 129.014 238.271C128.574 237.527 127.765 237.047 127.36 236.277C126.755 235.128 127.255 233.669 128.115 232.694C128.974 231.72 130.143 231.085 131.163 230.286C132.187 229.486 133.127 228.407 133.212 227.107C133.317 225.423 131.957 223.894 132.127 222.215C132.317 220.306 134.336 219.137 135.131 217.393C135.705 216.129 135.625 214.569 136.51 213.495C137.16 212.7 138.244 212.341 139.273 212.396C140.298 212.451 141.277 212.87 142.152 213.41" fill="black"/>
<path d="M147.658 233.439C146.854 233.884 146.904 235.103 147.388 235.877C147.878 236.652 148.663 237.207 149.147 237.986C150.012 239.381 149.637 241.399 148.333 242.389L150.252 243.113L150.671 242.879L151.851 242.214L151.296 243.573H152.525C153.82 243.588 155.089 242.824 155.684 241.679C156.278 240.53 156.168 239.056 155.414 238.006C154.909 237.307 154.125 236.752 153.955 235.902C153.75 234.883 154.519 233.959 154.899 232.989C155.529 231.37 154.954 229.361 153.56 228.327" fill="black"/>
<path d="M215.593 173.818V179.19H214.074V173.818C214.074 171.776 212.523 170.115 210.616 170.115C208.709 170.115 207.158 171.776 207.158 173.818V179.19H205.639V173.818C205.639 170.893 207.872 168.515 210.616 168.515C213.36 168.515 215.593 170.893 215.593 173.818Z" fill="#C7C7C7"/>
<path d="M205.639 175.214L207.158 175.276V179.19H205.639V175.214Z" fill="#A6A6A6"/>
<path d="M215.593 175.622V179.19H214.074V175.557L215.593 175.622Z" fill="#A6A6A6"/>
<path d="M217.539 176.132H203.692V188.692H217.539V176.132Z" fill="#ED0641"/>
<path opacity="0.1" d="M217.539 176.132H210.616V188.692H217.539V176.132Z" fill="black"/>
<path d="M211.2 182.871L211.779 185.622H209.319L209.898 182.871C209.552 182.652 209.319 182.27 209.319 181.834C209.319 181.149 209.872 180.603 210.551 180.603C211.229 180.603 211.782 181.146 211.782 181.834C211.782 182.274 211.549 182.655 211.204 182.871H211.2Z" fill="black"/>
<path d="M276.49 283.41C276.845 285.829 276.711 288.321 276.12 290.687C275.842 291.796 275.463 292.861 275.007 293.903C274.426 295.233 273.821 296.533 273.97 297.993C274.109 298.089 273.629 298.069 273.615 297.93C269.722 295.713 264.73 295.309 261.735 291.685C260.314 289.972 259.599 287.793 259.263 285.618C258.893 283.252 258.792 280.626 259.402 278.293C259.915 276.321 261.072 274.415 262.925 273.445C264.84 272.452 267.346 272.533 269.367 273.157C273.715 274.511 275.88 279.201 276.495 283.41H276.49Z" fill="black"/>
<path d="M278.487 312.225C277.954 310.453 277.426 308.682 276.879 306.916C275.808 303.455 274.7 300.009 273.471 296.605C272.736 294.565 271.959 292.545 271.143 290.543C271.282 289.285 271.335 288.033 271.608 286.78C271.935 285.273 272.405 283.813 272.847 282.335C272.876 282.244 272.727 282.196 272.688 282.282C271.815 284.317 270.672 286.919 270.644 289.329C269.693 287.063 268.676 284.831 267.586 282.633C267.524 280.756 267.456 278.941 267.759 277.055C267.773 276.969 267.644 276.945 267.629 277.031C267.336 278.615 267.13 280.314 267.25 281.956C266.415 280.305 265.532 278.673 264.596 277.065C264.509 276.921 264.312 277.065 264.384 277.209C265.848 280.026 267.202 282.901 268.479 285.815C266.717 284.25 264.581 283.069 262.378 282.282C262.282 282.249 262.21 282.388 262.306 282.431C264.816 283.477 266.919 284.961 268.906 286.799C269.823 288.93 270.692 291.085 271.522 293.25C269.088 290.865 265.752 289.29 262.532 288.45C262.421 288.421 262.392 288.589 262.498 288.623C266.228 289.746 269.127 291.863 271.964 294.402C272.295 295.281 272.616 296.159 272.933 297.037C274.133 300.373 275.276 303.733 276.365 307.103C276.888 308.721 277.407 310.338 277.911 311.961C278.453 313.708 278.88 315.551 279.591 317.236C279.658 317.399 279.946 317.361 279.912 317.169C279.591 315.498 278.986 313.852 278.496 312.225H278.487Z" fill="white"/>
<path d="M272.031 280.002C271.335 281.073 270.869 282.244 270.629 283.497C270.624 283.53 270.672 283.549 270.687 283.516C271.119 282.34 271.632 281.202 272.208 280.088C272.266 279.973 272.103 279.901 272.036 280.002H272.031Z" fill="white"/>
<path d="M265.085 288.114C264.077 287.543 262.738 287.087 261.59 286.938C261.557 286.938 261.538 286.982 261.571 286.996C262.133 287.231 262.723 287.39 263.29 287.61C263.861 287.831 264.418 288.095 264.994 288.297C265.114 288.34 265.195 288.182 265.08 288.114H265.085Z" fill="white"/>
<path d="M263.131 278.361C262.776 278.125 262.401 277.828 262.008 277.665C261.945 277.641 261.893 277.717 261.945 277.765C262.257 278.053 262.689 278.265 263.054 278.485C263.126 278.529 263.203 278.409 263.136 278.361H263.131Z" fill="white"/>
<path d="M289.613 296.634C286.81 297.465 283.993 298.238 281.189 299.058C280.945 299.13 276.207 290.049 277.921 285.374C279.505 281.044 283.129 277.804 287.449 276.33C289.45 275.649 291.913 275.078 294.025 275.548C295.906 275.966 297.231 277.502 297.845 279.273C298.676 281.678 298.402 284.543 297.946 286.996C297.524 289.271 296.693 291.513 295.186 293.298C293.698 295.07 291.797 295.991 289.613 296.639V296.634Z" fill="black"/>
<path d="M293.679 287.999C291.893 288.902 290.084 289.55 288.183 290.164C286.992 290.548 285.658 290.894 284.516 291.494C285.701 288.854 286.997 286.271 288.38 283.708C290.189 283.185 292.095 282.369 293.463 281.082C293.54 281.01 293.444 280.91 293.362 280.962C291.869 282.018 290.223 282.652 288.567 283.367C288.941 282.676 289.316 281.99 289.7 281.303C289.805 281.111 289.541 280.924 289.416 281.106C287.948 283.228 286.628 285.474 285.432 287.798C285.135 285.748 285.029 283.751 285.144 281.668C285.144 281.615 285.072 281.61 285.063 281.663C284.717 283.866 284.732 286.199 285.13 288.398C284.146 290.361 283.253 292.372 282.447 294.407C282.125 293.183 281.712 291.978 281.434 290.75C281.036 288.974 280.848 287.169 281.031 285.354C281.036 285.302 280.959 285.297 280.949 285.35C280.407 288.566 280.901 292.199 282.125 295.257C281.655 296.481 281.208 297.714 280.8 298.943C278.708 305.25 277.416 311.754 277.08 318.393C277.071 318.546 277.301 318.561 277.316 318.412C278.079 311.898 279.423 305.414 281.492 299.188C282.303 296.745 283.239 294.369 284.266 292.041C285.922 291.551 287.573 290.889 289.196 290.322C290.784 289.775 292.407 289.137 293.741 288.095C293.794 288.057 293.736 287.97 293.679 287.999Z" fill="white"/>
<path d="M296.29 285.364C294.576 285.974 292.949 286.828 291.236 287.447C291.154 287.476 291.202 287.606 291.284 287.587C293.098 287.212 294.893 286.651 296.352 285.465C296.41 285.417 296.348 285.345 296.285 285.369L296.29 285.364Z" fill="white"/>
<path d="M282.288 281.663C282.308 281.572 282.178 281.519 282.149 281.615C281.679 283.194 281.352 284.874 281.813 286.487C281.832 286.549 281.928 286.554 281.933 286.477C282.015 284.85 281.924 283.266 282.288 281.663Z" fill="white"/>
<path d="M289.373 278.015C288.797 278.75 288.591 279.791 288.629 280.703C288.629 280.766 288.73 280.799 288.745 280.727C288.956 279.825 289.301 278.999 289.58 278.121C289.618 277.991 289.455 277.91 289.373 278.015Z" fill="white"/>
<path d="M256.268 300.637C257.089 303.244 259.042 306.853 262.133 306.882C264.14 306.901 266.156 306.661 268.167 306.637C270.317 306.604 272.477 306.609 274.623 306.738C274.801 306.748 274.364 300.292 269.194 297.153C267.745 296.274 265.973 295.991 264.327 295.636C262.445 295.228 260.506 294.949 258.577 295.036C257.391 295.084 256.402 295.333 255.98 296.553C255.538 297.825 255.869 299.404 256.263 300.642L256.268 300.637Z" fill="black"/>
<path d="M258.491 297.373C259.748 297.695 261.016 298.069 262.278 298.468C261.942 298.117 261.611 297.762 261.236 297.45C260.694 296.999 260.099 296.639 259.518 296.245C259.47 296.212 259.499 296.121 259.561 296.145C260.708 296.596 261.899 297.537 262.614 298.569C264.188 299.077 265.744 299.639 267.241 300.253C268.307 300.69 269.286 301.209 270.203 301.813C269.872 301.175 269.574 300.517 269.132 299.946C268.446 299.058 267.515 298.559 266.617 297.93C266.531 297.873 266.603 297.753 266.699 297.791C268.729 298.693 269.963 300.157 270.731 302.164C271.792 302.922 272.761 303.805 273.664 304.828C277.086 308.716 279.779 313.885 279.793 319.165C279.793 319.29 279.592 319.329 279.568 319.194C278.598 313.953 276.524 309.244 273.04 305.173C272.795 304.885 272.545 304.617 272.286 304.353C271.345 304.252 270.414 304.127 269.459 304.141C268.36 304.156 267.265 304.305 266.171 304.391C264.366 304.54 262.369 304.559 260.742 303.652C260.67 303.613 260.718 303.489 260.8 303.517C264.428 304.837 268.24 303.162 271.878 303.949C270.323 302.461 268.561 301.338 266.512 300.489C266.401 300.441 266.291 300.402 266.176 300.354C263.848 300.633 261.385 301.242 259.115 300.484C259.048 300.46 259.076 300.359 259.144 300.378C261.337 300.925 263.44 300.239 265.604 300.129C263.248 299.212 260.848 298.482 258.481 297.57C258.284 297.493 258.28 297.311 258.491 297.369V297.373Z" fill="white"/>
<path d="M257.463 299.668C258.601 299.855 259.71 299.86 260.857 299.927C260.881 299.927 260.89 299.97 260.862 299.975C259.748 300.225 258.524 300.071 257.439 299.759C257.382 299.745 257.406 299.663 257.463 299.673V299.668Z" fill="white"/>
<path d="M265.124 297.431C265.743 297.647 266.319 298.17 266.804 298.597C266.861 298.65 266.784 298.756 266.717 298.708C266.434 298.501 266.141 298.304 265.844 298.112C265.575 297.94 265.272 297.8 265.028 297.594C264.951 297.532 265.032 297.392 265.124 297.426V297.431Z" fill="white"/>
<path d="M283.388 305.831C283.35 305.917 283.474 305.999 283.522 305.908C283.522 305.908 283.566 305.956 283.604 305.96C285.697 306.412 287.794 306.872 289.921 307.064C291.63 307.218 293.602 307.309 295.1 306.32C297.13 304.976 298.465 301.381 297.366 299.096C296.07 296.384 292.158 297.858 290.194 298.823C287.175 300.296 284.756 302.783 283.383 305.845L283.388 305.831Z" fill="black"/>
<path d="M281.871 307.084C283.023 305.956 284.295 305.02 285.644 304.213C286.57 302.644 287.986 301.338 289.469 300.316C289.541 300.263 289.608 300.383 289.536 300.436C288.26 301.42 287.261 302.572 286.311 303.829C287.818 302.989 289.416 302.293 291.044 301.674C291.61 300.633 292.532 299.663 293.588 299.125C293.607 299.116 293.636 299.145 293.616 299.159C292.7 299.879 291.96 300.623 291.322 301.569C292.282 301.209 293.256 300.877 294.226 300.556C294.312 300.527 294.346 300.661 294.264 300.69C292.536 301.367 290.77 302.077 289.056 302.898C291.216 303.186 293.165 303.253 295.364 302.879C295.421 302.869 295.445 302.951 295.388 302.97C293.266 303.575 290.832 303.685 288.696 303.071C287.602 303.609 286.536 304.194 285.524 304.847C286.373 304.737 287.228 304.885 288.087 305.058C289.589 305.356 291.058 305.62 292.594 305.567C292.652 305.567 292.666 305.658 292.608 305.668C289.992 306.119 287.52 304.929 284.928 305.241C283.968 305.898 283.061 306.628 282.231 307.444C280.604 309.042 279.298 310.953 278.295 312.997C277.205 315.22 276.61 317.572 275.732 319.866C275.693 319.967 275.554 319.929 275.568 319.823C276.322 315.301 278.578 310.309 281.871 307.084Z" fill="white"/>
<path d="M289.757 300.878C289.911 300.566 290.175 300.302 290.429 300.066C290.65 299.86 290.914 299.596 291.202 299.49C291.226 299.481 291.241 299.514 291.226 299.534C291.01 299.778 290.713 299.956 290.482 300.186C290.247 300.422 290.055 300.695 289.82 300.926C289.786 300.959 289.738 300.916 289.757 300.878Z" fill="white"/>
<path d="M294.072 302.284C294.461 302.188 294.869 302.193 295.263 302.111C295.661 302.03 296.031 301.886 296.419 301.766C296.472 301.751 296.501 301.823 296.453 301.852C295.815 302.231 294.811 302.553 294.067 302.404C294.005 302.39 294.01 302.298 294.067 302.284H294.072Z" fill="white"/>
<path d="M271.095 314.245L271.44 318.143L272.602 331.304H282.912L284.367 318.143L284.794 314.245H271.095Z" fill="black"/>
<path d="M271.095 314.245L271.44 318.143H284.367L284.794 314.245H271.095Z" fill="white"/>
<path d="M270.077 316.343H285.821V313.18H270.077V316.343Z" fill="black"/>
<path d="M331.716 80.7779L331.716 41.9551L275.129 41.9551L275.129 80.7779L331.716 80.7779Z" fill="#FA2E62"/>
<path d="M331.716 78.8365L331.716 40.0137L275.129 40.0137L275.129 78.8365L331.716 78.8365Z" fill="#E0063D"/>
<path d="M325.587 74.0098L325.587 44.8345L281.257 44.8345L281.257 74.0098L325.587 74.0098Z" fill="#FA2E62"/>
<path d="M281.258 74.015C281.258 74.015 281.332 74.015 281.473 74.015C281.621 74.015 281.831 74.015 282.102 74.015C282.656 74.015 283.475 74.0089 284.535 74.0028C286.66 74.0028 289.758 73.9905 293.669 73.9783C301.485 73.966 312.554 73.9477 325.587 73.9293L325.489 74.0273C325.489 65.1148 325.489 55.2345 325.483 44.852L325.587 44.9561C308.864 44.9499 293.447 44.9377 281.258 44.9377L281.344 44.852C281.326 53.7399 281.307 61.023 281.301 66.0888C281.289 68.6247 281.282 70.6032 281.276 71.9569C281.276 72.6307 281.27 73.1453 281.264 73.4944C281.264 73.8435 281.258 74.0273 281.258 74.0273C281.258 74.0273 281.258 73.8558 281.252 73.5128C281.252 73.1636 281.252 72.6552 281.239 71.9875C281.239 70.6399 281.227 68.6676 281.221 66.1378C281.209 61.0598 281.196 53.7583 281.178 44.8458L281.178 44.7601L281.264 44.7601C293.454 44.7601 308.871 44.7478 325.594 44.7417L325.698 44.7417L325.698 44.8458C325.698 55.2284 325.698 65.1026 325.692 74.0212L325.692 74.1192L325.594 74.1192C312.536 74.1008 301.442 74.0824 293.608 74.0702C289.709 74.0579 286.617 74.0518 284.498 74.0457C283.444 74.0457 282.638 74.0395 282.083 74.0334C281.812 74.0334 281.609 74.0334 281.467 74.0334C281.332 74.0334 281.264 74.0334 281.264 74.0334L281.258 74.015Z" fill="#FA2E62"/>
<path d="M331.716 78.9471C331.716 78.9471 331.31 78.7082 330.706 78.2549C330.102 77.8016 329.277 77.1646 328.384 76.4357C327.491 75.7067 326.702 75.0207 326.142 74.5184C325.581 74.0161 325.249 73.6854 325.267 73.667C325.286 73.6425 325.655 73.9304 326.24 74.4081C326.875 74.9288 327.657 75.572 328.519 76.2764C329.382 76.9808 330.164 77.624 330.798 78.1447C331.383 78.6224 331.735 78.9287 331.716 78.9532L331.716 78.9471Z" fill="#FA2E62"/>
<path d="M281.399 74.1641C279.083 75.6158 276.934 77.3248 275 79.2543Z" fill="#FA2E62"/>
<path d="M275 79.2529C275 79.2529 275.283 78.8854 275.813 78.3647C276.343 77.8441 277.1 77.1519 277.987 76.4475C278.874 75.7431 279.724 75.155 280.353 74.7569C280.981 74.3587 281.387 74.1443 281.4 74.1627C281.418 74.1872 281.036 74.4506 280.433 74.8794C279.829 75.3082 279.004 75.9085 278.117 76.6129C277.236 77.3173 276.46 77.985 275.912 78.475C275.357 78.965 275.019 79.2774 275 79.2529Z" fill="#FA2E62"/>
<path d="M275.172 40.0073C277.273 41.7041 279.379 43.3947 281.479 45.0914Z" fill="#FA2E62"/>
<path d="M281.48 45.0914C281.443 45.1343 280.001 44.0379 278.258 42.629C276.515 41.2263 275.136 40.0502 275.172 40.0012C275.209 39.9583 276.651 41.0548 278.394 42.4636C280.137 43.8664 281.517 45.0424 281.48 45.0853L281.48 45.0914Z" fill="#FA2E62"/>
<path d="M331.716 40.014C331.753 40.0569 330.423 41.1656 328.747 42.4825C327.072 43.7995 325.686 44.8286 325.649 44.7857C325.612 44.7428 326.942 43.6341 328.618 42.3171C330.293 41.0002 331.679 39.9711 331.716 40.014Z" fill="#FA2E62"/>
<path d="M316.589 64.9253L316.589 55.1553L288.699 55.1553L288.699 64.9253L316.589 64.9253Z" fill="#E0063D"/>
</g>
<defs>
<filter id="filter0_d_375_7886" x="0" y="0" width="376" height="384" filterUnits="userSpaceOnUse" color-interpolation-filters="sRGB">
<feFlood flood-opacity="0" result="BackgroundImageFix"/>
<feColorMatrix in="SourceAlpha" type="matrix" values="0 0 0 0 0 0 0 0 0 0 0 0 0 0 0 0 0 0 127 0" result="hardAlpha"/>
<feOffset dy="4"/>
<feGaussianBlur stdDeviation="4"/>
<feComposite in2="hardAlpha" operator="out"/>
<feColorMatrix type="matrix" values="0 0 0 0 0 0 0 0 0 0 0 0 0 0 0 0 0 0 0.16 0"/>
<feBlend mode="normal" in2="BackgroundImageFix" result="effect1_dropShadow_375_7886"/>
<feBlend mode="normal" in="SourceGraphic" in2="effect1_dropShadow_375_7886" result="shape"/>
</filter>
</defs>
</svg>
