<svg width="376" height="271" viewBox="0 0 376 271" fill="none" xmlns="http://www.w3.org/2000/svg">
<g filter="url(#filter0_d_375_6797)">
<path d="M8 4H368V251C368 255.418 364.418 259 360 259H16C11.5817 259 8 255.418 8 251V4Z" fill="#ED0641"/>
<path d="M319 222.5C319 229.407 260.347 235 188 235C115.653 235 57 229.402 57 222.5C57 215.598 115.653 210 188 210C260.347 210 319 215.598 319 222.5Z" fill="white"/>
<path d="M146.414 125.872C146.414 125.872 146.399 125.934 146.366 126.054C146.323 126.184 146.266 126.357 146.194 126.578C146.041 127.034 145.817 127.71 145.511 128.574C144.91 130.302 144.003 132.794 142.8 135.842C140.385 141.918 136.819 150.27 131.754 158.886C130.546 161.066 129.429 163.235 128.594 165.429C127.744 167.618 127.21 169.831 126.909 171.967C126.312 176.248 126.551 180.17 126.89 183.415C127.238 186.669 127.706 189.275 128.007 191.085C128.16 191.978 128.279 192.674 128.365 193.163C128.403 193.394 128.432 193.571 128.451 193.706C128.47 193.826 128.475 193.893 128.475 193.893C128.475 193.893 128.456 193.831 128.427 193.711C128.398 193.576 128.36 193.399 128.312 193.173C128.217 192.688 128.083 191.992 127.907 191.104C127.577 189.304 127.081 186.698 126.709 183.439C126.351 180.189 126.088 176.253 126.675 171.938C126.976 169.787 127.511 167.551 128.36 165.347C129.2 163.135 130.317 160.955 131.53 158.771C136.59 150.165 140.175 141.842 142.628 135.784C143.85 132.75 144.781 130.269 145.411 128.55C145.721 127.701 145.965 127.038 146.137 126.573C146.218 126.357 146.28 126.189 146.328 126.059C146.371 125.944 146.399 125.886 146.399 125.886L146.414 125.872Z" fill="#263238"/>
<path d="M141.812 154.658C141.812 154.658 141.764 154.759 141.659 154.936C141.535 155.133 141.377 155.392 141.177 155.709C140.757 156.381 140.131 157.336 139.358 158.517C137.811 160.883 135.606 164.104 133.391 167.8C132.289 169.653 131.315 171.458 130.489 173.133C129.663 174.808 129.009 176.359 128.489 177.669C127.983 178.984 127.591 180.064 127.348 180.813C127.229 181.168 127.128 181.451 127.052 181.672C126.98 181.869 126.942 181.97 126.933 181.97C126.923 181.97 126.947 181.859 127.004 181.658C127.071 181.432 127.152 181.139 127.257 180.779C127.472 180.016 127.835 178.931 128.327 177.602C128.828 176.277 129.467 174.712 130.284 173.027C131.1 171.343 132.074 169.523 133.176 167.666C135.401 163.96 137.63 160.754 139.215 158.411C139.998 157.264 140.637 156.323 141.1 155.647C141.315 155.339 141.487 155.09 141.621 154.898C141.74 154.73 141.807 154.643 141.816 154.648L141.812 154.658Z" fill="#263238"/>
<path d="M139.365 128.872C139.485 127.7 138.225 126.534 137.127 126.121C136.029 125.709 134.802 125.843 133.661 126.097C127.026 127.576 121.541 133.336 120.357 140.065C123.422 138.539 126.573 137.2 129.795 136.052C129.613 136.105 129.432 136.158 129.25 136.206C132.363 135.596 135.17 133.537 136.692 130.739C136.988 130.201 137.246 129.625 137.69 129.203C138.134 128.78 138.84 128.56 139.365 128.867" fill="black"/>
<path d="M146.375 125.862C149.396 123.784 153.22 122.853 156.824 123.506C160.428 124.154 163.746 126.429 165.502 129.659C167.259 132.89 167.345 137.027 165.555 140.238C163.865 136.71 162.056 133.034 158.915 130.725C158.18 130.182 157.344 129.688 156.929 128.872C156.447 127.926 156.647 126.755 156.232 125.776C155.726 124.566 154.332 124.216 153.029 124.149C151.726 124.082 147.955 125.286 146.37 125.867" fill="black"/>
<path d="M146.294 125.805C149.416 124.874 152.948 126.41 155.077 128.762C157.201 131.114 158.285 134.272 158.648 137.43C159.015 140.589 158.719 143.781 158.399 146.944C155.955 143.286 154.132 139.211 153.02 134.949C152.519 133.019 152.151 131.032 151.249 129.256C150.347 127.48 148.251 126.093 146.294 125.805Z" fill="black"/>
<path d="M139.189 128.872C141.685 127.71 143.094 125.085 143.413 122.339C143.733 119.594 142.549 116.714 140.387 115C137.9 117.275 136.945 121.096 138.058 124.283C138.587 125.795 139.547 127.307 139.189 128.867" fill="black"/>
<path d="M126.236 176.786C126.236 176.786 126.174 176.656 126.078 176.407C125.978 176.157 125.854 175.783 125.663 175.312C125.3 174.367 124.732 173.008 123.954 171.371C122.407 168.093 119.968 163.701 116.908 159.093C113.848 154.48 110.779 150.511 108.349 147.827C107.132 146.488 106.082 145.466 105.285 144.842C104.889 144.53 104.564 144.314 104.335 144.179C104.101 144.059 103.977 143.987 103.982 143.983C103.982 143.973 104.115 144.026 104.359 144.136C104.597 144.261 104.936 144.463 105.342 144.765C106.163 145.37 107.237 146.378 108.473 147.707C110.946 150.367 114.044 154.331 117.113 158.954C120.183 163.571 122.598 167.987 124.111 171.295C124.87 172.946 125.415 174.319 125.749 175.279C125.925 175.754 126.035 176.138 126.121 176.387C126.202 176.642 126.24 176.776 126.231 176.781L126.236 176.786Z" fill="#263238"/>
<path d="M135.219 205.461H118.159L115.5 185.603H138.394L135.219 205.461Z" fill="black"/>
<path d="M151.205 161.767C149.482 158.047 145.057 155.618 140.99 155.954C141.897 156.319 142.456 157.264 142.68 158.219C142.904 159.175 142.866 160.168 142.943 161.147C143.31 165.842 146.317 169.85 149.201 173.565C151.229 176.171 153.268 178.792 155.693 181.034C155.401 174.352 154.981 167.277 151.205 161.771V161.767Z" fill="black"/>
<path d="M140.985 156.002C143.568 154 146.9 153.174 150.16 153.141C153.416 153.107 156.638 153.813 159.793 154.619C161.688 155.104 163.616 155.637 165.239 156.741C166.862 157.84 168.151 159.616 168.185 161.584C165.507 158.622 161.192 158.051 157.368 156.938C154.776 156.179 152.279 155.099 149.64 154.547C147 153.995 143.324 154.648 140.985 156.006" fill="black"/>
<path d="M141.43 155.474C140.298 154.279 140.924 151.485 141.907 150.17C142.895 148.85 144.456 148.111 146.003 147.559C148.036 146.829 150.156 146.335 152.299 146.085C152.079 147.439 151.292 148.648 150.308 149.603C149.325 150.559 148.156 151.288 146.996 152.008C145.139 153.165 143.282 154.317 141.43 155.474Z" fill="black"/>
<path d="M130.808 153.871C127.577 155.296 125.071 157.956 122.655 160.552C126.235 159.674 129.677 158.244 132.828 156.314C134.078 155.546 135.319 154.692 136.751 154.37C138.183 154.048 139.787 154.687 140.985 155.685C138.961 152.685 134.045 152.45 130.808 153.871Z" fill="black"/>
<path d="M129.291 175.139C131.1 170.963 130.336 165.904 132.632 161.978C134.389 158.973 137.64 157.187 140.866 155.92C141.616 158.181 141.263 160.706 140.308 162.894C139.358 165.078 137.85 166.97 136.26 168.741C134.06 171.184 131.668 173.445 129.281 175.701" fill="black"/>
<path d="M139.444 185.603H113.93V190.072H139.444V185.603Z" fill="black"/>
<path d="M138.594 190.211C138.594 190.278 133.071 190.336 126.264 190.336C119.457 190.336 113.935 190.278 113.935 190.211C113.935 190.144 119.453 190.086 126.264 190.086C133.076 190.086 138.594 190.144 138.594 190.211Z" fill="#263238"/>
<path d="M140.54 129.049C139.647 127.489 138.745 125.925 137.575 124.561C136.406 123.198 134.931 122.051 133.217 121.542C130.916 120.865 128.448 121.403 126.152 122.089C123.47 122.891 120.844 123.899 118.31 125.094C121.622 126.361 125.379 126.429 128.735 125.281C130.492 124.681 132.196 124.758 134.038 124.969C136.282 125.224 139.089 127.312 140.544 129.049" fill="black"/>
<path d="M86.5824 152.517C82.5583 157.662 81.2218 164.536 81.6752 171.064C84.0286 162.414 89.0837 154.523 95.9432 148.787C98.5638 146.593 101.915 144.861 105.166 144.861C98.4779 144.261 90.7353 147.208 86.5871 152.517H86.5824Z" fill="black"/>
<path d="M95.9189 142.182C93.6754 142.345 91.6276 143.488 89.7754 144.769C86.9352 146.728 84.2764 149.2 83.04 152.43C87.9854 146.454 96.0526 143.248 103.724 144.217C101.28 142.993 98.6446 141.98 95.9189 142.182Z" fill="black"/>
<path d="M102.201 134.454C100.903 135.361 99.91 136.849 99.9768 138.438C100.025 139.528 100.554 140.55 101.266 141.371C101.977 142.197 103.108 143.339 103.982 143.982C104.803 140.315 105.796 136.485 106.617 132.817C105.065 133.134 103.5 133.552 102.201 134.454Z" fill="black"/>
<path d="M109.796 134.104C108.044 135.236 106.478 136.753 105.624 138.668C104.769 140.579 104.416 142.993 105.49 144.788C108.55 140.219 111.905 135.635 115.438 131.425C113.5 132.198 111.547 132.976 109.796 134.108V134.104Z" fill="black"/>
<path d="M116.24 140.401C112.216 140.075 108.083 141.899 105.591 145.091C107.247 144.232 109.462 143.761 111.309 144.001C116.255 144.644 121.162 145.561 126.007 146.742C124.059 143.185 120.265 140.723 116.24 140.396V140.401Z" fill="black"/>
<path d="M106.058 144.784C102.273 144.99 98.9551 147.923 97.6328 151.499C96.3106 155.075 96.764 159.131 98.1913 162.664C99.6234 166.196 101.958 169.278 104.44 172.163C105.686 167.862 106.932 163.542 107.481 159.097C108.029 154.652 107.614 148.979 106.058 144.779V144.784Z" fill="black"/>
<g opacity="0.3">
<path d="M86.5824 152.517C82.5583 157.662 81.2218 164.536 81.6752 171.064C84.0286 162.414 89.0837 154.523 95.9432 148.787C98.5638 146.593 101.915 144.861 105.166 144.861C98.4779 144.261 90.7353 147.208 86.5871 152.517H86.5824Z" fill="black"/>
<path d="M95.9189 142.182C93.6754 142.345 91.6276 143.488 89.7754 144.769C86.9352 146.728 84.2764 149.2 83.04 152.43C87.9854 146.454 96.0526 143.248 103.724 144.217C101.28 142.993 98.6446 141.98 95.9189 142.182Z" fill="black"/>
<path d="M102.201 134.454C100.903 135.361 99.91 136.849 99.9768 138.438C100.025 139.528 100.554 140.55 101.266 141.371C101.977 142.197 103.108 143.339 103.982 143.982C104.803 140.315 105.796 136.485 106.617 132.817C105.065 133.134 103.5 133.552 102.201 134.454Z" fill="black"/>
<path d="M109.796 134.104C108.044 135.236 106.478 136.753 105.624 138.668C104.769 140.579 104.416 142.993 105.49 144.788C108.55 140.219 111.905 135.635 115.438 131.425C113.5 132.198 111.547 132.976 109.796 134.108V134.104Z" fill="black"/>
<path d="M116.24 140.401C112.216 140.075 108.083 141.899 105.591 145.091C107.247 144.232 109.462 143.761 111.309 144.001C116.255 144.644 121.162 145.561 126.007 146.742C124.059 143.185 120.265 140.723 116.24 140.396V140.401Z" fill="black"/>
<path d="M106.058 144.784C102.273 144.99 98.9551 147.923 97.6328 151.499C96.3106 155.075 96.764 159.131 98.1913 162.664C99.6234 166.196 101.958 169.278 104.44 172.163C105.686 167.862 106.932 163.542 107.481 159.097C108.029 154.652 107.614 148.979 106.058 144.779V144.784Z" fill="black"/>
</g>
<g opacity="0.2">
<path d="M151.205 161.767C149.482 158.047 145.057 155.618 140.99 155.954C141.897 156.319 142.456 157.264 142.68 158.219C142.904 159.175 142.866 160.168 142.943 161.147C143.31 165.842 146.317 169.85 149.201 173.565C151.229 176.171 153.268 178.792 155.693 181.034C155.401 174.352 154.981 167.277 151.205 161.771V161.767Z" fill="black"/>
<path d="M140.985 156.002C143.568 154 146.9 153.174 150.16 153.141C153.416 153.107 156.638 153.813 159.793 154.619C161.688 155.104 163.616 155.637 165.239 156.741C166.862 157.84 168.151 159.616 168.185 161.584C165.507 158.622 161.192 158.051 157.368 156.938C154.776 156.179 152.279 155.099 149.64 154.547C147 153.995 143.324 154.648 140.985 156.006" fill="black"/>
<path d="M141.43 155.474C140.298 154.279 140.924 151.485 141.907 150.17C142.895 148.85 144.456 148.111 146.003 147.559C148.036 146.829 150.156 146.335 152.299 146.085C152.079 147.439 151.292 148.648 150.308 149.603C149.325 150.559 148.156 151.288 146.996 152.008C145.139 153.165 143.282 154.317 141.43 155.474Z" fill="black"/>
<path d="M130.808 153.871C127.577 155.296 125.071 157.956 122.655 160.552C126.235 159.674 129.677 158.244 132.828 156.314C134.078 155.546 135.319 154.692 136.751 154.37C138.183 154.048 139.787 154.687 140.985 155.685C138.961 152.685 134.045 152.45 130.808 153.871Z" fill="black"/>
<path d="M129.291 175.139C131.1 170.963 130.336 165.904 132.632 161.978C134.389 158.973 137.64 157.187 140.866 155.92C141.616 158.181 141.263 160.706 140.308 162.894C139.358 165.078 137.85 166.97 136.26 168.741C134.06 171.184 131.668 173.445 129.281 175.701" fill="black"/>
</g>
<path d="M83.543 206.654V221.837H105.62H129.975V206.654H83.543Z" fill="#F5F5F5"/>
<path d="M81.5908 202.411V206.654H131.603V202.411H105.621H81.5908Z" fill="#E0E0E0"/>
<path d="M106.599 221.837H129.974V206.654H131.602V202.411H105.62V206.261L106.599 221.837Z" fill="#E0E0E0"/>
<path d="M99.4532 209.103H90.0352V211.387H99.4532V209.103Z" fill="#E0E0E0"/>
<path d="M100.914 214.248H88.8223V219.072H100.914V214.248Z" fill="white"/>
<path d="M90.6836 187.248V202.43H112.766H137.12V187.248H90.6836Z" fill="#F5F5F5"/>
<path d="M88.7363 183V187.248H138.743V183H112.766H88.7363Z" fill="#EBEBEB"/>
<path d="M113.739 202.43H137.12V187.248H138.743V183H112.766V186.854L113.739 202.43Z" fill="#EBEBEB"/>
<path d="M106.599 189.696H97.1807V191.981H106.599V189.696Z" fill="#E0E0E0"/>
<path d="M108.059 194.837H95.9678V199.661H108.059V194.837Z" fill="white"/>
<path d="M168.223 92.2064C167.731 90.6215 166.169 89.4439 164.52 89.3998C164.944 88.1927 164.124 86.7894 162.953 86.284C161.782 85.7737 160.406 86.0043 159.255 86.5539C158.44 86.9415 157.683 87.4862 156.8 87.6824C155.644 87.9425 154.448 87.5794 153.267 87.5401C150.852 87.4616 148.451 88.8649 147.329 91.0141C146.934 91.7697 146.69 92.594 146.255 93.3251C145.909 93.909 145.445 94.4193 145.104 95.0081C144.108 96.7058 144.274 99.0169 145.504 100.558L162.153 96.7107C163.51 97.6577 165.462 97.6283 166.794 96.6421C168.126 95.6558 168.731 93.7913 168.233 92.2064H168.223Z" fill="black"/>
<path d="M206.542 153.795L190.503 152.195L189.576 160.571L207.689 159.938L206.542 153.795Z" fill="#FFBF9D"/>
<path d="M218.727 158.702C218.517 158.996 218.151 159.153 217.8 159.065C217.731 159.045 217.658 159.021 217.585 158.986C217.107 158.746 217.317 157.72 217.317 157.72L214.965 156.94C214.965 156.94 211.51 158.476 210.183 159.649C208.856 160.821 206.182 159.276 206.182 159.276L206.006 153.947L211.081 150.615C211.081 150.615 210.768 150.812 211.193 150.105C211.617 149.399 212.969 149.904 212.969 149.904C213.247 149.565 214.179 149.575 214.179 149.575L218.005 150.645C218.79 150.866 219.439 151.435 219.761 152.19L220.996 155.076C220.996 155.076 221.567 157.102 221.362 157.519C221.045 158.147 220.371 157.892 220.371 157.892C220.371 157.892 219.986 159.104 219.654 159.094C219.322 159.084 218.727 158.707 218.727 158.707V158.702Z" fill="#FFBF9D"/>
<path d="M211.164 158.947C211.164 158.947 211.257 158.903 211.423 158.805C211.613 158.697 211.852 158.555 212.159 158.383C212.803 158.025 213.76 157.524 214.999 157.019H214.941C215.638 157.259 216.429 157.524 217.283 157.814L217.215 157.696C217.18 157.892 217.161 158.088 217.166 158.294C217.176 158.501 217.205 158.721 217.346 158.923C217.42 159.021 217.542 159.089 217.644 159.119C217.746 159.163 217.864 159.192 217.981 159.192C218.215 159.192 218.449 159.109 218.635 158.952C218.678 158.913 218.722 158.869 218.761 158.824L218.791 158.79L218.805 158.77V158.761H218.815C218.849 158.756 218.532 158.815 218.664 158.79L218.737 158.834C218.835 158.893 218.932 158.942 219.03 158.996C219.132 159.045 219.235 159.094 219.347 159.133C219.406 159.153 219.459 159.173 219.523 159.183C219.581 159.192 219.649 159.207 219.752 159.173C219.903 159.099 219.972 158.991 220.04 158.888C220.103 158.785 220.162 158.682 220.211 158.574C220.313 158.358 220.396 158.142 220.474 157.912L220.318 157.985C220.621 158.088 221.001 158.074 221.265 157.819C221.382 157.701 221.489 157.549 221.509 157.357C221.528 157.186 221.509 157.033 221.499 156.876C221.426 156.253 221.274 155.645 221.108 155.027V155.012C220.899 154.521 220.674 154.001 220.45 153.476C220.308 153.147 220.172 152.823 220.03 152.5C219.889 152.186 219.771 151.842 219.552 151.543C219.342 151.248 219.074 151.003 218.771 150.822C218.474 150.63 218.122 150.542 217.81 150.458C216.541 150.105 215.336 149.772 214.204 149.462H214.189H214.175C213.945 149.462 213.726 149.487 213.506 149.531C213.291 149.58 213.062 149.639 212.886 149.835L213.028 149.816C212.642 149.58 212.164 149.502 211.764 149.688C211.364 149.87 211.135 150.233 210.988 150.581L211.027 150.537C209.573 151.489 208.383 152.264 207.533 152.819C207.138 153.084 206.826 153.295 206.587 153.452C206.372 153.599 206.26 153.682 206.265 153.687C206.27 153.697 206.392 153.628 206.611 153.496C206.855 153.349 207.177 153.152 207.582 152.907C208.441 152.367 209.646 151.616 211.12 150.699L211.144 150.684L211.159 150.655C211.291 150.346 211.51 150.017 211.842 149.879C212.164 149.727 212.579 149.801 212.906 150.002L212.984 150.051L213.047 149.983C213.15 149.865 213.35 149.796 213.55 149.757C213.75 149.718 213.965 149.698 214.175 149.698H214.145C215.273 150.012 216.478 150.355 217.746 150.714C218.069 150.802 218.371 150.88 218.644 151.057C218.918 151.224 219.162 151.445 219.352 151.715C219.547 151.975 219.654 152.298 219.801 152.622C219.937 152.946 220.079 153.27 220.216 153.599C220.44 154.124 220.664 154.644 220.874 155.135V155.12C221.035 155.728 221.182 156.337 221.255 156.925C221.27 157.073 221.284 157.22 221.27 157.352C221.27 157.465 221.191 157.578 221.104 157.666C220.933 157.843 220.64 157.863 220.411 157.784L220.294 157.745L220.255 157.858C220.181 158.074 220.103 158.29 220.006 158.491C219.918 158.682 219.791 158.913 219.669 158.976C219.664 158.976 219.62 158.986 219.571 158.976C219.523 158.967 219.474 158.952 219.425 158.937C219.327 158.903 219.23 158.864 219.132 158.815C219.035 158.77 218.942 158.716 218.854 158.662L218.786 158.623C218.922 158.599 218.6 158.658 218.635 158.653L218.63 158.662L218.62 158.677L218.6 158.707C218.571 158.741 218.537 158.775 218.503 158.805C218.361 158.927 218.176 158.996 217.995 158.996C217.903 158.996 217.82 158.976 217.732 158.937C217.639 158.908 217.576 158.869 217.527 158.81C217.337 158.535 217.371 158.098 217.424 157.755L217.439 157.666L217.361 157.642C216.502 157.362 215.707 157.107 215.004 156.876L214.975 156.867L214.946 156.876C213.701 157.411 212.76 157.936 212.125 158.319C211.808 158.51 211.569 158.667 211.413 158.78C211.257 158.893 211.174 158.952 211.179 158.962L211.164 158.947Z" fill="#FF9A6C"/>
<path d="M213.413 151.391C213.399 151.415 213.833 151.67 214.604 151.965C215.37 152.259 216.488 152.578 217.781 152.711L217.668 152.603C217.703 152.804 217.742 153.02 217.79 153.236C218.112 154.663 218.737 155.851 219.284 156.631C219.557 157.019 219.806 157.313 219.986 157.509C220.172 157.701 220.279 157.799 220.294 157.784C220.328 157.755 219.937 157.318 219.435 156.528C218.937 155.738 218.356 154.57 218.044 153.177C217.995 152.966 217.956 152.76 217.922 152.558L217.903 152.46L217.805 152.45C216.536 152.328 215.434 152.048 214.663 151.798C213.887 151.553 213.433 151.356 213.413 151.391Z" fill="#FF9A6C"/>
<path d="M216.75 154.256C216.687 154.256 216.77 155.38 217.37 156.607C217.96 157.838 218.78 158.599 218.824 158.55C218.883 158.496 218.17 157.681 217.604 156.494C217.028 155.311 216.833 154.247 216.755 154.261L216.75 154.256Z" fill="#FF9A6C"/>
<path d="M205.659 157.573C205.659 157.573 205.693 157.612 205.771 157.666C205.849 157.72 205.971 157.794 206.133 157.877C206.459 158.039 206.967 158.24 207.635 158.299C208.299 158.358 209.143 158.275 209.968 157.848C210.788 157.431 211.578 156.68 212.022 155.65L211.866 155.718C212.71 156.023 213.662 156.238 214.662 156.302C215.018 156.327 215.374 156.327 215.726 156.312C216.072 156.292 216.428 156.278 216.77 156.14C216.931 156.077 217.121 155.964 217.214 155.772C217.307 155.591 217.307 155.375 217.238 155.198C217.17 155.017 217.029 154.865 216.853 154.786C216.707 154.722 216.565 154.663 216.424 154.605C215.287 154.129 214.242 153.751 213.354 153.461C212.466 153.172 211.739 152.971 211.237 152.843C210.729 152.715 210.446 152.661 210.446 152.676C210.446 152.696 210.714 152.784 211.212 152.941C211.71 153.098 212.422 153.324 213.301 153.633C214.174 153.942 215.209 154.335 216.336 154.82C216.477 154.884 216.619 154.943 216.76 155.007C216.872 155.061 216.965 155.159 217.009 155.282C217.053 155.404 217.048 155.547 216.99 155.659C216.936 155.772 216.824 155.846 216.677 155.905C216.394 156.018 216.058 156.037 215.716 156.052C215.374 156.067 215.028 156.062 214.682 156.042C213.706 155.983 212.779 155.777 211.954 155.483L211.842 155.444L211.798 155.552C211.388 156.523 210.646 157.244 209.875 157.656C209.099 158.074 208.299 158.177 207.65 158.142C207.001 158.108 206.498 157.936 206.167 157.804C205.835 157.666 205.669 157.563 205.659 157.578V157.573Z" fill="#FF9A6C"/>
<path d="M154.517 133.069C150.613 133.035 147.452 129.777 147.403 125.744L147.1 101.451C146.817 94.9297 150.252 89.3214 156.567 89.2085L157.152 89.233C163.027 89.4833 167.736 94.3605 167.965 100.435C168.18 106.092 168.409 111.554 168.253 114.576C167.926 120.832 161.773 121.45 161.773 121.45C161.758 121.45 161.758 123.786 161.758 125.626C161.763 129.757 158.514 133.104 154.517 133.065V133.069Z" fill="#FFBF9D"/>
<path d="M161.768 121.499C161.768 121.499 157.943 121.568 153.985 118.751C153.985 118.751 155.693 123.54 161.754 123.231L161.768 121.494V121.499Z" fill="#FF9A6C"/>
<path d="M165.73 106.004C165.73 106.475 165.34 106.863 164.862 106.873C164.384 106.878 163.998 106.5 164.003 106.029C164.003 105.558 164.393 105.17 164.872 105.16C165.35 105.155 165.735 105.533 165.73 106.004Z" fill="black"/>
<path d="M166.565 103.148C166.453 103.261 165.819 102.731 164.887 102.692C163.959 102.643 163.257 103.109 163.159 102.987C163.11 102.933 163.227 102.727 163.535 102.516C163.837 102.305 164.345 102.108 164.926 102.138C165.506 102.167 165.984 102.408 166.253 102.643C166.531 102.884 166.619 103.099 166.565 103.148Z" fill="black"/>
<path d="M157.284 106.004C157.284 106.475 156.894 106.863 156.415 106.873C155.937 106.878 155.552 106.5 155.557 106.029C155.557 105.558 155.947 105.17 156.425 105.16C156.903 105.155 157.289 105.533 157.284 106.004Z" fill="black"/>
<path d="M157.44 102.981C157.328 103.094 156.694 102.564 155.762 102.525C154.834 102.476 154.132 102.942 154.034 102.82C153.985 102.766 154.102 102.56 154.41 102.349C154.712 102.138 155.22 101.941 155.801 101.971C156.381 102 156.859 102.241 157.128 102.476C157.406 102.717 157.494 102.932 157.44 102.981Z" fill="black"/>
<path d="M160.48 110.518C160.48 110.464 161.06 110.386 162.002 110.302C162.241 110.287 162.466 110.248 162.515 110.081C162.578 109.905 162.49 109.635 162.383 109.345C162.183 108.742 161.973 108.109 161.753 107.446C160.885 104.743 160.265 102.52 160.372 102.486C160.48 102.451 161.27 104.615 162.139 107.319C162.349 107.986 162.549 108.619 162.734 109.228C162.812 109.512 162.954 109.836 162.817 110.199C162.744 110.381 162.568 110.503 162.412 110.543C162.256 110.582 162.124 110.582 162.007 110.582C161.06 110.592 160.475 110.572 160.475 110.518H160.48Z" fill="black"/>
<path d="M157.86 99.9883C157.723 100.229 156.83 99.9295 155.732 99.8608C154.634 99.7675 153.712 99.9245 153.61 99.6694C153.566 99.5467 153.761 99.3357 154.156 99.1493C154.546 98.9677 155.142 98.8353 155.801 98.8843C156.459 98.9334 157.03 99.1542 157.391 99.3946C157.757 99.6351 157.918 99.8755 157.86 99.9883Z" fill="black"/>
<path d="M166.721 100.322C166.521 100.533 165.769 100.288 164.857 100.254C163.949 100.19 163.168 100.357 162.998 100.121C162.924 100.008 163.051 99.7923 163.393 99.596C163.729 99.3998 164.291 99.2477 164.915 99.2771C165.54 99.3114 166.077 99.5224 166.389 99.7579C166.706 99.9935 166.804 100.219 166.716 100.322H166.721Z" fill="black"/>
<path d="M147.408 106.107C147.305 106.058 143.299 104.659 143.26 108.943C143.221 113.226 147.388 112.382 147.398 112.26C147.408 112.137 147.408 106.107 147.408 106.107Z" fill="#FFBF9D"/>
<path d="M146.148 110.626C146.148 110.626 146.075 110.675 145.953 110.734C145.836 110.788 145.631 110.827 145.412 110.739C144.977 110.567 144.611 109.846 144.602 109.076C144.597 108.688 144.675 108.315 144.811 108.011C144.943 107.697 145.138 107.481 145.358 107.442C145.577 107.393 145.734 107.53 145.782 107.653C145.836 107.775 145.812 107.859 145.831 107.864C145.841 107.874 145.919 107.795 145.89 107.614C145.875 107.53 145.826 107.427 145.729 107.344C145.631 107.26 145.485 107.216 145.329 107.231C145.007 107.25 144.719 107.55 144.567 107.888C144.401 108.227 144.299 108.644 144.304 109.081C144.323 109.944 144.743 110.759 145.338 110.94C145.631 111.024 145.875 110.935 145.997 110.832C146.129 110.729 146.148 110.631 146.134 110.626H146.148Z" fill="#FF9A6C"/>
<path d="M150.379 95.4103C150.555 94.2965 151.384 93.3937 152.448 93.0355C153.346 92.7313 154.332 92.7362 155.249 93.0699C157.582 93.9236 161.568 95.2043 162.608 94.3849C164.106 93.2072 164.462 92.4369 164.462 92.4369L165.286 93.3348C165.96 92.9521 163.945 90.7048 162.3 89.9296C159.812 88.7618 156.005 88.0356 153.707 88.7078C150.94 89.5174 148.642 90.9404 147.256 93.5409C145.866 96.1414 145.344 99.1738 145.422 102.147C145.446 103.055 145.28 105.651 146.154 105.852C146.827 106.009 147.691 106.308 147.642 107.618C147.622 108.094 147.754 108.58 148.071 108.928C148.828 109.762 149.755 108.977 150.184 108.192C151.097 106.514 151.199 104.512 151.277 102.589C151.336 101.22 151.389 99.8264 151.018 98.5114C151.018 98.5114 150.404 96.8186 150.35 95.8765C150.34 95.7195 150.35 95.5625 150.374 95.4054L150.379 95.4103Z" fill="black"/>
<path d="M160.641 112.834C160.666 112.898 160.475 113.06 160.09 113.143C159.714 113.227 159.133 113.207 158.592 112.908C158.05 112.608 157.718 112.137 157.577 111.774C157.435 111.406 157.455 111.161 157.523 111.141C157.665 111.092 157.977 111.951 158.85 112.432C159.719 112.917 160.602 112.687 160.641 112.834Z" fill="black"/>
<path d="M164.949 169.997L145.128 165.615L132.407 133.874C132.407 133.874 115.383 137.672 112.572 147.235C110.142 155.503 105.126 192.048 116.529 214.574C119.462 220.369 125.434 223.966 131.9 223.966H218.62C229.57 223.966 238.773 215.693 239.988 204.751C240.476 200.34 240.817 196.15 240.749 193.422L226.823 182.671L164.944 169.997H164.949Z" fill="#EBEBEB"/>
<g opacity="0.3">
<path d="M217.961 181.037C224.06 189.055 231.492 196.263 240.373 200.963L240.793 190.08L224.392 178.343L217.961 181.037Z" fill="black"/>
</g>
<path d="M152.492 127.697C152.492 128.276 157 130.14 159.035 129.321C162.134 128.074 161.753 125.626 161.753 125.626L163.471 127.451L180.73 153.893L193.558 162.407L173.02 168.947L151.496 144.08L152.482 127.692L152.492 127.697Z" fill="#ED0641"/>
<path d="M147.051 118.82L146.598 119.674L144.548 123.516L136.023 128.982L153.556 149.934L161.558 168.952L180.735 174.987C180.735 174.987 171.61 160.876 168.775 153.668C165.94 146.46 165.652 146.793 163.066 141.509C160.592 136.45 158.382 130.052 158.382 130.052L147.056 118.815L147.051 118.82Z" fill="white"/>
<path d="M188.127 156.562L191.889 160.09L192.953 162.269L178.968 155.728L168.872 141.518C168.872 141.518 165.276 133.496 164.037 130.621C162.739 127.598 161.763 125.886 161.763 125.886L161.748 123.496L166.852 128.118L171.107 129.394L178.212 140.684L188.127 156.562Z" fill="white"/>
<path d="M183.819 143.27C183.819 143.27 182.121 139.63 180.735 136.602C177.612 129.782 170.249 129.134 170.249 129.134L178.388 151.833L188.362 158.942C188.362 158.942 191.197 159.939 191.553 158.942C191.553 158.942 193.632 151.416 193.569 151.386C193.505 151.357 186.474 149.242 186.474 149.242L183.643 142.883" fill="white"/>
<path d="M198.814 136.185L189.128 152.412L199.273 152.107L208.217 137.073C208.558 136.494 208.149 135.763 207.475 135.763H199.551C199.248 135.763 198.97 135.925 198.814 136.185Z" fill="black"/>
<path d="M161.558 154.537L185.799 151.637L189.879 144.463L193.07 142.697C193.612 142.397 194.275 142.442 194.773 142.805L195.075 143.025L197.442 142.726C197.847 142.677 198.252 142.756 198.608 142.957L200.287 143.918C200.536 144.066 200.687 144.331 200.687 144.615C200.687 145.121 200.233 145.503 199.735 145.41L198.106 145.106L195.612 145.925C195.612 145.925 197.223 146.097 197.427 147.329C197.632 148.56 196.817 148.585 196.817 148.585C196.817 148.585 198.511 149.576 197.325 151.018C197.325 151.018 198.735 151.965 197.154 153.761C196.081 154.978 188.361 158.938 188.361 158.938L161.563 168.957V154.537H161.558Z" fill="#FFBF9D"/>
<path d="M197.256 151.047C197.256 151.047 197.437 151.047 197.652 151.268C197.856 151.479 198.052 151.935 197.91 152.47C197.774 153.005 197.349 153.501 196.866 153.972C196.383 154.453 195.807 154.938 195.163 155.385C193.87 156.283 192.591 156.901 191.664 157.328C190.732 157.75 190.147 157.981 190.132 157.951C190.117 157.917 190.679 157.627 191.586 157.166C192.489 156.7 193.748 156.062 195.017 155.179C195.651 154.737 196.217 154.271 196.7 153.805C197.188 153.349 197.593 152.892 197.735 152.426C197.881 151.965 197.735 151.548 197.573 151.337C197.408 151.121 197.242 151.072 197.256 151.052V151.047Z" fill="#FF9A6C"/>
<path d="M194.983 143.089C195.003 143.158 194.461 143.364 193.773 143.55C193.085 143.737 192.514 143.835 192.495 143.766C192.475 143.697 193.017 143.491 193.705 143.305C194.393 143.118 194.964 143.02 194.983 143.089Z" fill="#FF9A6C"/>
<path d="M198.106 145.11C198.13 145.179 197.374 145.488 196.422 145.807C195.471 146.126 194.68 146.327 194.661 146.263C194.636 146.195 195.393 145.886 196.344 145.567C197.296 145.248 198.086 145.047 198.106 145.11Z" fill="#FF9A6C"/>
<path d="M195.197 148.364C195.124 148.354 195.09 148.143 195.007 147.908C194.929 147.667 194.826 147.481 194.875 147.427C194.924 147.378 195.143 147.525 195.246 147.824C195.348 148.124 195.26 148.379 195.192 148.364H195.197Z" fill="#FF9A6C"/>
<path d="M196.028 151.18C195.955 151.165 195.984 150.817 195.881 150.415C195.789 150.012 195.603 149.713 195.657 149.669C195.701 149.62 196.013 149.885 196.125 150.356C196.243 150.827 196.086 151.205 196.023 151.18H196.028Z" fill="#FF9A6C"/>
<path d="M136.706 128.545C135.901 129.036 129.045 133.742 130.046 141.455C131.046 149.168 146.222 166.607 149.388 166.94L161.563 168.952V154.531L155.727 154.198L148.056 139.105L136.711 128.541L136.706 128.545Z" fill="white"/>
<path d="M161.558 153.839C161.558 153.839 161.407 153.869 161.124 153.883C160.797 153.898 160.392 153.913 159.894 153.932C158.786 153.957 157.298 153.991 155.532 154.031H155.468L155.429 153.982C154.512 152.745 153.463 151.322 152.345 149.816C150.506 147.318 148.856 145.046 147.671 143.393C147.104 142.593 146.636 141.931 146.28 141.425C145.958 140.959 145.787 140.694 145.802 140.684C145.816 140.675 146.016 140.915 146.368 141.361C146.743 141.852 147.231 142.495 147.827 143.275C149.051 144.899 150.725 147.151 152.565 149.649C153.672 151.165 154.717 152.593 155.624 153.834L155.527 153.785C157.288 153.785 158.781 153.785 159.889 153.785C160.387 153.795 160.792 153.8 161.119 153.805C161.402 153.815 161.553 153.825 161.553 153.839H161.558Z" fill="black"/>
<path d="M158.596 131.965C158.596 131.965 158.498 131.818 158.357 131.529C158.201 131.2 158.001 130.778 157.757 130.263L157.888 130.277C157.522 130.807 157.117 131.489 156.712 132.314C156.307 133.138 155.853 134.09 155.185 135.017L155.087 135.155L154.98 135.022C154.194 134.046 153.292 133.005 152.321 131.941C150.193 129.615 148.168 127.608 146.719 126.136C146.021 125.425 145.445 124.831 145.006 124.384C144.606 123.967 144.391 123.727 144.406 123.712C144.421 123.697 144.66 123.908 145.079 124.306C145.533 124.738 146.128 125.307 146.851 125.994C148.334 127.431 150.388 129.419 152.521 131.749C153.497 132.814 154.394 133.869 155.18 134.855H154.975C155.634 133.957 156.097 133.03 156.517 132.211C156.937 131.386 157.371 130.704 157.761 130.184L157.839 130.076L157.888 130.199C158.108 130.724 158.284 131.156 158.425 131.494C158.547 131.793 158.601 131.96 158.591 131.965H158.596Z" fill="black"/>
<path d="M166.901 128.275C166.901 128.275 167.077 128.521 167.267 129.002C167.467 129.478 167.672 130.189 167.906 131.033L168.072 131.627L167.696 131.136C167.233 130.533 166.603 129.89 165.905 129.242C165.344 128.717 164.788 128.236 164.285 127.8L164.49 127.721C164.364 128.688 164.442 129.541 164.412 130.145C164.398 130.748 164.32 131.097 164.295 131.092C164.266 131.092 164.29 130.744 164.261 130.145C164.246 129.551 164.129 128.702 164.242 127.687L164.266 127.456L164.446 127.608C164.959 128.035 165.52 128.516 166.086 129.041C166.789 129.698 167.418 130.356 167.882 130.994L167.667 131.097C167.457 130.243 167.286 129.536 167.13 129.051C166.979 128.565 166.872 128.29 166.896 128.275H166.901Z" fill="black"/>
<path d="M184.531 151.788C184.531 151.788 184.312 151.612 183.955 151.253C183.565 150.856 183.063 150.341 182.457 149.723C181.828 149.06 181.081 148.319 180.262 147.402C179.886 146.921 179.554 146.391 179.164 145.871C178.759 145.336 178.451 144.723 178.149 144.095C177.568 142.824 177.129 141.577 176.734 140.444C176.338 139.311 175.992 138.285 175.675 137.441C175.353 136.597 175.065 135.92 174.84 135.469C174.616 135.017 174.474 134.777 174.494 134.762C174.504 134.757 174.548 134.811 174.621 134.924C174.694 135.037 174.816 135.194 174.933 135.42C175.192 135.861 175.509 136.528 175.855 137.372C176.202 138.216 176.568 139.232 176.973 140.361C177.383 141.489 177.827 142.73 178.398 143.982C178.695 144.6 178.993 145.203 179.378 145.714C179.774 146.239 180.106 146.779 180.462 147.25C181.228 148.128 181.994 148.923 182.594 149.59C183.175 150.233 183.658 150.773 184.034 151.185C184.37 151.567 184.546 151.783 184.536 151.793L184.531 151.788Z" fill="black"/>
<path d="M191.568 159.929L237.592 158.628C238.319 158.609 239.046 158.736 239.719 159.026C241.393 159.742 244.404 161.582 246.468 165.988C249.464 172.387 263.415 199.339 263.415 199.339L249.303 206.611L231.995 174.33L178.656 169.776L179.271 165.488L191.573 159.929H191.568Z" fill="black"/>
<path d="M245.111 200.939L252.465 213.632L252.953 216.841C253.25 218.804 255.075 220.153 257.027 219.849L279.41 216.395C280.532 216.223 281.264 215.026 280.791 213.99C280.61 213.593 280.288 213.264 279.722 213.117C277.848 212.636 263.405 207.308 263.405 207.308L257.379 195.178L245.097 200.944L245.111 200.939Z" fill="#EBEBEB"/>
<path d="M251.274 203.878C251.216 203.922 250.479 203.005 249.62 201.837C248.766 200.669 248.117 199.688 248.171 199.649C248.23 199.604 248.966 200.522 249.825 201.69C250.679 202.857 251.328 203.839 251.274 203.878Z" fill="black"/>
<path d="M255.666 202.101C255.612 202.141 254.856 201.228 254.124 199.962C253.387 198.696 252.972 197.582 253.036 197.558C253.104 197.528 253.616 198.583 254.343 199.834C255.066 201.086 255.724 202.057 255.666 202.101Z" fill="black"/>
<path d="M258.735 219.442C258.686 219.457 258.569 219 258.233 218.343C257.901 217.685 257.315 216.827 256.437 216.135C255.559 215.443 254.588 215.07 253.875 214.903C253.158 214.731 252.694 214.722 252.694 214.672C252.694 214.638 253.163 214.569 253.919 214.692C254.666 214.81 255.7 215.163 256.622 215.894C257.545 216.625 258.135 217.548 258.423 218.249C258.721 218.956 258.765 219.432 258.735 219.437V219.442Z" fill="black"/>
<path d="M273.818 217.259C273.789 217.273 273.603 216.969 273.462 216.42C273.32 215.87 273.276 215.046 273.569 214.211C273.857 213.377 274.355 212.749 274.735 212.337C275.121 211.93 275.404 211.724 275.428 211.753C275.462 211.788 275.233 212.043 274.891 212.475C274.56 212.911 274.115 213.529 273.847 214.305C273.574 215.08 273.584 215.841 273.662 216.375C273.745 216.91 273.857 217.239 273.813 217.259H273.818Z" fill="black"/>
<path d="M177.475 166.244C177.475 166.244 224.973 161.46 227.281 161.651C231.541 162.004 239.397 168.761 253.333 178.167C264.898 185.974 273.33 195.071 273.33 195.071L268.875 205.296C268.875 205.296 237.635 193.849 232.741 189.732C228.672 186.312 221.245 181.44 221.245 181.44L202.922 181.626L189.308 182.833C182.482 183.437 175.821 180.493 171.654 175.017L166.369 168.074L177.475 166.239V166.244Z" fill="black"/>
<path d="M221.025 181.298C221.025 181.298 221.103 181.342 221.245 181.44C221.396 181.543 221.606 181.69 221.884 181.881C222.45 182.284 223.28 182.863 224.348 183.623C226.49 185.159 229.633 187.367 233.488 190.301C233.732 190.483 233.961 190.694 234.22 190.851C234.478 191.013 234.742 191.18 235.005 191.346C235.571 191.631 236.137 191.94 236.733 192.225C237.333 192.504 237.943 192.789 238.572 193.083C239.202 193.363 239.846 193.648 240.505 193.942C243.14 195.09 245.994 196.287 249.039 197.534C255.124 200.021 261.96 202.725 269.333 205.576L269.167 205.649C270.456 202.367 271.812 198.908 273.208 195.36L273.237 195.507C271.475 193.702 269.597 191.773 267.694 189.825H267.703C266.405 188.697 265.005 187.495 263.58 186.302C254.47 178.672 245.282 172.151 236.957 166.666H236.952L236.943 166.656C235.674 165.557 234.308 164.61 232.912 163.805C231.516 163.005 230.072 162.348 228.603 161.921C228.233 161.823 227.862 161.739 227.496 161.651C227.125 161.592 226.754 161.538 226.388 161.479C226.017 161.46 225.651 161.44 225.285 161.42C224.914 161.42 224.548 161.42 224.182 161.42C222.723 161.42 221.299 161.42 219.923 161.416C214.409 161.406 209.578 161.396 205.581 161.386C201.59 161.371 198.438 161.357 196.271 161.352C195.198 161.342 194.373 161.337 193.807 161.332C193.534 161.332 193.324 161.322 193.173 161.322C193.031 161.322 192.958 161.313 192.958 161.313C192.958 161.313 193.031 161.308 193.173 161.303C193.324 161.303 193.534 161.298 193.807 161.293C194.373 161.293 195.203 161.283 196.271 161.273C198.438 161.263 201.59 161.254 205.577 161.239C209.573 161.229 214.409 161.219 219.918 161.21C221.294 161.21 222.719 161.209 224.178 161.205C224.544 161.205 224.91 161.205 225.28 161.205C225.656 161.224 226.032 161.244 226.408 161.263C226.783 161.322 227.159 161.376 227.54 161.435C227.91 161.528 228.291 161.607 228.662 161.71C230.155 162.137 231.614 162.799 233.024 163.604C234.434 164.414 235.81 165.361 237.104 166.479L237.089 166.469C245.423 171.945 254.626 178.466 263.746 186.106C265.176 187.298 266.571 188.505 267.874 189.644V189.649C269.777 191.602 271.651 193.525 273.413 195.336L273.476 195.399L273.442 195.483C272.046 199.03 270.685 202.485 269.397 205.767L269.348 205.885L269.231 205.841C261.858 202.985 255.026 200.267 248.946 197.759C245.906 196.508 243.052 195.301 240.422 194.143C239.763 193.849 239.124 193.559 238.489 193.275C237.865 192.98 237.25 192.691 236.65 192.406C236.05 192.122 235.479 191.803 234.918 191.518C234.644 191.346 234.381 191.175 234.112 191.008C233.844 190.841 233.624 190.635 233.38 190.453C229.545 187.504 226.412 185.277 224.29 183.717C223.231 182.946 222.411 182.348 221.85 181.94C221.577 181.739 221.372 181.587 221.225 181.479C221.084 181.376 221.016 181.317 221.016 181.317L221.025 181.298Z" fill="#455A64"/>
<path d="M258.783 202.695L271.943 207.901L274.134 210.286C275.476 211.743 277.736 211.831 279.19 210.482L295.814 195.021C296.644 194.246 296.585 192.843 295.619 192.249C295.248 192.023 294.795 191.93 294.248 192.126C292.428 192.784 277.492 196.498 277.492 196.498L267.488 188.476L258.783 202.7V202.695Z" fill="#EBEBEB"/>
<path d="M258.783 202.695C258.783 202.695 258.827 202.612 258.925 202.445C259.027 202.269 259.174 202.023 259.364 201.709C259.764 201.047 260.34 200.09 261.077 198.863C262.584 196.376 264.746 192.804 267.405 188.417L267.464 188.324L267.547 188.392C270.489 190.743 273.876 193.451 277.565 196.4L277.462 196.376C280.297 195.659 283.279 194.904 286.372 194.119C287.914 193.716 289.486 193.304 291.081 192.887C291.877 192.671 292.682 192.46 293.482 192.225C293.682 192.171 293.882 192.107 294.077 192.038C294.268 191.974 294.497 191.896 294.721 191.886C295.18 191.852 295.639 192.038 295.971 192.352C296.654 192.985 296.683 194.109 296.146 194.82C296.019 195.007 295.849 195.149 295.702 195.286L295.248 195.708C294.946 195.988 294.643 196.268 294.346 196.547C293.145 197.661 291.964 198.76 290.803 199.84C288.48 201.999 286.241 204.079 284.103 206.061C283.035 207.053 281.995 208.019 280.985 208.956C280.478 209.427 279.98 209.889 279.492 210.34C279.253 210.566 278.99 210.796 278.702 210.978C278.409 211.15 278.106 211.302 277.784 211.385C276.501 211.763 275.101 211.37 274.227 210.497C273.393 209.619 272.631 208.765 271.885 207.955L271.919 207.98C267.854 206.351 264.566 205.026 262.277 204.113C261.155 203.662 260.281 203.304 259.676 203.063C259.388 202.946 259.169 202.852 259.008 202.789C258.856 202.725 258.788 202.691 258.788 202.691C258.788 202.691 258.876 202.72 259.032 202.779C259.198 202.843 259.427 202.931 259.725 203.044C260.34 203.279 261.223 203.623 262.36 204.064C264.639 204.953 267.928 206.233 271.982 207.818H272.002L272.017 207.843C272.763 208.642 273.544 209.506 274.364 210.37C275.193 211.194 276.52 211.557 277.726 211.199C278.028 211.12 278.316 210.973 278.589 210.816C278.863 210.644 279.097 210.433 279.341 210.203C279.829 209.746 280.327 209.28 280.829 208.814C281.839 207.872 282.879 206.905 283.942 205.909C286.075 203.922 288.31 201.837 290.632 199.678C291.794 198.598 292.974 197.499 294.175 196.381C294.472 196.101 294.775 195.821 295.078 195.541C295.365 195.257 295.717 194.987 295.941 194.688C296.405 194.069 296.376 193.088 295.795 192.558C295.512 192.288 295.121 192.131 294.736 192.161C294.536 192.171 294.365 192.229 294.155 192.298C293.955 192.362 293.75 192.431 293.55 192.485C292.745 192.72 291.94 192.936 291.145 193.147C289.549 193.564 287.973 193.971 286.431 194.374C283.337 195.154 280.356 195.905 277.516 196.616L277.462 196.631L277.418 196.596C273.739 193.633 270.358 190.914 267.425 188.554L267.566 188.53C264.888 192.867 262.702 196.405 261.179 198.863C260.418 200.085 259.823 201.042 259.413 201.704C259.213 202.023 259.056 202.273 258.944 202.45C258.837 202.617 258.778 202.705 258.778 202.705L258.783 202.695Z" fill="black"/>
<path d="M280.376 209.187C280.341 209.226 279.995 208.917 279.346 208.559C278.707 208.2 277.741 207.818 276.628 207.739C275.511 207.661 274.505 207.901 273.822 208.161C273.134 208.421 272.744 208.676 272.715 208.637C272.695 208.613 273.046 208.289 273.739 207.965C274.422 207.641 275.476 207.352 276.648 207.44C277.819 207.523 278.819 207.96 279.453 208.377C280.093 208.794 280.395 209.162 280.376 209.187Z" fill="black"/>
<path d="M291.657 198.888C291.642 198.917 291.32 198.77 290.896 198.392C290.471 198.019 289.978 197.357 289.754 196.498C289.53 195.644 289.593 194.845 289.676 194.29C289.769 193.736 289.891 193.407 289.925 193.417C289.969 193.427 289.925 193.77 289.886 194.315C289.856 194.859 289.832 195.625 290.042 196.42C290.247 197.215 290.676 197.843 291.042 198.24C291.413 198.637 291.686 198.844 291.657 198.888Z" fill="black"/>
<path d="M212.949 181.302C211.93 176.44 209.846 171.469 205.723 168.731C202.595 166.656 198.725 166.14 195.002 165.679C169.062 162.47 143.118 159.261 117.178 156.057C116.48 168.393 121.731 183.741 127.083 194.859C127.913 196.586 128.879 198.348 130.47 199.403C132.412 200.688 134.896 200.679 137.218 200.62C163.397 199.948 189.591 198.829 215.619 195.949C214.155 191.204 213.964 186.165 212.945 181.307L212.949 181.302Z" fill="#EBEBEB"/>
<path d="M145.807 159.595C145.807 159.595 145.48 159.595 144.89 159.536C144.255 159.467 143.416 159.374 142.401 159.266C140.303 159.021 137.409 158.663 134.213 158.221C131.022 157.779 128.133 157.333 126.054 156.965C125.015 156.779 124.171 156.626 123.595 156.499C123.019 156.376 122.697 156.298 122.702 156.278C122.707 156.258 123.029 156.303 123.615 156.391C124.244 156.489 125.079 156.617 126.084 156.774C128.172 157.093 131.056 157.505 134.252 157.946C137.424 158.383 140.288 158.78 142.425 159.075C143.436 159.222 144.27 159.34 144.899 159.433C145.485 159.521 145.807 159.58 145.802 159.6L145.807 159.595Z" fill="black"/>
<path d="M146.207 223.961C146.207 223.961 146.178 223.912 146.124 223.809C146.071 223.691 146.002 223.544 145.91 223.357C145.719 222.94 145.456 222.356 145.119 221.606C144.948 221.223 144.758 220.801 144.553 220.34C144.358 219.873 144.163 219.353 143.948 218.804C143.528 217.695 143.001 216.449 142.552 215.026C142.318 214.319 142.069 213.573 141.811 212.803C141.557 212.028 141.352 211.203 141.103 210.364C140.591 208.681 140.196 206.846 139.747 204.923C138.946 201.056 138.283 196.753 137.951 192.205C137.658 187.651 137.722 183.299 137.985 179.354C138.166 177.386 138.307 175.512 138.585 173.775C138.712 172.907 138.805 172.063 138.951 171.258C139.103 170.458 139.244 169.688 139.381 168.952C139.625 167.48 139.981 166.17 140.244 165.017C140.386 164.443 140.503 163.903 140.635 163.412C140.776 162.926 140.908 162.48 141.02 162.078C141.254 161.292 141.435 160.674 141.567 160.233C141.63 160.036 141.679 159.879 141.713 159.757C141.747 159.649 141.767 159.595 141.772 159.595C141.772 159.595 141.767 159.654 141.737 159.762C141.708 159.884 141.664 160.046 141.615 160.247C141.498 160.689 141.332 161.312 141.118 162.102C141.006 162.504 140.888 162.951 140.752 163.442C140.63 163.932 140.518 164.472 140.386 165.051C140.137 166.209 139.795 167.514 139.566 168.986C139.434 169.722 139.298 170.488 139.156 171.287C139.015 172.087 138.932 172.931 138.805 173.8C138.541 175.532 138.405 177.401 138.234 179.364C137.985 183.294 137.927 187.636 138.219 192.175C138.551 196.714 139.205 201.002 139.991 204.859C140.43 206.777 140.82 208.613 141.318 210.291C141.557 211.135 141.757 211.954 142.006 212.729C142.255 213.505 142.499 214.245 142.728 214.952C143.162 216.38 143.675 217.626 144.08 218.74C144.29 219.294 144.475 219.815 144.665 220.281C144.865 220.747 145.046 221.174 145.212 221.556C145.529 222.312 145.778 222.906 145.958 223.328C146.036 223.519 146.1 223.671 146.144 223.789C146.183 223.892 146.202 223.951 146.197 223.951L146.207 223.961Z" fill="black"/>
<path d="M145.382 199.098C145.382 199.177 144.006 199.172 142.317 199.093C140.629 199.015 139.263 198.887 139.268 198.814C139.268 198.735 140.644 198.74 142.332 198.819C144.02 198.897 145.387 199.025 145.382 199.098Z" fill="black"/>
<path d="M144.675 202.676C144.665 202.745 143.206 202.534 141.532 201.852C139.854 201.174 138.663 200.301 138.702 200.247C138.746 200.178 139.985 200.929 141.635 201.596C143.279 202.269 144.689 202.597 144.675 202.676Z" fill="black"/>
<path d="M137.858 178.108C137.892 178.171 137.019 178.618 135.833 178.726C134.647 178.844 133.705 178.574 133.725 178.505C133.74 178.422 134.667 178.569 135.804 178.451C136.941 178.348 137.829 178.029 137.858 178.103V178.108Z" fill="black"/>
<path d="M139.414 176.93C139.434 176.999 138.365 177.161 137.179 176.645C135.989 176.145 135.364 175.262 135.423 175.227C135.481 175.168 136.164 175.924 137.287 176.39C138.399 176.876 139.414 176.842 139.414 176.925V176.93Z" fill="black"/>
<path d="M166.813 92.869C166.471 91.8386 165.525 91.0829 164.485 90.7836C163.446 90.4843 162.324 90.6021 161.284 90.9063L151.174 93.232C152.618 94.1987 155.648 95.1359 157.376 95.3223C159.899 95.5922 161.675 95.6167 163.182 94.7433C163.49 95.7835 164.895 96.2497 165.837 95.7148C166.779 95.18 167.159 93.9043 166.813 92.869Z" fill="black"/>
<path d="M267.826 199.52C267.806 199.584 266.43 199.255 264.805 198.642C263.175 198.029 261.926 197.361 261.956 197.303C261.985 197.234 263.278 197.793 264.898 198.402C266.513 199.015 267.85 199.452 267.831 199.52H267.826Z" fill="black"/>
<path d="M270.051 195.173C270.012 195.237 268.88 194.629 267.46 193.942C266.035 193.25 264.859 192.745 264.883 192.676C264.908 192.612 266.132 193.019 267.567 193.711C269.002 194.403 270.085 195.115 270.051 195.173Z" fill="black"/>
<path d="M189.518 164.384L209.905 164.634L234.517 159.732C235.313 159.575 235.923 158.932 236.045 158.123L239.392 135.837C239.558 134.738 238.606 133.795 237.518 133.972L212.359 138.089C211.642 138.207 211.09 138.781 211.003 139.507L208.197 162.171L189.557 162.083C188.923 162.083 188.405 162.598 188.405 163.236C188.405 163.864 188.903 164.374 189.523 164.389L189.518 164.384Z" fill="white"/>
<path d="M189.518 164.384C189.518 164.384 189.381 164.408 189.132 164.32C188.898 164.237 188.518 163.991 188.396 163.471C188.342 163.221 188.366 162.907 188.532 162.627C188.693 162.352 188.996 162.107 189.376 162.053C190.123 162.024 190.972 162.043 191.933 162.038C195.778 162.048 201.331 162.058 208.192 162.078L208.099 162.156C208.9 155.635 209.851 147.907 210.905 139.35C211.017 138.781 211.432 138.28 211.979 138.074C212.257 137.961 212.535 137.952 212.798 137.898L213.608 137.765C214.692 137.588 215.785 137.407 216.892 137.225C219.103 136.862 221.362 136.494 223.66 136.116C225.959 135.739 228.296 135.356 230.668 134.968C231.853 134.772 233.049 134.581 234.249 134.379C234.849 134.281 235.454 134.183 236.059 134.085L236.967 133.938C237.27 133.899 237.572 133.81 237.914 133.835C238.616 133.889 239.246 134.394 239.451 135.066C239.563 135.395 239.539 135.773 239.48 136.082L239.339 137.034C239.148 138.305 238.958 139.561 238.772 140.812C238.397 143.315 238.026 145.778 237.66 148.197C237.294 150.616 236.938 152.991 236.586 155.311C236.499 155.89 236.411 156.469 236.328 157.043C236.284 157.328 236.24 157.618 236.196 157.902C236.162 158.177 236.103 158.501 235.962 158.766C235.689 159.31 235.166 159.718 234.581 159.84C234.03 159.953 233.478 160.061 232.932 160.169C224.202 161.896 216.39 163.442 209.924 164.722H209.915H209.905C203.576 164.629 198.487 164.551 194.964 164.497C193.212 164.467 191.855 164.443 190.923 164.423C190.469 164.413 190.118 164.403 189.874 164.399C189.64 164.394 189.518 164.384 189.518 164.384C189.518 164.384 189.64 164.379 189.874 164.374C190.118 164.374 190.465 164.374 190.923 164.374C191.855 164.379 193.212 164.389 194.964 164.399C198.487 164.433 203.576 164.482 209.905 164.541H209.885C216.346 163.246 224.153 161.68 232.883 159.933C233.429 159.826 233.976 159.713 234.527 159.605C235.044 159.497 235.508 159.139 235.747 158.653C235.874 158.408 235.923 158.152 235.957 157.863C236.001 157.578 236.045 157.294 236.084 157.004C236.172 156.43 236.255 155.851 236.342 155.272C236.689 152.951 237.045 150.576 237.406 148.157C237.767 145.738 238.138 143.275 238.514 140.773C238.699 139.522 238.89 138.261 239.08 136.995L239.221 136.043C239.28 135.719 239.295 135.434 239.202 135.145C239.031 134.571 238.489 134.134 237.889 134.09C237.611 134.065 237.309 134.149 237.006 134.188L236.098 134.335C235.493 134.433 234.888 134.532 234.288 134.63C233.088 134.826 231.892 135.022 230.707 135.214C228.335 135.601 225.998 135.984 223.699 136.357C221.401 136.73 219.142 137.098 216.931 137.461C215.824 137.642 214.731 137.819 213.648 137.996L212.837 138.128C212.569 138.182 212.291 138.197 212.067 138.29C211.593 138.472 211.232 138.903 211.135 139.394C210.066 147.942 209.095 155.66 208.28 162.176L208.27 162.259H208.187C201.327 162.21 195.778 162.166 191.928 162.137C190.972 162.137 190.108 162.107 189.386 162.127C189.03 162.171 188.742 162.397 188.586 162.657C188.43 162.917 188.401 163.211 188.444 163.456C188.547 163.957 188.908 164.207 189.137 164.296C189.376 164.389 189.518 164.374 189.513 164.384H189.518Z" fill="black"/>
<path d="M213.274 139.005C213.342 139.015 212.669 144.932 211.766 152.219C210.864 159.51 210.078 165.413 210.005 165.403C209.936 165.393 210.61 159.476 211.513 152.184C212.415 144.893 213.201 138.99 213.274 139V139.005Z" fill="black"/>
<path d="M224.11 148C223.598 149.075 223.881 150.282 224.739 150.694C225.598 151.106 226.711 150.571 227.223 149.497C227.735 148.422 227.452 147.215 226.594 146.803C225.735 146.391 224.622 146.926 224.11 148Z" fill="black"/>
<path d="M296.812 60.6452V5" stroke="#C7C7C7" stroke-miterlimit="10"/>
<path d="M277.595 79.2716L279.142 82.688H314.487L316.028 79.2716L300.98 68.7988H292.644L277.595 79.2716Z" fill="#EBEBEB"/>
<path d="M291.599 58.7109L292.644 68.7989H300.98L302.024 58.7109H291.599Z" fill="#DBDBDB"/>
<path d="M277.6 79.2769L279.147 82.6933H314.492L316.033 79.2769H277.6Z" fill="#DBDBDB"/>
<path d="M260.033 49.6264V5" stroke="#C7C7C7" stroke-miterlimit="10"/>
<path d="M240.817 68.2531L242.363 71.6695H277.709L279.25 68.2531L264.202 57.7803H255.866L240.817 68.2531Z" fill="#EBEBEB"/>
<path d="M254.821 47.687L255.865 57.7802H264.201L265.246 47.687H254.821Z" fill="#DBDBDB"/>
<path d="M240.817 68.2529L242.363 71.6693H277.709L279.25 68.2529H240.817Z" fill="#DBDBDB"/>
<path d="M176.831 24H163.138V29.8188H176.831V24Z" fill="#FA2E62"/>
<path d="M184.47 31.3369H170.776V37.1557H184.47V31.3369Z" fill="#FA2E62"/>
<path d="M48.5441 133H34.8506V138.819H48.5441V133Z" fill="#FA2E62"/>
<path d="M226.666 94H212.973V99.8188H226.666V94Z" fill="#FA2E62"/>
<path d="M319.719 152H306.025V157.819H319.719V152Z" fill="#FA2E62"/>
<path d="M312.08 159.337H298.387V165.156H312.08V159.337Z" fill="#FA2E62"/>
<path d="M327.356 159.337H313.662V165.156H327.356V159.337Z" fill="#FA2E62"/>
<path d="M101.369 30.0005H71.1143V74.0981H101.369V30.0005Z" fill="#FA2E62"/>
<path d="M99.8559 30.0005H69.6016V74.0981H99.8559V30.0005Z" fill="#E0063D"/>
<path d="M96.0945 34.7769H73.3584V69.3225H96.0945V34.7769Z" fill="#FA2E62"/>
<path d="M96.0986 69.3224C96.0986 69.3224 96.0986 69.2648 96.0986 69.1544C96.0986 69.0392 96.0986 68.876 96.0986 68.6648C96.0986 68.2328 96.0938 67.5944 96.089 66.7688C96.089 65.1128 96.0795 62.6984 96.0699 59.6504C96.0604 53.5592 96.0461 44.9336 96.0318 34.7768L96.1081 34.8536C89.1627 34.8536 81.4631 34.8536 73.3721 34.8584L73.4532 34.7768C73.4484 47.8088 73.4389 59.8232 73.4389 69.3224L73.3721 69.2552C80.2984 69.2696 85.974 69.284 89.9217 69.2888C91.8979 69.2984 93.4398 69.3032 94.4947 69.308C95.0198 69.308 95.4208 69.3128 95.6929 69.3176C95.9649 69.3176 96.1081 69.3224 96.1081 69.3224C96.1081 69.3224 95.9745 69.3224 95.7072 69.3272C95.4351 69.3272 95.0389 69.3272 94.5186 69.3368C93.4684 69.3368 91.9313 69.3464 89.9599 69.3512C86.0027 69.3608 80.3127 69.3704 73.3673 69.3848H73.3005V69.3176C73.3005 59.8184 73.2909 47.804 73.2861 34.772V34.6904H73.3673C81.4583 34.6904 89.1532 34.6904 96.1034 34.6952H96.1797V34.772C96.1654 44.948 96.1511 53.5928 96.1415 59.6984C96.132 62.7368 96.1272 65.1464 96.1225 66.7976C96.1225 67.6184 96.1177 68.2472 96.1129 68.6792C96.1129 68.8904 96.1129 69.0488 96.1129 69.1592C96.1129 69.2648 96.1129 69.3176 96.1129 69.3176L96.0986 69.3224Z" fill="#FA2E62"/>
<path d="M99.942 30.0005C99.942 30.0005 99.7559 30.3173 99.4026 30.7877C99.0494 31.2581 98.553 31.9013 97.9849 32.5973C97.4169 33.2933 96.8822 33.9077 96.4908 34.3445C96.0994 34.7813 95.8416 35.0405 95.8273 35.0261C95.8082 35.0117 96.0326 34.7237 96.4049 34.2677C96.8106 33.7733 97.3118 33.1637 97.8608 32.4917C98.4097 31.8197 98.911 31.2101 99.3167 30.7157C99.689 30.2597 99.9277 29.9861 99.9468 30.0005H99.942Z" fill="#FA2E62"/>
<path d="M96.2148 69.2124C97.3462 71.0172 98.678 72.6924 100.182 74.1996Z" fill="#FA2E62"/>
<path d="M100.181 74.1991C100.181 74.1991 99.8941 73.9783 99.4883 73.5655C99.0826 73.1527 98.5432 72.5623 97.9942 71.8711C97.4453 71.1799 96.987 70.5175 96.6768 70.0279C96.3665 69.5383 96.1994 69.2215 96.2137 69.2119C96.2328 69.1975 96.4381 69.4951 96.7722 69.9655C97.1064 70.4359 97.5742 71.0791 98.1231 71.7703C98.6721 72.4567 99.1924 73.0615 99.5743 73.4887C99.9561 73.9207 100.2 74.1847 100.181 74.1991Z" fill="#FA2E62"/>
<path d="M69.5967 74.0646C70.9189 72.4278 72.2364 70.7862 73.5587 69.1494Z" fill="#FA2E62"/>
<path d="M73.5585 69.1495C73.5919 69.1783 72.7375 70.3015 71.6396 71.6599C70.5465 73.0183 69.63 74.0935 69.5918 74.0647C69.5584 74.0359 70.4128 72.9127 71.5107 71.5543C72.6038 70.1959 73.5204 69.1207 73.5538 69.1495H73.5585Z" fill="#FA2E62"/>
<path d="M69.6016 30.0006C69.635 29.9718 70.499 31.0086 71.5253 32.3142C72.5516 33.6198 73.3535 34.6998 73.3201 34.7286C73.2867 34.7574 72.4227 33.7206 71.3964 32.415C70.3701 31.1094 69.5682 30.0294 69.6016 30.0006Z" fill="#FA2E62"/>
<path d="M89.0151 41.7896H81.4014V63.5239H89.0151V41.7896Z" fill="#E0063D"/>
</g>
<defs>
<filter id="filter0_d_375_6797" x="0" y="0" width="376" height="271" filterUnits="userSpaceOnUse" color-interpolation-filters="sRGB">
<feFlood flood-opacity="0" result="BackgroundImageFix"/>
<feColorMatrix in="SourceAlpha" type="matrix" values="0 0 0 0 0 0 0 0 0 0 0 0 0 0 0 0 0 0 127 0" result="hardAlpha"/>
<feOffset dy="4"/>
<feGaussianBlur stdDeviation="4"/>
<feComposite in2="hardAlpha" operator="out"/>
<feColorMatrix type="matrix" values="0 0 0 0 0 0 0 0 0 0 0 0 0 0 0 0 0 0 0.16 0"/>
<feBlend mode="normal" in2="BackgroundImageFix" result="effect1_dropShadow_375_6797"/>
<feBlend mode="normal" in="SourceGraphic" in2="effect1_dropShadow_375_6797" result="shape"/>
</filter>
</defs>
</svg>
