<svg width="22" height="20" viewBox="0 0 22 20" fill="none" xmlns="http://www.w3.org/2000/svg">
<path fill-rule="evenodd" clip-rule="evenodd" d="M9.7951 0.399902V4.96865H10.9951V1.5999H20.7951V18.3999H14.9951V12.5722L16 13.4514L16.7902 12.5484L8.3951 5.20264L0 12.5484L0.790206 13.4514L1.7951 12.5722V19.5999H21.9951V0.399902H9.7951ZM13.7951 18.3999V11.5222L8.3951 6.79716L2.9951 11.5222V18.3999H6.3951V12.9999H10.3951V18.3999H13.7951ZM9.1951 14.1999H7.5951V17.7999H9.1951V14.1999Z" fill="#ED0641"/>
<path fill-rule="evenodd" clip-rule="evenodd" d="M12.3951 2.9999H15.3951V5.9999H12.3951V2.9999ZM13.3951 3.9999H14.3951V4.9999H13.3951V3.9999Z" fill="#ED0641"/>
<path fill-rule="evenodd" clip-rule="evenodd" d="M16.3951 2.9999V5.9999H19.3951V2.9999H16.3951ZM18.3951 3.9999H17.3951V4.9999H18.3951V3.9999Z" fill="#ED0641"/>
<path fill-rule="evenodd" clip-rule="evenodd" d="M16.3951 6.9999H19.3951V9.9999H16.3951V6.9999ZM17.3951 7.9999H18.3951V8.9999H17.3951V7.9999Z" fill="#ED0641"/>
</svg>
