<svg width="21" height="20" viewBox="0 0 21 20" fill="none" xmlns="http://www.w3.org/2000/svg">
<path fill-rule="evenodd" clip-rule="evenodd" d="M2.44895 9.98588H20.4951L20.4951 13.5035H19.7132V15.1151C19.7132 16.9778 18.3443 18.5264 16.5597 18.8085V20H15.3878V18.8545H5.60242V20H4.43047V18.8085C2.6459 18.5264 1.27701 16.9778 1.27701 15.1151V13.5035H0.495117V9.98588H1.27701V3.22484C1.27701 1.44664 2.72372 0 4.50196 0C6.19489 0 7.5863 1.31152 7.71599 2.97172C8.94943 3.23672 9.87712 4.33507 9.87712 5.64656V6.42794H4.40469V5.64656C4.40469 4.34446 5.3192 3.25262 6.53954 2.97778C6.41708 1.96191 5.55034 1.17191 4.50196 1.17191C3.36994 1.17191 2.44895 2.09285 2.44895 3.22484V9.98588ZM8.65587 5.25606C8.48193 4.58179 7.86862 4.08226 7.14087 4.08226C6.4131 4.08226 5.7998 4.58184 5.62589 5.25606H8.65587ZM18.5412 15.1151C18.5412 16.5309 17.3894 17.6826 15.9737 17.6826H5.01642C3.60069 17.6826 2.44891 16.5309 2.44891 15.1151V13.5035H18.5412V15.1151ZM1.66705 12.3316H19.3232V11.1578H1.66705V12.3316Z" fill="#808080"/>
</svg>
