<svg width="24" height="20" viewBox="0 0 24 20" fill="none" xmlns="http://www.w3.org/2000/svg">
<path fill-rule="evenodd" clip-rule="evenodd" d="M21.3534 2.37384V8.81094C22.8498 9.17375 23.9655 10.5332 23.9654 12.1512V16.9525C23.9654 17.3334 23.6591 17.6422 23.2811 17.6422H21.3533V19.5H19.9847V17.6422H4.97586V19.5H3.60724V17.6422H1.67943C1.30149 17.6422 0.995117 17.3334 0.995117 16.9525V12.1512C0.995117 10.5332 2.1108 9.17375 3.60728 8.81094V2.37384C3.60728 1.0649 4.66379 0 5.96251 0H18.998C20.2967 0 21.3534 1.0649 21.3534 2.37384ZM5.96251 1.37943C5.41853 1.37943 4.9759 1.82554 4.9759 2.37384V8.71513H7.23737V7.62706C7.23737 5.82429 8.69255 4.35759 10.4813 4.35759H14.4794C16.2681 4.35759 17.7234 5.82425 17.7234 7.62706V8.71513H19.9847V2.37384C19.9847 1.82554 19.5421 1.37943 18.9981 1.37943H5.96251ZM16.3547 7.62706V8.71513H8.60587V7.62706C8.60587 6.58481 9.44712 5.73698 10.4812 5.73698H14.4794C15.5134 5.73693 16.3547 6.58488 16.3547 7.62706ZM2.36374 12.1512V16.2628H22.5968V12.1512C22.5968 11.0172 21.6814 10.0945 20.5561 10.0945H4.40442C3.27919 10.0945 2.36374 11.0172 2.36374 12.1512Z" fill="#808080"/>
</svg>
