<svg width="22" height="18" viewBox="0 0 22 18" fill="none" xmlns="http://www.w3.org/2000/svg">
<path d="M0.0498047 18V15.2C0.0498047 14.65 0.191823 14.1333 0.474823 13.65C0.757823 13.1667 1.14981 12.8 1.64981 12.55C2.49981 12.1167 3.45781 11.75 4.52481 11.45C5.59181 11.15 6.7668 11 8.0498 11C9.3328 11 10.5078 11.15 11.5748 11.45C12.6418 11.75 13.5998 12.1167 14.4498 12.55C14.9498 12.8 15.3418 13.1667 15.6248 13.65C15.9078 14.1333 16.0498 14.65 16.0498 15.2V18H0.0498047ZM2.0498 16H14.0498V15.2C14.0498 15.0167 14.0038 14.85 13.9118 14.7C13.8208 14.55 13.6998 14.4333 13.5498 14.35C12.9498 14.05 12.1788 13.75 11.2368 13.45C10.2958 13.15 9.2328 13 8.0498 13C6.8668 13 5.80382 13.15 4.86182 13.45C3.92082 13.75 3.1498 14.05 2.5498 14.35C2.3998 14.4333 2.27883 14.55 2.18683 14.7C2.09583 14.85 2.0498 15.0167 2.0498 15.2V16ZM8.0498 10C6.9498 10 6.00779 9.6083 5.22479 8.825C4.44179 8.0417 4.0498 7.1 4.0498 6H3.7998C3.6498 6 3.52883 5.95417 3.43683 5.8625C3.34583 5.77083 3.2998 5.65 3.2998 5.5C3.2998 5.35 3.34583 5.22917 3.43683 5.1375C3.52883 5.04583 3.6498 5 3.7998 5H4.0498C4.0498 4.25 4.23282 3.575 4.59982 2.975C4.96682 2.375 5.4498 1.9 6.0498 1.55V2.5C6.0498 2.65 6.09583 2.77083 6.18683 2.8625C6.27883 2.95417 6.3998 3 6.5498 3C6.6998 3 6.8208 2.95417 6.9118 2.8625C7.0038 2.77083 7.0498 2.65 7.0498 2.5V1.15C7.1998 1.1 7.35784 1.0625 7.52484 1.0375C7.69184 1.0125 7.8668 1 8.0498 1C8.2328 1 8.40783 1.0125 8.57483 1.0375C8.74183 1.0625 8.89981 1.1 9.0498 1.15V2.5C9.0498 2.65 9.09583 2.77083 9.18683 2.8625C9.27883 2.95417 9.39981 3 9.5498 3C9.6998 3 9.8208 2.95417 9.9118 2.8625C10.0038 2.77083 10.0498 2.65 10.0498 2.5V1.55C10.6498 1.9 11.1328 2.375 11.4998 2.975C11.8668 3.575 12.0498 4.25 12.0498 5H12.2998C12.4498 5 12.5708 5.04583 12.6618 5.1375C12.7538 5.22917 12.7998 5.35 12.7998 5.5C12.7998 5.65 12.7538 5.77083 12.6618 5.8625C12.5708 5.95417 12.4498 6 12.2998 6H12.0498C12.0498 7.1 11.6578 8.0417 10.8748 8.825C10.0918 9.6083 9.14981 10 8.0498 10ZM8.0498 8C8.5998 8 9.07079 7.8042 9.46179 7.4125C9.85379 7.0208 10.0498 6.55 10.0498 6H6.0498C6.0498 6.55 6.24584 7.0208 6.63684 7.4125C7.02884 7.8042 7.4998 8 8.0498 8ZM15.5498 12L15.3998 11.25C15.2998 11.2167 15.2038 11.1792 15.1118 11.1375C15.0208 11.0958 14.9328 11.0333 14.8498 10.95L14.1498 11.2L13.6498 10.3L14.1998 9.8V9.2L13.6498 8.7L14.1498 7.8L14.8498 8.05C14.9168 7.9833 14.9998 7.925 15.0998 7.875C15.1998 7.825 15.2998 7.7833 15.3998 7.75L15.5498 7H16.5498L16.6998 7.75C16.7998 7.7833 16.8998 7.825 16.9998 7.875C17.0998 7.925 17.1828 7.9833 17.2498 8.05L17.9498 7.8L18.4498 8.7L17.8998 9.2V9.8L18.4498 10.3L17.9498 11.2L17.2498 10.95C17.1668 11.0333 17.0788 11.0958 16.9868 11.1375C16.8958 11.1792 16.7998 11.2167 16.6998 11.25L16.5498 12H15.5498ZM16.0498 10.25C16.2498 10.25 16.4248 10.175 16.5748 10.025C16.7248 9.875 16.7998 9.7 16.7998 9.5C16.7998 9.3 16.7248 9.125 16.5748 8.975C16.4248 8.825 16.2498 8.75 16.0498 8.75C15.8498 8.75 15.6748 8.825 15.5248 8.975C15.3748 9.125 15.2998 9.3 15.2998 9.5C15.2998 9.7 15.3748 9.875 15.5248 10.025C15.6748 10.175 15.8498 10.25 16.0498 10.25ZM17.8498 7L17.6498 5.95C17.4998 5.9 17.3618 5.8375 17.2368 5.7625C17.1118 5.6875 16.9998 5.6 16.8998 5.5L15.8498 5.85L15.1498 4.65L15.9998 3.9C15.9668 3.81667 15.9498 3.75 15.9498 3.7V3.3C15.9498 3.25 15.9668 3.18333 15.9998 3.1L15.1498 2.35L15.8498 1.15L16.8998 1.5C16.9998 1.4 17.1118 1.3125 17.2368 1.2375C17.3618 1.1625 17.4998 1.1 17.6498 1.05L17.8498 0H19.2498L19.4498 1.05C19.5998 1.1 19.7368 1.1625 19.8618 1.2375C19.9868 1.3125 20.0998 1.4 20.1998 1.5L21.2498 1.15L21.9498 2.35L21.0998 3.1C21.1328 3.18333 21.1498 3.25 21.1498 3.3V3.7C21.1498 3.75 21.1328 3.81667 21.0998 3.9L21.9498 4.65L21.2498 5.85L20.1998 5.5C20.0998 5.6 19.9868 5.6875 19.8618 5.7625C19.7368 5.8375 19.5998 5.9 19.4498 5.95L19.2498 7H17.8498ZM18.5498 4.75C18.8998 4.75 19.1958 4.62917 19.4378 4.3875C19.6788 4.14583 19.7998 3.85 19.7998 3.5C19.7998 3.15 19.6788 2.85417 19.4378 2.6125C19.1958 2.37083 18.8998 2.25 18.5498 2.25C18.1998 2.25 17.9038 2.37083 17.6628 2.6125C17.4208 2.85417 17.2998 3.15 17.2998 3.5C17.2998 3.85 17.4208 4.14583 17.6628 4.3875C17.9038 4.62917 18.1998 4.75 18.5498 4.75Z" fill="#808080"/>
</svg>
