<svg xmlns="http://www.w3.org/2000/svg" xmlns:xlink="http://www.w3.org/1999/xlink" version="1.1" width="1000" height="1000" viewBox="0 0 1000 1000" xml:space="preserve">
<desc>Created with Fabric.js 3.5.0</desc>
<defs>
</defs>
<rect x="0" y="0" width="100%" height="100%" fill="#ffffff"/>
<g transform="matrix(1.4854 0 0 1.4854 499.9869 499.9869)" id="742869">
<g style="" vector-effect="non-scaling-stroke">
		<g transform="matrix(1 0 0 1 -42.5875 -9.6284)" id="Layer_1">
<path style="stroke: rgb(128,128,128); stroke-width: 13; stroke-dasharray: none; stroke-linecap: round; stroke-dashoffset: 0; stroke-linejoin: round; stroke-miterlimit: 4; is-custom-font: none; font-file-url: none; fill: none; fill-rule: nonzero; opacity: 1;" transform=" translate(-263.4125, -296.3716)" d="M 289 425.25 C 289 375.666656 289 326.083344 289 276.5 C 289 218.333328 288.899292 160.166321 289.103455 102.000366 C 289.135864 92.771027 285.919739 91.374329 278.482849 92.372223 C 247.663803 96.507591 218.859604 105.847122 194.068161 125.087814 C 174.697769 140.121201 161.295563 159.704239 153.519974 183.006668 C 148.273361 198.730103 146.116348 214.955765 145.432922 231.497223 C 144.061172 264.697632 155.875275 293.420441 174.481277 320.013092 C 182.526382 331.511627 191.687439 342.052948 202.087494 351.402679 C 207.765381 356.507172 213.707993 361.296844 217.430923 368.038147 C 220.649841 373.866852 222.527725 380.212189 222.507629 387.000031 C 222.478043 396.999939 222.550888 407.000427 222.465103 416.999695 C 222.442978 419.580017 222.638718 422.08078 223.521515 424.492126 C 223.885101 425.485199 224.440796 426.089783 224.123611 427.527283 C 221.005203 441.659546 221.628708 455.658203 227.569885 468.968811 C 234.176468 483.770172 244.611801 494.13913 260.880798 498.906738 C 265.928589 500.386017 270.26062 500.04007 275.000092 500.023987 C 292.666534 499.963928 310.333344 500 328 500 C 328.5 500 329.030304 499.889191 329.495483 500.016449 C 337.871887 502.308014 344.54184 497.851532 351.50238 494.504944 C 359.912933 490.461212 366.016998 484.439789 370.762787 476.150452 C 374.476135 469.664398 377.888855 463.277344 378.892303 455.985168 C 380.122162 447.047363 381.150879 437.999908 378.999084 429.000214 C 378.839294 428.331909 378.351135 427.55014 378.547821 427.01767 C 381.087189 420.141785 379.532593 413.002106 380.056427 406.004211 C 380.170868 404.475372 381 403 381.5 401.5" stroke-linecap="round"/>
</g>
		<g transform="matrix(1 0 0 1 38.7315 -47.8469)" id="Layer_1">
<path style="stroke: rgb(128,128,128); stroke-width: 12; stroke-dasharray: none; stroke-linecap: round; stroke-dashoffset: 0; stroke-linejoin: round; stroke-miterlimit: 4; is-custom-font: none; font-file-url: none; fill: none; fill-rule: nonzero; opacity: 1;" transform=" translate(-344.7314, -258.1532)" d="M 376 113 C 370.745544 100.521294 361.814209 92.894547 348.001984 91.480629 C 332.333588 89.876701 318.904022 99.454781 314.527618 115.50753 C 313.553192 119.081726 313.461182 122.776253 313.462921 126.500015 C 313.509552 226 313.5 325.5 313.5 425" stroke-linecap="round"/>
</g>
		<g transform="matrix(1 0 0 1 -55.8495 -73.6565)" id="Layer_1">
<path style="stroke: rgb(128,128,128); stroke-width: 6; stroke-dasharray: none; stroke-linecap: round; stroke-dashoffset: 0; stroke-linejoin: round; stroke-miterlimit: 4; is-custom-font: none; font-file-url: none; fill: none; fill-rule: nonzero; opacity: 1;" transform=" translate(-250.1505, -232.3436)" d="M 288 270 C 281.321869 269.686737 274.643768 269.373505 268 269.061859 C 268 257 268.173553 245.496597 267.948669 234.001007 C 267.744965 223.589584 265.385681 213.932007 258.593689 205.425201 C 250.152191 194.852432 234.636871 191.268448 222.933868 198.391342 C 214.096252 203.770233 212.089905 211.861099 212.317902 220.998306 C 212.684448 235.687241 221.469376 246.047806 232.15802 254.295197 C 242.3423 262.153412 253.858521 268.254761 267.5 268" stroke-linecap="round"/>
</g>
		<g transform="matrix(1 0 0 1 -37.7502 41.75)" id="Layer_1">
<path style="stroke: rgb(128,128,128); stroke-width: 7; stroke-dasharray: none; stroke-linecap: round; stroke-dashoffset: 0; stroke-linejoin: round; stroke-miterlimit: 4; is-custom-font: none; font-file-url: none; fill: none; fill-rule: nonzero; opacity: 1;" transform=" translate(-268.2497, -347.75)" d="M 268.5 269.5 C 268.333344 271.5 268.022186 273.499908 268.021118 275.5 C 267.994232 325.666656 268 375.833344 268 426" stroke-linecap="round"/>
</g>
		<g transform="matrix(1 0 0 1 -4.5 142.7121)" id="Layer_1">
<path style="stroke: rgb(128,128,128); stroke-width: 6; stroke-dasharray: none; stroke-linecap: round; stroke-dashoffset: 0; stroke-linejoin: round; stroke-miterlimit: 4; is-custom-font: none; font-file-url: none; fill: none; fill-rule: nonzero; opacity: 1;" transform=" translate(-301.5, -448.7121)" d="M 224 448.5 C 275.666199 448.807037 327.336426 447.870026 379 449" stroke-linecap="round"/>
</g>
		<g transform="matrix(1 0 0 1 -5.5 167.9616)" id="Layer_1">
<path style="stroke: rgb(128,128,128); stroke-width: 6; stroke-dasharray: none; stroke-linecap: round; stroke-dashoffset: 0; stroke-linejoin: round; stroke-miterlimit: 4; is-custom-font: none; font-file-url: none; fill: none; fill-rule: nonzero; opacity: 1;" transform=" translate(-300.5, -473.9616)" d="M 369 475 C 366.592102 472.720184 363.666687 472.456238 360.499939 472.461182 C 322.166687 472.521057 283.83313 472.561035 245.500275 472.423553 C 240.64801 472.406158 236.170166 473.015778 232 475.5" stroke-linecap="round"/>
</g>
		<g transform="matrix(1 0 0 1 -4.5497 206.6609)" id="Layer_1">
<path style="stroke: rgb(128,128,128); stroke-width: 13; stroke-dasharray: none; stroke-linecap: round; stroke-dashoffset: 0; stroke-linejoin: round; stroke-miterlimit: 4; is-custom-font: none; font-file-url: none; fill: none; fill-rule: nonzero; opacity: 1;" transform=" translate(-301.4503, -512.6609)" d="M 267 502 C 265.574768 511.171783 273.36795 521.506226 283.007507 522.420959 C 294.976196 523.556641 307.043793 523.700928 318.986389 522.377258 C 328.868164 521.281982 338.541992 509.349976 335.5 502" stroke-linecap="round"/>
</g>
		<g transform="matrix(1 0 0 1 89.1117 55.0898)" id="Layer_1">
<path style="stroke: rgb(128,128,128); stroke-width: 12; stroke-dasharray: none; stroke-linecap: round; stroke-dashoffset: 0; stroke-linejoin: round; stroke-miterlimit: 4; is-custom-font: none; font-file-url: none; fill: none; fill-rule: nonzero; opacity: 1;" transform=" translate(-395.1117, -361.0898)" d="M 396.5 320.5 C 408.692627 321.457245 417.355499 327.947693 424.581543 337.437897 C 433.276367 348.857117 432.947113 361.41861 429.318085 373.947296 C 425.423126 387.394287 415.6539 396.246124 402.434967 400.287231 C 395.823273 402.308502 388.332642 401.859283 381.563965 400.64386 C 377.547943 399.922729 374.042358 395.819 370.534729 392.957397 C 366.975983 390.054169 363.375671 387.664886 358.5 388.5" stroke-linecap="round"/>
</g>
		<g transform="matrix(1 0 0 1 87 -151.4674)" id="Layer_1">
<path style="stroke: rgb(128,128,128); stroke-width: 12; stroke-dasharray: none; stroke-linecap: round; stroke-dashoffset: 0; stroke-linejoin: round; stroke-miterlimit: 4; is-custom-font: none; font-file-url: none; fill: none; fill-rule: nonzero; opacity: 1;" transform=" translate(-393, -154.5325)" d="M 352.5 131.5 C 358.136536 130.541489 361.405151 126.23822 364.964142 122.466164 C 368.422211 118.801102 372.288513 115.109909 376.630798 113.316696 C 381.564667 111.27916 387.540619 110.865479 392.992828 111.1418 C 414.085022 112.210747 427.342194 126.774628 431.997284 144.000732 C 433.951324 151.231659 432.225464 158.719482 433.5 166 C 427.807983 173.814987 425.417297 183.921997 416.545868 189.572006 C 411.798828 192.595276 407.440765 196.156296 401.504211 196.561661 C 401.055481 196.592316 400.666656 197.5 400.25 198" stroke-linecap="round"/>
</g>
		<g transform="matrix(1 0 0 1 -4.375 120.3682)" id="Layer_1">
<path style="stroke: rgb(128,128,128); stroke-width: 13; stroke-dasharray: none; stroke-linecap: round; stroke-dashoffset: 0; stroke-linejoin: round; stroke-miterlimit: 4; is-custom-font: none; font-file-url: none; fill: none; fill-rule: nonzero; opacity: 1;" transform=" translate(-301.625, -426.3683)" d="M 225 426.5 C 226.833328 426.666687 228.666351 426.973816 230.500046 426.978058 C 246.833298 427.015778 263.166687 426.988525 279.499969 427.011261 C 282.218903 427.015045 284.971741 427.153534 287.478027 425.954071 C 288.607788 425.413483 289.38916 425.646851 290.518127 425.926971 C 297.482025 427.654999 304.51947 427.659576 311.475159 425.901672 C 312.336273 425.684052 313.212433 425.414703 313.993805 425.539001 C 334.933014 428.870087 356.009827 426.08609 377.000092 426.997772 C 377.415955 427.015869 377.833344 427 378.25 427" stroke-linecap="round"/>
</g>
		<g transform="matrix(1 0 0 1 136.0613 12.75)" id="Layer_1">
<path style="stroke: rgb(128,128,128); stroke-width: 12; stroke-dasharray: none; stroke-linecap: round; stroke-dashoffset: 0; stroke-linejoin: round; stroke-miterlimit: 4; is-custom-font: none; font-file-url: none; fill: none; fill-rule: nonzero; opacity: 1;" transform=" translate(-442.0613, -318.75)" d="M 450.5 292.5 C 450.631348 298.97049 453.511261 304.929993 453.618958 311.498047 C 453.813202 323.33847 446.151672 339.906097 430.5 345" stroke-linecap="round"/>
</g>
		<g transform="matrix(1 0 0 1 141.3946 -111)" id="Layer_1">
<path style="stroke: rgb(128,128,128); stroke-width: 12; stroke-dasharray: none; stroke-linecap: round; stroke-dashoffset: 0; stroke-linejoin: round; stroke-miterlimit: 4; is-custom-font: none; font-file-url: none; fill: none; fill-rule: nonzero; opacity: 1;" transform=" translate(-447.3946, -195)" d="M 434 166 C 448.020844 170.104538 456.552643 179.382751 460.008331 193.497955 C 462.192169 202.418304 459.723816 214.161057 453.5 224" stroke-linecap="round"/>
</g>
		<g transform="matrix(1 0 0 1 45.9106 29.5)" id="Layer_1">
<path style="stroke: rgb(128,128,128); stroke-width: 6; stroke-dasharray: none; stroke-linecap: round; stroke-dashoffset: 0; stroke-linejoin: round; stroke-miterlimit: 4; is-custom-font: none; font-file-url: none; fill: none; fill-rule: nonzero; opacity: 1;" transform=" translate(-351.9106, -335.5)" d="M 341.5 310.5 C 341.976379 311.9617 343.172791 312.474487 344.48877 313.026794 C 355.982452 317.850342 361.295929 326.497742 362.265045 338.979431 C 362.767365 345.448761 359.812653 349.88266 356.787262 354.35614 C 355.257751 356.617737 355.614746 358.403687 355.5 360.5" stroke-linecap="round"/>
</g>
		<g transform="matrix(1 0 0 1 124.3115 -50.9826)" id="Layer_1">
<path style="stroke: rgb(128,128,128); stroke-width: 12; stroke-dasharray: none; stroke-linecap: round; stroke-dashoffset: 0; stroke-linejoin: round; stroke-miterlimit: 4; is-custom-font: none; font-file-url: none; fill: none; fill-rule: nonzero; opacity: 1;" transform=" translate(-430.3115, -255.0174)" d="M 439.5 275.5 C 440.043579 281.214752 442.664398 285.614532 446.864777 289.641052 C 449.835907 292.489227 452.012421 292.153107 454.473999 289.970673 C 467.440948 278.474457 471.647583 261.436584 466.462555 244.511475 C 464.059021 236.665833 458.168121 230.875015 453.253052 224.696442 C 451.24704 222.174652 446.514526 221.79361 442.997528 220.506744 C 426.233398 214.372757 406.912903 221.719849 398.406982 236.948044 C 397.015015 239.440048 396.016876 243.00441 392 243" stroke-linecap="round"/>
</g>
		<g transform="matrix(1 0 0 1 63.5 -35.5637)" id="Layer_1">
<path style="stroke: rgb(128,128,128); stroke-width: 6; stroke-dasharray: none; stroke-linecap: round; stroke-dashoffset: 0; stroke-linejoin: round; stroke-miterlimit: 4; is-custom-font: none; font-file-url: none; fill: none; fill-rule: nonzero; opacity: 1;" transform=" translate(-369.5, -270.4363)" d="M 341.5 256.5 C 345.63089 260.132324 346.221985 265.771881 349.344238 270.11203 C 354.984802 277.952881 362.652344 283.097656 371.543701 284.119995 C 380.726471 285.175842 390.197876 283.007202 397.5 276" stroke-linecap="round"/>
</g>
		<g transform="matrix(1 0 0 1 48.75 -94.5232)" id="Layer_1">
<path style="stroke: rgb(128,128,128); stroke-width: 6; stroke-dasharray: none; stroke-linecap: round; stroke-dashoffset: 0; stroke-linejoin: round; stroke-miterlimit: 4; is-custom-font: none; font-file-url: none; fill: none; fill-rule: nonzero; opacity: 1;" transform=" translate(-354.75, -211.4768)" d="M 342.5 200.5 C 343.618439 206.895248 345.897156 212.743973 350.499725 217.500259 C 355.858124 223.037567 359.899811 223.773407 367 220.5" stroke-linecap="round"/>
</g>
		<g transform="matrix(1 0 0 1 121 -53.0026)" id="Layer_1">
<path style="stroke: rgb(128,128,128); stroke-width: 6; stroke-dasharray: none; stroke-linecap: round; stroke-dashoffset: 0; stroke-linejoin: round; stroke-miterlimit: 4; is-custom-font: none; font-file-url: none; fill: none; fill-rule: nonzero; opacity: 1;" transform=" translate(-427, -252.9973)" d="M 439.5 246.5 C 437.594757 246.418259 436.335815 247.278885 435.485779 248.99295 C 431.555786 256.917847 424.939514 259.514069 416.493958 258.55304 C 415.873291 258.482391 415.166656 259.166656 414.5 259.5" stroke-linecap="round"/>
</g>
		<g transform="matrix(1 0 0 1 77.2647 -141.1304)" id="Layer_1">
<path style="stroke: rgb(128,128,128); stroke-width: 6; stroke-dasharray: none; stroke-linecap: round; stroke-dashoffset: 0; stroke-linejoin: round; stroke-miterlimit: 4; is-custom-font: none; font-file-url: none; fill: none; fill-rule: nonzero; opacity: 1;" transform=" translate(-383.2646, -164.8697)" d="M 395.5 149 C 393.21756 147.661667 391.315338 148.278259 388.951111 149.396622 C 380.106812 153.580215 375.808105 161.761856 371.869537 169.683731 C 370.449646 172.539703 371.190918 177.5 371.5 181.5" stroke-linecap="round"/>
</g>
		<g transform="matrix(1 0 0 1 67.375 46.75)" id="Layer_1">
<path style="stroke: rgb(128,128,128); stroke-width: 6; stroke-dasharray: none; stroke-linecap: round; stroke-dashoffset: 0; stroke-linejoin: round; stroke-miterlimit: 4; is-custom-font: none; font-file-url: none; fill: none; fill-rule: nonzero; opacity: 1;" transform=" translate(-373.375, -352.75)" d="M 363 345.5 C 363.833344 346 364.982971 346.298309 365.4505 347.031555 C 369.596405 353.533966 375.44165 357.393036 382.991486 358.795746 C 383.307983 358.854553 383.5 359.583344 383.75 360" stroke-linecap="round"/>
</g>
		<g transform="matrix(1 0 0 1 65.9205 -13.75)" id="Layer_1">
<path style="stroke: rgb(128,128,128); stroke-width: 6; stroke-dasharray: none; stroke-linecap: round; stroke-dashoffset: 0; stroke-linejoin: round; stroke-miterlimit: 4; is-custom-font: none; font-file-url: none; fill: none; fill-rule: nonzero; opacity: 1;" transform=" translate(-371.9205, -292.25)" d="M 371 285 C 369.371857 290.257721 370.971252 294.958984 373.5 299.5" stroke-linecap="round"/>
</g>
		<g transform="matrix(1 0 0 1 56.5 -136.6437)" id="Layer_1">
<path style="stroke: rgb(128,128,128); stroke-width: 7; stroke-dasharray: none; stroke-linecap: round; stroke-dashoffset: 0; stroke-linejoin: round; stroke-miterlimit: 4; is-custom-font: none; font-file-url: none; fill: none; fill-rule: nonzero; opacity: 1;" transform=" translate(-362.5, -169.3563)" d="M 354.5 168.5 C 359.868408 168.625916 365.03476 170.907074 370.5 170" stroke-linecap="round"/>
</g>
		<g transform="matrix(1 0 0 1 131 -22)" id="Layer_1">
<path style="stroke: rgb(128,128,128); stroke-width: 3; stroke-dasharray: none; stroke-linecap: round; stroke-dashoffset: 0; stroke-linejoin: round; stroke-miterlimit: 4; is-custom-font: none; font-file-url: none; fill: none; fill-rule: nonzero; opacity: 1;" transform=" translate(-437, -284)" d="M 440.5 283.5 C 438.166656 283.833313 435.833344 284.166656 433.5 284.5" stroke-linecap="round"/>
</g>
		<g transform="matrix(1 0 0 1 53.7753 -172.75)" id="Layer_1">
<path style="stroke: rgb(128,128,128); stroke-width: 3; stroke-dasharray: none; stroke-linecap: round; stroke-dashoffset: 0; stroke-linejoin: round; stroke-miterlimit: 4; is-custom-font: none; font-file-url: none; fill: none; fill-rule: nonzero; opacity: 1;" transform=" translate(-359.7753, -133.25)" d="M 359 130 C 359.472839 132.172928 360.827515 134.142365 360.5 136.5" stroke-linecap="round"/>
</g>
		<g transform="matrix(1 0 0 1 60.546 79.75)" id="Layer_1">
<path style="stroke: rgb(128,128,128); stroke-width: 3; stroke-dasharray: none; stroke-linecap: round; stroke-dashoffset: 0; stroke-linejoin: round; stroke-miterlimit: 4; is-custom-font: none; font-file-url: none; fill: none; fill-rule: nonzero; opacity: 1;" transform=" translate(-366.546, -385.75)" d="M 367 382.5 C 367.616913 384.812866 365.703583 386.73645 366 389" stroke-linecap="round"/>
</g>
</g>
</g>
</svg>