<svg width="8" height="14" viewBox="0 0 8 14" fill="none" xmlns="http://www.w3.org/2000/svg">
<path d="M4.23989 6.23555C2.66656 5.83555 2.15989 5.39999 2.15989 4.7511C2.15989 4.00444 2.86211 3.47999 4.02656 3.47999C5.25322 3.47999 5.71545 4.06666 5.751 4.93777H7.271C7.22656 3.74666 6.49767 2.65333 5.05767 2.29777V0.777771H2.98656V2.27999C1.64434 2.56444 0.568781 3.43555 0.568781 4.77777C0.568781 6.36888 1.89322 7.16888 3.82211 7.6311C5.55545 8.03999 5.90211 8.65333 5.90211 9.29333C5.90211 9.76444 5.55545 10.5289 4.03545 10.5289C2.61322 10.5289 2.05323 9.88888 1.97323 9.0711H0.444336C0.533225 10.5822 1.65322 11.4355 2.98656 11.7111V13.2222H5.06656V11.7378C6.41767 11.48 7.48434 10.7067 7.49323 9.27555C7.48434 7.31999 5.80434 6.64444 4.23989 6.23555Z" fill="black"/>
</svg>
