<svg width="18" height="18" viewBox="0 0 18 18" fill="none" xmlns="http://www.w3.org/2000/svg">
<path d="M9 18C7.9 18 6.95799 17.6083 6.17499 16.825C5.39199 16.0417 5 15.1 5 14H2C1.45 14 0.979013 13.8042 0.588013 13.4125C0.196013 13.0208 0 12.55 0 12C0 9.6667 0.766988 7.6542 2.29999 5.9625C3.83299 4.27083 5.733 3.3 8 3.05V0H10V3.05C12.267 3.3 14.167 4.27083 15.7 5.9625C17.233 7.6542 18 9.6667 18 12C18 12.55 17.804 13.0208 17.413 13.4125C17.021 13.8042 16.55 14 16 14H13C13 15.1 12.608 16.0417 11.825 16.825C11.042 17.6083 10.1 18 9 18ZM2 12H16C16 10.0667 15.317 8.4167 13.95 7.05C12.583 5.68333 10.933 5 9 5C7.067 5 5.41699 5.68333 4.04999 7.05C2.68299 8.4167 2 10.0667 2 12ZM9 16C9.55 16 10.021 15.8042 10.413 15.4125C10.804 15.0208 11 14.55 11 14H7C7 14.55 7.19601 15.0208 7.58801 15.4125C7.97901 15.8042 8.45 16 9 16Z" fill="#808080"/>
</svg>
