<svg width="19" height="18" viewBox="0 0 19 18" fill="none" xmlns="http://www.w3.org/2000/svg">
<path d="M9.5 18C8.4 18 7.45799 17.6083 6.67499 16.825C5.89199 16.0417 5.5 15.1 5.5 14H2.5C1.95 14 1.47901 13.8042 1.08801 13.4125C0.696013 13.0208 0.5 12.55 0.5 12C0.5 9.6667 1.26699 7.6542 2.79999 5.9625C4.33299 4.27083 6.233 3.3 8.5 3.05V0H10.5V3.05C12.767 3.3 14.667 4.27083 16.2 5.9625C17.733 7.6542 18.5 9.6667 18.5 12C18.5 12.55 18.304 13.0208 17.913 13.4125C17.521 13.8042 17.05 14 16.5 14H13.5C13.5 15.1 13.108 16.0417 12.325 16.825C11.542 17.6083 10.6 18 9.5 18ZM2.5 12H16.5C16.5 10.0667 15.817 8.4167 14.45 7.05C13.083 5.68333 11.433 5 9.5 5C7.567 5 5.91699 5.68333 4.54999 7.05C3.18299 8.4167 2.5 10.0667 2.5 12ZM9.5 16C10.05 16 10.521 15.8042 10.913 15.4125C11.304 15.0208 11.5 14.55 11.5 14H7.5C7.5 14.55 7.69601 15.0208 8.08801 15.4125C8.47901 15.8042 8.95 16 9.5 16Z" fill="#808080"/>
</svg>
