<svg width="24" height="22" viewBox="0 0 24 22" fill="none" xmlns="http://www.w3.org/2000/svg">
<path d="M12.0002 4.03046L10.9247 2.94953C8.4001 0.412203 3.77096 1.2878 2.09991 4.47779C1.31538 5.97819 1.13838 8.14445 2.57092 10.9091C3.95096 13.5711 6.82205 16.7596 12.0002 20.2327C17.1784 16.7596 20.048 13.5711 21.4295 10.9091C22.862 8.14298 22.6865 5.97819 21.9005 4.47779C20.2295 1.2878 15.6003 0.410737 13.0757 2.94806L12.0002 4.03046ZM12.0002 22C-11 7.13978 4.91849 -4.45858 11.7362 1.67647C11.8262 1.75713 11.9147 1.84073 12.0002 1.92726C12.0848 1.84081 12.1729 1.75764 12.2642 1.67793C19.0804 -4.46151 35.0004 7.13831 12.0002 22Z" fill="#808080"/>
</svg>
