<svg width="14" height="20" viewBox="0 0 14 20" fill="none" xmlns="http://www.w3.org/2000/svg">
<path d="M3.05 12.74V12.714L3.02872 12.6991C1.23132 11.4379 0.05 9.36282 0.05 7C0.05 3.16761 3.16761 0.05 7 0.05C10.8324 0.05 13.95 3.16761 13.95 7C13.95 9.36282 12.7687 11.4379 10.9713 12.6991L10.95 12.714V12.74V15C10.95 15.5224 10.5224 15.95 10 15.95H4C3.47761 15.95 3.05 15.5224 3.05 15V12.74ZM9 14.05H9.05V14V11.7259L9.87857 11.141C9.87863 11.141 9.87869 11.1409 9.87875 11.1409C11.242 10.1916 12.05 8.64639 12.05 7C12.05 4.21239 9.78761 1.95 7 1.95C4.21239 1.95 1.95 4.21239 1.95 7C1.95 8.64639 2.75802 10.1916 4.12125 11.1409C4.12131 11.1409 4.12137 11.141 4.12143 11.141L4.95 11.7259V14V14.05H5H9ZM5 19.95C4.47761 19.95 4.05 19.5224 4.05 19V18.05H9.95V19C9.95 19.5224 9.52239 19.95 9 19.95H5Z" fill="#808080" stroke="white" stroke-width="0.1"/>
</svg>
