<svg width="22" height="20" viewBox="0 0 22 20" fill="none" xmlns="http://www.w3.org/2000/svg">
<path d="M0 18V8L7 3L14 8V8.675C13.617 8.85833 13.258 9.0708 12.925 9.3125C12.592 9.5542 12.283 9.825 12 10.125V9L7 5.45L2 9V16H4V11H10V16H10.075C10.125 16.35 10.2 16.6917 10.3 17.025C10.4 17.3583 10.525 17.6833 10.675 18H8V13H6V18H0ZM22 0V10.125C21.717 9.825 21.408 9.5542 21.075 9.3125C20.742 9.0708 20.383 8.85833 20 8.675V2H11V3.4L9 1.95V0H22ZM16 6H18V4H16V6ZM17 20C15.617 20 14.438 19.5125 13.463 18.5375C12.488 17.5625 12 16.3833 12 15C12 13.6167 12.488 12.4375 13.463 11.4625C14.438 10.4875 15.617 10 17 10C18.383 10 19.562 10.4875 20.538 11.4625C21.513 12.4375 22 13.6167 22 15C22 16.3833 21.513 17.5625 20.538 18.5375C19.562 19.5125 18.383 20 17 20ZM16.5 18H17.5V15.5H20V14.5H17.5V12H16.5V14.5H14V15.5H16.5V18Z" fill="#808080"/>
</svg>
