<svg width="22" height="22" viewBox="0 0 22 22" fill="none" xmlns="http://www.w3.org/2000/svg">
<path d="M2.99999 21.5V11.6562L1.2 13.1L0 11.42L2.99999 9.00497V5.74999H5V7.40374L11 2.6L22 11.42L20.8 13.0737L19 11.6562V21.5H2.99999ZM5 19.4H10V15.1999H12V19.4H17V10.055L11 5.25124L5 10.055V19.4ZM2.99999 4.69999C2.99999 3.825 3.29166 3.08124 3.875 2.46875C4.45832 1.85625 5.16666 1.55 5.99999 1.55C6.28332 1.55 6.52082 1.44937 6.71249 1.24812C6.90416 1.04687 7.00002 0.7975 7.00002 0.5H8.99999C8.99999 1.375 8.70832 2.11874 8.12498 2.73124C7.54164 3.34374 6.83329 3.65 5.99999 3.65C5.71666 3.65 5.47916 3.75062 5.2875 3.95187C5.09583 4.15312 5 4.40249 5 4.69999H2.99999Z" fill="#ED0641"/>
</svg>
