<svg width="21" height="22" viewBox="0 0 21 22" fill="none" xmlns="http://www.w3.org/2000/svg">
<path d="M18 13V6.5L13 3L8 6.5V8H6V5.5L13 0.5L20 5.5V13H18ZM13.5 7H14.5V6H13.5V7ZM11.5 7H12.5V6H11.5V7ZM13.5 9H14.5V8H13.5V9ZM11.5 9H12.5V8H11.5V9ZM13 21.5L6 19.55V21H0V10H7.95001L14.15 12.3C14.7 12.5 15.146 12.85 15.488 13.35C15.829 13.85 16 14.4 16 15H18C18.833 15 19.542 15.275 20.125 15.825C20.708 16.375 21 17.1 21 18V19L13 21.5ZM2 19H4V12H2V19ZM12.95 19.4L18.9 17.55C18.85 17.3667 18.737 17.2292 18.562 17.1375C18.388 17.0458 18.2 17 18 17H13.2C12.683 17 12.217 16.9667 11.8 16.9C11.383 16.8333 10.933 16.7167 10.45 16.55L8.72498 15.95L9.29999 14.05L11.3 14.7C11.6 14.8 11.95 14.875 12.35 14.925C12.75 14.975 13.3 15 14 15C14 14.8167 13.946 14.6417 13.838 14.475C13.729 14.3083 13.6 14.2 13.45 14.15L7.59998 12H6V17.5L12.95 19.4Z" fill="#808080"/>
</svg>
