<svg width="25" height="24" viewBox="0 0 25 24" fill="none" xmlns="http://www.w3.org/2000/svg">
<rect x="0.5" width="24" height="24" rx="12" fill="#0A66C2"/>
<path d="M16.281 17H18.2323C18.303 17 18.3709 16.9719 18.4209 16.9218C18.4709 16.8717 18.499 16.8038 18.499 16.7329L18.5 12.6029C18.5 10.4443 18.0357 8.78502 15.5175 8.78502C14.5602 8.74936 13.6575 9.24369 13.1703 10.0691C13.168 10.0731 13.1643 10.0763 13.16 10.078C13.1557 10.0798 13.1509 10.0801 13.1464 10.0788C13.1419 10.0776 13.138 10.075 13.1351 10.0713C13.1323 10.0676 13.1307 10.0631 13.1307 10.0584V9.25144C13.1307 9.18059 13.1026 9.11265 13.0526 9.06255C13.0026 9.01245 12.9347 8.98431 12.864 8.98431H11.0122C10.9415 8.98431 10.8736 9.01245 10.8236 9.06255C10.7736 9.11265 10.7455 9.18059 10.7455 9.25144V16.7325C10.7455 16.8034 10.7736 16.8713 10.8236 16.9214C10.8736 16.9715 10.9415 16.9997 11.0122 16.9997H12.9634C13.0341 16.9997 13.102 16.9715 13.152 16.9214C13.202 16.8713 13.2301 16.8034 13.2301 16.7325V13.0345C13.2301 11.9889 13.4281 10.9763 14.7221 10.9763C15.9978 10.9763 16.0143 12.1728 16.0143 13.1022V16.7329C16.0143 16.8037 16.0424 16.8717 16.0924 16.9218C16.1424 16.9719 16.2103 17 16.281 17ZM6.5 6.44433C6.5 7.23671 7.15113 7.88866 7.94213 7.88866C8.73293 7.88859 9.38367 7.23625 9.38367 6.44406C9.38353 5.65187 8.73273 5 7.94187 5C7.1508 5 6.5 5.65201 6.5 6.44433ZM6.96393 17H8.91773C8.98846 17 9.05629 16.9719 9.1063 16.9218C9.15631 16.8717 9.1844 16.8037 9.1844 16.7329V9.25144C9.1844 9.18059 9.15631 9.11265 9.1063 9.06255C9.05629 9.01245 8.98846 8.98431 8.91773 8.98431H6.96393C6.89321 8.98431 6.82538 9.01245 6.77537 9.06255C6.72536 9.11265 6.69727 9.18059 6.69727 9.25144V16.7329C6.69727 16.8037 6.72536 16.8717 6.77537 16.9218C6.82538 16.9719 6.89321 17 6.96393 17Z" fill="white"/>
</svg>
