<svg width="21" height="20" viewBox="0 0 21 20" fill="none" xmlns="http://www.w3.org/2000/svg">
<path fill-rule="evenodd" clip-rule="evenodd" d="M18.3134 5.61792C19.3242 5.82953 20.168 6.64387 20.4127 7.64375C20.6834 8.75219 20.2737 9.8785 19.3856 10.5447V15.5556C19.3856 16.3746 18.9355 17.0833 18.2744 17.4688V18.3333C18.2744 19.2524 17.5267 20 16.6076 20C15.6884 20 14.9408 19.2524 14.9408 18.3333V17.7778H6.05115V18.3333C6.05115 19.2524 5.3035 20 4.38434 20C3.46517 20 2.71751 19.2524 2.71751 18.3333V17.4688C2.05647 17.0833 1.60632 16.3746 1.60632 15.5556V10.5442C0.913971 10.0223 0.495117 9.20194 0.495117 8.33331C0.495117 7.51737 0.852148 6.74587 1.47397 6.21687C1.88876 5.86432 2.39673 5.66099 2.9284 5.59359C3.68079 2.33339 6.54777 0 9.9403 0H11.0515C14.4447 0 17.3112 2.33292 18.0632 5.59349C18.0957 5.59738 18.1281 5.59928 18.1604 5.60119C18.2114 5.60421 18.2624 5.60721 18.3134 5.61792ZM11.0506 1.11109H9.93956C7.12743 1.11109 4.74506 3.00698 4.05027 5.67646C5.20839 6.02214 6.05069 7.15369 6.05069 8.45213V11.1111H14.9396V8.33331C14.9396 7.49294 15.3139 6.70675 15.9671 6.1762C16.2568 5.94114 16.5902 5.78161 16.9405 5.67953C16.2463 3.00802 13.864 1.11109 11.0506 1.11109ZM16.0507 12.7778C16.0507 13.0843 15.8017 13.3333 15.4951 13.3333H5.49511C5.1886 13.3333 4.93954 13.0843 4.93954 12.7778C4.93954 12.4712 5.18855 12.2222 5.49511 12.2222H15.4951C15.8016 12.2222 16.0507 12.4712 16.0507 12.7778ZM4.38397 18.8889C4.69053 18.8889 4.93954 18.6398 4.93954 18.3333V17.7778H3.82845V18.3333C3.82845 18.6398 4.07746 18.8889 4.38397 18.8889ZM17.1617 18.3333C17.1617 18.6398 16.9127 18.8889 16.6062 18.8889C16.2997 18.8889 16.0506 18.6399 16.0506 18.3333V17.7778H17.1617V18.3333ZM18.2729 10.2474C18.2729 10.0494 18.3781 9.8665 18.549 9.76725C19.2071 9.38419 19.5142 8.6545 19.3314 7.90744C19.1866 7.3145 18.6852 6.83106 18.0841 6.70519C17.5682 6.59725 17.0652 6.71606 16.6676 7.03888C16.2753 7.35731 16.0507 7.82875 16.0507 8.33331V11.2134C16.6959 11.4436 17.1617 12.0544 17.1617 12.7778C17.1617 13.6968 16.4142 14.4444 15.4951 14.4444H5.49512C4.57605 14.4444 3.82845 13.6968 3.82845 12.7778C3.82845 12.0544 4.29428 11.4436 4.93954 11.2134V8.45213C4.93954 7.57594 4.3449 6.818 3.55662 6.69C3.05803 6.60863 2.57246 6.741 2.19376 7.06325C1.82054 7.38063 1.60621 7.84394 1.60621 8.33331C1.60621 8.92687 1.91819 9.46294 2.44121 9.76725C2.61209 9.86706 2.71735 10.0499 2.71735 10.2474V15.5556C2.71735 16.1681 3.21595 16.6667 3.82845 16.6667H17.1617C17.7742 16.6667 18.2729 16.1681 18.2729 15.5556V10.2474Z" fill="#808080"/>
</svg>
