<?xml version="1.0" standalone="no"?>
<!DOCTYPE svg PUBLIC "-//W3C//DTD SVG 20010904//EN"
 "http://www.w3.org/TR/2001/REC-SVG-20010904/DTD/svg10.dtd">
<svg version="1.0" xmlns="http://www.w3.org/2000/svg"
 width="450.000000pt" height="450.000000pt" viewBox="0 0 450.000000 450.000000"
 preserveAspectRatio="xMidYMid meet">

<g transform="translate(0.000000,450.000000) scale(0.100000,-0.100000)"
fill="#000000" stroke="none">
<path d="M2030 3855 c-532 -73 -990 -404 -1233 -890 -258 -517 -213 -1152 115
-1627 307 -445 805 -708 1340 -708 541 0 1058 281 1354 735 527 811 237 1890
-626 2329 -293 149 -625 205 -950 161z m332 -606 c183 -38 328 -192 357 -379
6 -36 11 -123 11 -195 0 -231 -32 -336 -135 -444 -92 -97 -200 -141 -345 -141
-145 0 -253 44 -345 141 -103 108 -135 213 -135 444 0 231 32 336 135 444 111
117 284 166 457 130z m371 -1344 c211 -55 363 -229 398 -455 13 -87 3 -113
-44 -108 -31 3 -31 3 -44 88 -29 188 -137 321 -308 380 -55 19 -84 20 -485 20
-401 0 -430 -1 -485 -20 -171 -59 -279 -192 -308 -380 -13 -85 -13 -85 -44
-88 -47 -5 -57 21 -44 108 35 224 186 399 394 455 79 21 889 21 970 0z"/>
<path d="M2147 3160 c-102 -26 -197 -102 -242 -194 -37 -75 -48 -168 -43 -341
6 -162 19 -218 74 -297 129 -186 451 -199 607 -24 73 81 97 174 97 371 0 206
-28 300 -113 386 -66 66 -150 101 -255 105 -48 2 -104 -1 -125 -6z"/>
</g>
</svg>
