<svg version="1.1" id="Layer_1" xmlns="http://www.w3.org/2000/svg" xmlns:xlink="http://www.w3.org/1999/xlink" x="0px" y="0px"
	 width="100%" viewBox="0 0 832 800" enable-background="new 0 0 832 800" xml:space="preserve">
<path fill="#000000" opacity="1.000000" stroke="none" 
	d="
M565.021667,506.773193 
	C604.088562,508.822113 642.706177,510.272949 681.224976,513.080627 
	C710.695129,515.228760 738.770630,523.384766 765.378174,536.610352 
	C787.454529,547.583618 799.940063,566.167725 808.413818,588.265686 
	C817.336792,611.535095 821.951965,635.553650 821.398010,660.561707 
	C821.084351,674.720825 821.399231,688.892700 821.318970,703.058228 
	C821.110046,739.954834 789.845032,773.474426 753.101135,776.455505 
	C734.454468,777.968262 715.789978,777.105286 697.140198,777.116089 
	C497.819580,777.231384 298.498810,777.203430 99.178085,777.209167 
	C61.712772,777.210266 30.362411,752.974609 22.462700,717.775818 
	C21.484776,713.418335 20.786621,708.899231 20.745218,704.447693 
	C20.566977,685.283752 20.054077,666.091431 20.837917,646.957581 
	C22.006765,618.425476 29.523314,591.476746 43.822914,566.583130 
	C51.278843,553.603333 62.130749,544.290588 75.237816,537.382812 
	C100.025375,524.318970 126.592278,517.098267 154.251251,513.790222 
	C172.613846,511.594116 191.138901,511.573761 209.593994,510.613678 
	C237.027100,509.186554 264.449371,507.550964 291.875946,505.998840 
	C298.524750,505.622620 305.185394,505.371490 311.815430,504.780396 
	C315.356232,504.464691 317.319763,505.947510 318.971832,508.875885 
	C339.518402,545.295227 360.098969,581.695496 380.761017,618.049438 
	C386.272003,627.745667 391.194214,637.805969 397.714233,646.897827 
	C411.130157,665.605713 429.733673,666.451843 444.258118,648.618225 
	C453.545807,637.214355 459.775757,623.771484 467.283356,611.194641 
	C487.606842,577.148315 507.664185,542.942932 527.770996,508.767670 
	C529.267212,506.224670 530.866211,504.925964 534.113403,505.163269 
	C544.237000,505.903046 554.388977,506.255920 565.021667,506.773193 
z"/>
<path fill="#000000" opacity="1.000000" stroke="none" 
	d="
M601.110596,132.944214 
	C622.481995,163.863785 635.359192,197.686462 638.739624,234.726883 
	C641.441650,264.334229 638.881836,293.650238 629.163818,321.985443 
	C627.493652,326.855438 628.613281,328.961060 633.173218,330.979462 
	C674.895569,349.447510 716.523865,368.128113 758.189758,386.723755 
	C770.660217,392.289337 783.140259,397.834473 795.656006,403.297180 
	C814.877563,411.686798 822.939880,431.897980 814.136658,451.072662 
	C808.373108,463.626617 802.188232,476.016632 795.578918,488.145996 
	C785.092102,507.391449 762.685303,513.009521 744.667419,500.445374 
	C710.921265,476.913605 677.569641,452.816010 644.057556,428.948669 
	C628.861633,418.126160 613.684570,407.277252 598.478821,396.468658 
	C591.775391,391.703705 591.605957,391.606720 586.357849,397.573395 
	C564.539246,422.379700 538.464355,441.266754 508.050964,454.134247 
	C486.727570,463.155853 464.565186,468.604065 441.415283,470.425598 
	C402.097870,473.519257 364.572998,466.791504 329.490479,449.044220 
	C271.002930,419.457062 232.711014,372.794037 215.920700,309.294800 
	C202.296188,257.768219 208.192871,207.784515 231.642975,160.182419 
	C251.321213,120.236946 281.138062,89.408737 320.145447,67.803040 
	C348.052521,52.345699 377.891693,43.180824 409.935516,41.588428 
	C489.775513,37.620831 552.975159,68.542320 600.616272,132.244186 
	C600.715881,132.377380 600.813477,132.512161 601.110596,132.944214 
M543.305237,151.191345 
	C498.516693,100.760353 429.730743,84.690346 368.291931,107.848320 
	C300.253235,133.493988 257.427185,202.793396 267.196136,276.564728 
	C271.985840,312.734955 287.023651,344.153595 313.354950,369.041626 
	C360.114502,413.238098 415.136230,426.061462 476.362152,405.738312 
	C544.441467,383.140259 592.950684,313.613800 581.330444,232.075256 
	C577.009155,201.753311 564.009155,174.898193 543.305237,151.191345 
z"/>
<path fill="#000000" opacity="1.000000" stroke="none" 
	d="
M430.696594,622.593567 
	C429.288361,624.485840 428.242737,626.230774 426.850677,627.631348 
	C421.819397,632.693481 416.010193,632.485596 411.194763,627.230408 
	C409.024353,624.861755 407.575226,622.055786 406.300110,619.156677 
	C400.138062,605.146545 394.056366,591.100708 387.815704,577.125793 
	C386.466766,574.105042 386.840088,571.883667 389.204895,569.555237 
	C396.081451,562.784424 402.663422,555.709534 409.651947,549.059753 
	C412.961639,545.910461 413.589783,543.692688 409.970856,540.234314 
	C405.171143,535.647522 401.016754,530.392761 396.435364,525.567261 
	C393.912628,522.910095 394.163818,521.334595 397.459442,519.566101 
	C404.200378,515.948730 410.762573,511.998108 417.395905,508.180420 
	C419.321075,507.072418 421.214142,506.173309 423.459503,507.506622 
	C431.732727,512.419250 440.035248,517.282471 448.354462,522.180603 
	C447.623901,526.203430 444.434814,527.880981 442.333038,530.285156 
	C439.161621,533.912903 435.739990,537.340942 432.232147,540.649780 
	C429.080536,543.622559 428.773315,546.052612 432.037842,549.382812 
	C439.139130,556.627075 445.800079,564.300964 452.800598,571.647156 
	C455.271851,574.240417 455.412445,576.404480 453.679779,579.572937 
	C445.938171,593.730164 438.468292,608.036011 430.696594,622.593567 
z"/>
<path fill="#000000" opacity="1.000000" stroke="none" 
	d="
M393.838013,122.695709 
	C403.850983,120.322723 413.621429,119.544449 423.464020,119.563087 
	C428.757568,119.573105 431.971985,122.286469 432.091644,126.603081 
	C432.211182,130.916641 428.631927,134.198700 423.458252,134.333267 
	C401.915924,134.893570 381.514191,139.921646 363.118896,151.244720 
	C326.056885,174.057922 305.726105,207.184799 303.162628,250.881180 
	C303.045837,252.872253 303.113831,254.905640 302.719055,256.842529 
	C301.848785,261.112366 299.396973,263.706268 294.705963,263.320648 
	C290.077606,262.940216 287.921356,260.100281 287.726532,255.721664 
	C287.414581,248.710617 287.826691,241.694550 289.182526,234.827332 
	C300.577606,177.112564 334.480042,139.914627 391.030060,123.462669 
	C391.829376,123.230118 392.631195,123.006004 393.838013,122.695709 
z"/>
</svg>