<svg width="8" height="16" viewBox="0 0 8 16" fill="none" xmlns="http://www.w3.org/2000/svg">
<path d="M-5.82818e-07 2.00001L-5.82818e-08 14C-2.62268e-08 14.7333 0.6 15.3333 1.33333 15.3333L6.66667 15.3333C7.4 15.3333 8 14.7333 8 14L8 2.00001C8 1.26668 7.4 0.666677 6.66667 0.666677L1.33333 0.666678C0.599999 0.666678 -6.14873e-07 1.26668 -5.82818e-07 2.00001ZM6.66667 2.00001L6.66667 14L1.33333 14L1.33333 12.6667L4 12.6667L4 11.3333L1.33333 11.3333L1.33333 10L4 10L4 8.66668L1.33333 8.66668L1.33333 7.33334L4 7.33334L4 6.00001L1.33333 6.00001L1.33333 4.66668L4 4.66668L4 3.33334L1.33333 3.33334L1.33333 2.00001L6.66667 2.00001Z" fill="black"/>
</svg>
