<svg width="21" height="20" viewBox="0 0 21 20" fill="none" xmlns="http://www.w3.org/2000/svg">
<path fill-rule="evenodd" clip-rule="evenodd" d="M19.2304 2.67723V7.058C20.2035 7.058 20.9951 7.84969 20.9951 8.82281V12.9408H19.8186V15.2938H18.6422V18.8234H19.8186V20H16.2892V18.8234H17.4657V15.2938H16.2892V12.9408H5.701V15.2938H4.52453V18.8234H5.701V20H2.17159V18.8234H3.34806V15.2938H2.17159V12.9408H0.995117V7.058H2.17159H7.99512H8.05393V9.41106H14.5246V8.82281C14.5246 8.05588 15.0163 7.402 15.701 7.15919C16.1241 7.04874 16.8775 7.058 16.8775 7.058H18.0539V2.67723C18.0539 1.34781 16.4471 0.680557 15.5053 1.61763L15.2749 1.84694C15.8057 2.74881 15.6844 3.93139 14.9109 4.70493L14.0791 5.53687L10.7515 2.20908L11.5834 1.37715C12.3576 0.60298 13.5413 0.48207 14.4434 1.01446L14.6756 0.7835C16.362 -0.894293 19.2304 0.301313 19.2304 2.67723ZM12.4152 2.20908L14.0791 3.87299C14.5377 3.41422 14.5377 2.66782 14.0791 2.20908C13.6192 1.74925 12.8749 1.74933 12.4152 2.20908ZM6.87747 8.23456H2.17159V9.41113H6.87747V8.23456ZM4.52453 14.1173H3.34806V12.9408H4.52453V14.1173ZM17.4657 12.9408V14.1173H18.6422V12.9408H17.4657ZM19.8186 11.7642H2.17159V10.5877H19.8186V11.7642ZM15.701 8.82288V9.41113H19.8186V8.82288C19.8186 8.4985 19.5548 8.23456 19.2304 8.23456H16.2892C15.9649 8.23456 15.701 8.4985 15.701 8.82288Z" fill="#808080"/>
</svg>
