<svg width="21" height="20" viewBox="0 0 21 20" fill="none" xmlns="http://www.w3.org/2000/svg">
<path d="M10.5 0C4.98 0 0.5 4.48 0.5 10C0.5 15.52 4.98 20 10.5 20C16.02 20 20.5 15.52 20.5 10C20.5 4.48 16.02 0 10.5 0ZM2.5 10C2.5 9.39 2.58 8.79 2.71 8.22L7.49 13V14C7.49 15.1 8.39 16 9.49 16V17.93C5.56 17.43 2.5 14.07 2.5 10ZM16.39 15.4C16.13 14.59 15.39 14 14.49 14H13.49V11C13.49 10.45 13.04 10 12.49 10H6.49V8H8.49C9.04 8 9.49 7.55 9.49 7V5H11.49C12.59 5 13.49 4.1 13.49 3V2.59C16.42 3.77 18.5 6.65 18.5 10C18.5 12.08 17.69 13.98 16.39 15.4Z" fill="#ED0641"/>
</svg>
